<svg width="347" height="136" viewBox="0 0 347 136" fill="none" xmlns="http://www.w3.org/2000/svg">
<path d="M102.87 72.5954C102.87 92.0954 102.87 132.695 102.87 133.695H95.6699C95.6699 133.695 95.8699 94.9954 95.6699 76.1954C95.5699 70.7954 93.5699 64.3954 89.5699 60.0954C83.1699 53.1954 66.6699 52.2954 60.2699 62.1954C57.2699 66.7954 55.0699 71.7954 54.9699 77.1954C54.9699 94.7954 54.9699 133.795 54.9699 133.795H47.8699C47.8699 133.795 47.8699 94.8954 47.8699 77.0954C47.8699 72.9954 46.7699 68.6954 45.2699 64.7954C42.8699 58.4954 37.6699 55.2954 30.9699 54.8954C16.3699 54.0954 7.76991 62.7954 7.66991 78.5954C7.56991 95.7954 7.66991 132.395 7.66991 133.695H0.46991C0.46991 132.795 0.46991 76.5954 0.46991 51.2954C0.46991 49.2954 2.06991 47.6954 4.06991 47.6954C6.06991 47.6954 7.66991 49.2954 7.66991 51.2954V60.1954C13.4699 50.5954 21.4699 46.7954 31.4699 47.1954C41.4699 47.5954 49.2699 51.7954 53.5699 61.5954C57.7699 54.9954 62.9699 49.8954 70.6699 48.0954C87.2699 44.1954 102.87 52.5954 102.87 72.5954ZM123.17 45.7954C125.17 45.7954 126.77 44.1954 126.77 42.1954V34.1954C126.77 32.1954 125.17 30.5954 123.17 30.5954C121.17 30.5954 119.57 32.1954 119.57 34.1954V42.1954C119.67 44.1954 121.27 45.7954 123.17 45.7954ZM247.47 122.795C249.47 122.795 251.07 121.195 251.07 119.195V111.195C251.07 109.195 249.47 107.595 247.47 107.595C245.47 107.595 243.87 109.195 243.87 111.195V119.195C243.87 121.195 245.47 122.795 247.47 122.795ZM135.77 48.2954C125.97 48.2954 119.47 54.8954 119.47 64.5954C119.47 82.0954 119.47 99.5954 119.47 117.095C119.47 127.595 125.57 133.895 136.07 133.995C146.57 134.295 170.17 133.995 170.17 133.995C170.17 131.695 170.17 129.395 170.17 127.195C168.87 127.195 146.87 127.195 136.97 127.195C130.07 127.195 127.37 124.495 127.37 117.495C127.37 110.195 127.37 102.895 127.37 95.6954C127.37 94.6954 127.47 93.7954 127.57 92.4954C140.77 92.4954 153.77 92.4954 166.97 92.4954C166.97 90.1954 166.97 88.2954 166.97 85.8954C153.67 85.8954 140.67 85.8954 127.47 85.8954C127.47 78.1954 127.47 70.8954 127.47 63.6954C127.47 58.5954 130.47 55.6954 135.57 55.5954C146.07 55.5954 170.37 55.5954 170.37 55.5954V48.3954C170.07 48.2954 146.27 48.2954 135.77 48.2954ZM196.47 120.295C196.07 117.795 195.87 115.295 195.87 112.795C195.87 91.5954 195.87 30.1954 195.87 4.79536C195.87 2.69536 194.17 0.995361 192.07 0.995361C189.97 0.995361 188.27 2.69536 188.27 4.79536C188.27 29.7954 188.27 90.7954 188.27 111.595C188.27 114.895 188.47 118.295 188.67 121.595C189.17 128.495 192.77 132.795 199.47 134.195C202.47 134.795 205.67 134.695 208.97 134.795V127.695C208.97 127.695 205.77 127.695 204.17 127.695C199.77 127.595 197.17 124.795 196.47 120.295ZM274.97 110.295C273.07 124.895 263.67 135.295 247.27 135.095C230.87 135.295 221.37 124.895 219.57 110.295C217.77 96.2954 217.47 82.2954 219.97 68.3954C221.97 57.2954 228.47 50.2954 239.27 47.7954C239.87 47.6954 240.97 47.2954 243.67 47.0954C243.67 44.5954 243.67 38.1954 243.67 34.2954C243.67 33.2954 244.07 32.3954 244.77 31.7954C245.47 31.1954 246.37 30.6954 247.27 30.6954C248.17 30.6954 249.17 31.0954 249.77 31.7954C250.37 32.4954 250.87 33.3954 250.87 34.2954C250.87 38.1954 250.87 44.5954 250.87 47.0954C253.57 47.2954 254.67 47.5954 255.27 47.7954C266.07 50.2954 272.57 57.2954 274.57 68.3954C277.07 82.2954 276.77 96.2954 274.97 110.295ZM268.07 77.7954C267.97 74.8954 267.57 71.9954 266.87 69.0954C264.57 59.5954 257.07 53.9954 247.17 53.9954C237.27 53.8954 229.77 59.5954 227.47 69.0954C226.77 71.8954 226.47 74.8954 226.27 77.7954C225.67 88.9954 224.97 100.195 227.27 111.295C229.47 122.295 236.67 128.395 247.07 128.395C257.47 128.395 264.67 122.295 266.87 111.295C269.27 100.195 268.57 88.8954 268.07 77.7954ZM346.67 78.6954C346.67 74.9954 346.67 71.1954 346.17 67.4954C344.77 58.0954 339.87 51.0954 330.47 48.1954C319.67 44.8954 306.37 46.9954 298.87 58.2954C298.77 58.3954 298.27 59.2954 298.17 59.3954V51.4954C298.17 49.3954 296.47 47.5954 294.27 47.5954C292.07 47.5954 290.37 49.2954 290.37 51.4954V133.595H297.57C297.57 133.595 297.57 94.7954 297.57 76.3954C297.57 66.8954 306.57 55.2954 318.97 54.4954C327.97 53.8954 335.97 57.5954 338.57 67.5954C339.37 70.4954 339.47 73.5954 339.47 76.5954C339.47 94.4954 339.47 133.695 339.47 133.695H346.67C346.77 133.695 346.77 95.8954 346.67 78.6954Z" fill="white"/>
</svg>
