<svg width="159" height="68" viewBox="0 0 159 68" fill="none" xmlns="http://www.w3.org/2000/svg">
<path d="M67.7538 33.702C67.7538 29.602 66.9538 25.602 65.5538 21.902C65.1538 34.002 52.9538 43.302 45.7538 49.502H63.7538C66.2538 44.802 67.7538 39.402 67.7538 33.702ZM54.6539 7.10193C48.9539 2.70193 41.7538 0.00195312 33.9538 0.00195312C15.3538 0.00195312 0.253845 15.102 0.253845 33.702C0.253845 52.302 15.3538 67.402 33.9538 67.402C42.4538 67.402 50.2539 64.202 56.1539 59.002H31.8538L31.7538 51.8019C46.4538 39.0019 55.4538 30.402 55.4538 22.002C55.4538 18.902 54.2538 15.002 48.9538 15.002C44.7538 15.002 40.6538 17.4019 41.4538 27.6019H32.8538C30.7538 15.8019 37.1538 6.40198 49.3538 6.40198C51.3538 6.50198 53.0539 6.70193 54.6539 7.10193Z" fill="#A3C626"/>
<path d="M98.9538 23.3016H106.954C107.254 17.2016 105.154 7.60156 92.0538 7.60156C82.3538 7.60156 75.3538 13.4016 75.3538 25.5016C75.3538 27.1016 75.4538 35.6016 75.4538 40.8016C75.4538 53.9016 84.5539 56.7016 92.1539 56.7016C96.7539 56.7016 103.354 55.7016 106.354 52.3016V31.5016H91.3538V39.1016H98.0538V48.3016C93.0538 50.0016 83.8538 50.7016 83.8538 39.1016V25.5016C83.8538 17.4016 87.5538 14.6016 91.7538 14.6016C95.9538 14.6016 98.9538 16.7016 98.9538 23.3016ZM158.254 43.5016C158.554 24.8016 137.154 31.0016 137.454 20.6016C137.554 16.9016 139.954 14.5016 143.754 14.5016C147.954 14.5016 150.354 17.0016 150.254 23.4016H158.054C158.254 17.6016 156.854 7.7016 143.954 7.7016C135.954 7.7016 129.354 11.7016 129.154 20.4016C128.854 38.3016 150.354 32.5016 149.954 43.3016C149.854 47.7016 146.654 49.7016 142.954 49.7016C138.754 49.7016 135.354 47.2016 136.054 39.9016H128.154C127.254 49.6016 131.554 56.6016 142.954 56.6016C152.654 56.7016 158.154 51.3016 158.254 43.5016ZM122.254 56.0016H114.254V8.30157H122.254V56.0016ZM122.254 56.0016H114.254V8.30157H122.254V56.0016Z" fill="#434242"/>
</svg>
