<svg width="102" height="102" viewBox="0 0 102 102" fill="none" xmlns="http://www.w3.org/2000/svg">
<path d="M87.5999 0.503906H13.9C6.39996 0.503906 0.299957 6.60388 0.299957 14.1039V87.8039C0.299957 95.3039 6.39996 101.404 13.9 101.404H50.2L50.3 65.4039H41C39.8 65.4039 38.8 64.4039 38.8 63.2039V51.6039C38.8 50.4039 39.8 49.4039 41 49.4039H50.3V38.0039C50.3 25.0039 58.3 17.9039 69.9 17.9039H79.4C80.6 17.9039 81.5999 18.9039 81.5999 20.1039V29.9039C81.5999 31.1039 80.6 32.1039 79.4 32.1039H73.5C67.2 32.1039 66 35.1039 66 39.5039V49.2039H79.9C81.2 49.2039 82.1999 50.4039 82.0999 51.7039L80.7 63.3039C80.6 64.4039 79.6 65.2039 78.5 65.2039H66.1L66 101.204H87.5999C95.0999 101.204 101.2 95.1039 101.2 87.6039V13.9039C101.2 6.60393 95.0999 0.503906 87.5999 0.503906Z" fill="#475993"/>
</svg>
