<svg width="161" height="160" viewBox="0 0 161 160" fill="none" xmlns="http://www.w3.org/2000/svg">
<path d="M75.5501 45.7029C74.4501 45.7029 73.6501 44.7029 73.7501 43.6029C73.8501 42.7029 74.7501 42.1029 75.6501 42.1029H80.7501C82.7501 42.1029 84.5501 41.2029 85.7501 39.8029C86.2501 39.2029 87.1501 39.0029 87.8501 39.4029C88.8501 39.9029 89.1501 41.2029 88.4501 42.1029C86.5501 44.4029 83.7501 45.7029 80.6501 45.7029H75.5501Z" fill="#C60635"/>
<path d="M75.5501 144.603H85.85C87.25 144.603 88.4501 145.803 88.4501 147.203C88.4501 148.603 87.25 149.803 85.85 149.803H75.5501C74.1501 149.803 72.9501 148.603 72.9501 147.203C72.9501 145.803 74.1501 144.603 75.5501 144.603Z" fill="#C60635"/>
<path d="M75.5501 134.303H85.85C87.25 134.303 88.4501 135.503 88.4501 136.903C88.4501 138.303 87.25 139.503 85.85 139.503H75.5501C74.1501 139.503 72.9501 138.303 72.9501 136.903C72.9501 135.503 74.1501 134.303 75.5501 134.303Z" fill="#C60635"/>
<path d="M75.5501 124.003H85.85C87.25 124.003 88.4501 125.203 88.4501 126.603C88.4501 128.003 87.25 129.203 85.85 129.203H75.5501C74.1501 129.203 72.9501 128.003 72.9501 126.603C72.9501 125.103 74.1501 124.003 75.5501 124.003Z" fill="#C60635"/>
<path d="M129.75 159.703C127.15 159.703 124.95 157.503 124.95 154.903V118.803C124.95 116.203 127.15 114.003 129.75 114.003H137.25L118.05 94.8029L117.25 95.1029C106.75 99.8029 95.5501 102.403 84.0501 102.803H82.85V114.003H93.5501C96.1501 114.003 98.35 116.203 98.35 118.803V154.903C98.35 157.503 96.1501 159.703 93.5501 159.703H67.7501C65.1501 159.703 62.9501 157.503 62.9501 154.903V118.803C62.9501 116.203 65.1501 114.003 67.7501 114.003H78.4501V102.903H77.2501C65.7501 102.503 54.5501 99.9029 44.0501 95.2029L43.2501 94.903L24.0501 114.103H31.5501C34.1501 114.103 36.35 116.303 36.35 118.903V155.003C36.35 157.603 34.1501 159.803 31.5501 159.803H5.75006C3.15006 159.803 0.950134 157.603 0.950134 155.003V118.903C0.950134 116.303 3.15006 114.103 5.75006 114.103H17.7501L39.0501 92.8029L37.6501 92.0029C22.6501 83.8029 10.2501 71.6029 2.05011 56.7029L0.750061 54.3029L2.05011 51.9029C13.5501 31.1029 33.3501 15.5029 56.2501 9.00293L56.6501 8.90292L56.85 8.60294C60.75 3.40294 66.7501 0.50293 73.2501 0.50293H88.1501C94.6501 0.50293 100.55 3.50294 104.55 8.60294L104.75 8.90292L105.15 9.00293C128.05 15.5029 147.85 31.1029 159.35 51.9029L160.65 54.3029L159.35 56.7029C151.05 71.6029 138.75 83.8029 123.75 92.0029L122.35 92.8029L143.65 114.103H155.65C158.25 114.103 160.45 116.303 160.45 118.903V155.003C160.45 157.603 158.25 159.803 155.65 159.803H129.75V159.703ZM129.35 155.303H155.85V118.403H129.35V155.303ZM67.4501 155.303H93.9501V118.403H67.4501V155.303ZM5.45013 155.303H31.9501V118.403H5.45013V155.303ZM72.85 97.8029L74.2501 98.0029C76.5501 98.3029 78.6501 98.5029 80.7501 98.5029C82.8501 98.5029 84.9501 98.3029 87.2501 98.0029L88.6501 97.8029L81.7501 77.2029H79.7501L72.85 97.8029ZM61.2501 66.403C55.4501 71.103 51.9501 78.4029 51.9501 85.8029V87.8029L52.35 88.2029C56.85 91.9029 61.85 94.703 67.35 96.403L68.4501 96.8029L75.6501 75.1029L73.9501 71.3029L66.6501 75.7029L62.35 65.6029L61.2501 66.403ZM85.6501 75.0029L92.85 96.7029L93.9501 96.3029C99.4501 94.6029 104.45 91.8029 108.95 88.1029L109.35 87.7029V85.7029C109.35 78.2029 105.85 71.0029 100.05 66.3029L98.85 65.3029L94.5501 75.403L87.2501 71.0029L85.6501 75.0029ZM44.9501 17.9029C28.6501 25.4029 14.8501 38.1029 6.15009 53.7029L5.85004 54.3029L6.15009 54.903C14.9501 70.503 28.7501 83.2029 44.9501 90.7029L46.2501 88.8029C37.0501 79.6029 31.9501 67.403 31.9501 54.403C31.9501 41.403 37.0501 29.1029 46.1501 20.0029L44.9501 17.9029ZM115.15 19.9029C124.35 29.1029 129.35 41.3029 129.35 54.3029C129.35 67.3029 124.25 79.5029 115.05 88.7029L116.35 90.6029C132.65 83.1029 146.45 70.4029 155.15 54.8029L155.45 54.2029L155.15 53.6029C146.45 38.1029 132.65 25.4029 116.35 17.8029L115.15 19.9029ZM108.65 22.5029C108.55 23.7029 108.35 24.8029 108.05 26.0029L106.95 30.5029L107.25 30.9029C108.25 32.5029 108.75 34.3029 108.75 36.1029C108.75 41.5029 104.55 45.9029 99.1501 46.1029H98.2501L98.0501 47.0029C97.2501 50.0029 95.3501 52.603 92.6501 54.403L91.85 54.903L92.7501 57.6029L93.35 57.8029C103.85 61.1029 111.65 70.003 113.45 80.903L113.95 83.6029L115.65 81.5029C121.65 73.8029 125.05 64.103 125.05 54.403C125.05 42.103 119.85 30.2029 110.75 21.9029L108.95 20.2029L108.65 22.5029ZM50.7501 21.7029C41.6501 30.0029 36.4501 41.9029 36.4501 54.2029C36.4501 64.0029 39.75 73.6029 45.85 81.3029L47.5501 83.403L48.0501 80.7029C49.9501 69.8029 57.6501 60.9029 68.1501 57.6029L68.7501 57.403L69.6501 54.7029L68.85 54.2029C66.15 52.5029 64.2501 49.8029 63.4501 46.8029L63.2501 45.9029H62.35C56.95 45.7029 52.7501 41.3029 52.7501 35.9029C52.7501 34.1029 53.2501 32.3029 54.2501 30.7029L54.5501 30.3029L53.4501 25.8029C53.1501 24.7029 52.95 23.5029 52.85 22.3029L52.6501 19.8029L50.7501 21.7029ZM77.85 68.903L79.5501 72.7029H81.85L83.5501 68.903L80.6501 67.2029L77.85 68.903ZM85.35 64.8029L92.5501 69.1029L95.0501 63.2029L93.9501 62.7029C93.2501 62.4029 92.4501 62.103 91.7501 61.903L91.2501 61.8029L85.35 64.8029ZM69.6501 61.903C68.8501 62.103 68.15 62.4029 67.35 62.7029L66.2501 63.2029L68.7501 69.1029L75.9501 64.8029L70.0501 61.8029L69.6501 61.903ZM73.0501 58.3029L80.6501 62.1029L88.2501 58.3029L87.6501 56.403H86.6501C86.3501 56.403 86.15 56.5029 85.85 56.5029H75.5501C75.2501 56.5029 75.0501 56.503 74.7501 56.403L73.7501 56.3029L73.0501 58.3029ZM69.35 23.9029C68.15 24.9029 67.35 26.5029 67.35 28.1029V44.0029C67.35 48.5029 70.9501 52.1029 75.4501 52.1029H85.7501C90.2501 52.1029 93.85 48.5029 93.85 44.0029V30.5029L80.35 29.1029C76.65 28.7029 73.2501 26.9029 71.0501 24.0029L70.2501 23.0029L69.35 23.9029ZM61.5501 30.8029C58.9501 31.3029 57.0501 33.6029 57.0501 36.2029C57.0501 38.8029 58.9501 41.1029 61.5501 41.6029L62.9501 41.9029V30.5029L61.5501 30.8029ZM98.4501 41.9029L99.85 41.6029C102.45 41.1029 104.35 38.8029 104.35 36.2029C104.35 33.6029 102.45 31.3029 99.85 30.8029L98.4501 30.5029V41.9029ZM98.7501 26.2029C99.8501 26.2029 100.95 26.4029 101.95 26.8029L103.15 27.2029L103.75 24.9029C104.05 23.6029 104.25 22.3029 104.25 21.0029C104.25 12.1029 96.9501 4.80292 88.0501 4.80292H73.1501C64.2501 4.80292 56.9501 12.1029 56.9501 21.0029C56.9501 22.3029 57.1501 23.6029 57.4501 24.9029L58.0501 27.2029L59.2501 26.8029C60.1501 26.5029 61.1501 26.3029 62.1501 26.3029H63.0501L63.2501 25.5029C63.9501 23.0029 65.5501 21.0029 67.7501 19.7029L68.4501 19.3029L68.2501 18.5029C68.0501 17.7029 68.0501 16.9029 67.9501 16.2029H72.35C72.55 20.8029 76.0501 24.5029 80.6501 25.0029L96.1501 26.5029L98.7501 26.2029Z" fill="#C60635"/>
<path d="M13.5501 144.603H23.85C25.25 144.603 26.4501 145.803 26.4501 147.203C26.4501 148.603 25.25 149.803 23.85 149.803H13.5501C12.1501 149.803 10.9501 148.603 10.9501 147.203C10.9501 145.803 12.1501 144.603 13.5501 144.603Z" fill="#C60635"/>
<path d="M13.5501 134.303H23.85C25.25 134.303 26.4501 135.503 26.4501 136.903C26.4501 138.303 25.25 139.503 23.85 139.503H13.5501C12.1501 139.503 10.9501 138.303 10.9501 136.903C10.9501 135.503 12.1501 134.303 13.5501 134.303Z" fill="#C60635"/>
<path d="M13.5501 124.003H23.85C25.25 124.003 26.4501 125.203 26.4501 126.603C26.4501 128.003 25.25 129.203 23.85 129.203H13.5501C12.1501 129.203 10.9501 128.003 10.9501 126.603C10.9501 125.103 12.1501 124.003 13.5501 124.003Z" fill="#C60635"/>
<path d="M139.65 140.603L138.55 139.503C137.55 138.503 135.95 138.503 134.85 139.503C133.85 140.503 133.85 142.103 134.85 143.103L138.95 147.203C139.65 147.903 140.95 147.803 141.55 146.903L151.05 132.603C151.85 131.403 151.55 129.803 150.35 129.003C149.15 128.203 147.55 128.503 146.75 129.703L139.65 140.603Z" fill="#C60635"/>
</svg>
