<svg width="102" height="102" viewBox="0 0 102 102" fill="none" xmlns="http://www.w3.org/2000/svg">
<path d="M6.89995 7.50341C-1.00005 15.7034 0.599965 24.4034 0.599965 50.9034C0.599965 72.9034 -3.20005 94.9034 16.7999 100.103C23.0999 101.703 78.6 101.703 84.9 100.103C93.3 97.9034 100.1 91.2034 101 79.3034C101.1 77.6034 101.1 24.1034 101 22.4034C100 9.80343 92.3 2.50341 82 1.10341C79.7 0.803414 79.2 0.703414 67.2 0.603414C24.6 0.603414 15.3 -1.19659 6.89995 7.50341Z" fill="url(#paint0_linear)"/>
<path d="M50.9 13.8036C35.7 13.8036 21.2 12.4036 15.7 26.6036C13.4 32.4036 13.8 40.0036 13.8 50.9036C13.8 60.4036 13.5 69.4036 15.7 75.2036C21.2 89.4036 35.8 88.0036 50.9 88.0036C65.5 88.0036 80.5 89.5036 86.1 75.2036C88.4 69.3036 88 61.8036 88 50.9036C88 36.4036 88.7999 27.0036 81.7999 20.0036C74.5999 12.9036 65 13.8036 50.9 13.8036ZM47.5 20.5036C79.2 20.4036 83.3 16.9036 81 65.9036C80.2 83.2036 67 81.3036 50.7999 81.3036C21.1999 81.3036 20.4 80.5036 20.4 50.9036C20.5 21.0036 22.8 20.5036 47.5 20.5036ZM70.7 26.6036C68.2 26.6036 66.2 28.6036 66.2 31.1036C66.2 33.6036 68.2 35.6036 70.7 35.6036C73.2 35.6036 75.2 33.6036 75.2 31.1036C75.2 28.6036 73.1 26.6036 70.7 26.6036ZM50.9 31.8036C40.4 31.8036 31.7999 40.3036 31.7999 50.9036C31.7999 61.5036 40.3 70.0036 50.9 70.0036C61.5 70.0036 70 61.5036 70 50.9036C70 40.3036 61.4 31.8036 50.9 31.8036ZM50.9 38.5036C67.3 38.5036 67.3 63.2036 50.9 63.2036C34.5 63.3036 34.5 38.5036 50.9 38.5036Z" fill="white"/>
<defs>
<linearGradient id="paint0_linear" x1="7.09448" y1="94.7478" x2="100.532" y2="13.8781" gradientUnits="userSpaceOnUse">
<stop stop-color="#FFDD55"/>
<stop offset="0.5" stop-color="#FF543E"/>
<stop offset="1" stop-color="#C837AB"/>
</linearGradient>
</defs>
</svg>
