<svg width="130" height="66" viewBox="0 0 130 66" fill="none" xmlns="http://www.w3.org/2000/svg">
<path d="M0.186096 64.6007V60.6933H2.72903V60.9414H0.496211V62.4299H1.48858C1.98476 62.4299 2.3569 62.492 2.60499 62.678C2.85308 62.8641 3.03915 63.1122 3.03915 63.4843C3.03915 63.8565 2.9151 64.1666 2.66701 64.3526C2.41892 64.5387 2.04678 64.6628 1.5506 64.6628H0.186096V64.6007ZM0.496211 64.3526H1.42655C2.29487 64.3526 2.72903 64.0425 2.72903 63.4223C2.72903 63.1122 2.60499 62.9261 2.41892 62.8021C2.17083 62.678 1.86071 62.616 1.42655 62.616H0.558233V64.3526H0.496211ZM6.32636 64.6007V60.6933H7.44278C7.93896 60.6933 8.37312 60.7553 8.62121 60.9414C8.8693 61.1275 9.05537 61.3755 9.05537 61.8097C9.05537 62.1818 8.93132 62.492 8.62121 62.678C8.37312 62.8641 7.93896 62.9881 7.44278 62.9881H6.63648V64.6628H6.32636V64.6007ZM6.63648 62.678H7.38075C7.81491 62.678 8.18705 62.616 8.37312 62.4299C8.55919 62.3059 8.68324 62.0578 8.68324 61.7477C8.68324 61.4376 8.55919 61.1895 8.37312 61.0654C8.18705 60.9414 7.81491 60.8794 7.31873 60.8794H6.57446V62.678H6.63648ZM12.3426 64.6007V60.6933H14.7615V60.9414H12.6527V62.4299H14.3893V62.678H12.6527V64.4147H14.8235V64.6628H12.3426V64.6007ZM18.1727 64.6007V60.6933H18.4829V62.4299H20.8397V60.6933H21.1498V64.6007H20.8397V62.616H18.4829V64.6007H18.1727ZM27.9724 64.3526H28.0344V64.5387L27.9724 65.7171H27.7243V64.6007H27.5382H27.2281H24.6231V65.7171H24.375L24.313 64.5387V64.3526H24.4371H24.4991C24.7472 64.2906 24.9332 63.7944 25.1193 62.9261C25.2434 62.3059 25.3674 61.5616 25.5535 60.6933H27.5382V64.4147H27.9724V64.3526ZM24.9332 64.3526H27.2281V60.8794H25.8016C25.7395 61.1275 25.6775 61.4376 25.6155 61.8717C25.5535 62.3059 25.4914 62.678 25.4294 62.9261C25.3054 63.6704 25.1193 64.1666 24.9332 64.3526ZM31.1975 64.6007V60.6933H31.5077V63.1122C31.5077 63.3603 31.5077 63.7324 31.4456 64.2286L31.9418 63.4223L33.8025 60.6313H34.1126V64.5387H33.8025V62.1198C33.8025 61.9958 33.8025 61.8717 33.8025 61.7477C33.8025 61.6236 33.8025 61.4996 33.8025 61.3135C33.8025 61.1895 33.8025 61.0654 33.8025 60.9414L33.3063 61.6857L31.4456 64.4767H31.1975V64.6007ZM37.896 64.6007V60.6933H38.2061V62.4299H40.563V60.6933H40.8731V64.6007H40.563V62.616H38.2061V64.6007H37.896ZM44.4704 64.6007V60.6933H46.8273V60.9414H44.7806V64.6628H44.4704V64.6007ZM52.5334 64.1045C52.2233 64.4767 51.7892 64.6628 51.2309 64.6628C50.6727 64.6628 50.2386 64.4767 49.9285 64.1045C49.6184 63.7324 49.4323 63.2362 49.4323 62.616C49.4323 61.9958 49.6184 61.4996 49.9285 61.1274C50.2386 60.7553 50.6727 60.5692 51.2309 60.5692C51.7892 60.5692 52.2233 60.7553 52.5334 61.1274C52.8435 61.4996 53.0296 61.9958 53.0296 62.616C53.0296 63.2362 52.8435 63.7324 52.5334 64.1045ZM50.1766 63.9185C50.4247 64.2286 50.7968 64.4147 51.2309 64.4147C51.6651 64.4147 52.0372 64.2286 52.2853 63.9185C52.5334 63.6084 52.7195 63.1742 52.7195 62.616C52.7195 62.0578 52.5955 61.6236 52.2853 61.3135C52.0372 61.0034 51.6651 60.8173 51.2309 60.8173C50.7968 60.8173 50.4247 61.0034 50.1766 61.3135C49.9285 61.6236 49.7424 62.0578 49.7424 62.616C49.7424 63.1742 49.8664 63.6084 50.1766 63.9185ZM56.4409 64.6007V60.6933H57.6193C58.0535 60.6933 58.4256 60.7553 58.6737 60.9414C58.9218 61.1275 59.0458 61.3135 59.0458 61.6857C59.0458 61.8717 58.9838 62.0578 58.8598 62.2439C58.7357 62.4299 58.5497 62.492 58.3636 62.554C58.6737 62.616 58.8598 62.678 59.0458 62.8641C59.2319 63.0502 59.2939 63.2362 59.2939 63.4843C59.2939 63.8565 59.1699 64.1666 58.8598 64.3526C58.5497 64.5387 58.1775 64.6628 57.6813 64.6628H56.4409V64.6007ZM56.751 62.3679H57.4953C58.3636 62.3679 58.7357 62.1198 58.7357 61.6236C58.7357 61.3755 58.6117 61.1895 58.4256 61.0654C58.2395 60.9414 57.9294 60.8794 57.4953 60.8794H56.689V62.3679H56.751ZM56.751 64.3526H57.6193C58.0535 64.3526 58.4256 64.2906 58.6737 64.1045C58.9218 63.9185 59.0458 63.7324 59.0458 63.4223C59.0458 62.8641 58.5497 62.616 57.6193 62.616H56.751V64.3526ZM65.4342 64.1045C65.1241 64.4767 64.6899 64.6628 64.1317 64.6628C63.5735 64.6628 63.1393 64.4767 62.8292 64.1045C62.5191 63.7324 62.333 63.2362 62.333 62.616C62.333 61.9958 62.5191 61.4996 62.8292 61.1274C63.1393 60.7553 63.5735 60.5692 64.1317 60.5692C64.6899 60.5692 65.1241 60.7553 65.4342 61.1274C65.7443 61.4996 65.9304 61.9958 65.9304 62.616C65.9304 63.2362 65.8063 63.7324 65.4342 64.1045ZM63.0773 63.9185C63.3254 64.2286 63.6976 64.4147 64.1317 64.4147C64.5659 64.4147 64.938 64.2286 65.1861 63.9185C65.4342 63.6084 65.6203 63.1742 65.6203 62.616C65.6203 62.0578 65.4962 61.6236 65.1861 61.3135C64.938 61.0034 64.5659 60.8173 64.1317 60.8173C63.6976 60.8173 63.3254 61.0034 63.0773 61.3135C62.8292 61.6236 62.6432 62.0578 62.6432 62.616C62.7052 63.1742 62.8292 63.6084 63.0773 63.9185ZM69.3416 64.6007V60.6933H71.7605V60.9414H69.6517V62.4299H71.3884V62.678H69.6517V64.4147H71.8226V64.6628H69.3416V64.6007ZM81.3121 64.6007L80.8159 63.2362H79.0792L78.5831 64.6007H78.2729L79.8235 60.6933H80.1336L81.6842 64.6007H81.3121ZM79.2033 62.9881H80.7539L80.5058 62.2439C80.3197 61.6857 80.1336 61.2515 80.0096 60.8794C79.8855 61.2515 79.6995 61.6857 79.5134 62.2439L79.2033 62.9881ZM84.7233 64.6007V60.6933H87.0802V60.9414H85.0334V64.6628H84.7233V64.6007ZM90.3054 64.6007V60.6933H92.7243V60.9414H90.6155V62.4299H92.3521V62.678H90.6155V64.4147H92.7863V64.6628H90.3054V64.6007ZM96.1355 64.6007V60.6933H96.4456V62.4299H98.8025V60.6933H99.1126V64.6007H98.8025V62.616H96.4456V64.6007H96.1355ZM103.702 64.6007V60.8794H102.338V60.6313H105.439V60.8794H104.074V64.6007H103.702ZM110.153 64.6628C109.595 64.6628 109.16 64.4767 108.85 64.1045C108.54 63.7324 108.354 63.2362 108.354 62.616C108.354 61.9958 108.54 61.4996 108.85 61.1274C109.16 60.7553 109.657 60.5692 110.215 60.5692C110.649 60.5692 111.083 60.7553 111.331 61.0654L111.145 61.2515C110.897 61.0034 110.587 60.8173 110.215 60.8173C109.719 60.8173 109.346 61.0034 109.098 61.3135C108.85 61.6236 108.664 62.0578 108.664 62.616C108.664 63.1742 108.788 63.6084 109.098 63.9185C109.346 64.2286 109.719 64.4147 110.215 64.4147C110.649 64.4147 111.021 64.2286 111.331 63.9185L111.517 64.1045C111.083 64.4767 110.649 64.6628 110.153 64.6628ZM115.549 64.6007V60.8794H114.184V60.6313H117.285V60.8794H115.921V64.6007H115.549ZM120.449 64.6007V60.6933H121.627C122.061 60.6933 122.433 60.7553 122.681 60.9414C122.929 61.1275 123.053 61.3135 123.053 61.6857C123.053 61.8717 122.991 62.0578 122.867 62.2439C122.743 62.4299 122.557 62.492 122.371 62.554C122.681 62.616 122.867 62.678 123.053 62.8641C123.24 63.0502 123.302 63.2362 123.302 63.4843C123.302 63.8565 123.178 64.1666 122.867 64.3526C122.557 64.5387 122.185 64.6628 121.689 64.6628H120.449V64.6007ZM120.759 62.3679H121.503C122.371 62.3679 122.743 62.1198 122.743 61.6236C122.743 61.3755 122.619 61.1895 122.433 61.0654C122.247 60.9414 121.937 60.8794 121.503 60.8794H120.697V62.3679H120.759ZM120.759 64.3526H121.627C122.061 64.3526 122.433 64.2906 122.681 64.1045C122.929 63.9185 123.053 63.7324 123.053 63.4223C123.053 62.8641 122.557 62.616 121.627 62.616H120.759V64.3526ZM129.504 64.1045C129.194 64.4767 128.76 64.6628 128.201 64.6628C127.643 64.6628 127.209 64.4767 126.899 64.1045C126.589 63.7324 126.403 63.2362 126.403 62.616C126.403 61.9958 126.589 61.4996 126.899 61.1274C127.209 60.7553 127.643 60.5692 128.201 60.5692C128.76 60.5692 129.194 60.7553 129.504 61.1274C129.814 61.4996 130 61.9958 130 62.616C130 63.2362 129.814 63.7324 129.504 64.1045ZM127.085 63.9185C127.333 64.2286 127.705 64.4147 128.139 64.4147C128.574 64.4147 128.946 64.2286 129.194 63.9185C129.442 63.6084 129.628 63.1742 129.628 62.616C129.628 62.0578 129.504 61.6236 129.194 61.3135C128.946 61.0034 128.574 60.8173 128.139 60.8173C127.705 60.8173 127.333 61.0034 127.085 61.3135C126.837 61.6236 126.651 62.0578 126.651 62.616C126.713 63.1742 126.837 63.6084 127.085 63.9185Z" fill="#1A1617"/>
<path d="M38.3301 27.1388C38.3301 34.4575 38.3301 49.6531 38.3301 50.0253H35.6632C35.6632 50.0253 35.7252 35.5119 35.6632 28.5033C35.6632 26.5186 34.8569 24.0997 33.3683 22.4871C30.9494 19.8822 24.8092 19.572 22.3903 23.2934C21.2739 25.0301 20.4055 26.8907 20.4055 28.9375C20.3435 35.5119 20.3435 50.0873 20.3435 50.0873H17.6765C17.6765 50.0873 17.6765 35.5119 17.6765 28.8755C17.6765 27.3249 17.2424 25.7123 16.6842 24.2858C15.7538 21.9289 13.8311 20.6885 11.3502 20.5644C5.89217 20.2543 2.72901 23.5415 2.66698 29.4337C2.60496 35.8841 2.66698 49.5911 2.66698 50.0873H0C0 49.7772 0 28.6894 0 19.1999C0 18.4556 0.620227 17.8354 1.3645 17.8354C2.10878 17.8354 2.72901 18.4556 2.72901 19.1999V22.5491C4.89981 18.9518 7.87691 17.5253 11.5983 17.6493C15.3197 17.7734 18.2968 19.386 19.8473 23.0453C21.3979 20.5644 23.3826 18.6417 26.2357 18.0215C32.5 16.4709 38.3301 19.6341 38.3301 27.1388ZM45.959 17.0911C46.7032 17.0911 47.2614 16.4709 47.2614 15.7887V12.8116C47.2614 12.0673 46.6412 11.5091 45.959 11.5091C45.2767 11.5091 44.6565 12.1293 44.6565 12.8116V15.7887C44.5945 16.4709 45.2147 17.0911 45.959 17.0911ZM92.4761 45.9318C93.2204 45.9318 93.7786 45.3116 93.7786 44.6293V41.6522C93.7786 40.9079 93.1584 40.3497 92.4761 40.3497C91.7319 40.3497 91.1737 40.9699 91.1737 41.6522V44.6293C91.1737 45.3116 91.7319 45.9318 92.4761 45.9318ZM50.6727 18.0215C47.0134 18.0215 44.5324 20.5024 44.5324 24.1617C44.5324 30.7362 44.5324 37.2486 44.5324 43.823C44.5324 47.7925 46.8273 50.1493 50.7347 50.1493C54.6422 50.2734 63.5114 50.1493 63.5114 50.1493C63.5114 49.281 63.5114 48.4127 63.5114 47.6064C63.0153 47.6064 54.7662 47.6064 51.0448 47.6064C48.4399 47.6064 47.4475 46.552 47.4475 43.947C47.4475 41.218 47.4475 38.489 47.4475 35.76C47.4475 35.3879 47.5095 35.0158 47.5095 34.5816C52.4714 34.5816 57.3092 34.5816 62.271 34.5816C62.271 33.7133 62.271 32.969 62.271 32.1007C57.3092 32.1007 52.4093 32.1007 47.4475 32.1007C47.4475 29.2476 47.4475 26.5186 47.4475 23.7896C47.4475 21.8669 48.5639 20.7505 50.4866 20.7505C54.3941 20.7505 63.5114 20.7505 63.5114 20.7505V18.0835C63.5114 18.0215 54.5801 17.9595 50.6727 18.0215ZM73.3731 44.9394C73.249 44.0091 73.125 43.0787 73.125 42.1484C73.125 34.2095 73.125 11.199 73.125 1.70945C73.125 0.903155 72.5048 0.282928 71.6985 0.282928C70.8922 0.282928 70.2719 0.903155 70.2719 1.70945C70.2719 11.0749 70.2719 33.8993 70.2719 41.7142C70.2719 42.9547 70.334 44.1951 70.458 45.4356C70.6441 47.9785 71.9466 49.6531 74.5515 50.1493C75.6679 50.3974 76.9084 50.3354 78.1488 50.3974V47.7304C78.1488 47.7304 76.9704 47.7304 76.3502 47.7304C74.6135 47.6684 73.6832 46.614 73.3731 44.9394ZM102.772 41.218C102.09 46.6761 98.5544 50.5835 92.3521 50.5215C86.2118 50.5835 82.6765 46.6761 81.9323 41.218C81.25 36.0081 81.1259 30.7362 82.1183 25.5262C82.8626 21.3707 85.2815 18.7657 89.375 17.7734C89.6231 17.7114 89.9952 17.5873 91.0496 17.5253C91.0496 16.5949 91.0496 14.1761 91.0496 12.7495C91.0496 12.3774 91.1737 12.0673 91.4217 11.8192C91.6698 11.5711 91.9799 11.447 92.3521 11.447C92.7242 11.447 93.0343 11.5711 93.2824 11.8192C93.5305 12.0673 93.6546 12.3774 93.6546 12.7495C93.6546 14.2381 93.6546 16.5949 93.6546 17.5253C94.6469 17.5873 95.0811 17.7114 95.3292 17.7734C99.3607 18.7037 101.78 21.3087 102.586 25.5262C103.578 30.7362 103.454 36.0081 102.772 41.218ZM100.167 29.0615C100.105 27.9451 99.9809 26.8907 99.7328 25.8364C98.8645 22.3011 96.0735 20.1923 92.3521 20.1923C88.6307 20.1923 85.8397 22.3011 84.9714 25.8364C84.7233 26.8907 84.5992 28.0072 84.5372 29.0615C84.3511 33.2791 84.041 37.4346 84.9093 41.5902C85.7156 45.7457 88.4446 47.9785 92.3521 47.9785C96.2595 47.9785 98.9265 45.6837 99.7948 41.5902C100.663 37.4346 100.415 33.2171 100.167 29.0615ZM129.628 29.3717C129.628 27.9451 129.628 26.5806 129.442 25.2161C128.884 21.6808 127.085 19.0759 123.55 18.0215C119.518 16.781 114.556 17.5873 111.703 21.8049C111.641 21.8669 111.455 22.177 111.455 22.239V19.2619C111.455 18.4556 110.835 17.8354 110.029 17.8354C109.222 17.8354 108.602 18.4556 108.602 19.2619V50.0253H111.269C111.269 50.0253 111.269 35.5119 111.269 28.6274C111.269 25.0921 114.618 20.6885 119.27 20.4404C122.619 20.2543 125.658 21.6188 126.589 25.3402C126.899 26.3946 126.899 27.573 126.899 28.6894C126.899 35.3879 126.899 50.0873 126.899 50.0873H129.566C129.69 50.0253 129.69 35.822 129.628 29.3717Z" fill="#1A1617"/>
</svg>
