<svg width="262" height="319" viewBox="0 0 262 319" fill="none" xmlns="http://www.w3.org/2000/svg">
<path d="M4.47788 109.093L4.47792 106.975L16.3931 106.975L16.3931 109.094L4.47788 109.093ZM20.3491 118.262L20.3491 116.177L28.69 107.77C31.0731 105.387 32.2646 103.346 32.2647 101.647C32.2647 100.168 31.8014 99.0211 30.8746 98.2047C29.97 97.3662 28.8778 96.9469 27.598 96.9469C25.2149 96.9468 23.4828 98.039 22.4016 100.223L20.4488 99.065C21.177 97.6307 22.17 96.5496 23.4277 95.8215C24.6854 95.0713 26.0755 94.6962 27.598 94.6962C29.4515 94.6963 31.0733 95.3252 32.4634 96.5829C33.8755 97.8186 34.5816 99.5066 34.5815 101.647C34.5815 102.993 34.2063 104.284 33.4561 105.519C32.7059 106.755 31.6467 108.057 30.2786 109.425L23.6589 116.011L35.0777 116.011L35.0776 118.262L20.3491 118.262ZM52.9712 115.416C51.4486 117.578 49.2972 118.659 46.517 118.659C43.7368 118.659 41.5745 117.578 40.0299 115.416C38.5075 113.231 37.7463 110.319 37.7464 106.678C37.7465 103.037 38.5078 100.136 40.0303 97.9732C41.5749 95.7887 43.7373 94.6966 46.5176 94.6966C49.2978 94.6967 51.4491 95.789 52.9716 97.9735C54.5161 100.136 55.2883 103.037 55.2882 106.678C55.2881 110.319 54.5158 113.232 52.9712 115.416ZM41.7511 113.86C42.8984 115.559 44.4871 116.409 46.5171 116.409C48.5471 116.409 50.1248 115.559 51.2501 113.86C52.3975 112.161 52.9713 109.767 52.9714 106.678C52.9714 103.589 52.3978 101.195 51.2504 99.4959C50.1251 97.7969 48.5475 96.9473 46.5175 96.9473C44.4875 96.9472 42.8988 97.7967 41.7514 99.4957C40.626 101.195 40.0633 103.589 40.0632 106.678C40.0632 109.767 40.6258 112.161 41.7511 113.86Z" fill="#C60635"/>
<path d="M4.47794 187.49L4.47798 185.372L16.3932 185.372L16.3931 187.49L4.47794 187.49ZM27.7965 182.824C29.9589 182.824 31.7903 183.464 33.2907 184.744C34.8131 186.001 35.5743 187.734 35.5743 189.94C35.5742 192.147 34.813 193.89 33.2904 195.17C31.79 196.427 29.9585 197.056 27.7962 197.056C26.053 197.056 24.4974 196.637 23.1294 195.798C21.7614 194.938 20.8347 193.713 20.3493 192.124L22.3021 190.999C22.633 192.235 23.2839 193.183 24.2548 193.845C25.2477 194.485 26.4282 194.805 27.7962 194.805C29.3849 194.805 30.6868 194.386 31.7018 193.548C32.7389 192.687 33.2574 191.485 33.2574 189.94C33.2575 188.396 32.739 187.204 31.7019 186.365C30.6869 185.505 29.3851 185.075 27.7964 185.075L21.5078 185.074L22.3355 173.49L34.7472 173.491L34.7472 175.675L24.3875 175.675L23.8909 182.824L27.7965 182.824ZM37.5768 196.659L37.5769 194.574L45.9177 186.167C48.3008 183.784 49.4923 181.743 49.4924 180.044C49.4924 178.566 49.0291 177.418 48.1024 176.602C47.1977 175.764 46.1055 175.344 44.8257 175.344C42.4427 175.344 40.7105 176.436 39.6293 178.621L37.6765 177.462C38.4047 176.028 39.3977 174.947 40.6554 174.219C41.9131 173.469 43.3033 173.094 44.8257 173.094C46.6792 173.094 48.301 173.722 49.6911 174.98C51.1032 176.216 51.8093 177.904 51.8092 180.044C51.8092 181.39 51.4341 182.681 50.6838 183.917C49.9336 185.152 48.8744 186.454 47.5063 187.822L40.8866 194.408L52.3054 194.409L52.3053 196.659L37.5768 196.659Z" fill="#C60635"/>
<path d="M21.7386 267.229L21.7386 265.111L33.6538 265.111L33.6538 267.23L21.7386 267.229ZM45.0571 262.563C47.2195 262.563 49.0509 263.203 50.5513 264.483C52.0737 265.741 52.835 267.473 52.8349 269.679C52.8349 271.886 52.0736 273.629 50.5511 274.909C49.0506 276.166 47.2192 276.795 45.0568 276.795C43.3136 276.795 41.758 276.376 40.39 275.537C39.022 274.677 38.0953 273.452 37.6099 271.864L39.5627 270.738C39.8936 271.974 40.5445 272.923 41.5154 273.585C42.5083 274.225 43.6888 274.545 45.0568 274.545C46.6455 274.545 47.9474 274.125 48.9624 273.287C49.9995 272.426 50.518 271.224 50.5181 269.679C50.5181 268.135 49.9996 266.943 48.9625 266.105C47.9476 265.244 46.6457 264.814 45.057 264.814L38.7685 264.814L39.5962 253.23L52.0078 253.23L52.0078 255.414L41.6482 255.414L41.1515 262.563L45.0571 262.563Z" fill="#C60635"/>
<path d="M80.4678 96.4261L85.0736 105.588L95.2281 107.067L87.9002 114.298L89.6084 124.428L80.4901 119.613L71.3812 124.46L73.1188 114.333L65.7456 107.12L75.9286 105.652L80.4678 96.4261Z" fill="#C60635"/>
<path d="M119.79 96.4091L124.315 105.588L134.487 107.148L127.142 114.298L128.85 124.428L119.749 119.694L110.623 124.46L112.36 114.333L104.987 107.121L115.17 105.653L119.79 96.4091Z" stroke="white" stroke-width="0.820935" stroke-miterlimit="10"/>
<path d="M159.031 96.4095L163.557 105.589L173.809 107.131L166.383 114.298L168.172 124.411L159.071 119.677L149.944 124.443L151.682 114.316L144.309 107.103L154.492 105.636L159.031 96.4095Z" stroke="white" stroke-width="0.820935" stroke-miterlimit="10"/>
<path d="M198.353 96.3925L202.896 105.652L213.05 107.131L205.705 114.281L207.413 124.412L198.312 119.677L189.186 124.443L190.923 114.317L183.55 107.104L193.733 105.636L198.353 96.3925Z" stroke="white" stroke-width="0.820935" stroke-miterlimit="10"/>
<path d="M237.594 96.3934L242.137 105.653L252.372 107.115L244.946 114.282L246.672 124.493L237.554 119.678L228.427 124.444L230.245 114.3L222.792 107.105L233.055 105.62L237.594 96.3934Z" stroke="white" stroke-width="0.820935" stroke-miterlimit="10"/>
<path d="M80.4666 174.909L85.0097 184.168L95.2444 185.63L87.8364 192.878L89.6249 202.991L80.5065 198.176L71.3975 203.023L73.1177 192.816L65.762 185.683L75.945 184.215L80.4666 174.909Z" fill="#C60635"/>
<path d="M119.806 174.972L124.331 184.151L134.503 185.711L127.158 192.861L128.866 202.991L119.766 198.257L110.639 203.023L112.377 192.896L105.003 185.683L115.186 184.216L119.806 174.972Z" stroke="white" stroke-width="0.820935" stroke-miterlimit="10"/>
<path d="M159.047 174.973L163.573 184.152L173.825 185.694L166.399 192.862L168.188 202.975L159.007 198.258L149.88 203.024L151.698 192.88L144.245 185.684L154.508 184.199L159.047 174.973Z" stroke="white" stroke-width="0.820935" stroke-miterlimit="10"/>
<path d="M198.289 174.973L202.912 184.215L213.066 185.695L205.721 192.845L207.429 202.975L198.329 198.241L189.202 203.007L190.94 192.88L183.566 185.667L193.749 184.2L198.289 174.973Z" stroke="white" stroke-width="0.820935" stroke-miterlimit="10"/>
<path d="M237.61 174.956L242.154 184.216L252.308 185.695L244.963 192.845L246.688 203.056L237.57 198.241L228.444 203.007L230.181 192.881L222.808 185.668L232.991 184.2L237.61 174.956Z" stroke="white" stroke-width="0.820935" stroke-miterlimit="10"/>
<path d="M80.4831 253.472L85.0262 262.731L95.2608 264.193L87.8528 271.441L89.6413 281.554L80.4427 276.757L71.3337 281.603L73.1341 271.379L65.6982 264.264L75.9614 262.778L80.4831 253.472Z" fill="#C60635"/>
<path d="M119.742 253.553L124.348 262.715L134.502 264.194L127.174 271.424L128.883 281.555L119.782 276.82L110.655 281.586L112.393 271.46L105.02 264.247L115.203 262.779L119.742 253.553Z" fill="#C60635"/>
<path d="M159.064 253.536L163.589 262.715L173.761 264.275L166.416 271.425L168.124 281.555L159.023 276.821L149.897 281.587L151.635 271.46L144.261 264.247L154.444 262.78L159.064 253.536Z" stroke="white" stroke-width="0.820935" stroke-miterlimit="10"/>
<path d="M198.305 253.536L202.831 262.715L213.083 264.258L205.657 271.425L207.446 281.538L198.345 276.804L189.219 281.57L190.956 271.443L183.583 264.23L193.766 262.763L198.305 253.536Z" stroke="white" stroke-width="0.820935" stroke-miterlimit="10"/>
<path d="M237.627 253.519L242.17 262.779L252.324 264.258L244.979 271.408L246.687 281.539L237.587 276.804L228.46 281.57L230.198 271.444L222.824 264.231L233.007 262.763L237.627 253.519Z" stroke="white" stroke-width="0.820935" stroke-miterlimit="10"/>
<path d="M28.2093 46.0355C25.6836 49.5573 22.144 51.3182 17.5905 51.3182C13.0371 51.3182 9.49745 49.5573 6.97171 46.0355C4.44597 42.5137 3.1831 37.8179 3.1831 31.9482C3.1831 26.0786 4.44597 21.3828 6.97171 17.861C9.49745 14.3392 13.0371 12.5783 17.5905 12.5783C22.144 12.5783 25.6836 14.3392 28.2093 17.861C30.735 21.3828 31.9979 26.0786 31.9979 31.9482C31.9979 37.8179 30.735 42.5137 28.2093 46.0355ZM10.6002 42.6738C12.2366 45.1995 14.5667 46.4624 17.5905 46.4624C20.6143 46.4624 22.9444 45.1995 24.5808 42.6738C26.2527 40.148 27.0887 36.5728 27.0887 31.9482C27.0887 27.3236 26.2527 23.7485 24.5808 21.2227C22.9444 18.6614 20.6143 17.3807 17.5905 17.3807C14.5667 17.3807 12.2366 18.6436 10.6002 21.1694C8.96385 23.6951 8.14565 27.2881 8.14565 31.9482C8.14565 36.5728 8.96385 40.148 10.6002 42.6738ZM65.8843 51.0842C63.4018 51.0842 61.1644 50.5326 59.1723 49.4292C57.1802 48.3259 55.6171 46.7935 54.4831 44.832C53.3798 42.8399 52.8281 40.6179 52.8281 38.166C52.8281 35.7141 53.3798 33.5228 54.4831 31.592C55.6171 29.6305 57.1802 28.0981 59.1723 26.9947C61.1644 25.8914 63.4018 25.3397 65.8843 25.3397C68.3974 25.3397 70.6501 25.8914 72.6422 26.9947C74.6343 28.0981 76.1974 29.6305 77.3314 31.592C78.4654 33.5228 79.0324 35.6988 79.0324 38.12C79.0324 40.5719 78.4654 42.7939 77.3314 44.786C76.1974 46.7475 74.6343 48.2952 72.6422 49.4292C70.6501 50.5326 68.3974 51.0842 65.8843 51.0842ZM65.9302 47.9121C67.7691 47.9121 69.4088 47.4984 70.8493 46.6709C72.3204 45.8434 73.4697 44.6941 74.2972 43.223C75.1247 41.7518 75.5385 40.0662 75.5385 38.166C75.5385 36.2658 75.1247 34.5802 74.2972 33.109C73.4697 31.6379 72.3204 30.5039 70.8493 29.7071C69.3782 28.8796 67.7232 28.4658 65.8843 28.4658C64.0454 28.4658 62.3904 28.8796 60.9193 29.7071C59.4788 30.5039 58.3448 31.6379 57.5173 33.109C56.6898 34.5802 56.276 36.2658 56.276 38.166C56.276 40.0662 56.6898 41.7518 57.5173 43.223C58.3448 44.6941 59.4941 45.8434 60.9652 46.6709C62.4363 47.4984 64.0913 47.9121 65.9302 47.9121ZM82.6225 25.7535H103.862V28.9256H94.9431V50.6245H91.4952V28.9256H82.6225V25.7535ZM119.137 51.0842C116.869 51.0842 114.816 50.7624 112.977 50.1188C111.169 49.4446 109.682 48.6324 108.518 47.6823L109.667 44.9699C110.893 45.8281 112.272 46.533 113.804 47.0846C115.337 47.6057 116.961 47.8662 118.677 47.8662C120.761 47.8662 122.416 47.4524 123.642 46.6249C124.899 45.7668 125.527 44.6634 125.527 43.3149C125.527 42.0277 124.945 41.0163 123.78 40.2807C122.646 39.5452 121.114 39.1774 119.183 39.1774H114.218V36.7409H119.183C123.137 36.7409 125.114 35.4077 125.114 32.7413C125.114 31.3314 124.516 30.2281 123.321 29.4313C122.125 28.6344 120.47 28.236 118.356 28.236C116.884 28.236 115.475 28.4658 114.126 28.9256C112.808 29.3546 111.49 29.9829 110.173 30.8104L109.023 28.3279C111.843 26.3358 115.076 25.3397 118.723 25.3397C121.696 25.3397 124.087 25.968 125.895 27.2246C127.703 28.4505 128.607 30.1975 128.607 32.4654C128.607 33.8446 128.255 34.9939 127.55 35.9134C126.845 36.8328 125.864 37.5224 124.608 37.9821C125.987 38.4725 127.06 39.1927 127.826 40.1428C128.623 41.0929 129.021 42.2729 129.021 43.6827C129.021 45.1844 128.577 46.5023 127.688 47.6363C126.83 48.7396 125.635 49.5978 124.102 50.2108C122.6 50.7931 120.945 51.0842 119.137 51.0842ZM146.378 33.7067C149.78 33.7067 152.447 34.4576 154.377 35.9593C156.339 37.4611 157.32 39.5452 157.32 42.2116C157.32 44.8167 156.354 46.8701 154.423 48.3719C152.493 49.8736 149.842 50.6245 146.47 50.6245H136.54V25.7535H139.988V33.7067H146.378ZM163.066 50.6245V25.7535H166.468V50.6245H163.066ZM146.378 47.8202C148.738 47.8202 150.577 47.3298 151.895 46.3491C153.213 45.3683 153.872 43.9892 153.872 42.2116C153.872 40.4033 153.213 39.0088 151.895 38.0281C150.577 37.0167 148.723 36.511 146.332 36.511H139.988V47.8202H146.378ZM190.954 37.8442C192.854 38.1813 194.34 38.9016 195.413 40.0049C196.517 41.0776 197.068 42.4261 197.068 44.0505C197.068 46.1039 196.241 47.7129 194.586 48.8776C192.931 50.0422 190.678 50.6245 187.828 50.6245H175.507V25.7535H187.276C189.942 25.7535 192.027 26.3205 193.528 27.4544C195.03 28.5578 195.781 30.0749 195.781 32.0057C195.781 33.4768 195.352 34.7181 194.494 35.7295C193.666 36.7102 192.486 37.4151 190.954 37.8442ZM178.955 28.8796V36.557H187.23C188.885 36.557 190.157 36.2198 191.046 35.5456C191.935 34.8713 192.379 33.9059 192.379 32.6493C192.379 31.454 191.919 30.5346 191 29.891C190.111 29.2167 188.763 28.8796 186.954 28.8796H178.955ZM187.69 47.4984C189.59 47.4984 191.03 47.1613 192.011 46.487C193.023 45.8127 193.528 44.8473 193.528 43.5907C193.528 42.3955 193.023 41.4607 192.011 40.7864C191.03 40.1122 189.682 39.775 187.966 39.775H178.955V47.4984H187.69ZM216.228 51.0842C213.746 51.0842 211.508 50.5326 209.516 49.4292C207.524 48.3259 205.961 46.7935 204.827 44.832C203.724 42.8399 203.172 40.6179 203.172 38.166C203.172 35.7141 203.724 33.5228 204.827 31.592C205.961 29.6305 207.524 28.0981 209.516 26.9947C211.508 25.8914 213.746 25.3397 216.228 25.3397C218.741 25.3397 220.994 25.8914 222.986 26.9947C224.978 28.0981 226.541 29.6305 227.675 31.592C228.809 33.5228 229.376 35.6988 229.376 38.12C229.376 40.5719 228.809 42.7939 227.675 44.786C226.541 46.7475 224.978 48.2952 222.986 49.4292C220.994 50.5326 218.741 51.0842 216.228 51.0842ZM216.274 47.9121C218.113 47.9121 219.753 47.4984 221.193 46.6709C222.664 45.8434 223.814 44.6941 224.641 43.223C225.469 41.7518 225.882 40.0662 225.882 38.166C225.882 36.2658 225.469 34.5802 224.641 33.109C223.814 31.6379 222.664 30.5039 221.193 29.7071C219.722 28.8796 218.067 28.4658 216.228 28.4658C214.389 28.4658 212.734 28.8796 211.263 29.7071C209.823 30.5039 208.689 31.6379 207.861 33.109C207.034 34.5802 206.62 36.2658 206.62 38.166C206.62 40.0662 207.034 41.7518 207.861 43.223C208.689 44.6941 209.838 45.8434 211.309 46.6709C212.78 47.4984 214.435 47.9121 216.274 47.9121ZM252.366 37.8442C254.267 38.1813 255.753 38.9016 256.826 40.0049C257.929 41.0776 258.481 42.4261 258.481 44.0505C258.481 46.1039 257.653 47.7129 255.998 48.8776C254.343 50.0422 252.091 50.6245 249.24 50.6245H236.92V25.7535H248.689C251.355 25.7535 253.439 26.3205 254.941 27.4544C256.443 28.5578 257.194 30.0749 257.194 32.0057C257.194 33.4768 256.765 34.7181 255.906 35.7295C255.079 36.7102 253.899 37.4151 252.366 37.8442ZM240.368 28.8796V36.557H248.643C250.298 36.557 251.57 36.2198 252.458 35.5456C253.347 34.8713 253.792 33.9059 253.792 32.6493C253.792 31.454 253.332 30.5346 252.412 29.891C251.524 29.2167 250.175 28.8796 248.367 28.8796H240.368ZM249.102 47.4984C251.003 47.4984 252.443 47.1613 253.424 46.487C254.435 45.8127 254.941 44.8473 254.941 43.5907C254.941 42.3955 254.435 41.4607 253.424 40.7864C252.443 40.1122 251.095 39.775 249.378 39.775H240.368V47.4984H249.102Z" fill="white"/>
</svg>
