<svg width="256" height="258" viewBox="0 0 256 258" fill="none" xmlns="http://www.w3.org/2000/svg">
<path d="M3.47781 48.0933L3.47786 45.975L15.3931 45.9753L15.393 48.0935L3.47781 48.0933ZM19.349 57.2617L19.3491 55.1765L27.6899 46.7699C30.073 44.3869 31.2646 42.3459 31.2646 40.6469C31.2646 39.1685 30.8013 38.0211 29.8746 37.2047C28.9699 36.3662 27.8777 35.9469 26.5979 35.9469C24.2149 35.9468 22.4827 37.039 21.4015 39.2234L19.4488 38.065C20.1769 36.6307 21.1699 35.5496 22.4276 34.8215C23.6854 34.0713 25.0755 33.6962 26.598 33.6962C28.4514 33.6963 30.0732 34.3252 31.4633 35.5829C32.8754 36.8186 33.5815 38.5066 33.5815 40.6469C33.5814 41.9929 33.2063 43.2837 32.456 44.5193C31.7058 45.755 30.6466 47.0568 29.2786 48.4248L22.6589 55.0111L34.0776 55.0114L34.0776 57.262L19.349 57.2617ZM51.9711 54.416C50.4486 56.5783 48.2972 57.6595 45.517 57.6594C42.7368 57.6594 40.5744 56.5781 39.0299 54.4157C37.5074 52.2312 36.7462 49.3186 36.7463 45.6778C36.7464 42.0371 37.5077 39.1355 39.0303 36.9732C40.5749 34.7887 42.7373 33.6966 45.5175 33.6966C48.2977 33.6967 50.449 34.789 51.9715 36.9735C53.516 39.1359 54.2882 42.0375 54.2881 45.6782C54.2881 49.319 53.5157 52.2316 51.9711 54.416ZM40.751 52.8601C41.8983 54.5592 43.487 55.4087 45.517 55.4088C47.547 55.4088 49.1247 54.5593 50.2501 52.8604C51.3975 51.1614 51.9712 48.7673 51.9713 45.6782C51.9714 42.589 51.3977 40.195 50.2504 38.4959C49.1251 36.7969 47.5474 35.9473 45.5174 35.9473C43.4874 35.9472 41.8987 36.7967 40.7513 38.4957C39.6259 40.1947 39.0632 42.5888 39.0632 45.6779C39.0631 48.767 39.6257 51.1611 40.751 52.8601Z" fill="#C60635"/>
<path d="M3.47788 126.49L3.47792 124.372L15.3931 124.372L15.3931 126.49L3.47788 126.49ZM26.7964 121.824C28.9588 121.824 30.7902 122.464 32.2906 123.744C33.8131 125.001 34.5743 126.734 34.5742 128.94C34.5742 131.147 33.8129 132.89 32.2904 134.17C30.7899 135.427 28.9585 136.056 26.7961 136.056C25.0529 136.056 23.4974 135.637 22.1293 134.798C20.7613 133.938 19.8346 132.713 19.3492 131.124L21.302 129.999C21.6329 131.235 22.2838 132.183 23.2547 132.845C24.2476 133.485 25.4281 133.805 26.7961 133.805C28.3848 133.805 29.6867 133.386 30.7017 132.548C31.7388 131.687 32.2574 130.485 32.2574 128.94C32.2574 127.396 31.7389 126.204 30.7019 125.365C29.6869 124.505 28.385 124.075 26.7964 124.075L20.5078 124.074L21.3355 112.49L33.7471 112.491L33.7471 114.675L23.3875 114.675L22.8909 121.824L26.7964 121.824ZM36.5768 135.659L36.5768 133.574L44.9176 125.167C47.3007 122.784 48.4923 120.743 48.4923 119.044C48.4924 117.566 48.029 116.418 47.1023 115.602C46.1976 114.764 45.1054 114.344 43.8256 114.344C41.4426 114.344 39.7105 115.436 38.6292 117.621L36.6765 116.462C37.4047 115.028 38.3976 113.947 39.6553 113.219C40.9131 112.469 42.3032 112.094 43.8257 112.094C45.6792 112.094 47.3009 112.722 48.691 113.98C50.1032 115.216 50.8092 116.904 50.8092 119.044C50.8091 120.39 50.434 121.681 49.6838 122.917C48.9335 124.152 47.8744 125.454 46.5063 126.822L39.8866 133.408L51.3053 133.409L51.3053 135.659L36.5768 135.659Z" fill="#C60635"/>
<path d="M20.7385 206.229L20.7385 204.111L32.6537 204.111L32.6537 206.23L20.7385 206.229ZM44.057 201.563C46.2194 201.563 48.0508 202.203 49.5512 203.483C51.0737 204.741 51.8349 206.473 51.8348 208.679C51.8348 210.886 51.0735 212.629 49.551 213.909C48.0505 215.166 46.2191 215.795 44.0567 215.795C42.3136 215.795 40.758 215.376 39.39 214.537C38.0219 213.677 37.0952 212.452 36.6098 210.864L38.5626 209.738C38.8936 210.974 39.5445 211.923 40.5153 212.585C41.5082 213.225 42.6887 213.545 44.0568 213.545C45.6455 213.545 46.9473 213.125 47.9623 212.287C48.9994 211.426 49.518 210.224 49.518 208.679C49.518 207.135 48.9995 205.943 47.9625 205.105C46.9475 204.244 45.6457 203.814 44.057 203.814L37.7684 203.814L38.5961 192.23L51.0078 192.23L51.0077 194.414L40.6481 194.414L40.1515 201.563L44.057 201.563Z" fill="#C60635"/>
<path d="M79.4678 35.4261L84.0736 44.5877L94.2281 46.0672L86.9002 53.2975L88.6084 63.428L79.4901 58.6132L70.3812 63.4595L72.1188 53.3327L64.7456 46.12L74.9286 44.6523L79.4678 35.4261Z" fill="#C60635"/>
<path d="M118.79 35.4091L123.315 44.5881L133.487 46.1478L126.142 53.298L127.85 63.4285L118.749 58.6938L109.623 63.46L111.36 53.3332L103.987 46.1205L114.17 44.6528L118.79 35.4091Z" stroke="white" stroke-width="0.820935" stroke-miterlimit="10"/>
<path d="M158.031 35.4095L162.557 44.5886L172.809 46.1308L165.383 53.2984L167.172 63.4114L158.071 58.6767L148.944 63.4429L150.682 53.3161L143.309 46.1034L153.492 44.6357L158.031 35.4095Z" stroke="white" stroke-width="0.820935" stroke-miterlimit="10"/>
<path d="M197.353 35.3925L201.896 44.6517L212.05 46.1312L204.705 53.2814L206.413 63.4118L197.312 58.6772L188.186 63.4434L189.923 53.3165L182.55 46.1039L192.733 44.6362L197.353 35.3925Z" stroke="white" stroke-width="0.820935" stroke-miterlimit="10"/>
<path d="M236.594 35.3934L241.137 44.6527L251.372 46.1147L243.946 53.2824L245.672 63.4931L236.554 58.6782L227.427 63.4443L229.245 53.3L221.792 46.1049L232.055 44.6196L236.594 35.3934Z" stroke="white" stroke-width="0.820935" stroke-miterlimit="10"/>
<path d="M79.4666 113.91L84.0097 123.169L94.2444 124.631L86.8363 131.879L88.6248 141.992L79.5064 137.177L70.3974 142.023L72.1176 131.816L64.7619 124.684L74.9449 123.216L79.4666 113.91Z" fill="#C60635"/>
<path d="M118.806 113.973L123.331 123.152L133.503 124.711L126.158 131.861L127.866 141.992L118.765 137.257L109.639 142.023L111.377 131.897L104.003 124.684L114.186 123.216L118.806 113.973Z" stroke="white" stroke-width="0.820935" stroke-miterlimit="10"/>
<path d="M158.047 113.974L162.573 123.153L172.825 124.695L165.399 131.862L167.188 141.975L158.007 137.258L148.88 142.024L150.698 131.88L143.245 124.685L153.508 123.2L158.047 113.974Z" stroke="white" stroke-width="0.820935" stroke-miterlimit="10"/>
<path d="M197.289 113.974L201.912 123.216L212.066 124.695L204.721 131.845L206.429 141.976L197.329 137.241L188.202 142.007L189.94 131.88L182.566 124.668L192.749 123.2L197.289 113.974Z" stroke="white" stroke-width="0.820935" stroke-miterlimit="10"/>
<path d="M236.61 113.957L241.153 123.216L251.308 124.696L243.963 131.846L245.688 142.057L236.57 137.242L227.444 142.008L229.181 131.881L221.808 124.668L231.991 123.201L236.61 113.957Z" stroke="white" stroke-width="0.820935" stroke-miterlimit="10"/>
<path d="M79.4831 192.472L84.0262 201.731L94.2608 203.193L86.8528 210.441L88.6413 220.554L79.4427 215.757L70.3337 220.603L72.1341 210.379L64.6982 203.264L74.9614 201.778L79.4831 192.472Z" fill="#C60635"/>
<path d="M118.742 192.553L123.348 201.715L133.502 203.194L126.174 210.424L127.883 220.555L118.782 215.82L109.655 220.586L111.393 210.46L104.02 203.247L114.203 201.779L118.742 192.553Z" fill="#C60635"/>
<path d="M158.064 192.536L162.589 201.715L172.761 203.275L165.416 210.425L167.124 220.555L158.023 215.821L148.897 220.587L150.635 210.46L143.261 203.247L153.444 201.78L158.064 192.536Z" stroke="white" stroke-width="0.820935" stroke-miterlimit="10"/>
<path d="M197.305 192.536L201.831 201.715L212.083 203.258L204.657 210.425L206.446 220.538L197.345 215.804L188.219 220.57L189.956 210.443L182.583 203.23L192.766 201.763L197.305 192.536Z" stroke="white" stroke-width="0.820935" stroke-miterlimit="10"/>
<path d="M236.627 192.519L241.17 201.779L251.324 203.258L243.979 210.408L245.687 220.539L236.587 215.804L227.46 220.57L229.198 210.444L221.824 203.231L232.007 201.763L236.627 192.519Z" stroke="white" stroke-width="0.820935" stroke-miterlimit="10"/>
</svg>
