<svg width="339" height="508" viewBox="0 0 339 508" fill="none" xmlns="http://www.w3.org/2000/svg">
<path d="M285.742 433.668C284.442 434.568 282.642 434.168 281.742 432.868L273.142 420.068L270.542 421.868C269.242 422.768 267.442 422.368 266.542 421.068C265.642 419.768 266.042 417.868 267.342 417.068L269.942 415.268L268.142 412.568L265.542 414.368C264.242 415.268 262.442 414.868 261.542 413.568C260.642 412.268 261.042 410.468 262.342 409.568L264.942 407.768L242.842 374.768C241.942 373.468 242.342 371.668 243.642 370.768L263.842 357.168C274.942 349.768 290.042 352.668 297.442 363.768C304.842 374.868 301.942 389.968 290.842 397.368L273.042 409.268L274.842 411.968L295.142 398.368C296.442 397.468 298.242 397.868 299.142 399.168C300.042 400.468 299.642 402.268 298.342 403.168L278.042 416.768L286.642 429.568C287.442 430.968 287.042 432.768 285.742 433.668ZM269.642 404.468L287.442 392.568C289.542 391.168 291.242 389.468 292.542 387.368C293.842 385.368 294.742 383.168 295.242 380.868C295.742 378.568 295.742 376.168 295.242 373.768C294.742 371.368 293.842 369.068 292.442 366.968C291.042 364.868 289.342 363.168 287.242 361.868C285.242 360.568 283.042 359.668 280.742 359.168C278.442 358.668 276.042 358.668 273.642 359.168C271.242 359.668 268.942 360.568 266.842 361.968L249.042 373.868L269.642 404.468Z" fill="white"/>
<path d="M278.142 451.568C310.451 451.568 336.642 425.377 336.642 393.068C336.642 360.76 310.451 334.568 278.142 334.568C245.833 334.568 219.642 360.76 219.642 393.068C219.642 425.377 245.833 451.568 278.142 451.568Z" stroke="#C60635" stroke-width="4" stroke-miterlimit="10"/>
<path d="M299.242 338.468L257.042 447.668" stroke="#C60635" stroke-width="4" stroke-miterlimit="10"/>
<path d="M145.642 487.969C144.542 487.669 143.942 486.569 144.342 485.469L147.442 475.369L145.342 474.769C144.242 474.469 143.642 473.369 144.042 472.269C144.342 471.169 145.442 470.569 146.542 470.969L148.642 471.569L149.342 469.369L147.242 468.769C146.142 468.469 145.542 467.369 145.942 466.269C146.242 465.169 147.342 464.569 148.442 464.969L150.542 465.569L158.442 439.369C158.742 438.269 159.842 437.669 160.942 438.069L177.042 442.969C185.842 445.669 190.842 454.969 188.242 463.769C185.542 472.569 176.242 477.569 167.442 474.969L153.242 470.669L152.542 472.869L168.742 477.769C169.842 478.069 170.442 479.169 170.042 480.269C169.742 481.369 168.642 481.969 167.542 481.569L151.342 476.669L148.242 486.769C147.742 487.669 146.642 488.269 145.642 487.969ZM154.142 466.569L168.342 470.869C169.942 471.369 171.642 471.569 173.342 471.369C174.942 471.169 176.542 470.669 177.942 469.969C179.442 469.169 180.642 468.169 181.742 466.869C182.842 465.569 183.642 464.069 184.142 462.469C184.642 460.869 184.842 459.169 184.642 457.469C184.442 455.869 183.942 454.269 183.242 452.769C182.442 451.269 181.442 450.069 180.142 448.969C178.842 447.869 177.342 447.069 175.742 446.569L161.542 442.269L154.142 466.569Z" fill="white"/>
<path d="M163.942 506.569C186.254 506.569 204.342 488.481 204.342 466.169C204.342 443.856 186.254 425.769 163.942 425.769C141.63 425.769 123.542 443.856 123.542 466.169C123.542 488.481 141.63 506.569 163.942 506.569Z" stroke="#C60635" stroke-width="2" stroke-miterlimit="10"/>
<path d="M202.242 453.569L125.542 478.769" stroke="#C60635" stroke-width="2" stroke-miterlimit="10"/>
<path d="M122.442 271.968C118.042 271.968 114.442 268.368 114.442 263.968V221.568H105.642C101.242 221.568 97.642 217.968 97.642 213.568C97.642 209.168 101.242 205.568 105.642 205.568H114.442V196.468H105.642C101.242 196.468 97.642 192.868 97.642 188.468C97.642 184.068 101.242 180.468 105.642 180.468H114.442V70.6685C114.442 66.2685 118.042 62.6685 122.442 62.6685H189.642C226.542 62.6685 256.542 92.6684 256.542 129.568C256.542 166.468 226.542 196.468 189.642 196.468H130.442V205.568H198.042C202.442 205.568 206.042 209.168 206.042 213.568C206.042 217.968 202.442 221.568 198.042 221.568H130.442V263.968C130.442 268.368 126.842 271.968 122.442 271.968ZM130.442 180.268H189.642C196.542 180.268 203.142 178.968 209.442 176.268C215.442 173.668 220.942 170.068 225.542 165.368C230.242 160.668 233.842 155.268 236.442 149.168C239.042 142.868 240.442 136.268 240.442 129.368C240.442 122.468 239.142 115.868 236.442 109.568C233.842 103.568 230.242 98.0685 225.542 93.3685C220.842 88.6685 215.442 85.0684 209.442 82.4684C203.242 79.8684 196.542 78.4684 189.642 78.4684H130.442V180.268Z" fill="white"/>
<path d="M167.342 328.868C256.591 328.868 328.942 256.518 328.942 167.268C328.942 78.0192 256.591 5.66846 167.342 5.66846C78.0928 5.66846 5.74194 78.0192 5.74194 167.268C5.74194 256.518 78.0928 328.868 167.342 328.868Z" stroke="#C60635" stroke-width="10" stroke-miterlimit="10"/>
<path d="M299.642 74.5684L34.942 259.968" stroke="#C60635" stroke-width="10" stroke-miterlimit="10"/>
</svg>
