<svg width="255" height="309" viewBox="0 0 255 309" fill="none" xmlns="http://www.w3.org/2000/svg">
<path d="M254.3 52.0235C254.3 44.7235 253 37.6235 251.2 30.6235C250.7 28.8235 249.6 28.3235 248.9 28.3235C248.6 28.3235 247.2 27.9236 245.4 31.4236C245.1 30.2236 243.8 28.3236 242.5 28.4236C240.8 28.5236 240.2 29.8236 239.5 30.9236C237.9 29.5236 235.6 29.9235 234.5 33.1235C233.6 35.6235 233.3 38.1236 233.3 40.7236C233.3 51.2236 233.5 61.6235 233.2 72.1235C233 80.9235 232.3 89.7236 230.2 98.4236C229.6 100.724 228.4 102.624 226.1 103.224C221.7 104.424 212.1 101.824 209.3 100.524C208.8 100.324 209.1 99.5236 209.2 98.7236C209.3 97.8236 209.1 97.6235 207.6 97.0235C206.7 96.7235 177.7 83.5236 177.6 83.4236C176.1 82.7236 175.1 81.8236 175.7 80.2236C177.7 74.9236 178.4 68.8235 185.1 66.6235C187.7 65.8235 189.5 63.3235 191.3 61.0235C192.9 59.0235 193.2 56.7235 193 54.3235C192.8 52.2235 192 51.0236 189.6 52.2236C187.2 53.4236 184.7 54.5235 182.2 55.5235C181.2 55.9235 179.7 56.7235 178.9 55.6235C178.2 54.5235 179.8 53.8236 180.6 53.2236C183.8 50.7236 187.2 48.3235 190.4 45.8235C194.1 42.9235 194.6 41.2236 192.8 36.9236C190.5 31.4236 188.1 26.0235 184.8 21.1235C183.2 18.7235 183.2 17.0235 185.6 15.1235C187.5 13.6235 191.7 10.8235 192.8 8.02354C193.5 6.12354 192 2.72355 187.7 4.72355C190 1.42355 184.8 0.123567 181.3 1.92357C182.9 -1.07643 173.3 0.423518 170.2 1.62352C158.3 6.12352 148.9 13.5235 143.1 25.1235C142.6 26.1235 142 26.9235 141.2 27.6235C138.3 30.1235 136.9 33.4235 136 37.0235C134.1 44.6235 133.1 52.2235 132.3 60.0235C132.1 62.3235 131.1 63.3235 128.9 62.3235C128.1 61.9235 116.1 55.3235 87.1001 55.0235C85.8001 55.0235 85.2001 57.4236 84.8 57.4236C73.2001 58.2236 61.5 62.5236 51.9 68.4236C38.6 76.5236 28.5001 88.4236 18.1001 99.7236C16.3001 101.724 14.4001 103.324 12.2001 104.124C10.6001 104.724 8.80005 104.924 6.80005 104.424C4.40005 103.824 2.4 103.424 1 105.224C-0.5 107.224 0.100073 110.824 4.70007 111.824C2.00007 112.524 1.00002 117.624 5.40002 118.324C4.80002 119.024 3.00002 121.124 6.90002 122.724C12.6 125.024 17.7 123.324 22.4 120.124C30.7 114.424 37.6 107.124 45 100.324C51.8 94.0235 58.7 87.8236 66.9 83.4236C71.2 81.1236 75.1 78.2235 80.5 81.6235C83.2 83.3235 86.9001 83.3236 90.1001 84.2236C94.2001 85.4236 94.3001 85.6235 91.7001 89.0235C83.1001 100.524 76.7001 113.424 70.1001 126.124C69.2001 127.824 68.6 129.824 70.4 131.124C72.6 132.724 71.9001 134.124 70.7001 135.724C64.3001 144.824 58.9001 154.524 53.2001 164.024C49.3001 170.424 45.3 176.724 41.3 183.224C39.9 182.124 40.3 180.824 40.3 179.724C40 169.224 39.7001 158.824 40.1001 148.324C40.3001 143.324 38.9001 141.824 34.1001 141.624C27.6001 141.324 21.1001 141.324 14.7001 141.924C10.4001 142.324 6.20005 143.424 2.30005 145.324C1.10005 145.824 0 146.524 0 148.124C0 149.724 1.40002 149.924 2.40002 150.424C4.90002 151.624 7.70002 151.324 10.4 151.524C15.9 152.024 16.4 152.324 15.8 157.824C14.1 173.424 14.4 189.024 14.8 204.724C15 212.124 17.5 218.924 22.8 224.324C27.9 229.524 33.9 231.824 41.3 229.324C47.1 227.324 52.2001 224.224 56.7001 220.124C66.9001 210.824 76.2001 200.624 85.8 190.724C87.7001 188.724 89 188.624 91 190.624C96.2 195.824 100.8 201.524 106.4 206.324C121.7 219.624 136.2 233.824 150 248.624C160.7 260.024 171.2 271.624 183.1 281.824C193.1 290.324 202.9 299.124 212.7 307.824C214.3 309.224 215.7 308.724 217 307.524C226.2 298.324 234.9 288.824 240.6 277.024C241.8 274.624 241.8 271.924 241 269.424C239.9 266.224 237.9 265.624 235 267.324C231.4 269.424 228.5 272.324 225.6 275.224C223.4 277.324 222 277.324 219.9 274.924C206.3 259.324 192.5 243.924 178 229.124C163.4 214.224 150.6 197.924 137.7 181.524C132.7 175.224 132.7 175.224 137.7 169.024C138.7 167.824 139.8 167.024 141.3 167.524C144.1 168.724 145.6 167.224 147.2 165.124C147.2 165.024 160.8 146.024 176.9 121.224C178 119.524 179.2 118.824 181.5 119.824C184 121.024 186.6 122.124 189.2 123.124C190.9 123.824 192.6 125.424 194.2 124.824C196.6 123.924 198.6 124.824 200.4 125.524C205.5 127.524 210.7 128.424 216 129.424C232.1 132.124 243.6 126.124 249.9 110.924C253.5 102.324 254.2 93.1236 254.3 83.9236C254.4 73.6236 254.2 62.8235 254.3 52.0235ZM148.3 55.0235C148.5 53.7235 149.7 52.7235 151.1 52.6235C154.2 52.4235 154.5 50.5235 154 48.1235C153.4 45.6235 152.9 43.1235 152.2 40.6235C151.8 38.8235 152.3 37.6235 153.9 36.6235C162.1 31.5235 170.3 26.3235 178.5 21.1235C180.3 19.9235 181.8 20.0235 182.7 22.0235C183.8 24.2235 181.9 24.4235 180.6 25.1235C179.8 25.5235 178 25.4235 178.6 27.0235C179.1 28.4235 180.3 27.3235 181.1 27.3235C182.2 27.3235 183.4 26.9236 184.3 27.2236C185.9 27.8236 187.3 28.8236 185.2 30.7236C184.4 31.5236 183.3 32.2235 183.3 33.6235C183.3 34.3235 184.2 34.5236 184.6 33.9236L184.7 33.8235C185.2 32.8235 185.9 31.7235 187 31.8235C187.6 31.8235 187.8 32.2235 188 32.6235C189.9 36.7235 191.2 40.2236 191.4 40.7236C191.8 42.2236 191 43.6235 189.4 44.6235C185 47.5235 180.8 50.7235 176.9 54.3235C175.5 55.7235 172.9 57.2236 174.1 59.2236C175.5 61.6236 178 59.6235 179.9 59.0235C182.6 58.2235 185.1 56.9235 187.6 55.8235C188.5 55.4235 189.5 54.9235 190.3 55.8235C191.1 56.7235 190.6 57.6235 190.2 58.5235C188.7 62.4235 185.3 64.4235 181.9 65.6235C177.8 67.0235 176.3 70.0235 175.2 73.6235C174.3 76.3235 173.4 78.9235 172.5 81.5235C171.9 83.2235 170.9 83.8236 169.1 83.7236C162.6 83.3236 156.6 81.6236 151.6 77.2236C150.3 76.1236 149.9 74.9235 150.5 73.3235C151.9 69.7235 152.6 65.9235 152.9 62.0235C153 60.1235 152.7 58.6236 150.6 57.9236C149.2 57.3236 148.1 56.5235 148.3 55.0235ZM79.8 75.1235C79.3 76.1235 78.8 76.9235 77.5 77.1235C68.1 78.6235 60.6 83.8236 53.4 89.4236C44.8 96.1236 37.4001 104.224 29.1001 111.424C27.6001 112.724 26.1 114.024 24.5 115.224C24 115.624 17.0001 120.724 14.7001 121.124C12.6001 121.524 7.90002 121.924 7.40002 120.224C7.00002 118.924 10.1 118.324 11.4 117.724C12 117.524 12.7001 117.324 12.6001 116.524C12.5001 115.724 11.8001 115.624 11.1001 115.724C7.4001 116.224 5.50005 116.124 5.30005 115.124C4.90005 113.124 11.5 113.924 11 111.624C10.8 110.724 9.8001 110.824 9.1001 110.824C7.3001 110.924 5.7001 110.224 4.1001 109.524C3.2001 109.124 2.7001 108.324 3.1001 107.424C3.5001 106.524 4.4001 107.024 5.1001 107.224C11.0001 108.724 15.5001 106.624 19.6001 102.424C29.9001 91.7236 39.1001 79.9236 51.7001 71.7236C60.7001 65.9236 70.5001 61.7236 81.2001 60.2236C83.5001 59.9236 84.8 60.5236 83.9 62.9236C82.6 66.9236 81.8 71.2235 79.8 75.1235ZM31.4 151.324C32.3 151.224 33.2 151.024 34 150.724C37.1 149.724 37.7001 151.324 37.7001 154.024C37.4001 165.024 37.6 176.024 38.4 187.024C38.5 188.124 38 189.724 39.4 190.124C40.9 190.524 41.2001 188.824 41.7001 187.924C52.1001 171.424 62.5 154.924 72.9 138.524C73.7 137.324 74.2 135.324 76 135.724C77.6 136.024 79.4001 136.724 79.7001 138.824C78.6001 141.024 76.3 145.624 73.3 151.324C72.7001 151.224 72.1001 151.324 71.8 152.124C71.5 152.924 71.8001 153.224 72.2001 153.524C69.3001 159.024 65.8001 165.324 62.1001 171.624C45.1001 200.724 38.4 204.324 35.9 203.924C28.3 202.524 29.1 171.624 31.4 151.324ZM81.6001 139.524C85.4001 138.924 87.7 142.324 90.9 143.424C92.3 143.924 91.7001 144.824 91.1001 145.724C88.7001 148.924 79.9 152.124 75.4 151.624C78.3 146.124 80.5001 141.624 81.6001 139.524ZM136.2 185.124C151 204.324 166.4 223.024 183.4 240.324C195.7 252.824 207.2 266.124 219.2 279.024C220.9 280.824 221 282.124 219.3 284.024C216.8 286.724 214.5 289.624 212.2 292.424C211.1 293.824 209.9 294.124 208.3 293.324C203.7 291.124 200.9 286.824 197.4 283.424C174.5 261.424 154 237.024 131.2 214.924C121.4 205.424 111.3 196.124 102.4 185.724C102 185.224 101.6 184.024 100.7 184.924C100 185.624 100.8 186.524 101.3 187.124C106.4 193.524 112 199.524 118 205.124C133 219.124 147.3 233.724 161.3 248.624C175.5 263.824 190.1 278.624 205.1 293.024C206.1 294.024 208.5 295.324 207.2 296.724C205.7 298.324 204.5 295.824 203.4 294.924C193.7 286.524 184 278.124 174.6 269.424C164.7 260.124 155.7 249.924 146.4 240.024C134 226.924 121 214.424 107.4 202.724C101.9 198.024 97.2 192.524 92 187.524C91.4 187.024 91 186.424 90.9 185.624C90.8 184.724 91.2 183.424 89.9 183.124C88.8 182.824 88.2001 183.924 87.6001 184.624C78.8001 193.624 70.1001 202.724 61.3 211.724C56.2001 216.924 50.9 222.024 44 224.924C36.7 228.124 29.3 226.324 24.4 220.024C20.4 214.924 18.3001 209.024 18.1001 202.724C17.6001 187.024 17.7001 171.224 18.7001 155.524C18.9001 152.724 19.8 151.424 22.8 151.524C25 151.624 27.2 151.724 29.3 151.524C28.1 162.424 24.2 203.824 35.5 205.724C35.7 205.724 36 205.824 36.4 205.824C39.1 205.824 45.8001 203.124 63.7001 172.524C67.5001 166.024 71.1001 159.524 74.1001 153.824C80.1001 154.924 85.1001 152.324 89.6001 149.024C94.5001 145.524 94.4001 145.124 99.7001 148.224C100.8 148.824 103.4 150.324 106.4 151.924C104.2 155.824 99.7001 163.524 95.7001 170.924C95.6001 171.124 95.5001 171.424 95.6001 171.724C95.7001 172.024 95.9001 172.224 96.1001 172.324C97.1001 172.724 98 172.924 99 172.924C106.1 172.924 112.9 161.824 115.6 156.824C116.8 157.424 117.7 157.924 118.1 158.024C120.8 159.224 123.4 160.424 126 161.624C127.3 162.224 128.2 163.324 128 164.724C127 173.024 131.5 179.124 136.2 185.124ZM114.2 155.924C110.9 162.124 104.1 172.124 98.2001 170.824C102.1 163.724 106.2 156.524 108.3 152.824C110.3 153.924 112.4 155.024 114.2 155.924ZM135.5 166.024C136.5 166.624 132.9 171.324 131.1 173.324C130 171.924 128.7 162.424 130.8 163.524C132.2 164.224 133.6 164.824 135.5 166.024ZM196.1 119.124C194.8 121.524 193.2 122.124 190.9 120.724C188 119.024 184.9 117.924 181.8 116.724C179.6 115.824 178 116.224 176.6 118.324C175.8 119.424 175.2 120.324 174.7 121.024L153 152.724C150.7 156.124 148.4 159.524 146.2 162.924C145.6 163.924 144.9 164.624 143 164.524C140.2 163.424 136.8 162.024 133.4 160.724C118 154.724 104.3 145.424 89.6001 138.124C85.0001 135.824 80.5001 133.224 76.1001 130.524C73.7001 129.124 72.8 127.524 74.4 124.824C76.4 121.424 84.8 105.324 85.3 104.524C86.2001 103.024 96.9001 87.2236 97.6001 85.9236C98.3001 84.7236 97.3001 82.8235 95.7001 82.5235C91.6001 81.6235 88 80.7235 83.8 80.3235C81.8 80.1235 80.7001 79.0235 81.6001 77.0235C83.9001 72.2235 85.3001 67.1236 87.1001 62.2236C88.1001 59.5236 89.5001 58.7235 92.1001 59.0235C93.6001 59.2235 95.1001 59.2235 95.7001 59.3235C107.2 59.8235 117.5 62.2235 127.4 66.0235C128.6 66.5235 130.8 67.2235 131.5 68.0235C131.2 69.1235 130.9 70.0236 130.7 71.9236C130.7 72.1236 130.4 79.3236 137 74.2236C136.7 77.9236 139.8 79.8236 142.6 75.9236C143.2 81.8236 148.4 77.4235 150.8 79.8235C156.5 85.4235 163.9 86.5236 171.5 85.9236C175 85.7236 177.7 87.5235 180.6 88.8235C188.2 92.0235 195.7 95.6236 203.3 98.9236C206 100.124 206.5 101.424 204.8 104.024C201.6 108.924 198.8 114.024 196.1 119.124ZM250.9 85.9236C250.9 95.0236 249.8 104.224 246.3 112.824C242.5 122.124 233.4 127.824 223.4 126.924C215.9 126.324 208.5 124.924 201.3 122.324C198.5 121.324 198.2 120.324 199.6 117.824C201.7 114.224 203.7 110.524 205.7 106.824C206.7 104.924 208.1 104.224 210.2 104.624C213.8 105.324 217.3 106.524 221 106.724C227.8 107.124 231.9 104.224 233.3 97.4236C236.5 81.4236 236.5 65.3235 236.4 49.1235C236.4 44.9235 236.4 40.7235 236.4 36.5235C236.4 35.4235 236.5 33.3236 237.3 33.2236C238.6 33.0236 238.3 35.0236 238.4 35.9236C238.5 36.7236 238.4 37.8235 239.6 37.8235C241 37.8235 241 36.8235 241.2 35.8235C241.3 35.1235 241.3 34.3235 241.4 33.5235C241.5 32.8235 241.4 31.8235 242.4 31.8235C243.3 31.8235 243.5 32.7236 243.8 33.4236C244.1 34.3236 244 35.8235 245.2 35.8235C246.9 35.8235 245.9 31.9235 248.1 32.6235C248.4 32.7235 248.6 32.8235 248.8 33.0235C251.8 35.9235 250.9 85.9236 250.9 85.9236ZM20 243.924C18.4 242.924 17.5 241.624 17.9 239.624C18.3 237.524 19.6 236.924 21.4 237.824C27.8 241.124 34.3001 242.424 41.2001 239.524C41.9001 239.224 42.8001 239.224 43.2001 240.024C43.8001 241.124 43.3 242.124 42.5 242.924C36.4 248.824 23.6 246.224 20 243.924ZM49.7001 248.324C50.7001 247.624 51.8 246.624 52.8 247.824C53.8 248.924 52.8 250.024 52 250.924C46.6 256.424 40 258.124 32.5 256.824C30.9 256.524 30.4 255.524 30.5 254.024C30.6 252.724 31.4 251.824 32.8 251.824C38.2001 252.024 42.9001 253.624 49.7001 248.324ZM183.8 38.3235C183.1 38.5235 182 38.5235 181.2 39.0235C178.6 40.4235 177.4 38.9235 176.5 36.8235C176.1 35.9235 175.7 34.8236 176.8 34.2236C177.9 33.6236 178.3 34.8235 178.7 35.5235C180 37.6235 181.8 36.9236 183.6 36.7236C185.2 36.5236 187.3 35.7235 188.2 37.8235C189 39.8235 187.6 41.3236 186.1 42.4236C184.8 43.3236 183.5 44.2235 182.1 45.0235C181.6 45.3235 180.8 45.5235 180.5 44.6235C180.3 44.0235 180.7 43.6235 181.2 43.3235C182.4 42.5235 183.7 41.7235 184.9 40.8235C185.4 40.4235 186.3 40.0235 185.9 39.0235C185.5 38.2235 184.7 38.4235 183.8 38.3235ZM161.5 36.7236C163.3 34.8236 165.3 33.1236 167.6 31.7236C168.2 31.3236 168.9 32.2236 168.4 32.7236C166.6 34.6236 164.5 36.2235 162.4 37.6235C161.7 38.1235 161 37.3236 161.5 36.7236ZM170.1 42.6235C170.3 44.1235 165 45.4235 164.8 43.5235C164.6 42.1235 169.8 41.0235 170.1 42.6235Z" fill="white"/>
</svg>
