<svg width="475" height="717" viewBox="0 0 475 717" fill="none" xmlns="http://www.w3.org/2000/svg">
<path d="M36.8322 199.98L53.2238 201.833L54.6617 204.541L34.5937 215.198L33.1163 212.416L48.5476 204.221L33.1714 202.4L32.7577 201.621L39.8608 187.863L24.4295 196.057L22.9521 193.275L43.0202 182.618L44.4582 185.326L36.8322 199.98ZM47.5509 217.926C45.615 219.176 44.3973 220.853 43.8977 222.957C43.4229 225.048 43.7633 227.182 44.9189 229.358C46.2452 231.856 48.1184 233.413 50.5385 234.03L49.8518 236.678C48.2632 236.253 46.8175 235.531 45.5149 234.51C44.2501 233.502 43.1844 232.181 42.3177 230.549C41.254 228.546 40.7405 226.504 40.7772 224.424C40.8139 222.344 41.3806 220.426 42.4774 218.671C43.5874 216.94 45.1315 215.55 47.1099 214.499C49.0882 213.448 51.0797 212.93 53.0841 212.943C55.1264 212.968 57.0064 213.524 58.724 214.609C60.4415 215.694 61.8322 217.238 62.8959 219.241C63.8676 221.071 64.3197 222.908 64.2522 224.751C64.1846 226.594 63.6125 228.292 62.5358 229.847C61.4723 231.426 59.9884 232.721 58.0842 233.733C57.7133 233.93 57.1372 234.188 56.3559 234.508L47.5509 217.926ZM60.3734 220.581C59.2966 218.553 57.8101 217.186 55.914 216.481C54.031 215.801 52.0535 215.868 49.9817 216.683L57.3882 230.631C59.3604 229.33 60.5878 227.79 61.0703 226.012C61.5906 224.246 61.3583 222.435 60.3734 220.581ZM63.534 264.324L81.3764 254.849L82.8537 257.631L62.7857 268.288L49.8638 243.954L69.9318 233.297L71.4092 236.079L53.5668 245.554L57.8215 253.566L75.664 244.092L77.1413 246.874L59.2989 256.348L63.534 264.324ZM90.2104 270.679C91.7074 273.498 92.1443 275.992 91.5211 278.162C90.9358 280.343 89.3696 282.11 86.8224 283.463L74.3587 290.081L72.8813 287.299L77.444 284.877C75.9186 284.989 74.282 284.653 72.5342 283.87C70.8112 283.073 69.4441 281.722 68.4329 279.818C67.3036 277.691 66.9728 275.695 67.4406 273.83C67.9216 271.989 69.0771 270.583 70.9071 269.611C72.7865 268.613 74.6809 268.479 76.5901 269.209C78.5126 269.963 80.1304 271.577 81.4436 274.05C82.4941 276.029 83.5597 278.364 84.6403 281.055L85.308 280.701C87.0885 279.755 88.1605 278.52 88.5239 276.996C88.9252 275.483 88.6006 273.737 87.5501 271.759C86.9854 270.695 86.2163 269.725 85.2428 268.847C84.2941 267.955 83.2313 267.267 82.0545 266.783L83.3462 264.29C84.839 264.892 86.1691 265.755 87.3365 266.879C88.5039 268.003 89.4618 269.269 90.2104 270.679ZM71.4455 279.312C72.1152 280.573 73.0473 281.552 74.2418 282.249C75.4495 282.971 76.7179 283.36 78.0469 283.415C79.4007 283.457 80.6093 283.196 81.6727 282.631L82.2662 282.316C81.5781 280.303 80.6365 278.172 79.4415 275.922C78.4566 274.067 77.3487 272.817 76.1179 272.17C74.9118 271.511 73.6905 271.51 72.454 272.166C71.2422 272.81 70.5513 273.747 70.381 274.979C70.2108 276.211 70.5656 277.655 71.4455 279.312ZM87.12 292.441C85.1841 293.691 83.9664 295.368 83.4668 297.472C82.992 299.563 83.3324 301.697 84.488 303.873C85.8143 306.371 87.6875 307.928 90.1076 308.545L89.421 311.192C87.8323 310.768 86.3867 310.045 85.084 309.025C83.8193 308.017 82.7535 306.696 81.8868 305.064C80.8231 303.061 80.3096 301.019 80.3463 298.939C80.383 296.859 80.9497 294.941 82.0465 293.186C83.1565 291.455 84.7006 290.064 86.679 289.014C88.6574 287.963 90.6488 287.445 92.6532 287.458C94.6955 287.483 96.5755 288.038 98.2931 289.124C100.011 290.209 101.401 291.753 102.465 293.756C103.437 295.586 103.889 297.423 103.821 299.266C103.754 301.108 103.182 302.807 102.105 304.362C101.041 305.941 99.5575 307.236 97.6534 308.247C97.2824 308.444 96.7063 308.703 95.925 309.023L87.12 292.441ZM99.9426 295.096C98.8657 293.068 97.3793 291.701 95.4831 290.996C93.6001 290.316 91.6227 290.383 89.5508 291.198L96.9573 305.146C98.9295 303.845 100.157 302.305 100.639 300.527C101.16 298.761 100.927 296.95 99.9426 295.096ZM107.807 304.622L116.908 321.76L114.348 323.119L110.527 315.923L93.0181 325.22L91.5407 322.438L109.049 313.14L105.248 305.981L107.807 304.622ZM130.515 346.579C131.474 348.384 131.902 350.265 131.799 352.221C131.697 354.178 131.065 356.003 129.904 357.698C128.781 359.404 127.231 360.782 125.252 361.832C123.249 362.896 121.226 363.415 119.184 363.39C117.18 363.377 115.338 362.865 113.66 361.854C112.007 360.829 110.694 359.402 109.722 357.572C108.816 355.866 108.341 354.105 108.296 352.29C108.265 350.5 108.682 348.836 109.546 347.299L99.4189 352.677L97.9416 349.895L124.39 335.85L125.867 338.632L122.121 340.622C123.853 340.78 125.459 341.385 126.938 342.439C128.416 343.492 129.609 344.872 130.515 346.579ZM112.102 355.785C112.851 357.195 113.849 358.298 115.096 359.094C116.367 359.877 117.749 360.269 119.239 360.27C120.768 360.283 122.286 359.888 123.795 359.087C125.328 358.273 126.517 357.229 127.363 355.956C128.222 354.708 128.683 353.337 128.746 351.845C128.823 350.378 128.481 348.927 127.719 347.493C126.931 346.009 125.895 344.863 124.61 344.055C123.35 343.234 121.949 342.805 120.407 342.768C118.879 342.755 117.348 343.156 115.815 343.97C114.281 344.784 113.092 345.828 112.246 347.102C111.414 348.4 110.985 349.8 110.959 351.304C110.933 352.808 111.314 354.302 112.102 355.785ZM142.091 368.378C143.588 371.197 144.025 373.691 143.402 375.861C142.816 378.042 141.25 379.809 138.703 381.162L126.239 387.78L124.762 384.998L129.324 382.575C127.799 382.688 126.162 382.352 124.415 381.568C122.692 380.771 121.324 379.421 120.313 377.517C119.184 375.39 118.853 373.394 119.321 371.529C119.802 369.688 120.957 368.282 122.787 367.31C124.667 366.312 126.561 366.178 128.471 366.908C130.393 367.662 132.011 369.276 133.324 371.749C134.375 373.727 135.44 376.062 136.521 378.754L137.188 378.399C138.969 377.454 140.041 376.219 140.404 374.694C140.806 373.181 140.481 371.436 139.43 369.457C138.866 368.394 138.097 367.423 137.123 366.545C136.174 365.654 135.112 364.966 133.935 364.482L135.227 361.989C136.719 362.591 138.049 363.454 139.217 364.578C140.384 365.701 141.342 366.968 142.091 368.378ZM123.326 377.011C123.996 378.272 124.928 379.251 126.122 379.948C127.33 380.67 128.598 381.059 129.927 381.114C131.281 381.156 132.49 380.894 133.553 380.33L134.147 380.015C133.458 378.002 132.517 375.871 131.322 373.621C130.337 371.766 129.229 370.515 127.998 369.869C126.792 369.21 125.571 369.208 124.334 369.865C123.123 370.509 122.432 371.446 122.261 372.678C122.091 373.909 122.446 375.354 123.326 377.011ZM132.292 400.075C131.32 398.245 130.7 396.45 130.432 394.69C130.201 392.942 130.219 391.395 130.487 390.048L133.168 389.813C133.001 391.17 133.023 392.585 133.234 394.058C133.471 395.518 133.956 396.94 134.692 398.325C135.585 400.006 136.628 401.165 137.821 401.799C139.052 402.445 140.211 402.48 141.299 401.902C142.338 401.35 142.904 400.447 142.999 399.192C143.106 397.962 142.747 396.568 141.919 395.01L139.792 391.004L141.758 389.96L143.885 393.966C145.579 397.156 147.502 398.18 149.654 397.037C150.791 396.433 151.425 395.478 151.556 394.173C151.687 392.867 151.299 391.361 150.393 389.654C149.763 388.467 148.973 387.428 148.025 386.537C147.114 385.657 146.042 384.863 144.81 384.154L146.32 382.163C149.136 383.585 151.325 385.767 152.888 388.71C154.162 391.109 154.679 393.307 154.44 395.304C154.225 397.289 153.203 398.767 151.373 399.738C150.26 400.329 149.182 400.537 148.138 400.363C147.094 400.188 146.117 399.692 145.208 398.875C145.403 400.198 145.282 401.372 144.844 402.397C144.418 403.447 143.637 404.275 142.499 404.879C141.288 405.522 140.034 405.728 138.738 405.497C137.48 405.277 136.276 404.68 135.124 403.707C134.011 402.744 133.067 401.534 132.292 400.075ZM156.263 419.424C156.805 421.102 156.861 422.61 156.43 423.948C156.037 425.298 155.185 426.321 153.875 427.017C152.218 427.896 150.565 427.918 148.916 427.082C147.267 426.245 145.832 424.677 144.611 422.377L139.332 412.436L159.4 401.78L164.443 411.276C165.585 413.427 166.021 415.352 165.749 417.049C165.502 418.734 164.6 419.99 163.042 420.817C161.855 421.447 160.67 421.633 159.486 421.374C158.34 421.127 157.266 420.476 156.263 419.424ZM158.355 405.901L152.16 409.191L155.706 415.868C156.415 417.203 157.232 418.085 158.157 418.513C159.082 418.941 160.051 418.886 161.065 418.348C162.029 417.836 162.574 417.071 162.7 416.053C162.863 415.047 162.557 413.815 161.782 412.356L158.355 405.901ZM147.074 420.927C147.889 422.46 148.778 423.478 149.742 423.98C150.719 424.507 151.715 424.502 152.729 423.963C153.693 423.451 154.231 422.643 154.342 421.538C154.466 420.457 154.16 419.225 153.424 417.84L149.564 410.57L143.332 413.879L147.074 420.927ZM180.788 442.056L160.719 452.712L159.242 449.93L174.933 441.598L152.19 436.65L151.008 434.425L171.076 423.768L172.554 426.55L156.937 434.843L179.586 439.793L180.788 442.056ZM183.002 446.226L192.102 463.363L189.543 464.722L185.721 457.526L168.213 466.824L166.736 464.041L184.244 454.744L180.442 447.585L183.002 446.226ZM203.313 484.475L183.245 495.132L181.768 492.35L197.459 484.017L174.716 479.07L173.534 476.844L193.602 466.188L195.08 468.97L179.463 477.263L202.112 482.212L203.313 484.475ZM216.695 508.87C217.759 510.873 218.273 512.914 218.236 514.995C218.199 517.075 217.632 518.993 216.536 520.748C215.464 522.49 213.951 523.88 211.997 524.918C210.019 525.968 207.983 526.463 205.89 526.401C203.821 526.327 201.902 525.729 200.134 524.607C198.39 523.473 196.986 521.904 195.923 519.901C194.924 518.021 194.402 516.111 194.354 514.171C194.331 512.217 194.763 510.403 195.649 508.728C196.559 507.04 197.859 505.636 199.547 504.518L196.632 499.028L187.804 503.716L186.326 500.934L206.394 490.277L207.872 493.059L199.192 497.669L202.107 503.159C203.968 502.424 205.828 502.166 207.687 502.383C209.546 502.6 211.266 503.272 212.847 504.398C214.428 505.525 215.71 507.015 216.695 508.87ZM198.502 518.579C199.29 520.062 200.326 521.208 201.611 522.016C202.909 522.848 204.322 523.271 205.851 523.283C207.392 523.321 208.93 522.932 210.463 522.118C211.996 521.304 213.179 520.248 214.011 518.95C214.857 517.677 215.286 516.276 215.299 514.747C215.336 513.206 214.961 511.693 214.173 510.209C213.385 508.725 212.342 507.567 211.044 506.735C209.784 505.914 208.383 505.485 206.841 505.448C205.3 505.41 203.762 505.799 202.229 506.613C200.696 507.427 199.513 508.483 198.681 509.781C197.848 511.079 197.413 512.499 197.376 514.04C197.339 515.582 197.714 517.095 198.502 518.579Z" fill="#303030"/>
<path d="M21.1 150.001L11.7 180.701M1 160.601L31.8 170.101" stroke="#303030" stroke-width="6" stroke-miterlimit="10"/>
<path d="M161.517 141.566C161.145 139.329 161.308 137.23 162.004 135.269C162.701 133.309 163.848 131.671 165.446 130.356C167.077 129.063 168.997 128.234 171.207 127.867C173.416 127.501 175.474 127.67 177.379 128.376C179.317 129.104 180.931 130.284 182.224 131.914C183.516 133.545 184.348 135.479 184.719 137.716C185.095 139.981 184.935 142.094 184.238 144.054C183.542 146.015 182.394 147.652 180.796 148.968C179.226 150.279 177.349 151.115 175.167 151.477C172.957 151.844 170.87 151.665 168.905 150.941C166.968 150.212 165.339 149.035 164.019 147.409C162.727 145.779 161.892 143.831 161.517 141.566ZM164.382 141.133C164.657 142.791 165.276 144.206 166.237 145.381C167.203 146.583 168.41 147.447 169.86 147.973C171.309 148.499 172.891 148.619 174.603 148.335C176.316 148.051 177.773 147.426 178.975 146.46C180.177 145.494 181.027 144.289 181.526 142.844C182.051 141.394 182.177 139.841 181.902 138.183C181.627 136.526 181.006 135.096 180.04 133.894C179.107 132.715 177.915 131.863 176.466 131.337C175.016 130.811 173.435 130.691 171.722 130.975C170.01 131.259 168.552 131.884 167.35 132.85C166.148 133.815 165.284 135.023 164.759 136.473C164.233 137.922 164.107 139.476 164.382 141.133ZM186.574 151.206L189.751 170.348L186.892 170.822L185.558 162.784L166.002 166.03L165.486 162.922L185.043 159.677L183.716 151.68L186.574 151.206ZM193.609 193.598L171.194 197.317L170.678 194.21L190.607 190.903L188.304 177.023L168.375 180.33L167.859 177.222L190.274 173.503L193.609 193.598ZM197.463 216.825L198.027 220.223L173.996 214.206L171.725 213.603C169.686 213.118 168.152 212.337 167.121 211.259C166.063 210.186 165.376 208.696 165.06 206.79C164.936 206.045 164.923 205.281 165.02 204.498C165.117 203.716 165.293 203.062 165.546 202.538L167.914 203.209C167.573 204.06 167.501 205.08 167.698 206.268C167.89 207.428 168.322 208.321 168.994 208.948C169.67 209.602 170.662 210.104 171.969 210.455L173.481 210.843L194.232 197.352L194.796 200.749L177.278 211.916L197.463 216.825ZM175.977 226.141L198.392 222.421L200.991 238.083L198.505 238.495L196.422 225.941L176.492 229.248L175.977 226.141ZM204.884 261.541L182.468 265.261L181.953 262.153L199.479 259.245L179.491 247.32L179.079 244.834L201.494 241.115L202.01 244.222L184.566 247.117L204.464 259.014L204.884 261.541ZM197.372 283.752C197.353 285.515 196.926 286.962 196.092 288.094C195.29 289.249 194.157 289.947 192.693 290.19C190.842 290.497 189.269 289.992 187.971 288.675C186.674 287.357 185.813 285.414 185.386 282.845L183.544 271.741L205.959 268.022L207.719 278.629C208.118 281.032 207.918 282.995 207.121 284.518C206.351 286.036 205.096 286.94 203.356 287.229C202.03 287.449 200.847 287.248 199.808 286.626C198.8 286.026 197.988 285.068 197.372 283.752ZM203.657 271.597L196.738 272.745L197.975 280.203C198.223 281.695 198.717 282.79 199.458 283.491C200.198 284.191 201.135 284.447 202.267 284.259C203.345 284.08 204.104 283.528 204.547 282.604C205.022 281.702 205.124 280.436 204.853 278.806L203.657 271.597ZM188.183 282.254C188.467 283.966 188.987 285.214 189.741 285.997C190.5 286.808 191.446 287.119 192.578 286.931C193.655 286.752 194.422 286.157 194.879 285.145C195.34 284.16 195.442 282.894 195.185 281.347L193.838 273.226L186.877 274.381L188.183 282.254ZM211.789 300.848C212.312 303.997 211.933 306.501 210.652 308.36C209.403 310.242 207.356 311.419 204.511 311.891L190.589 314.201L190.074 311.093L195.17 310.248C193.688 309.869 192.243 309.03 190.836 307.731C189.456 306.428 188.589 304.712 188.236 302.586C187.842 300.21 188.163 298.212 189.2 296.593C190.242 295.001 191.784 294.035 193.828 293.696C195.928 293.348 197.766 293.823 199.344 295.122C200.927 296.449 201.947 298.494 202.406 301.256C202.772 303.466 203.04 306.018 203.208 308.914L203.954 308.79C205.943 308.46 207.352 307.63 208.181 306.301C209.043 304.994 209.29 303.236 208.924 301.026C208.727 299.838 208.306 298.673 207.663 297.531C207.047 296.385 206.258 295.394 205.296 294.561L207.314 292.608C208.538 293.654 209.524 294.895 210.274 296.332C211.023 297.768 211.528 299.274 211.789 300.848ZM191.253 303.064C191.487 304.473 192.059 305.698 192.97 306.739C193.885 307.807 194.964 308.579 196.207 309.054C197.477 309.524 198.706 309.661 199.893 309.464L200.556 309.354C200.544 307.227 200.329 304.907 199.912 302.394C199.568 300.322 198.916 298.784 197.955 297.78C197.021 296.771 195.863 296.381 194.482 296.61C193.129 296.835 192.175 297.504 191.622 298.618C191.069 299.731 190.946 301.213 191.253 303.064ZM201.937 320.497C199.704 321.067 198.016 322.269 196.873 324.105C195.758 325.936 195.402 328.067 195.806 330.498C196.269 333.288 197.549 335.36 199.647 336.715L198.154 339.006C196.783 338.098 195.642 336.954 194.732 335.572C193.854 334.214 193.263 332.623 192.961 330.8C192.589 328.562 192.752 326.463 193.448 324.503C194.145 322.543 195.292 320.905 196.89 319.589C198.493 318.301 200.4 317.474 202.609 317.108C204.819 316.741 206.872 316.883 208.768 317.533C210.696 318.207 212.302 319.331 213.585 320.906C214.868 322.481 215.695 324.387 216.067 326.625C216.406 328.669 216.25 330.554 215.6 332.279C214.95 334.005 213.867 335.434 212.352 336.565C210.841 337.724 209.022 338.48 206.896 338.833C206.481 338.902 205.853 338.963 205.01 339.018L201.937 320.497ZM213.249 327.092C212.873 324.827 211.899 323.059 210.325 321.788C208.757 320.544 206.861 319.978 204.637 320.092L207.222 335.671C209.506 335.065 211.159 333.996 212.182 332.463C213.237 330.954 213.593 329.164 213.249 327.092ZM217.675 338.626L220.851 357.768L217.992 358.242L216.659 350.204L197.102 353.449L196.587 350.342L216.143 347.097L214.816 339.1L217.675 338.626ZM204.272 396.658L203.695 393.177L212.153 383.6L211.342 378.711L201.563 380.333L201.048 377.226L223.463 373.506L223.979 376.614L214.118 378.25L214.936 383.18L226.007 388.836L226.578 392.275L214.147 385.61L204.272 396.658ZM207.87 418.34L207.355 415.233L227.284 411.926L225.51 401.236L214.033 402.885C211.791 403.229 210.008 403.255 208.682 402.964C207.389 402.696 206.418 402.148 205.769 401.319C205.149 400.485 204.717 399.336 204.474 397.872L206.794 397.487C207.014 398.643 207.635 399.391 208.657 399.733C209.706 400.069 211.409 400.071 213.766 399.736L227.487 397.757L230.286 414.621L207.87 418.34ZM234.695 441.192L212.28 444.912L211.764 441.804L229.29 438.896L209.303 426.971L208.89 424.485L231.305 420.766L231.821 423.873L214.378 426.768L234.275 438.665L234.695 441.192ZM223.698 451.634C221.465 452.204 219.777 453.406 218.634 455.242C217.519 457.073 217.163 459.204 217.567 461.635C218.029 464.425 219.31 466.497 221.408 467.852L219.915 470.143C218.544 469.235 217.403 468.091 216.493 466.709C215.614 465.351 215.024 463.76 214.722 461.937C214.35 459.699 214.513 457.6 215.209 455.64C215.906 453.68 217.053 452.042 218.651 450.726C220.254 449.439 222.16 448.611 224.37 448.245C226.58 447.878 228.633 448.02 230.529 448.67C232.457 449.344 234.063 450.468 235.346 452.043C236.629 453.618 237.456 455.525 237.828 457.762C238.167 459.806 238.011 461.691 237.361 463.417C236.711 465.142 235.628 466.571 234.113 467.702C232.602 468.861 230.783 469.617 228.656 469.97C228.242 470.039 227.614 470.1 226.771 470.155L223.698 451.634ZM235.01 458.229C234.634 455.964 233.66 454.196 232.086 452.925C230.518 451.681 228.621 451.115 226.398 451.229L228.983 466.808C231.267 466.202 232.92 465.133 233.943 463.601C234.998 462.091 235.354 460.301 235.01 458.229ZM233.234 491.908L242.846 490.313L243.362 493.421L220.946 497.14L220.431 494.033L230.458 492.369L228.154 478.489L218.127 480.153L217.612 477.045L240.027 473.326L240.543 476.433L230.93 478.028L233.234 491.908ZM244.136 498.086L247.312 517.228L244.453 517.702L243.12 509.664L223.563 512.91L223.048 509.802L242.604 506.557L241.277 498.56L244.136 498.086ZM226.705 534.411C226.334 532.174 226.497 530.075 227.193 528.114C227.89 526.154 229.037 524.516 230.635 523.2C232.266 521.908 234.186 521.079 236.395 520.712C238.605 520.345 240.663 520.515 242.568 521.22C244.505 521.949 246.12 523.129 247.412 524.759C248.705 526.389 249.537 528.323 249.908 530.561C250.284 532.826 250.123 534.938 249.427 536.899C248.73 538.859 247.583 540.497 245.985 541.813C244.414 543.123 242.538 543.96 240.356 544.322C238.146 544.689 236.059 544.51 234.094 543.786C232.156 543.057 230.528 541.88 229.208 540.254C227.915 538.624 227.081 536.676 226.705 534.411ZM229.571 533.978C229.846 535.635 230.464 537.051 231.425 538.226C232.391 539.428 233.599 540.292 235.049 540.817C236.498 541.343 238.079 541.464 239.792 541.18C241.504 540.896 242.962 540.271 244.164 539.305C245.366 538.339 246.216 537.134 246.714 535.689C247.24 534.239 247.365 532.686 247.09 531.028C246.815 529.371 246.195 527.941 245.229 526.739C244.296 525.56 243.104 524.708 241.654 524.182C240.205 523.656 238.624 523.535 236.911 523.819C235.199 524.104 233.741 524.729 232.539 525.694C231.337 526.66 230.473 527.868 229.947 529.318C229.421 530.767 229.296 532.321 229.571 533.978ZM243.768 563.343C243.748 565.106 243.321 566.554 242.487 567.686C241.686 568.84 240.553 569.539 239.089 569.782C237.238 570.089 235.664 569.584 234.367 568.267C233.07 566.949 232.208 565.006 231.782 562.437L229.939 551.333L252.354 547.614L254.115 558.221C254.513 560.624 254.314 562.587 253.517 564.11C252.747 565.628 251.492 566.532 249.752 566.821C248.426 567.041 247.243 566.84 246.203 566.217C245.195 565.618 244.384 564.66 243.768 563.343ZM250.053 551.189L243.133 552.337L244.371 559.795C244.618 561.286 245.113 562.382 245.853 563.082C246.594 563.783 247.53 564.039 248.663 563.851C249.74 563.672 250.5 563.12 250.942 562.195C251.417 561.293 251.519 560.028 251.249 558.398L250.053 551.189ZM234.579 561.845C234.863 563.558 235.382 564.806 236.136 565.589C236.895 566.4 237.841 566.711 238.974 566.523C240.051 566.344 240.818 565.749 241.274 564.736C241.735 563.752 241.837 562.486 241.581 560.939L240.233 552.818L233.272 553.973L234.579 561.845Z" fill="#303030"/>
<path d="M172.3 89.501L153.5 115.601M149.8 93.201L176 111.901" stroke="#303030" stroke-width="6" stroke-miterlimit="10"/>
<path d="M277.942 230.931C278.087 228.695 278.721 226.702 279.844 224.951C280.968 223.2 282.443 221.864 284.27 220.945C286.125 220.026 288.184 219.64 290.448 219.787C292.711 219.933 294.689 220.58 296.383 221.728C298.104 222.877 299.409 224.393 300.297 226.274C301.186 228.155 301.558 230.213 301.413 232.449C301.305 234.125 300.895 235.684 300.185 237.125C299.502 238.568 298.523 239.823 297.248 240.891L295.463 238.545C296.473 237.685 297.222 236.737 297.709 235.702C298.197 234.668 298.483 233.508 298.566 232.223C298.672 230.574 298.405 229.07 297.763 227.709C297.122 226.349 296.155 225.248 294.863 224.407C293.57 223.566 292.044 223.089 290.284 222.975C288.495 222.859 286.906 223.135 285.516 223.803C284.126 224.471 283.026 225.437 282.214 226.704C281.401 227.998 280.94 229.483 280.832 231.16C280.749 232.445 280.883 233.618 281.235 234.679C281.616 235.742 282.251 236.765 283.141 237.748L281.112 239.848C279.953 238.679 279.101 237.319 278.556 235.768C278.037 234.248 277.832 232.635 277.942 230.931ZM299.769 257.865C299.637 259.905 299.014 261.731 297.9 263.342C296.786 264.953 295.29 266.175 293.412 267.008C291.561 267.87 289.517 268.229 287.282 268.085C285.019 267.938 283.024 267.318 281.299 266.225C279.601 265.161 278.302 263.758 277.405 262.016C276.536 260.277 276.168 258.373 276.301 256.305C276.426 254.377 276.946 252.629 277.861 251.061C278.774 249.521 280.002 248.324 281.544 247.47L270.103 246.73L270.306 243.586L300.189 245.519L299.986 248.662L295.753 248.388C297.144 249.432 298.193 250.791 298.898 252.464C299.604 254.137 299.894 255.937 299.769 257.865ZM279.265 256.034C279.162 257.627 279.432 259.089 280.075 260.422C280.747 261.756 281.716 262.814 282.985 263.598C284.279 264.411 285.778 264.873 287.482 264.983C289.215 265.095 290.775 264.831 292.163 264.192C293.55 263.58 294.661 262.656 295.499 261.419C296.335 260.211 296.805 258.796 296.91 257.175C297.018 255.499 296.738 253.98 296.068 252.618C295.427 251.257 294.46 250.157 293.167 249.316C291.873 248.502 290.36 248.04 288.628 247.928C286.895 247.816 285.335 248.079 283.947 248.719C282.557 249.387 281.456 250.354 280.645 251.62C279.833 252.886 279.373 254.358 279.265 256.034ZM290.513 282.547C290.312 285.648 289.471 288.035 287.988 289.707C286.503 291.406 284.545 292.178 282.114 292.02C279.739 291.867 277.924 290.866 276.669 289.017C275.414 287.168 274.885 284.707 275.084 281.633L275.67 272.58L298.344 274.047L298.141 277.19L290.89 276.721L290.513 282.547ZM274.106 296.763L296.78 298.23L296.579 301.331L273.905 299.865L274.106 296.763ZM277.646 281.715C277.507 283.866 277.846 285.572 278.662 286.831C279.478 288.09 280.697 288.772 282.318 288.877C283.966 288.984 285.276 288.465 286.248 287.321C287.248 286.18 287.818 284.519 287.959 282.34L288.333 276.556L278.023 275.889L277.646 281.715ZM284.221 321.265C283.802 322.977 283.057 324.29 281.988 325.203C280.945 326.146 279.683 326.569 278.203 326.473C276.33 326.352 274.912 325.503 273.948 323.925C272.984 322.348 272.586 320.26 272.754 317.661L273.48 306.429L296.155 307.895L295.461 318.625C295.304 321.056 294.664 322.922 293.541 324.225C292.447 325.529 291.02 326.124 289.259 326.01C287.918 325.923 286.812 325.459 285.94 324.617C285.095 323.805 284.522 322.687 284.221 321.265ZM293.101 310.854L286.102 310.402L285.614 317.946C285.517 319.455 285.749 320.634 286.311 321.484C286.874 322.334 287.728 322.796 288.873 322.87C289.963 322.941 290.828 322.576 291.469 321.776C292.136 321.005 292.523 319.796 292.63 318.147L293.101 310.854ZM275.612 317.72C275.5 319.452 275.722 320.785 276.279 321.719C276.834 322.681 277.685 323.199 278.83 323.273C279.92 323.344 280.802 322.938 281.476 322.055C282.149 321.201 282.536 319.991 282.637 318.427L283.168 310.212L276.127 309.757L275.612 317.72ZM294.38 341.188C294.174 344.374 293.236 346.726 291.567 348.245C289.924 349.794 287.663 350.476 284.785 350.29L270.703 349.379L270.906 346.236L276.061 346.569C274.704 345.864 273.487 344.719 272.411 343.134C271.363 341.551 270.909 339.684 271.048 337.533C271.203 335.13 271.97 333.257 273.347 331.916C274.723 330.602 276.444 330.012 278.512 330.145C280.636 330.283 282.318 331.163 283.56 332.787C284.8 334.438 285.33 336.661 285.149 339.455C285.004 341.69 284.685 344.237 284.192 347.095L284.946 347.144C286.958 347.274 288.519 346.786 289.629 345.679C290.764 344.602 291.405 342.946 291.549 340.711C291.627 339.509 291.482 338.279 291.114 337.021C290.775 335.764 290.232 334.621 289.484 333.591L291.893 332.147C292.847 333.443 293.526 334.876 293.929 336.445C294.333 338.015 294.483 339.596 294.38 341.188ZM273.877 338.684C273.785 340.109 274.065 341.432 274.715 342.652C275.364 343.901 276.239 344.897 277.342 345.642C278.472 346.388 279.638 346.8 280.839 346.878L281.51 346.921C281.98 344.848 282.298 342.539 282.462 339.997C282.598 337.901 282.312 336.255 281.603 335.059C280.923 333.865 279.884 333.222 278.487 333.132C277.118 333.043 276.038 333.478 275.246 334.437C274.455 335.396 273.999 336.812 273.877 338.684ZM280.324 358.087C278.021 358.135 276.104 358.923 274.574 360.451C273.072 361.981 272.242 363.976 272.083 366.435C271.9 369.257 272.677 371.566 274.412 373.361L272.438 375.254C271.309 374.058 270.458 372.685 269.885 371.133C269.338 369.61 269.124 367.927 269.243 366.083C269.39 363.819 270.025 361.812 271.148 360.061C272.271 358.31 273.761 356.975 275.616 356.057C277.469 355.167 279.513 354.794 281.749 354.939C283.984 355.083 285.951 355.687 287.65 356.751C289.375 357.845 290.683 359.304 291.575 361.13C292.467 362.955 292.84 364.999 292.694 367.263C292.56 369.33 291.981 371.131 290.956 372.664C289.931 374.197 288.552 375.342 286.819 376.1C285.085 376.885 283.142 377.209 280.991 377.07C280.572 377.042 279.946 376.96 279.113 376.822L280.324 358.087ZM289.844 367.078C289.992 364.787 289.444 362.844 288.201 361.248C286.955 359.681 285.237 358.7 283.046 358.305L282.027 374.064C284.388 373.993 286.241 373.327 287.585 372.067C288.955 370.837 289.708 369.174 289.844 367.078ZM291.536 379.315L290.283 398.678L287.391 398.491L287.917 390.36L268.135 389.081L268.338 385.938L288.121 387.217L288.644 379.128L291.536 379.315ZM265.474 423.709C265.619 421.473 266.253 419.48 267.376 417.729C268.5 415.978 269.975 414.642 271.802 413.722C273.657 412.804 275.716 412.418 277.98 412.565C280.243 412.711 282.221 413.358 283.915 414.506C285.636 415.655 286.941 417.171 287.829 419.052C288.718 420.933 289.09 422.991 288.945 425.227C288.837 426.903 288.427 428.462 287.717 429.903C287.034 431.346 286.055 432.601 284.779 433.669L282.995 431.323C284.005 430.463 284.754 429.515 285.241 428.48C285.729 427.446 286.015 426.286 286.098 425C286.204 423.352 285.937 421.848 285.295 420.487C284.654 419.127 283.687 418.026 282.394 417.185C281.102 416.344 279.576 415.867 277.815 415.753C276.027 415.637 274.438 415.913 273.048 416.581C271.658 417.248 270.557 418.215 269.746 419.482C268.933 420.776 268.472 422.261 268.364 423.938C268.28 425.223 268.415 426.396 268.767 427.457C269.147 428.52 269.783 429.543 270.673 430.526L268.643 432.626C267.484 431.456 266.632 430.097 266.087 428.546C265.569 427.026 265.364 425.413 265.474 423.709ZM266.379 455.267L266.247 457.321L260.421 456.944L260.63 453.717L263.941 453.931L265.006 437.46L261.695 437.246L261.904 434.019L267.729 434.395L267.651 435.611C267.624 436.03 267.834 436.464 268.282 436.914C268.756 437.394 269.459 437.804 270.391 438.145C271.349 438.516 272.512 438.759 273.879 438.876L287.599 440.184L286.539 456.571L266.379 455.267ZM284.225 453.307L284.889 443.039L273.972 441.996C271.043 441.722 268.85 440.935 267.39 439.634L266.58 452.166L284.225 453.307ZM273.344 466.018C271.04 466.066 269.123 466.854 267.593 468.382C266.092 469.912 265.261 471.907 265.102 474.366C264.92 477.188 265.696 479.497 267.432 481.292L265.458 483.185C264.328 481.99 263.477 480.616 262.904 479.064C262.357 477.541 262.144 475.858 262.263 474.014C262.409 471.751 263.044 469.743 264.168 467.992C265.291 466.241 266.78 464.906 268.635 463.988C270.489 463.098 272.533 462.725 274.768 462.87C277.003 463.014 278.97 463.619 280.669 464.682C282.394 465.776 283.703 467.235 284.595 469.061C285.487 470.886 285.86 472.93 285.713 475.194C285.58 477.261 285 479.062 283.975 480.595C282.95 482.128 281.571 483.273 279.839 484.031C278.105 484.817 276.162 485.14 274.01 485.001C273.591 484.974 272.965 484.891 272.132 484.753L273.344 466.018ZM282.863 475.009C283.012 472.718 282.464 470.775 281.22 469.179C279.975 467.612 278.257 466.631 276.065 466.236L275.046 481.995C277.408 481.924 279.261 481.258 280.605 479.998C281.975 478.768 282.728 477.105 282.863 475.009ZM260.504 507.071L260.707 503.927L280.867 505.231L281.566 494.418L270.015 493.418C267.753 493.244 266.01 492.865 264.785 492.28C263.587 491.726 262.766 490.971 262.322 490.017C261.907 489.064 261.747 487.847 261.843 486.366L264.19 486.518C264.142 487.693 264.577 488.563 265.494 489.127C266.44 489.694 268.098 490.082 270.469 490.291L284.281 491.479L283.178 508.537L260.504 507.071ZM258.83 532.943L259.058 529.423L269.47 522.015L269.79 517.07L259.898 516.43L260.102 513.287L282.776 514.753L282.573 517.896L272.598 517.251L272.275 522.239L281.773 530.26L281.548 533.739L270.955 524.426L258.83 532.943ZM279.894 559.318L257.219 557.852L257.423 554.709L275.151 555.855L258.393 539.704L258.556 537.189L281.23 538.656L281.027 541.799L263.382 540.658L280.059 556.762L279.894 559.318Z" fill="#303030"/>
<path d="M300.3 182.501L276.2 203.801M277.6 181.101L298.9 205.201" stroke="#303030" stroke-width="6" stroke-miterlimit="10"/>
<path d="M434.472 58.7106L433.946 60.7005L428.302 59.2106L429.127 56.0837L432.335 56.9304L436.547 40.9708L433.339 40.124L434.165 36.9971L439.809 38.4869L439.498 39.6646C439.391 40.0707 439.514 40.5376 439.867 41.0651C440.24 41.6269 440.851 42.1647 441.7 42.6783C442.569 43.2262 443.663 43.6888 444.983 44.066L458.196 47.9877L454.005 63.8662L434.472 58.7106ZM452.361 60.2179L454.987 50.2685L444.474 47.1462C441.653 46.3147 439.651 45.1203 438.469 43.5632L435.265 55.7055L452.361 60.2179ZM439.239 70.6003C436.969 70.2039 434.937 70.6086 433.141 71.8144C431.373 73.0274 430.175 74.8251 429.546 77.2075C428.824 79.9419 429.143 82.3571 430.501 84.4531L428.199 85.9308C427.321 84.5406 426.75 83.0288 426.486 81.3953C426.242 79.7961 426.356 78.103 426.828 76.3162C427.406 74.1233 428.415 72.2756 429.854 70.773C431.293 69.2705 433.012 68.2471 435.009 67.7027C436.999 67.1854 439.076 67.2125 441.242 67.7842C443.408 68.3558 445.222 69.327 446.685 70.6976C448.168 72.1025 449.171 73.7864 449.696 75.7492C450.22 77.7121 450.193 79.79 449.614 81.9829C449.085 83.9863 448.171 85.6417 446.87 86.9491C445.569 88.2565 443.996 89.1154 442.15 89.526C440.297 89.9636 438.328 89.9073 436.243 89.357C435.837 89.2499 435.239 89.0485 434.448 88.7529L439.239 70.6003ZM446.853 81.2541C447.439 79.0341 447.275 77.0216 446.361 75.2167C445.44 73.4388 443.943 72.1458 441.868 71.3376L437.838 86.6069C440.169 86.9905 442.116 86.6934 443.677 85.7154C445.258 84.7717 446.317 83.2846 446.853 81.2541ZM420.933 98.4842C421.462 96.4807 422.225 94.7419 423.222 93.2675C424.239 91.8274 425.303 90.7037 426.414 89.8965L428.542 91.5441C427.498 92.4269 426.554 93.4809 425.71 94.7059C424.892 95.9381 424.283 97.3122 423.883 98.8283C423.397 100.669 423.377 102.228 423.822 103.504C424.287 104.814 425.115 105.626 426.306 105.94C427.443 106.24 428.473 105.962 429.394 105.105C430.308 104.274 430.99 103.006 431.44 101.301L432.598 96.915L434.75 97.4831L433.593 101.869C432.671 105.361 433.388 107.418 435.743 108.04C436.988 108.369 438.102 108.098 439.085 107.228C440.068 106.358 440.805 104.989 441.298 103.121C441.641 101.821 441.767 100.522 441.675 99.224C441.604 97.9598 441.356 96.6491 440.932 95.2921L443.393 94.8556C444.495 97.8108 444.621 100.899 443.771 104.121C443.078 106.747 441.966 108.712 440.434 110.017C438.93 111.328 437.176 111.72 435.172 111.191C433.954 110.869 433.021 110.29 432.373 109.453C431.725 108.616 431.345 107.589 431.231 106.371C430.477 107.475 429.59 108.255 428.572 108.71C427.547 109.193 426.412 109.27 425.167 108.941C423.84 108.591 422.78 107.891 421.985 106.841C421.211 105.826 420.731 104.57 420.547 103.074C420.383 101.611 420.512 100.081 420.933 98.4842ZM434.396 138.159L412.426 132.361L413.23 129.315L430.408 133.849L417.067 114.777L417.71 112.34L439.68 118.139L438.876 121.184L421.78 116.672L435.05 135.682L434.396 138.159ZM418.904 158.675L428.325 161.161L427.521 164.207L405.551 158.408L406.355 155.363L416.183 157.956L419.773 144.352L409.946 141.758L410.75 138.713L432.72 144.511L431.916 147.557L422.494 145.07L418.904 158.675ZM408.008 193.703C405.923 193.153 404.191 192.146 402.811 190.681C401.431 189.216 400.5 187.421 400.018 185.296C399.557 183.205 399.62 180.992 400.207 178.656L393.303 176.834L394.097 173.829L401 175.651C401.649 173.303 402.69 171.334 404.124 169.743C405.557 168.152 407.235 167.06 409.158 166.467C411.081 165.874 413.085 165.853 415.17 166.403C417.254 166.953 418.987 167.961 420.367 169.425C421.747 170.89 422.667 172.668 423.129 174.759C423.591 176.85 423.538 179.08 422.97 181.45L429.427 183.154L428.634 186.159L422.177 184.455C421.501 186.796 420.447 188.762 419.013 190.353C417.58 191.944 415.901 193.036 413.978 193.629C412.083 194.229 410.092 194.254 408.008 193.703ZM414.406 169.459C412.755 169.024 411.18 169.013 409.68 169.428C408.207 169.85 406.923 170.655 405.828 171.843C404.733 173.031 403.936 174.515 403.437 176.294L420.534 180.807C420.978 179.013 421.017 177.329 420.651 175.755C420.284 174.182 419.565 172.848 418.492 171.754C417.42 170.66 416.058 169.895 414.406 169.459ZM402.644 179.3C402.199 181.093 402.164 182.764 402.537 184.31C402.904 185.884 403.623 187.218 404.696 188.312C405.768 189.406 407.13 190.17 408.782 190.606C410.433 191.042 411.995 191.049 413.468 190.627C414.967 190.212 416.265 189.41 417.36 188.223C418.448 187.062 419.242 185.592 419.74 183.812L402.644 179.3ZM392.549 206.027C393.128 203.834 394.136 201.986 395.576 200.484C397.015 198.981 398.733 197.958 400.73 197.413C402.747 196.903 404.838 196.934 407.004 197.506C409.17 198.077 410.977 199.075 412.425 200.5C413.894 201.959 414.883 203.697 415.393 205.714C415.903 207.731 415.869 209.836 415.29 212.029C414.704 214.249 413.692 216.11 412.253 217.613C410.814 219.115 409.095 220.139 407.098 220.683C405.128 221.235 403.074 221.228 400.935 220.664C398.769 220.092 396.939 219.073 395.443 217.607C393.975 216.148 392.972 214.406 392.435 212.382C391.925 210.365 391.963 208.247 392.549 206.027ZM395.34 206.807C394.911 208.431 394.895 209.976 395.29 211.442C395.678 212.934 396.425 214.217 397.532 215.291C398.638 216.365 400.031 217.124 401.709 217.567C403.388 218.01 404.973 218.037 406.466 217.649C407.958 217.261 409.228 216.51 410.275 215.397C411.349 214.29 412.1 212.925 412.529 211.3C412.957 209.676 412.978 208.117 412.59 206.625C412.222 205.167 411.484 203.901 410.378 202.827C409.271 201.753 407.879 200.994 406.2 200.551C404.522 200.108 402.936 200.081 401.444 200.469C399.951 200.857 398.668 201.604 397.594 202.711C396.52 203.817 395.769 205.183 395.34 206.807ZM407.744 240.622C407.222 242.598 406.259 244.27 404.856 245.637C403.453 247.004 401.75 247.916 399.747 248.372C397.764 248.862 395.69 248.821 393.524 248.25C391.331 247.671 389.493 246.679 388.011 245.274C386.548 243.904 385.544 242.278 384.998 240.396C384.479 238.521 384.484 236.582 385.013 234.579C385.506 232.711 386.352 231.095 387.552 229.732C388.744 228.396 390.179 227.458 391.857 226.916L380.771 223.99L381.574 220.944L410.529 228.586L409.725 231.632L405.624 230.549C406.789 231.841 407.556 233.376 407.927 235.154C408.298 236.931 408.237 238.754 407.744 240.622ZM387.973 234.883C387.566 236.426 387.55 237.913 387.925 239.344C388.327 240.782 389.076 242.008 390.169 243.021C391.283 244.067 392.666 244.809 394.317 245.245C395.996 245.688 397.578 245.729 399.063 245.368C400.541 245.034 401.81 244.341 402.87 243.288C403.922 242.263 404.656 240.965 405.07 239.395C405.499 237.771 405.516 236.226 405.12 234.76C404.752 233.302 404.015 232.036 402.909 230.962C401.795 229.915 400.399 229.17 398.72 228.727C397.042 228.284 395.46 228.243 393.974 228.604C392.482 228.992 391.216 229.729 390.176 230.816C389.136 231.903 388.402 233.258 387.973 234.883ZM386.903 264.776L397.681 277.264L396.899 280.228L374.929 274.43L375.733 271.384L392.627 275.843L382.573 264.067L382.798 263.214L397.354 257.934L380.46 253.475L381.264 250.429L403.234 256.228L402.451 259.192L386.903 264.776ZM389.942 306.587L367.972 300.788L368.776 297.742L385.954 302.276L372.613 283.204L373.256 280.768L395.226 286.566L394.422 289.612L377.326 285.099L390.596 304.11L389.942 306.587ZM385.48 324.975C384.958 326.951 383.996 328.623 382.592 329.99C381.189 331.357 379.486 332.268 377.483 332.725C375.5 333.215 373.426 333.174 371.26 332.602C369.067 332.024 367.23 331.032 365.747 329.627C364.284 328.256 363.28 326.63 362.734 324.748C362.215 322.874 362.22 320.935 362.749 318.932C363.242 317.064 364.088 315.448 365.288 314.085C366.48 312.749 367.916 311.81 369.593 311.268L358.507 308.342L359.311 305.297L388.266 312.939L387.462 315.985L383.36 314.902C384.525 316.194 385.293 317.729 385.663 319.506C386.034 321.284 385.973 323.106 385.48 324.975ZM365.71 319.235C365.302 320.778 365.286 322.266 365.662 323.697C366.064 325.135 366.812 326.36 367.906 327.373C369.019 328.42 370.402 329.161 372.053 329.597C373.732 330.04 375.314 330.081 376.799 329.72C378.277 329.387 379.546 328.693 380.606 327.641C381.658 326.616 382.392 325.318 382.806 323.748C383.235 322.123 383.252 320.578 382.857 319.113C382.489 317.655 381.751 316.389 380.645 315.315C379.531 314.268 378.135 313.523 376.456 313.08C374.778 312.637 373.196 312.596 371.711 312.957C370.218 313.345 368.952 314.082 367.912 315.169C366.873 316.255 366.138 317.611 365.71 319.235ZM377.09 355.281L376.211 358.611L356.76 343.27L354.935 341.789C353.274 340.511 352.195 339.169 351.697 337.763C351.172 336.35 351.157 334.71 351.65 332.842C351.842 332.111 352.144 331.409 352.553 330.735C352.963 330.061 353.391 329.537 353.837 329.162L355.721 330.746C355.061 331.382 354.577 332.283 354.27 333.447C353.97 334.584 353.998 335.576 354.353 336.423C354.702 337.297 355.4 338.161 356.449 339.017L357.669 339.991L382.127 336.195L381.249 339.525L360.692 342.526L377.09 355.281ZM363.07 359.192C360.8 358.795 358.767 359.2 356.972 360.406C355.204 361.619 354.005 363.416 353.376 365.799C352.655 368.533 352.973 370.948 354.331 373.044L352.03 374.522C351.151 373.132 350.58 371.62 350.316 369.987C350.072 368.387 350.186 366.694 350.658 364.908C351.237 362.715 352.246 360.867 353.685 359.364C355.124 357.862 356.842 356.838 358.839 356.294C360.829 355.777 362.907 355.804 365.073 356.376C367.238 356.947 369.053 357.918 370.515 359.289C371.998 360.694 373.001 362.378 373.526 364.341C374.05 366.303 374.023 368.381 373.444 370.574C372.916 372.578 372.001 374.233 370.7 375.54C369.399 376.848 367.826 377.707 365.98 378.117C364.127 378.555 362.158 378.499 360.074 377.948C359.668 377.841 359.069 377.64 358.278 377.344L363.07 359.192ZM370.683 369.845C371.269 367.625 371.105 365.613 370.191 363.808C369.271 362.03 367.773 360.737 365.698 359.929L361.668 375.198C364 375.582 365.946 375.285 367.507 374.307C369.088 373.363 370.147 371.876 370.683 369.845ZM369.99 382.179L365.039 400.941L362.236 400.202L364.316 392.323L345.148 387.264L345.952 384.218L365.12 389.278L367.188 381.44L369.99 382.179ZM355.769 436.063L333.799 430.264L334.603 427.218L354.136 432.374L357.727 418.769L338.193 413.614L338.997 410.568L360.967 416.367L355.769 436.063ZM329.002 446.791C329.581 444.598 330.59 442.75 332.029 441.247C333.468 439.745 335.186 438.721 337.184 438.177C339.201 437.667 341.292 437.698 343.458 438.269C345.624 438.841 347.431 439.839 348.879 441.264C350.347 442.723 351.337 444.461 351.847 446.478C352.357 448.495 352.323 450.6 351.744 452.793C351.158 455.013 350.145 456.874 348.706 458.377C347.267 459.879 345.549 460.903 343.552 461.447C341.582 461.999 339.528 461.992 337.389 461.428C335.223 460.856 333.392 459.837 331.897 458.371C330.429 456.912 329.426 455.17 328.889 453.146C328.379 451.129 328.416 449.011 329.002 446.791ZM331.794 447.571C331.365 449.195 331.348 450.74 331.743 452.205C332.131 453.698 332.879 454.981 333.985 456.055C335.092 457.129 336.484 457.888 338.163 458.331C339.841 458.774 341.427 458.801 342.919 458.413C344.412 458.025 345.682 457.274 346.728 456.161C347.802 455.054 348.554 453.688 348.982 452.064C349.411 450.44 349.432 448.881 349.044 447.389C348.676 445.931 347.938 444.664 346.832 443.591C345.725 442.517 344.332 441.758 342.654 441.315C340.975 440.872 339.39 440.844 337.897 441.232C336.405 441.62 335.122 442.368 334.048 443.474C332.974 444.581 332.223 445.946 331.794 447.571ZM319.986 482.597L320.886 479.186L332.528 473.919L333.793 469.127L324.209 466.597L325.013 463.551L346.983 469.35L346.179 472.396L336.514 469.845L335.238 474.677L343.017 484.376L342.128 487.746L333.523 476.57L319.986 482.597ZM336.77 508.044L335.891 511.374L316.44 496.032L314.616 494.551C312.955 493.273 311.875 491.931 311.378 490.526C310.853 489.113 310.837 487.473 311.33 485.605C311.523 484.874 311.824 484.171 312.234 483.497C312.643 482.824 313.071 482.3 313.517 481.925L315.402 483.508C314.741 484.145 314.258 485.045 313.95 486.209C313.65 487.347 313.678 488.338 314.034 489.185C314.382 490.059 315.081 490.924 316.129 491.78L317.349 492.753L341.808 488.958L340.929 492.288L320.372 495.289L336.77 508.044ZM330.124 533.225L308.154 527.426L308.958 524.38L328.491 529.536L332.082 515.932L312.549 510.776L313.353 507.73L335.323 513.529L330.124 533.225ZM326.657 547.843C325.842 550.93 324.469 553.058 322.539 554.228C320.628 555.432 318.279 555.666 315.49 554.93L301.845 551.329L302.649 548.283L307.644 549.602C306.448 548.649 305.474 547.291 304.723 545.529C303.999 543.774 303.912 541.855 304.462 539.77C305.076 537.442 306.188 535.751 307.798 534.699C309.401 533.674 311.204 533.426 313.207 533.955C315.265 534.498 316.747 535.686 317.653 537.518C318.553 539.377 318.645 541.66 317.931 544.367C317.359 546.533 316.556 548.971 315.523 551.681L316.253 551.874C318.203 552.388 319.828 552.209 321.13 551.337C322.452 550.498 323.399 548.996 323.97 546.83C324.277 545.666 324.372 544.431 324.253 543.126C324.161 541.827 323.848 540.601 323.313 539.446L325.954 538.492C326.641 539.948 327.032 541.484 327.126 543.102C327.22 544.72 327.064 546.3 326.657 547.843ZM307.017 541.444C306.653 542.824 306.673 544.176 307.076 545.499C307.473 546.849 308.141 547.995 309.079 548.938C310.045 549.888 311.11 550.516 312.274 550.824L312.923 550.995C313.784 549.05 314.54 546.846 315.19 544.382C315.726 542.352 315.761 540.682 315.296 539.372C314.858 538.069 313.962 537.239 312.609 536.881C311.282 536.531 310.138 536.751 309.177 537.539C308.216 538.328 307.496 539.63 307.017 541.444ZM323.097 559.847L318.146 578.609L315.343 577.869L317.423 569.991L298.255 564.932L299.059 561.886L318.227 566.945L320.295 559.108L323.097 559.847ZM304.757 580.126C302.487 579.73 300.454 580.135 298.659 581.34C296.891 582.553 295.692 584.351 295.064 586.734C294.342 589.468 294.66 591.883 296.018 593.979L293.717 595.457C292.839 594.067 292.268 592.555 292.004 590.921C291.76 589.322 291.873 587.629 292.345 585.842C292.924 583.649 293.933 581.802 295.372 580.299C296.811 578.797 298.529 577.773 300.526 577.229C302.516 576.711 304.594 576.739 306.76 577.31C308.926 577.882 310.74 578.853 312.203 580.224C313.685 581.629 314.689 583.312 315.213 585.275C315.738 587.238 315.71 589.316 315.132 591.509C314.603 593.512 313.688 595.168 312.387 596.475C311.087 597.783 309.513 598.641 307.668 599.052C305.814 599.49 303.846 599.433 301.761 598.883C301.355 598.776 300.756 598.575 299.966 598.279L304.757 580.126ZM312.37 590.78C312.956 588.56 312.792 586.548 311.879 584.743C310.958 582.965 309.46 581.672 307.386 580.864L303.356 596.133C305.687 596.517 307.633 596.219 309.195 595.242C310.776 594.298 311.834 592.811 312.37 590.78ZM284.263 617.945L285.067 614.899L304.6 620.055L307.366 609.577L296.222 606.376C294.036 605.77 292.398 605.062 291.308 604.253C290.239 603.479 289.578 602.58 289.326 601.558C289.102 600.544 289.179 599.319 289.558 597.884L291.832 598.484C291.559 599.628 291.818 600.565 292.61 601.296C293.429 602.033 294.982 602.733 297.269 603.394L310.595 607.215L306.233 623.744L284.263 617.945ZM292.008 628.43C289.738 628.033 287.705 628.438 285.91 629.644C284.142 630.857 282.943 632.655 282.315 635.037C281.593 637.771 281.911 640.187 283.269 642.283L280.968 643.76C280.09 642.37 279.518 640.858 279.255 639.225C279.011 637.626 279.124 635.933 279.596 634.146C280.175 631.953 281.184 630.105 282.623 628.603C284.062 627.1 285.78 626.077 287.777 625.532C289.767 625.015 291.845 625.042 294.011 625.614C296.177 626.185 297.991 627.157 299.454 628.527C300.936 629.932 301.94 631.616 302.464 633.579C302.989 635.542 302.961 637.62 302.383 639.812C301.854 641.816 300.939 643.471 299.638 644.779C298.338 646.086 296.764 646.945 294.919 647.355C293.065 647.793 291.097 647.737 289.012 647.187C288.606 647.079 288.007 646.878 287.217 646.582L292.008 628.43ZM299.621 639.084C300.207 636.864 300.043 634.851 299.13 633.046C298.209 631.268 296.711 629.975 294.637 629.167L290.607 644.436C292.938 644.82 294.884 644.523 296.446 643.545C298.027 642.601 299.085 641.114 299.621 639.084ZM292.723 674.93L270.753 669.132L271.557 666.086L288.735 670.62L275.394 651.548L276.037 649.111L298.007 654.91L297.203 657.956L280.106 653.443L293.377 672.453L292.723 674.93ZM300.989 673.072C299.391 672.651 298.231 671.837 297.506 670.633C296.809 669.435 296.671 668.038 297.092 666.44C297.514 664.843 298.327 663.682 299.532 662.957C300.757 662.267 302.168 662.133 303.765 662.554L303.154 664.869C300.88 664.269 299.482 664.957 298.96 666.933C298.703 667.908 298.794 668.714 299.234 669.351C299.694 670.023 300.479 670.505 301.589 670.798L300.989 673.072Z" fill="#303030"/>
<path d="M464.8 7.40106L437 23.6011M442.8 1.60107L459 29.4011" stroke="#303030" stroke-width="6" stroke-miterlimit="10"/>
<path d="M335.4 712.901H152.6C143.1 712.901 135.1 705.701 134.2 696.201L107 420.301C106.5 415.101 110.5 410.701 115.7 410.701H372.2C377.4 410.701 381.4 415.201 380.9 420.301L353.8 696.201C352.9 705.701 344.9 712.901 335.4 712.901Z" fill="#C60635" stroke="#303030" stroke-width="8" stroke-miterlimit="10"/>
<path d="M225.3 492.201H230.4C240.7 492.201 249 500.501 249 510.801V673.001" stroke="white" stroke-width="4" stroke-miterlimit="10" stroke-linecap="round" stroke-linejoin="round"/>
<path d="M157.8 492.701H162.9C173.2 492.701 181.9 501.001 182.3 511.201L189.7 673.001" stroke="white" stroke-width="4" stroke-miterlimit="10" stroke-linecap="round" stroke-linejoin="round"/>
<path d="M330.1 492.701H325C314.7 492.701 306 501.001 305.6 511.201L298.2 673.001" stroke="white" stroke-width="4" stroke-miterlimit="10" stroke-linecap="round" stroke-linejoin="round"/>
<path d="M137.1 459.201H350.9" stroke="white" stroke-width="4" stroke-miterlimit="10" stroke-linecap="round" stroke-linejoin="round"/>
</svg>
