<svg width="215" height="63" viewBox="0 0 215 63" fill="none" xmlns="http://www.w3.org/2000/svg">
<path d="M205.289 54.7016C209.489 54.7016 212.489 53.9016 214.689 52.3016V44.9016C212.389 46.5016 209.689 47.5016 205.789 47.5016C199.289 47.5016 196.589 42.5016 196.589 34.5016C196.589 26.1016 199.889 21.8016 205.889 21.8016C209.389 21.8016 212.889 23.0016 214.689 24.2016V16.5016C212.789 15.4016 209.389 14.7016 204.889 14.7016C193.189 14.7016 187.189 23.1016 187.189 34.8016C187.189 47.6016 193.089 54.7016 205.289 54.7016ZM148.289 51.3016V43.9016C145.489 45.8016 140.689 47.5016 136.289 47.5016C129.589 47.5016 127.089 44.3016 126.689 37.9016H148.689V33.1016C148.689 19.7016 142.789 14.6016 133.689 14.6016C122.589 14.6016 117.289 23.1016 117.289 34.8016C117.289 48.2016 123.889 54.7016 135.489 54.7016C141.289 54.7016 145.589 53.1016 148.289 51.3016ZM64.6892 15.3016V30.5016H52.4893V15.3016H43.3892V54.0016H52.4893V37.9016H64.6892V54.0016H73.7892V15.4016H64.6892V15.3016ZM114.989 46.7016H110.989V15.4016H84.3892V18.7016C84.3892 28.1016 83.7892 40.3016 80.5892 46.8016H77.5892V62.9016H85.9893V54.0016H106.389V62.8016H114.789L114.989 46.7016ZM177.389 54.0016H187.789L173.189 33.2016L186.089 15.4016H176.889L163.989 33.2016V15.4016H154.889V54.0016H163.989V35.0016L177.389 54.0016ZM133.489 21.8016C137.989 21.8016 139.389 25.6016 139.389 30.4016V31.2016H126.689C126.889 25.0016 129.089 21.8016 133.489 21.8016ZM101.789 46.7016H88.8892C91.3892 40.9016 92.0892 30.4016 92.0892 23.7016V22.5016H101.789V46.7016Z" fill="black"/>
<path d="M35.6892 54.0018H26.3892V7.90179H22.1892C14.5892 7.90179 10.5892 11.7018 10.5892 17.4018C10.5892 23.8018 13.3892 26.8017 18.9892 30.6017L23.6892 33.8018L10.2892 54.0018H0.289246L12.3892 36.0018C5.38922 31.0018 1.48923 26.2018 1.48923 18.0018C1.48923 7.70177 8.58921 0.801758 22.1892 0.801758H35.6892V54.0018Z" fill="#FC3F1D"/>
</svg>
