<svg width="26" height="26" viewBox="0 0 26 26" fill="none" xmlns="http://www.w3.org/2000/svg">
<path d="M12.7884 25.5016C5.78839 25.5016 0.0883789 19.8016 0.0883789 12.8016C0.0883789 5.80157 5.78839 0.101562 12.7884 0.101562C19.7884 0.101562 25.4884 5.80157 25.4884 12.8016V14.2016C25.4884 16.8016 23.5884 18.8016 21.0884 18.8016C19.7884 18.8016 18.5884 18.2016 17.6884 17.2016L17.3884 16.8016L16.9884 17.2016C15.8884 18.3016 14.3884 18.8016 12.8884 18.8016C9.48837 18.8016 6.78839 16.1016 6.78839 12.7016C6.78839 9.3016 9.48837 6.60156 12.8884 6.60156C14.2884 6.60156 15.7884 7.10156 16.8884 8.10156L16.9884 8.2016H18.9884V14.3016C18.9884 15.5016 19.9884 16.4016 21.0884 16.4016C22.2884 16.4016 23.1884 15.4016 23.1884 14.0016V12.6016C23.1884 6.90156 18.5884 2.2016 12.7884 2.2016C6.98839 2.2016 2.38837 6.80156 2.38837 12.6016C2.38837 18.4016 6.98839 23.0016 12.7884 23.0016C14.4884 23.0016 16.0884 22.6016 17.4884 21.9016L18.5884 23.9016C16.7884 25.0016 14.7884 25.5016 12.7884 25.5016ZM12.7884 9.10156C10.6884 9.10156 8.9884 10.8016 8.9884 12.9016C8.9884 15.0016 10.6884 16.7016 12.7884 16.7016C14.8884 16.7016 16.5884 15.0016 16.5884 12.9016C16.5884 10.8016 14.8884 9.10156 12.7884 9.10156Z" fill="white"/>
</svg>
