<svg width="28" height="27" viewBox="0 0 28 27" fill="none" xmlns="http://www.w3.org/2000/svg">
<path d="M21.3883 26.9023C21.2883 26.9023 21.1883 26.9023 21.0883 26.9023C19.0883 26.8023 17.2883 26.0023 15.8883 25.3023C12.1883 23.5023 8.88826 20.9023 6.18826 17.7023C3.98826 15.0023 2.48831 12.5023 1.48831 9.80231C0.888308 8.10231 0.588259 6.80232 0.688259 5.50232C0.788259 4.60232 1.0883 3.90233 1.7883 3.20233L3.98831 1.00232C4.38831 0.602319 4.88827 0.402344 5.38827 0.402344C5.88827 0.402344 6.3883 0.602319 6.7883 1.00232C7.1883 1.40232 7.58831 1.80233 7.98831 2.20233C8.18831 2.40233 8.38828 2.60231 8.58828 2.80231L10.3883 4.60229C10.7883 5.0023 11.0883 5.50232 11.0883 6.00232C11.0883 6.60232 10.6883 7.10234 10.3883 7.40234C10.1883 7.60234 9.9883 7.80232 9.7883 8.00232C9.2883 8.50232 8.7883 9.00232 8.2883 9.50232L7.58828 10.0023L7.88827 10.7023C8.28827 11.7023 8.8883 12.6023 9.7883 13.8023C11.4883 15.9023 13.3883 17.6023 15.3883 18.9023C15.5883 19.0023 15.8883 19.2023 16.0883 19.3023C16.2883 19.4023 16.4883 19.5023 16.5883 19.6023L17.2883 20.0023L19.9883 17.3023C20.2883 17.0023 20.7883 16.6023 21.3883 16.6023C21.9883 16.6023 22.4883 17.0023 22.7883 17.2023L26.3883 20.8023C27.2883 21.7023 27.2883 22.7023 26.3883 23.6023C26.0883 23.9023 25.8883 24.1023 25.5883 24.4023L25.4883 24.5023C25.0883 24.9023 24.6883 25.3023 24.3883 25.7023C23.3883 26.5023 22.4883 26.9023 21.3883 26.9023Z" fill="white"/>
</svg>
