<svg width="27" height="27" viewBox="0 0 27 27" fill="none" xmlns="http://www.w3.org/2000/svg">
<path d="M22.2881 4.90118C19.8881 2.50118 16.6881 1.20117 13.3881 1.20117C9.98806 1.20117 6.7881 2.50118 4.4881 4.90118C2.1881 7.30118 0.788086 10.5011 0.788086 13.8011C0.788086 17.1011 2.0881 20.4012 4.4881 22.7012C6.8881 25.1012 10.0881 26.4012 13.3881 26.4012C16.6881 26.4012 19.9881 25.1012 22.2881 22.7012C24.6881 20.3012 25.9881 17.1011 25.9881 13.8011C25.9881 10.5011 24.6881 7.30118 22.2881 4.90118ZM23.0881 19.3011H19.3881C19.8881 17.8011 20.1881 16.3011 20.2881 14.6011H24.4881C24.3881 16.3011 23.8881 17.9011 23.0881 19.3011ZM13.3881 24.9012C11.7881 24.0012 10.4881 22.5012 9.58807 20.7012H17.2881C16.2881 22.5012 14.8881 24.0012 13.3881 24.9012ZM8.88806 19.3011C8.38806 17.9011 7.98806 16.3011 7.88806 14.6011H18.7881C18.6881 16.3011 18.3881 17.8011 17.7881 19.3011H8.88806ZM2.18805 14.6011H6.38806C6.48806 16.2011 6.78809 17.8011 7.28809 19.3011H3.58807C2.78807 17.9011 2.28805 16.3011 2.18805 14.6011ZM3.58807 8.50116H7.28809C6.78809 10.0012 6.48806 11.5012 6.38806 13.2012H2.18805C2.28805 11.4012 2.78807 9.90116 3.58807 8.50116ZM13.3881 2.80115C14.9881 3.70115 16.288 5.20116 17.188 7.00116H9.4881C10.4881 5.20116 11.7881 3.70115 13.3881 2.80115ZM17.8881 8.50116C18.3881 9.90116 18.7881 11.5012 18.8881 13.2012H7.9881C8.0881 11.5012 8.3881 10.0012 8.9881 8.50116H17.8881ZM24.4881 13.1011H20.2881C20.1881 11.5011 19.8881 9.90118 19.3881 8.40118H23.0881C23.8881 9.90118 24.3881 11.4011 24.4881 13.1011ZM18.7881 7.00116C18.0881 5.50116 17.1881 4.10116 15.9881 3.00116C18.3881 3.60116 20.5881 5.00116 22.0881 7.00116H18.7881ZM10.688 3.00116C9.58805 4.10116 8.58806 5.40116 7.88806 7.00116H4.58807C6.08807 5.10116 8.18805 3.60116 10.688 3.00116ZM7.88806 20.8011C8.58806 22.3011 9.48805 23.7011 10.688 24.8011C8.28805 24.2011 6.08807 22.8011 4.58807 20.8011H7.88806ZM16.0881 24.7012C17.1881 23.6012 18.1881 22.3012 18.8881 20.7012H22.188C20.588 22.7012 18.4881 24.1012 16.0881 24.7012Z" fill="white" stroke="white" stroke-width="0.5" stroke-miterlimit="10"/>
</svg>
