<svg width="61" height="26" viewBox="0 0 61 26" fill="none" xmlns="http://www.w3.org/2000/svg">
<path d="M26.19 12.8299C26.19 11.2939 25.8903 9.79537 25.3658 8.4092C25.2159 12.9423 20.6454 16.4265 17.9479 18.7492H24.6915C25.6281 16.9884 26.19 14.9654 26.19 12.8299ZM21.2822 2.86452C19.1468 1.21611 16.4494 0.20459 13.5272 0.20459C6.55889 0.20459 0.901855 5.86165 0.901855 12.8299C0.901855 19.7982 6.55889 25.4553 13.5272 25.4553C16.7116 25.4553 19.6338 24.2564 21.8442 22.3083H12.7405L12.703 19.6109C18.2102 14.8155 21.5819 11.5936 21.5819 8.44666C21.5819 7.28527 21.1324 5.82418 19.1468 5.82418C17.5733 5.82418 16.0373 6.72331 16.337 10.5446H13.1151C12.3283 6.12388 14.726 2.60229 19.2966 2.60229C20.0459 2.63976 20.6828 2.71466 21.2822 2.86452Z" fill="#A3C626"/>
<path d="M37.8791 8.9336H40.8762C40.9886 6.6483 40.2018 3.05176 35.2941 3.05176C31.6601 3.05176 29.0376 5.22468 29.0376 9.75781C29.0376 10.3572 29.0751 13.5417 29.0751 15.4898C29.0751 20.3976 32.4843 21.4466 35.3316 21.4466C37.0549 21.4466 39.5275 21.0719 40.6514 19.7981V12.0056H35.0318V14.8529H37.5419V18.2996C35.6687 18.9365 32.222 19.1987 32.222 14.8529V9.75781C32.222 6.72323 33.6082 5.67423 35.1817 5.67423C36.7552 5.67423 37.8791 6.46098 37.8791 8.9336ZM60.0952 16.5013C60.2076 9.49556 52.1903 11.8183 52.3027 7.92207C52.3402 6.5359 53.2393 5.63678 54.6629 5.63678C56.2364 5.63678 57.1356 6.57339 57.0981 8.97108H60.0203C60.0952 6.79817 59.5707 3.08924 54.7379 3.08924C51.7407 3.08924 49.2681 4.5878 49.1932 7.84716C49.0808 14.5532 57.1355 12.3803 56.9857 16.4264C56.9482 18.0748 55.7494 18.8241 54.3632 18.8241C52.7897 18.8241 51.5159 17.8875 51.7782 15.1526H48.8186C48.4814 18.7866 50.0923 21.4091 54.3632 21.4091C57.9972 21.4466 60.0578 19.4235 60.0952 16.5013ZM46.6082 21.1843H43.6111V3.31401H46.6082V21.1843ZM46.6082 21.1843H43.6111V3.31401H46.6082V21.1843Z" fill="#434242"/>
</svg>
