<svg width="39" height="38" viewBox="0 0 39 38" fill="none" xmlns="http://www.w3.org/2000/svg">
<path d="M33.1905 0.0219727H5.5259C2.71064 0.0219727 0.420898 2.3117 0.420898 5.12696V32.7915C0.420898 35.6068 2.71064 37.8966 5.5259 37.8966H19.1517L19.1893 24.3833H15.6984C15.2479 24.3833 14.8725 24.008 14.8725 23.5575V19.2032C14.8725 18.7528 15.2479 18.3774 15.6984 18.3774H19.1893V14.0983C19.1893 9.21847 22.1922 6.55338 26.5465 6.55338H30.1125C30.5629 6.55338 30.9383 6.92872 30.9383 7.37917V11.0578C30.9383 11.5082 30.5629 11.8836 30.1125 11.8836H27.8978C25.533 11.8836 25.0825 13.0097 25.0825 14.6613V18.3024H30.3002C30.7881 18.3024 31.1635 18.7528 31.1259 19.2408L30.6004 23.595C30.5629 24.0079 30.1875 24.3083 29.7746 24.3083H25.1201L25.0825 37.8215H33.1905C36.0057 37.8215 38.2955 35.5317 38.2955 32.7165V5.05191C38.2955 2.31172 36.0057 0.0219727 33.1905 0.0219727Z" fill="#475993"/>
</svg>
