<svg width="93" height="31" viewBox="0 0 93 31" fill="none" xmlns="http://www.w3.org/2000/svg">
<path d="M39.977 15.8102C39.977 20.1185 36.6053 23.303 32.4468 23.303C28.2883 23.303 24.9165 20.1185 24.9165 15.8102C24.9165 11.4644 28.2883 8.31738 32.4468 8.31738C36.6053 8.31738 39.977 11.4644 39.977 15.8102ZM36.6802 15.8102C36.6802 13.1128 34.7321 11.277 32.4468 11.277C30.1615 11.277 28.2133 13.1128 28.2133 15.8102C28.2133 18.4701 30.1615 20.3433 32.4468 20.3433C34.7321 20.3433 36.6802 18.4701 36.6802 15.8102Z" fill="#EA4335"/>
<path d="M56.2363 15.8102C56.2363 20.1185 52.8645 23.303 48.706 23.303C44.5475 23.303 41.1758 20.1185 41.1758 15.8102C41.1758 11.4644 44.5475 8.31738 48.706 8.31738C52.8645 8.31738 56.2363 11.4644 56.2363 15.8102ZM52.9395 15.8102C52.9395 13.1128 50.9913 11.277 48.706 11.277C46.4207 11.277 44.4726 13.1128 44.4726 15.8102C44.4726 18.4701 46.4207 20.3433 48.706 20.3433C50.9913 20.3433 52.9395 18.4701 52.9395 15.8102Z" fill="#FBBC05"/>
<path d="M71.7832 8.76756V22.2546C71.7832 27.7992 68.5239 30.0846 64.6276 30.0846C60.9936 30.0846 58.7833 27.6494 57.959 25.6638L60.8438 24.465C61.3683 25.7013 62.6046 27.1249 64.6276 27.1249C67.1002 27.1249 68.6363 25.5889 68.6363 22.7416V21.6552H68.5239C67.7746 22.5543 66.351 23.3785 64.5527 23.3785C60.8063 23.3785 57.3596 20.1191 57.3596 15.8857C57.3596 11.6523 60.8063 8.35547 64.5527 8.35547C66.351 8.35547 67.7746 9.14221 68.5239 10.0413H68.6363V8.76756H71.7832ZM68.8985 15.8483C68.8985 13.1883 67.1377 11.2777 64.8899 11.2777C62.6046 11.2777 60.6939 13.2258 60.6939 15.8483C60.6939 18.4707 62.6046 20.3814 64.8899 20.3814C67.1377 20.3439 68.8985 18.4707 68.8985 15.8483Z" fill="#4285F4"/>
<path d="M76.9536 0.862793V22.8541H73.7317V0.862793H76.9536Z" fill="#34A853"/>
<path d="M89.5041 18.2834L92.0516 20.0067C91.2274 21.2431 89.2418 23.341 85.7952 23.341C81.5243 23.341 78.3398 20.0442 78.3398 15.8483C78.3398 11.39 81.5617 8.35547 85.4205 8.35547C89.3168 8.35547 91.2274 11.465 91.8643 13.1508L92.2015 14.0125L82.1612 18.171C82.9479 19.6696 84.1093 20.4563 85.7952 20.4563C87.481 20.3439 88.6424 19.5197 89.5041 18.2834ZM81.5992 15.586L88.3053 12.8137C87.9306 11.8771 86.8442 11.2402 85.5329 11.2402C83.847 11.2027 81.5243 12.6638 81.5992 15.586Z" fill="#EA4335"/>
<path d="M12.7405 13.8626V10.6782H23.4926C23.605 11.2401 23.6425 11.877 23.6425 12.5889C23.6425 14.9866 23.0056 17.9462 20.8701 20.0442C18.8096 22.1796 16.1871 23.3035 12.7405 23.3035C6.29667 23.3035 0.901855 18.0586 0.901855 11.6523C0.901855 5.24593 6.29667 0.000976562 12.7405 0.000976562C16.2995 0.000976562 18.8471 1.38714 20.7203 3.22288L18.4724 5.47071C17.1237 4.19694 15.2505 3.18541 12.7405 3.18541C8.05747 3.18541 4.386 6.96927 4.386 11.6523C4.386 16.3353 8.05747 20.1191 12.7405 20.1191C15.775 20.1191 17.5358 18.8828 18.6223 17.7963C19.5214 16.8972 20.1209 15.6234 20.3456 13.8626H12.7405Z" fill="#4285F4"/>
</svg>
