<svg width="281" height="170" viewBox="0 0 281 170" fill="none" xmlns="http://www.w3.org/2000/svg">
<path d="M47.7065 37.2986L46.7914 38.4872L47.6989 39.1859L48.612 38.4945L47.7065 37.2986ZM83.0364 10.5439L84.2204 9.62303L83.3113 8.45418L82.1308 9.34814L83.0364 10.5439ZM110.248 45.5308L109.064 46.4518L109.527 47.0469L110.281 47.0305L110.248 45.5308ZM144.321 44.7877L145.444 43.7939L144.983 43.2729L144.288 43.288L144.321 44.7877ZM172.79 76.9734L171.667 77.9672L172.444 78.8453L173.483 78.3037L172.79 76.9734ZM191.999 66.9689L193.238 66.123L192.487 65.0236L191.306 65.6385L191.999 66.9689ZM219.211 106.815L217.972 107.661L218.643 108.643L219.752 108.214L219.211 106.815ZM235.047 100.698L236.325 99.9135L235.671 98.8488L234.506 99.2989L235.047 100.698ZM275.859 169.215C276.664 169.408 277.474 168.911 277.667 168.106L280.808 154.976C281.001 154.171 280.504 153.361 279.699 153.168C278.893 152.976 278.084 153.472 277.891 154.278L275.098 165.949L263.427 163.156C262.622 162.963 261.812 163.46 261.62 164.265C261.427 165.071 261.924 165.881 262.729 166.073L275.859 169.215ZM0.0849421 2.5284L46.7914 38.4872L48.6215 36.1101L1.91506 0.151286L0.0849421 2.5284ZM48.612 38.4945L83.9419 11.7398L82.1308 9.34814L46.8009 36.1028L48.612 38.4945ZM81.8523 11.4649L109.064 46.4518L111.432 44.6099L84.2204 9.62303L81.8523 11.4649ZM110.281 47.0305L144.353 46.2873L144.288 43.288L110.216 44.0312L110.281 47.0305ZM143.197 45.7815L171.667 77.9672L173.914 75.9795L145.444 43.7939L143.197 45.7815ZM173.483 78.3037L192.692 68.2993L191.306 65.6385L172.098 75.643L173.483 78.3037ZM190.76 67.8149L217.972 107.661L220.45 105.969L193.238 66.123L190.76 67.8149ZM219.752 108.214L235.587 102.097L234.506 99.2989L218.671 105.416L219.752 108.214ZM233.768 101.483L274.929 168.541L277.486 166.972L236.325 99.9135L233.768 101.483Z" fill="#C60635"/>
</svg>
