<svg width="55" height="59" viewBox="0 0 55 59" fill="none" xmlns="http://www.w3.org/2000/svg">
<path d="M6.70458 26.4794C6.29616 26.4794 5.95582 26.1391 5.95582 25.7307C5.95582 25.3223 6.29616 24.9819 6.70458 24.9819H15.5196C15.928 24.9819 16.2683 25.3223 16.2683 25.7307C16.2683 26.1391 15.928 26.4794 15.5196 26.4794H6.70458Z" fill="#C60635"/>
<path d="M6.70458 32.0611C6.29616 32.0611 5.95582 31.7208 5.95582 31.3124C5.95582 30.9039 6.29616 30.5636 6.70458 30.5636H16.3024C16.7108 30.5636 17.0511 30.9039 17.0511 31.3124C17.0511 31.7208 16.7108 32.0611 16.3024 32.0611H6.70458Z" fill="#C60635"/>
<path d="M21.0672 32.0611C20.863 32.0611 20.6588 31.993 20.5226 31.8569C20.3865 31.7208 20.2844 31.5166 20.2844 31.3124C20.2844 31.1082 20.3525 30.904 20.4886 30.7678C20.6247 30.6317 20.829 30.5296 21.0332 30.5296C21.2374 30.5296 21.4416 30.5976 21.5777 30.7678C21.7139 30.904 21.7819 31.1082 21.7819 31.3124C21.7819 31.5166 21.7139 31.7208 21.5777 31.8569C21.4756 31.959 21.2714 32.0611 21.0672 32.0611Z" fill="#C60635"/>
<path d="M31.9243 24.5395C26.5127 24.5395 22.0882 20.115 22.0882 14.7035C22.0882 9.29195 26.5127 4.86744 31.9243 4.86744C37.3358 4.86744 41.7603 9.29195 41.7603 14.7035C41.7603 20.115 37.3358 24.5395 31.9243 24.5395ZM31.9243 6.399C27.3296 6.399 23.6198 10.1428 23.6198 14.7035C23.6198 19.2641 27.3636 23.0079 31.9243 23.0079C36.5189 23.0079 40.2287 19.2641 40.2287 14.7035C40.2287 10.1428 36.5189 6.399 31.9243 6.399Z" fill="#C60635"/>
<path d="M15.8599 58.7443C15.4515 58.7443 15.1111 58.404 15.1111 57.9955C15.1111 55.0686 17.4936 52.6521 20.4205 52.584H20.829V48.9764H5.41126C2.41621 48.9764 -0.000244141 46.5599 -0.000244141 43.5648V14.261C-0.000244141 11.266 2.41621 8.8495 5.41126 8.8495H18.4465L18.5486 8.61125C20.9311 3.36991 26.2064 0.000488281 31.9243 0.000488281C37.6421 0.000488281 42.9175 3.36991 45.2999 8.61125L45.402 8.8495H47.0356C50.0307 8.8495 52.4472 11.266 52.4472 14.261V30.2573L53.9787 31.7889C55.3401 33.1843 55.3401 35.3965 53.9787 36.7919C53.6043 37.1663 53.1959 37.4386 52.7194 37.6088L52.4472 37.7109V43.5648C52.4472 46.5599 50.0307 48.9764 47.0356 48.9764H31.6179V52.584H32.0264C34.9533 52.6521 37.3358 55.0686 37.3358 57.9955C37.3358 58.404 36.9954 58.7443 36.587 58.7443H15.8599ZM20.5226 54.0816C18.889 54.0816 17.3915 55.1366 16.8469 56.6682L16.6427 57.2127H35.7702L35.566 56.6682C35.0214 55.1026 33.5239 54.0816 31.8902 54.0816H20.5226ZM22.3265 52.584H30.1204V48.9764H22.3265V52.584ZM1.49728 43.5648C1.49728 45.709 3.23305 47.4788 5.41126 47.4788H47.0697C49.2139 47.4788 50.9837 45.7431 50.9837 43.5648V41.0463H1.49728V43.5648ZM5.37723 10.347C3.23304 10.347 1.46324 12.0828 1.46324 14.261V39.5488H50.9156V37.7789L50.6093 37.7109C49.9967 37.5747 49.4181 37.2344 48.9416 36.7919L39.4799 27.3303L39.2077 27.5005C36.9954 28.7938 34.4428 29.4745 31.8902 29.4745C26.3085 29.4745 21.1012 26.2072 18.6507 21.17L18.5486 20.9318H6.67055C6.26213 20.9318 5.92178 20.5914 5.92178 20.183C5.92178 19.7746 6.26213 19.4343 6.67055 19.4343H17.936L17.7658 18.9238C17.3574 17.5964 17.1873 16.201 17.1873 14.7715C17.1873 13.4782 17.3574 12.1849 17.6978 10.9256L17.8339 10.4151H5.37723V10.347ZM43.3599 23.9268C42.7132 24.7437 41.9645 25.4924 41.1476 26.1391L40.8073 26.4114L50.0647 35.6688C50.4391 36.0432 50.9496 36.2474 51.4942 36.2474C52.0387 36.2474 52.5493 36.0432 52.9236 35.6688C53.7064 34.886 53.7064 33.5927 52.9236 32.8099L43.6662 23.5525L43.3599 23.9268ZM46.1167 10.8575C46.4571 12.1168 46.6272 13.4101 46.6272 14.7035C46.6272 17.2901 45.9465 19.8087 44.6532 22.0209L44.483 22.2932L50.9156 28.7257V14.227C50.9156 12.0828 49.1798 10.313 47.0016 10.313H45.9465L46.1167 10.8575ZM31.9243 1.49801C24.6408 1.49801 18.7188 7.42005 18.7188 14.7035C18.7188 21.9869 24.6408 27.9089 31.9243 27.9089C39.2077 27.9089 45.1297 21.9869 45.1297 14.7035C45.1297 7.42005 39.2077 1.49801 31.9243 1.49801Z" fill="#C60635"/>
<path d="M35.9744 15.4522C35.566 15.4522 35.2256 15.1119 35.2256 14.7035C35.2256 12.8656 33.7281 11.4021 31.9243 11.4021C31.5158 11.4021 31.1755 11.0617 31.1755 10.6533C31.1755 10.2449 31.5158 9.90457 31.9243 9.90457C34.579 9.90457 36.7572 12.0828 36.7572 14.7375C36.7572 15.1119 36.4168 15.4522 35.9744 15.4522Z" fill="#C60635"/>
</svg>
