<svg width="57" height="58" viewBox="0 0 57 58" fill="none" xmlns="http://www.w3.org/2000/svg">
<path d="M26.6642 16.5926C26.2721 16.5926 25.9869 16.2361 26.0225 15.844C26.0582 15.5231 26.379 15.3093 26.6998 15.3093H28.5178C29.2308 15.3093 29.8724 14.9884 30.3002 14.4894C30.4784 14.2755 30.7992 14.2042 31.0488 14.3468C31.4052 14.525 31.5122 14.9884 31.2627 15.3093C30.5854 16.1291 29.5873 16.5926 28.4822 16.5926H26.6642Z" fill="#C60635"/>
<path d="M26.6642 51.8477H30.3358C30.8349 51.8477 31.2627 52.2755 31.2627 52.7745C31.2627 53.2736 30.8349 53.7014 30.3358 53.7014H26.6642C26.1651 53.7014 25.7374 53.2736 25.7374 52.7745C25.7374 52.2755 26.1651 51.8477 26.6642 51.8477Z" fill="#C60635"/>
<path d="M26.6642 48.176H30.3358C30.8349 48.176 31.2627 48.6038 31.2627 49.1029C31.2627 49.6019 30.8349 50.0297 30.3358 50.0297H26.6642C26.1651 50.0297 25.7374 49.6019 25.7374 49.1029C25.7374 48.6038 26.1651 48.176 26.6642 48.176Z" fill="#C60635"/>
<path d="M26.6642 44.5044H30.3358C30.8349 44.5044 31.2627 44.9321 31.2627 45.4312C31.2627 45.9302 30.8349 46.358 30.3358 46.358H26.6642C26.1651 46.358 25.7374 45.9302 25.7374 45.4312C25.7374 44.8965 26.1651 44.5044 26.6642 44.5044Z" fill="#C60635"/>
<path d="M45.985 57.2304C45.0582 57.2304 44.2739 56.4462 44.2739 55.5194V42.6507C44.2739 41.7239 45.0582 40.9396 45.985 40.9396H48.6585L41.8143 34.0954L41.5291 34.2023C37.7861 35.8777 33.7936 36.8045 29.6942 36.9471H29.2664V40.9396H33.0807C34.0075 40.9396 34.7917 41.7239 34.7917 42.6507V55.5194C34.7917 56.4462 34.0075 57.2304 33.0807 57.2304H23.8837C22.9568 57.2304 22.1726 56.4462 22.1726 55.5194V42.6507C22.1726 41.7239 22.9568 40.9396 23.8837 40.9396H27.698V36.9828H27.2702C23.1707 36.8402 19.1783 35.9134 15.4353 34.238L15.1501 34.131L8.30583 40.9753H10.9794C11.9062 40.9753 12.6904 41.7595 12.6904 42.6864V55.555C12.6904 56.4818 11.9062 57.2661 10.9794 57.2661H1.78236C0.855535 57.2661 0.0713207 56.4818 0.0713207 55.555V42.6864C0.0713207 41.7595 0.855535 40.9753 1.78236 40.9753H6.06004L13.6529 33.3824L13.1539 33.0972C7.80676 30.1742 3.38651 25.8252 0.463432 20.5138L0 19.6582L0.463432 18.8027C4.56287 11.388 11.621 5.82707 19.7842 3.51L19.9268 3.47435L19.9981 3.36741C21.3884 1.51375 23.5272 0.47998 25.8443 0.47998H31.1557C33.4728 0.47998 35.576 1.5494 37.0019 3.36741L37.0732 3.47435L37.2158 3.51C45.379 5.82707 52.4371 11.388 56.5366 18.8027L57 19.6582L56.5366 20.5138C53.5778 25.8252 49.1932 30.1742 43.8461 33.0972L43.3471 33.3824L50.94 40.9753H55.2176C56.1445 40.9753 56.9287 41.7595 56.9287 42.6864V55.555C56.9287 56.4818 56.1445 57.2661 55.2176 57.2661H45.985V57.2304ZM45.8424 55.662H55.2889V42.5081H45.8424V55.662ZM23.7768 55.662H33.2233V42.5081H23.7768V55.662ZM1.67545 55.662H11.122V42.5081H1.67545V55.662ZM25.7017 35.1648L26.2007 35.2361C27.0206 35.343 27.7692 35.4143 28.5178 35.4143C29.2664 35.4143 30.015 35.343 30.8349 35.2361L31.334 35.1648L28.8743 27.8214H28.1613L25.7017 35.1648ZM21.5666 23.9715C19.4991 25.647 18.2514 28.2492 18.2514 30.8871V31.6L18.394 31.7426C19.9981 33.0616 21.7805 34.0597 23.7411 34.6657L24.1332 34.8083L26.6998 27.0728L26.0938 25.7182L23.4916 27.2867L21.9587 23.6863L21.5666 23.9715ZM30.2645 27.0372L32.8311 34.7727L33.2233 34.6301C35.1839 34.0241 36.9662 33.0259 38.5704 31.707L38.7129 31.5644V30.8515C38.7129 28.1779 37.4653 25.6113 35.3978 23.9359L34.97 23.5794L33.4372 27.1798L30.8349 25.6113L30.2645 27.0372ZM15.7561 6.6826C9.94562 9.35615 5.02627 13.8834 1.92496 19.4443L1.818 19.6582L1.92496 19.8721C5.06192 25.4331 9.98126 29.9603 15.7561 32.6338L16.2195 31.9565C12.94 28.677 11.122 24.328 11.122 19.6939C11.122 15.0597 12.94 10.6751 16.1839 7.4312L15.7561 6.6826ZM40.7805 7.39555C44.06 10.6751 45.8424 15.0241 45.8424 19.6582C45.8424 24.2924 44.0244 28.6413 40.7449 31.9209L41.2082 32.5982C47.0187 29.9246 51.9381 25.3974 55.0394 19.8364L55.1464 19.6226L55.0394 19.4087C51.9381 13.8833 47.0187 9.35615 41.2082 6.64695L40.7805 7.39555ZM38.4634 8.32238C38.4278 8.75015 38.3565 9.14227 38.2495 9.57003L37.8574 11.1742L37.9643 11.3167C38.3208 11.8871 38.4991 12.5288 38.4991 13.1704C38.4991 15.0954 37.0019 16.6638 35.0769 16.7351H34.7561L34.6848 17.056C34.3996 18.1254 33.7223 19.0522 32.7599 19.6939L32.4747 19.8721L32.7955 20.8346L33.0094 20.9059C36.7523 22.0822 39.5329 25.2548 40.1745 29.1404L40.3527 30.1029L40.9587 29.3543C43.0976 26.6094 44.3096 23.1517 44.3096 19.6939C44.3096 15.3093 42.4559 11.0672 39.212 8.10849L38.5704 7.5025L38.4634 8.32238ZM17.8236 8.03721C14.5797 10.9959 12.7261 15.238 12.7261 19.6226C12.7261 23.116 13.9024 26.5381 16.0769 29.283L16.6829 30.0316L16.8612 29.0691C17.5385 25.1835 20.2833 22.0109 24.0263 20.8346L24.2401 20.7633L24.561 19.8008L24.2758 19.6226C23.3133 19.0166 22.636 18.0541 22.3509 16.9847L22.2795 16.6638H21.9587C20.0338 16.5925 18.5366 15.0241 18.5366 13.0991C18.5366 12.4575 18.7148 11.8158 19.0713 11.2455L19.1783 11.1029L18.7861 9.49874C18.6792 9.10662 18.6079 8.67885 18.5722 8.25108L18.5009 7.3599L17.8236 8.03721ZM27.484 24.8627L28.0901 26.2173H28.9099L29.516 24.8627L28.4822 24.2567L27.484 24.8627ZM30.1576 23.4012L32.7242 24.934L33.6154 22.8308L33.2233 22.6526C32.9738 22.5456 32.6885 22.4387 32.439 22.3674L32.2608 22.3318L30.1576 23.4012ZM24.561 22.3674C24.2758 22.4387 24.0263 22.5456 23.7411 22.6526L23.349 22.8308L24.2401 24.934L26.8068 23.4012L24.7036 22.3318L24.561 22.3674ZM25.773 21.0841L28.4822 22.4387L31.1914 21.0841L30.9775 20.4068H30.621C30.5141 20.4068 30.4428 20.4425 30.3358 20.4425H26.6642C26.5572 20.4425 26.4859 20.4425 26.379 20.4068L26.0225 20.3712L25.773 21.0841ZM24.454 8.82144C24.0263 9.17791 23.7411 9.74827 23.7411 10.3186V15.9865C23.7411 17.5907 25.0244 18.874 26.6285 18.874H30.3002C31.9043 18.874 33.1876 17.5907 33.1876 15.9865V11.1742L28.3752 10.6751C27.0563 10.5325 25.8443 9.89086 25.0601 8.85709L24.7749 8.50062L24.454 8.82144ZM21.6736 11.2811C20.7467 11.4593 20.0694 12.2792 20.0694 13.2061C20.0694 14.1329 20.7467 14.9528 21.6736 15.131L22.1726 15.2379V11.1742L21.6736 11.2811ZM34.8274 15.2379L35.3264 15.131C36.2533 14.9528 36.9306 14.1329 36.9306 13.2061C36.9306 12.2792 36.2533 11.4593 35.3264 11.2811L34.8274 11.1742V15.2379ZM34.9343 9.64133C35.3264 9.64133 35.7186 9.71262 36.0751 9.85521L36.5028 9.99781L36.7167 9.17791C36.8236 8.7145 36.8949 8.25109 36.8949 7.78767C36.8949 4.61506 34.2927 2.01281 31.1201 2.01281H25.8086C22.636 2.01281 20.0338 4.61506 20.0338 7.78767C20.0338 8.25109 20.1051 8.7145 20.212 9.17791L20.4259 9.99781L20.8537 9.85521C21.1745 9.74827 21.531 9.67697 21.8874 9.67697H22.2083L22.2795 9.3918C22.5291 8.50062 23.0994 7.78768 23.8837 7.32426L24.1332 7.18166L24.0619 6.89649C23.9906 6.61131 23.9906 6.32614 23.955 6.07661H25.5234C25.5947 7.71638 26.8424 9.03533 28.4822 9.21356L34.0075 9.74827L34.9343 9.64133Z" fill="#C60635"/>
<path d="M4.56287 51.8477H8.23451C8.73357 51.8477 9.16138 52.2755 9.16138 52.7745C9.16138 53.2736 8.73357 53.7014 8.23451 53.7014H4.56287C4.06381 53.7014 3.63605 53.2736 3.63605 52.7745C3.63605 52.2755 4.06381 51.8477 4.56287 51.8477Z" fill="#C60635"/>
<path d="M4.56287 48.176H8.23451C8.73357 48.176 9.16138 48.6038 9.16138 49.1029C9.16138 49.6019 8.73357 50.0297 8.23451 50.0297H4.56287C4.06381 50.0297 3.63605 49.6019 3.63605 49.1029C3.63605 48.6038 4.06381 48.176 4.56287 48.176Z" fill="#C60635"/>
<path d="M4.56287 44.5044H8.23451C8.73357 44.5044 9.16138 44.9321 9.16138 45.4312C9.16138 45.9302 8.73357 46.358 8.23451 46.358H4.56287C4.06381 46.358 3.63605 45.9302 3.63605 45.4312C3.63605 44.8965 4.06381 44.5044 4.56287 44.5044Z" fill="#C60635"/>
<path d="M49.5141 50.4218L49.122 50.0297C48.7655 49.6732 48.1951 49.6732 47.803 50.0297C47.4465 50.3862 47.4465 50.9565 47.803 51.313L49.2646 52.7745C49.5141 53.0241 49.9775 52.9884 50.1914 52.6676L53.5779 47.57C53.863 47.1423 53.7561 46.5719 53.3283 46.2867C52.9005 46.0016 52.3302 46.1085 52.045 46.5363L49.5141 50.4218Z" fill="#C60635"/>
</svg>
