<svg width="55" height="56" viewBox="0 0 55 56" fill="none" xmlns="http://www.w3.org/2000/svg">
<path d="M35.6824 32.0018C34.0704 32.0018 32.7738 30.7052 32.7738 29.0933C32.7738 28.7078 32.8439 28.3574 32.9841 28.007L33.0892 27.7266L30.4611 25.2386L30.2158 25.3087C28.9192 25.7643 27.5526 25.9745 26.1509 25.9745C23.3826 25.9745 20.6493 25.0284 18.4416 23.3464L18.1963 23.1361L12.134 27.9369L12.2041 28.2172C12.2742 28.4975 12.3443 28.7779 12.3443 29.0582C12.3443 30.6702 11.0477 31.9667 9.43576 31.9667C7.82382 31.9667 6.52726 30.6702 6.52726 29.0582C6.52726 27.4463 7.82382 26.1497 9.43576 26.1497C9.96139 26.1497 10.452 26.2899 10.9075 26.5352L11.1528 26.6754L17.0049 22.0498L16.6895 21.6994C15.1827 20.0173 14.1314 17.9499 13.7109 15.7072C13.6759 15.4969 13.7109 15.2866 13.816 15.1114C13.9212 14.9362 14.0964 14.8311 14.3066 14.7961C14.3417 14.7961 14.4117 14.7961 14.4468 14.7961C14.8322 14.7961 15.1476 15.0764 15.2177 15.4268C16.2339 20.6131 20.8245 24.3626 26.1158 24.3626C26.8517 24.3626 27.6227 24.2925 28.3585 24.1523L29.1645 23.9771L25.2047 20.2276L24.9594 20.3678C24.574 20.543 24.1535 20.6481 23.6979 20.6481C23.1723 20.6481 22.6817 20.5079 22.2262 20.2626L21.9809 20.1225L21.5253 20.5079C21.3851 20.6131 21.2099 20.6831 21.0347 20.6831C20.7894 20.6831 20.5792 20.578 20.439 20.4028C20.2988 20.2276 20.2638 20.0524 20.2638 19.8421C20.2988 19.6319 20.404 19.4567 20.5441 19.3165L20.9997 18.931L20.9296 18.6507C20.8595 18.3704 20.7894 18.09 20.7894 17.8097C20.7894 16.1977 22.086 14.9012 23.6979 14.9012C25.3099 14.9012 26.6064 16.1977 26.6064 17.8097C26.6064 18.1952 26.5364 18.5456 26.3962 18.896L26.291 19.1763L30.7765 23.4164L31.0217 23.2763C34.4208 21.5942 36.7336 18.3353 37.1541 14.5858L37.1892 14.1303H26.1158C25.8705 14.1303 25.6252 13.9901 25.4851 13.7798L19.4228 4.56374L19.0724 4.87912C18.9322 4.98425 18.8271 5.08938 18.6869 5.22955C16.6545 7.12182 15.3929 9.64486 15.1476 12.4132C15.1126 12.7987 14.7622 13.114 14.3767 13.114C14.3417 13.114 14.3417 13.114 14.3066 13.114C14.0964 13.079 13.9212 13.0089 13.781 12.8337C13.6408 12.6585 13.5707 12.4833 13.6058 12.273C13.8861 9.11922 15.3229 6.21072 17.6356 4.07315C19.9835 1.90053 23.0321 0.744141 26.1859 0.744141C33.1593 0.744141 38.8362 6.42098 38.8362 13.3944C38.8362 17.8798 36.4182 22.0848 32.5286 24.3275L32.038 24.6079L34.1755 26.6403L34.4208 26.5002C34.8063 26.3249 35.2268 26.2198 35.6824 26.2198C36.1029 26.2198 36.5584 26.3249 36.9439 26.5002L37.1892 26.6403L42.901 21.2789L42.7959 20.9985C42.6558 20.6481 42.5857 20.2977 42.5857 19.9122C42.5857 18.3003 43.8822 17.0037 45.4942 17.0037C47.1061 17.0037 48.4027 18.3003 48.4027 19.9122C48.4027 21.5241 47.1061 22.8207 45.4942 22.8207C45.0737 22.8207 44.6181 22.7156 44.2326 22.5404L43.9873 22.4002L38.2755 27.7266L38.3806 28.007C38.5208 28.3574 38.5909 28.7078 38.5909 29.0933C38.5909 30.6702 37.2593 32.0018 35.6824 32.0018ZM34.6661 28.2172C34.4559 28.4625 34.3507 28.7779 34.3507 29.0933C34.3507 29.8292 34.9465 30.4249 35.6824 30.4249C36.4182 30.4249 37.014 29.8292 37.014 29.0933C37.014 28.7428 36.8738 28.4275 36.6635 28.1822C36.4182 27.9018 36.0678 27.7617 35.6824 27.7617C35.3319 27.7617 35.0165 27.9018 34.7713 28.1121L34.6661 28.2172ZM9.50585 27.7617C8.76996 27.7617 8.17425 28.3574 8.17425 29.0933C8.17425 29.8292 8.76996 30.4249 9.50585 30.4249C10.2417 30.4249 10.8374 29.8292 10.8374 29.0933C10.8374 28.3574 10.2417 27.7617 9.50585 27.7617ZM45.4591 18.5806C44.7232 18.5806 44.1275 19.1763 44.1275 19.9122C44.1275 20.6481 44.7232 21.2438 45.4591 21.2438C46.195 21.2438 46.7907 20.6481 46.7907 19.9122C46.7907 19.1763 46.23 18.5806 45.4591 18.5806ZM23.733 16.4781C22.9971 16.4781 22.4014 17.0738 22.4014 17.8097C22.4014 18.5456 22.9971 19.1413 23.733 19.1413C24.4688 19.1413 25.0646 18.5456 25.0646 17.8097C25.0646 17.0738 24.5039 16.4781 23.733 16.4781ZM26.1859 2.25096C24.4338 2.25096 22.6817 2.67147 21.1399 3.47744L20.7193 3.68768L26.6064 12.5534H37.2593L37.2242 12.0978C36.5584 6.49106 31.8277 2.25096 26.1859 2.25096Z" fill="#C60635"/>
<path d="M16.8296 55.48C16.4091 55.48 16.0587 55.1296 16.0587 54.7091C16.0587 51.6955 18.5117 49.2075 21.5253 49.1374H21.9458V45.4229H6.07172C2.988 45.4229 0.5 42.9349 0.5 39.8512V9.6799C0.5 6.59619 2.988 4.10819 6.07172 4.10819H11.1178C11.5383 4.10819 11.8887 4.45862 11.8887 4.87912C11.8887 5.29963 11.5383 5.65005 11.1178 5.65005H6.07172C3.86406 5.65005 2.04186 7.4372 2.04186 9.6799V35.7162H52.9582V9.6799C52.9582 7.47224 51.171 5.65005 48.9283 5.65005H43.8822C43.4617 5.65005 43.1113 5.29963 43.1113 4.87912C43.1113 4.45862 43.4617 4.10819 43.8822 4.10819H48.9283C52.012 4.10819 54.5 6.59619 54.5 9.6799V39.8512C54.5 42.9349 52.012 45.4229 48.9283 45.4229H33.0542V49.1374H33.4747C36.4883 49.2075 38.9413 51.6955 38.9413 54.7091C38.9413 55.1296 38.5909 55.48 38.1703 55.48H16.8296ZM21.5954 50.6793C19.9134 50.6793 18.3715 51.7656 17.8108 53.3425L17.6006 53.9031H37.3293L37.1191 53.3425C36.5584 51.7305 35.0166 50.6793 33.3345 50.6793H21.5954ZM23.4526 49.1374H31.4773V45.4229H23.4526V49.1374ZM2.04186 39.8512C2.04186 42.0589 3.82902 43.8811 6.07172 43.8811H48.9633C51.171 43.8811 52.9932 42.0939 52.9932 39.8512V37.2581H2.04186V39.8512Z" fill="#C60635"/>
</svg>
