<svg width="38" height="38" viewBox="0 0 38 38" fill="none" xmlns="http://www.w3.org/2000/svg">
<path d="M2.47297 2.64938C-0.492436 5.72739 0.108157 8.9931 0.108157 18.9403C0.108157 27.1984 -1.31825 35.4565 6.1891 37.4084C8.55392 38.009 29.3868 38.009 31.7516 37.4084C34.9047 36.5826 37.4572 34.0676 37.795 29.6008C37.8326 28.9626 37.8326 8.88049 37.795 8.24236C37.4197 3.51273 34.5294 0.772543 30.6631 0.247028C29.7997 0.134418 29.612 0.0968814 25.1076 0.0593447C9.11698 0.0593447 5.62605 -0.616319 2.47297 2.64938Z" fill="url(#paint0_linear)"/>
<path d="M18.9891 5.01426C13.2835 5.01426 7.8407 4.48874 5.77618 9.81895C4.91284 11.9961 5.06298 14.8489 5.06298 18.9404C5.06298 22.5064 4.95038 25.8847 5.77618 28.0618C7.8407 33.392 13.3211 32.8665 18.9891 32.8665C24.4695 32.8665 30.1 33.4296 32.2021 28.0618C33.0654 25.8472 32.9152 23.0319 32.9152 18.9404C32.9152 13.4976 33.2155 9.96911 30.588 7.34154C27.8853 4.67643 24.2818 5.01426 18.9891 5.01426ZM17.7129 7.52922C29.612 7.49169 31.151 6.17791 30.2877 24.5709C29.9874 31.0648 25.0325 30.3516 18.9516 30.3516C7.8407 30.3516 7.5404 30.0513 7.5404 18.9404C7.57794 7.71692 8.44129 7.52922 17.7129 7.52922ZM26.4214 9.81895C25.483 9.81895 24.7322 10.5697 24.7322 11.5081C24.7322 12.4465 25.483 13.1973 26.4214 13.1973C27.3598 13.1973 28.1105 12.4465 28.1105 11.5081C28.1105 10.5697 27.3223 9.81895 26.4214 9.81895ZM18.9891 11.7709C15.0478 11.7709 11.8196 14.9615 11.8196 18.9404C11.8196 22.9193 15.0102 26.1099 18.9891 26.1099C22.968 26.1099 26.1586 22.9193 26.1586 18.9404C26.1586 14.9615 22.9305 11.7709 18.9891 11.7709ZM18.9891 14.2858C25.1451 14.2858 25.1451 23.5574 18.9891 23.5574C12.8331 23.595 12.8331 14.2858 18.9891 14.2858Z" fill="white"/>
<defs>
<linearGradient id="paint0_linear" x1="2.54599" y1="35.3981" x2="37.6193" y2="5.04222" gradientUnits="userSpaceOnUse">
<stop stop-color="#FFDD55"/>
<stop offset="0.5" stop-color="#FF543E"/>
<stop offset="1" stop-color="#C837AB"/>
</linearGradient>
</defs>
</svg>
