<svg width="12" height="13" viewBox="0 0 12 13" fill="none" xmlns="http://www.w3.org/2000/svg">
<path d="M6 12.856C2.69292 12.856 0 10.163 0 6.85596C0 3.54887 2.69292 0.855957 6 0.855957C9.30708 0.855957 12 3.54887 12 6.85596V7.51739C12 8.74573 11.1024 9.6906 9.92125 9.6906C9.30708 9.6906 8.74014 9.40715 8.31494 8.93471L8.17321 8.74572L7.98426 8.93471C7.46457 9.45439 6.75589 9.6906 6.04723 9.6906C4.44093 9.6906 3.16536 8.41502 3.16536 6.80872C3.16536 5.20243 4.44093 3.92682 6.04723 3.92682C6.70865 3.92682 7.41731 4.16304 7.93699 4.63548L7.98426 4.68274H8.92914V7.56462C8.92914 8.13155 9.40157 8.55676 9.92125 8.55676C10.4882 8.55676 10.9134 8.08431 10.9134 7.42289V6.76146C10.9134 4.06855 8.74015 1.8481 6 1.8481C3.25985 1.8481 1.08661 4.02131 1.08661 6.76146C1.08661 9.50162 3.25985 11.6749 6 11.6749C6.80315 11.6749 7.55906 11.4859 8.22048 11.1552L8.74015 12.1001C7.88976 12.6197 6.94488 12.856 6 12.856ZM6 5.10792C5.00788 5.10792 4.20473 5.91109 4.20473 6.90322C4.20473 7.89534 5.00788 8.69849 6 8.69849C6.99212 8.69849 7.79527 7.89534 7.79527 6.90322C7.79527 5.91109 6.99212 5.10792 6 5.10792Z" fill="white"/>
</svg>
