<svg width="90" height="49" viewBox="0 0 90 49" fill="none" xmlns="http://www.w3.org/2000/svg">
<path d="M51.738 48.5978C50.2427 48.5978 48.8969 48.1492 47.7007 47.252L48.2988 46.5542C49.4452 47.4015 50.5916 47.8003 51.7879 47.8003C52.6352 47.8003 53.2334 47.6009 53.7318 47.252C54.1804 46.8533 54.4296 46.4047 54.4296 45.8564C54.4296 45.3081 54.1804 44.8595 53.682 44.5604C53.1835 44.2614 52.5355 43.9623 51.738 43.6633C51.2895 43.5137 50.9405 43.414 50.6913 43.3143C50.4421 43.2147 50.143 43.115 49.7941 42.9156C49.4452 42.7661 49.1462 42.5667 48.9468 42.3673C48.7474 42.1679 48.5979 41.9686 48.4483 41.7193C48.2988 41.4701 48.1991 41.1711 48.1991 40.8221C48.1991 40.0745 48.4982 39.4265 49.1462 38.9281C49.7941 38.4296 50.6415 38.1804 51.738 38.1804C52.9343 38.1804 53.981 38.5293 54.8782 39.2271L54.3299 39.8751C53.4327 39.277 52.5854 38.9779 51.6882 38.9779C50.8907 38.9779 50.2926 39.1773 49.844 39.5262C49.3954 39.8751 49.196 40.3237 49.196 40.7723C49.196 41.0714 49.2459 41.2708 49.3954 41.52C49.5449 41.7193 49.7443 41.9187 50.0433 42.0682C50.3424 42.2178 50.5916 42.3673 50.8409 42.467C51.0901 42.5667 51.3891 42.6664 51.8377 42.8159C53.0838 43.2645 53.9312 43.6134 54.3299 43.8626C55.0776 44.3611 55.4265 45.009 55.4265 45.8564C55.4265 46.6539 55.0776 47.3019 54.4296 47.8501C53.7816 48.3486 52.8845 48.5978 51.738 48.5978Z" fill="white"/>
<path d="M62.0557 48.5978C60.6103 48.5978 59.3642 48.1492 58.4171 47.2022C57.4203 46.2551 56.9717 45.009 56.9717 43.414C56.9717 41.8689 57.4701 40.5729 58.4171 39.6259C59.3642 38.6789 60.5106 38.1804 61.7567 38.1804C63.0526 38.1804 64.0993 38.5792 64.847 39.3767C65.5947 40.1742 65.9934 41.3206 65.9934 42.7661C65.9934 43.115 65.9934 43.3642 65.9436 43.5137H58.0184C58.0682 44.7598 58.467 45.8065 59.2146 46.604C59.9623 47.4015 60.9592 47.8003 62.2053 47.8003C63.252 47.8003 64.2489 47.5012 65.1461 46.9031L65.5448 47.6009C64.3486 48.2987 63.2022 48.5978 62.0557 48.5978ZM58.0184 42.7661H65.0464C65.0464 41.52 64.7473 40.5729 64.199 39.925C63.6009 39.277 62.8532 38.9779 61.8065 38.9779C60.8096 38.9779 59.9623 39.3268 59.2645 40.0247C58.5168 40.7225 58.1181 41.6197 58.0184 42.7661Z" fill="white"/>
<path d="M68.5355 38.4296H69.4326L69.5323 40.2739H69.5822C70.4295 38.8782 71.4762 38.1804 72.7223 38.1804C73.1709 38.1804 73.5198 38.2303 73.8189 38.3798L73.5697 39.2271C73.2706 39.1275 72.9217 39.0776 72.5728 39.0776C71.3267 39.0776 70.3298 39.925 69.5822 41.6196V48.3984H68.5355V38.4296Z" fill="white"/>
<path d="M75.3142 48.3486V38.4296H76.2114L76.3111 39.9748H76.361C77.5074 38.7786 78.6538 38.1804 79.85 38.1804C81.445 38.1804 82.4917 38.8782 82.8905 40.224C84.2861 38.8782 85.5322 38.1804 86.6288 38.1804C88.8219 38.1804 89.9185 39.4265 89.9185 41.9686V48.3486H88.8718V42.1181C88.8718 40.0745 88.0743 39.0278 86.4294 39.0278C85.4325 39.0278 84.336 39.6259 83.1397 40.872V48.3486H82.1428V42.1181C82.1428 41.0714 81.9435 40.2739 81.5447 39.7754C81.146 39.277 80.498 39.0278 79.6506 39.0278C78.6538 39.0278 77.5572 39.6259 76.361 40.872V48.3486H75.3142Z" fill="white"/>
<path d="M26.5668 18.6416C26.5668 23.7257 26.5668 34.2428 26.5668 34.5419H24.7226C24.7226 34.5419 24.7724 24.4734 24.7226 19.5887C24.7226 18.193 24.1743 16.5482 23.1276 15.4018C21.4827 13.6074 17.1962 13.3582 15.5015 15.9501C14.704 17.1463 14.1557 18.4423 14.1557 19.8379C14.1058 24.3737 14.1557 34.492 14.1557 34.492H12.3115C12.3115 34.492 12.3115 24.3737 12.3115 19.7382C12.3115 18.6416 12.0124 17.5451 11.6136 16.5482C10.9657 14.9033 9.61988 14.056 7.87534 13.9563C4.0872 13.7569 1.89407 15.9999 1.84422 20.137C1.79438 24.6229 1.84422 34.0933 1.84422 34.4422H0C0 34.2428 0 19.5887 0 13.0093C0 12.5108 0.398748 12.0622 0.947032 12.0622C1.44547 12.0622 1.89407 12.461 1.89407 13.0093V15.3021C3.38939 12.8099 5.48283 11.813 8.07472 11.9127C10.6666 12.0124 12.7102 13.109 13.8068 15.651C14.9033 13.9065 16.2491 12.6105 18.2429 12.1619C22.5295 11.2647 26.5668 13.4579 26.5668 18.6416ZM31.8503 11.6635C32.3487 11.6635 32.7973 11.2647 32.7973 10.7164V8.623C32.7973 8.12456 32.3986 7.67597 31.8503 7.67597C31.3518 7.67597 30.9032 8.07472 30.9032 8.623V10.7164C30.9531 11.2647 31.3518 11.6635 31.8503 11.6635ZM64.1492 31.7007C64.6476 31.7007 65.0962 31.302 65.0962 30.7537V28.6603C65.0962 28.1618 64.6974 27.7132 64.1492 27.7132C63.6009 27.7132 63.2021 28.112 63.2021 28.6603V30.7537C63.2021 31.2522 63.6507 31.7007 64.1492 31.7007ZM35.0901 12.3115C32.5481 12.3115 30.8534 14.056 30.8534 16.5482C30.8534 21.084 30.8534 25.6198 30.8534 30.1556C30.8534 32.897 32.4484 34.5419 35.1898 34.5419C37.9312 34.5917 44.062 34.5419 44.062 34.5419C44.062 33.9437 44.062 33.3456 44.062 32.7475C43.7131 32.7475 37.9811 32.7475 35.439 32.7475C33.6447 32.7475 32.9468 32.0497 32.9468 30.2054C32.9468 28.3114 32.9468 26.4173 32.9468 24.5232C32.9468 24.274 32.9468 24.0248 32.9967 23.6759C36.4359 23.6759 39.8253 23.6759 43.2147 23.6759C43.2147 23.0777 43.2147 22.5793 43.2147 21.9812C39.7755 21.9812 36.3861 21.9812 32.9468 21.9812C32.9468 19.9874 32.9468 18.0933 32.9468 16.1993C32.9468 14.9033 33.7444 14.1058 35.0403 14.1058C37.7817 14.1058 44.062 14.1058 44.062 14.1058V12.2616C44.0122 12.3115 37.8315 12.3115 35.0901 12.3115ZM50.8907 31.0029C50.791 30.355 50.7411 29.707 50.7411 29.059C50.7411 23.5762 50.7411 7.57628 50.7411 0.996879C50.7411 0.448595 50.2925 0 49.7443 0C49.196 0 48.7474 0.448595 48.7474 0.996879C48.7474 7.47659 48.7474 23.327 48.7474 28.76C48.7474 29.6073 48.7972 30.5045 48.8471 31.3518C48.9966 33.1462 49.8938 34.2428 51.6882 34.6415C52.4857 34.7911 53.2832 34.7911 54.1804 34.7911V32.9468C54.1804 32.9468 53.333 32.9468 52.9343 32.9468C51.738 32.897 51.09 32.1992 50.8907 31.0029ZM71.2768 28.411C70.7784 32.1992 68.336 34.8908 64.0495 34.8409C59.7629 34.8908 57.3205 32.1992 56.8221 28.411C56.3735 24.7724 56.2738 21.1338 56.9218 17.5451C57.4701 14.6541 59.1149 12.8099 61.956 12.1619C62.1055 12.1121 62.4046 12.0124 63.1024 11.9625C63.1024 11.3146 63.1024 9.66973 63.1024 8.623C63.1024 8.37378 63.2021 8.12456 63.4015 7.97503C63.551 7.8255 63.8002 7.67597 64.0495 7.67597C64.2987 7.67597 64.5479 7.77565 64.6974 7.97503C64.847 8.12456 64.9965 8.37378 64.9965 8.623C64.9965 9.61988 64.9965 11.3146 64.9965 11.9625C65.6943 12.0124 65.9934 12.1121 66.1429 12.1619C68.9342 12.8099 70.6289 14.6541 71.1771 17.5451C71.8251 21.1837 71.7753 24.7724 71.2768 28.411ZM69.4825 19.9874C69.4326 19.2398 69.3329 18.4921 69.1834 17.7444C68.5853 15.3021 66.6413 13.8068 64.0495 13.8068C61.5074 13.8068 59.5137 15.2522 58.9155 17.7444C58.7162 18.4921 58.6663 19.2398 58.6165 19.9874C58.4669 22.8784 58.2676 25.8192 58.8657 28.7101C59.4638 31.5512 61.308 33.1462 63.9996 33.1462C66.6912 33.1462 68.5853 31.5512 69.1336 28.7101C69.8314 25.7693 69.632 22.8784 69.4825 19.9874ZM89.9185 20.2366C89.9185 19.2896 89.9185 18.2927 89.7689 17.3457C89.3702 14.9033 88.1241 13.109 85.6817 12.3613C82.8905 11.514 79.4014 12.0622 77.4575 15.003C77.4076 15.0529 77.308 15.2523 77.2581 15.3021V13.2585C77.2581 12.7102 76.8095 12.2616 76.2612 12.2616C75.7129 12.2616 75.2644 12.7102 75.2644 13.2585V34.5917H77.1086C77.1086 34.5917 77.1086 24.5232 77.1086 19.7382C77.1086 17.246 79.4512 14.2554 82.6412 14.056C84.9839 13.9065 87.0774 14.8535 87.7253 17.4454C87.9247 18.193 87.9247 18.9905 87.9247 19.788C87.9247 24.4235 87.9247 34.6415 87.9247 34.6415H89.7689C89.9185 34.492 89.9185 24.6728 89.9185 20.2366Z" fill="white"/>
</svg>
