<svg width="90" height="36" viewBox="0 0 90 36" fill="none" xmlns="http://www.w3.org/2000/svg">
<path d="M26.4029 18.9714C26.4029 23.9896 26.4029 34.4377 26.4029 34.695H24.5501C24.5501 34.695 24.6015 24.7359 24.5501 19.8978C24.5243 18.5082 24.0096 16.8612 22.9803 15.7546C21.3333 13.9789 17.0871 13.7473 15.4401 16.295C14.6681 17.4788 14.1019 18.7655 14.0762 20.1552C14.0762 24.6844 14.0762 34.7208 14.0762 34.7208H12.2491C12.2491 34.7208 12.2491 24.7101 12.2491 20.1294C12.2491 19.0743 11.966 17.9678 11.58 16.9641C10.9624 15.3429 9.62418 14.5194 7.89998 14.4164C4.14278 14.2106 1.92963 16.4494 1.90389 20.5155C1.87816 24.9418 1.90389 34.3605 1.90389 34.695H0.0510254C0.0510254 34.4634 0.0510254 20.0008 0.0510254 13.49C0.0510254 12.9753 0.462773 12.5636 0.977459 12.5636C1.49214 12.5636 1.90389 12.9753 1.90389 13.49V15.7803C3.39648 13.3099 5.45522 12.332 8.02865 12.4349C10.6021 12.5378 12.6094 13.6187 13.7159 16.1406C14.7968 14.4422 16.1349 13.1297 18.1165 12.6665C22.3884 11.6629 26.4029 13.8245 26.4029 18.9714ZM31.627 12.0746C32.1417 12.0746 32.5534 11.6629 32.5534 11.1482V9.08943C32.5534 8.57475 32.1417 8.163 31.627 8.163C31.1123 8.163 30.7006 8.57475 30.7006 9.08943V11.1482C30.7263 11.6629 31.138 12.0746 31.627 12.0746ZM63.6147 31.89C64.1294 31.89 64.5411 31.4783 64.5411 30.9636V28.9048C64.5411 28.3901 64.1294 27.9784 63.6147 27.9784C63.1 27.9784 62.6883 28.3901 62.6883 28.9048V30.9636C62.6883 31.4783 63.1 31.89 63.6147 31.89ZM34.8695 12.718C32.3475 12.718 30.6748 14.4164 30.6748 16.9127C30.6748 21.4162 30.6748 25.9197 30.6748 30.4232C30.6748 33.1253 32.2446 34.7465 34.9467 34.7722C37.6488 34.8494 43.7221 34.7722 43.7221 34.7722C43.7221 34.1804 43.7221 33.5885 43.7221 33.0223C43.3875 33.0223 37.726 33.0223 35.1783 33.0223C33.4026 33.0223 32.7078 32.3275 32.7078 30.5261C32.7078 28.6475 32.7078 26.7689 32.7078 24.916C32.7078 24.6587 32.7336 24.4271 32.7593 24.0925C36.1562 24.0925 39.5017 24.0925 42.8986 24.0925C42.8986 23.5006 42.8986 23.0117 42.8986 22.3941C39.4759 22.3941 36.1305 22.3941 32.7336 22.3941C32.7336 20.4125 32.7336 18.5339 32.7336 16.681C32.7336 15.3686 33.5056 14.6223 34.818 14.5966C37.5201 14.5966 43.7736 14.5966 43.7736 14.5966V12.7437C43.6964 12.718 37.5716 12.718 34.8695 12.718ZM50.4902 31.2466C50.3873 30.6033 50.3358 29.9599 50.3358 29.3166C50.3358 23.8609 50.3358 8.06006 50.3358 1.52356C50.3358 0.983137 49.8983 0.545654 49.3579 0.545654C48.8175 0.545654 48.38 0.983137 48.38 1.52356C48.38 7.95713 48.38 23.655 48.38 29.0078C48.38 29.857 48.4315 30.732 48.4829 31.5812C48.6116 33.3569 49.538 34.4634 51.2622 34.8237C52.0343 34.9781 52.8578 34.9524 53.707 34.9781V33.151C53.707 33.151 52.8835 33.151 52.4717 33.151C51.3394 33.1253 50.6703 32.4047 50.4902 31.2466ZM70.6916 28.6732C70.2027 32.4304 67.7836 35.1068 63.5632 35.0553C59.3428 35.1068 56.898 32.4304 56.4348 28.6732C55.9716 25.0704 55.8944 21.4676 56.5378 17.8906C57.0524 15.0341 58.7252 13.2327 61.5045 12.5893C61.6589 12.5636 61.942 12.4606 62.6368 12.4092C62.6368 11.7658 62.6368 10.1188 62.6368 9.11517C62.6368 8.85783 62.7397 8.62622 62.9199 8.47181C63.1 8.31741 63.3316 8.18874 63.5632 8.18874C63.7948 8.18874 64.0522 8.29167 64.2066 8.47181C64.361 8.65195 64.4897 8.88356 64.4897 9.11517C64.4897 10.1188 64.4897 11.7658 64.4897 12.4092C65.1845 12.4606 65.4676 12.5378 65.622 12.5893C68.4013 13.2327 70.074 15.0341 70.5887 17.8906C71.232 21.4676 71.1548 25.0704 70.6916 28.6732ZM68.9159 20.3096C68.8902 19.5633 68.7873 18.817 68.6071 18.0707C68.0152 15.6259 66.0852 14.1848 63.5375 14.1848C60.9898 14.1591 59.0597 15.6259 58.4678 18.0707C58.2877 18.7913 58.2105 19.5633 58.159 20.3096C58.0046 23.1918 57.8245 26.0741 58.4164 28.9306C58.9825 31.7613 60.8354 33.3311 63.5117 33.3311C66.1881 33.3311 68.041 31.7613 68.6071 28.9306C69.2248 26.0741 69.0446 23.1661 68.9159 20.3096ZM89.1431 20.5412C89.1431 19.589 89.1431 18.6111 89.0144 17.6589C88.6541 15.2399 87.3932 13.4385 84.9741 12.6922C82.1948 11.843 78.7722 12.3834 76.8421 15.2914C76.8164 15.3171 76.6877 15.5487 76.662 15.5745V13.5415C76.662 13.001 76.2245 12.5378 75.6583 12.5378C75.0922 12.5378 74.6547 12.9753 74.6547 13.5415V34.6693H76.5076C76.5076 34.6693 76.5076 24.6844 76.5076 19.9493C76.5076 17.5045 78.8236 14.5194 82.0147 14.3135C84.3308 14.1591 86.3895 15.1113 87.0586 17.6847C87.2645 18.431 87.2902 19.2287 87.2902 20.0008C87.2902 24.6072 87.2902 34.695 87.2902 34.695H89.1431C89.1688 34.695 89.1688 24.9675 89.1431 20.5412Z" fill="white"/>
</svg>
