<svg width="157" height="154" viewBox="0 0 157 154" fill="none" xmlns="http://www.w3.org/2000/svg">
<path d="M92.6998 63.3015C90.2307 69.2098 87.6734 75.1181 85.2042 81.0264C87.4088 85.1269 89.4811 89.2715 91.8621 93.2398C89.437 97.5608 87.012 101.882 84.6752 106.247C86.042 109.289 88.467 111.406 90.6716 113.831C89.1284 116.388 87.5852 118.857 85.8656 121.326C76.1213 122.869 66.5093 124.721 56.8532 126.705C52.6645 127.543 48.8286 124.28 48.9167 120.048C49.8868 87.2874 42.6998 55.4532 25.4159 27.455C23.1231 23.7512 24.6222 18.8571 28.5905 17.0493C42.303 10.8764 56.4123 5.89408 71.1831 2.71948C69.9485 8.71595 68.758 14.7124 67.5676 20.7089C74.2695 24.4126 80.5746 28.5572 86.7034 33.0987C84.4547 39.4038 82.0737 45.6207 79.5605 51.7936C84.0578 55.5855 88.4229 59.4214 92.6998 63.3015Z" stroke="#C60635" stroke-width="3" stroke-miterlimit="10"/>
<path d="M125.195 6.51138C128.811 7.12867 131.633 9.99462 132.162 13.6101C134.807 31.5114 136.13 49.589 134.499 67.6225C133.088 83.0987 129.605 98.0458 125.195 112.861C123.784 117.623 119.375 120.885 114.393 120.797C105.839 120.709 97.2854 120.885 88.6875 121.326C90.8921 119.078 92.9203 116.653 94.8162 114.183C93.3612 111.317 91.818 108.496 90.2307 105.718C93.5817 101.749 96.8003 97.693 99.7545 93.4162C98.3876 88.9629 96.9326 84.5096 95.3453 80.1004C98.8286 74.9417 102.091 69.6948 104.913 64.1833C101.783 59.2892 98.4317 54.7036 94.7721 50.2063C98.1672 44.9153 101.165 39.492 103.723 33.8041C98.9167 27.8959 93.8462 22.3403 88.3347 17.0493C90.5834 12.0669 92.5676 6.99638 94.4194 1.83765C104.781 2.89585 115.01 4.74772 125.195 6.51138Z" stroke="#C60635" stroke-width="3" stroke-miterlimit="10"/>
<path d="M154.208 133.231C144.508 138.831 140.363 139.404 137.762 151C134.102 148.399 134.499 148.751 130.707 145.444C132.25 133.981 135.469 131.247 144.508 124.986C147.77 127.72 150.989 130.453 154.208 133.231Z" stroke="#C60635" stroke-width="3" stroke-miterlimit="10"/>
<path d="M4.20776 90.6825C14.1284 95.2239 21.0508 95.5326 21.8445 107.217C26.4741 104.351 25.9449 104.792 29.7368 102.014C30.795 92.2698 26.2536 89.977 19.1989 84.6419C14.2166 86.7142 9.23422 88.6983 4.20776 90.6825Z" stroke="#C60635" stroke-width="3" stroke-miterlimit="10"/>
</svg>
