<svg width="12" height="13" viewBox="0 0 12 13" fill="none" xmlns="http://www.w3.org/2000/svg">
<path d="M9.41986 12.5648C9.3744 12.5648 9.32894 12.5648 9.28347 12.5648C8.37418 12.5193 7.5558 12.1556 6.91929 11.8374C5.23709 11.019 3.73674 9.83691 2.50919 8.38203C1.50896 7.15448 0.827006 6.01784 0.372356 4.79029C0.0995667 4.01739 -0.0368503 3.42635 0.00861464 2.8353C0.0540796 2.42612 0.190491 2.10787 0.508746 1.78961L1.50898 0.78938C1.69084 0.60752 1.91815 0.516602 2.14547 0.516602C2.3728 0.516602 2.60013 0.60752 2.78199 0.78938C2.96385 0.97124 3.14572 1.15311 3.32758 1.33497C3.41851 1.42589 3.50943 1.51681 3.60036 1.60774L4.41872 2.42611C4.60058 2.60797 4.73698 2.8353 4.73698 3.06263C4.73698 3.33542 4.55511 3.56275 4.41872 3.69915C4.32779 3.79008 4.23687 3.881 4.14594 3.97193C3.91862 4.19925 3.69129 4.42658 3.46397 4.6539L3.14571 4.88123L3.2821 5.19949C3.46396 5.65414 3.73676 6.06331 4.14594 6.60889C4.91885 7.56365 5.78267 8.33657 6.69197 8.92762C6.7829 8.97308 6.9193 9.064 7.01023 9.10946C7.10116 9.15493 7.19209 9.20038 7.23755 9.24585L7.55581 9.42772L8.78337 8.20016C8.91977 8.06377 9.14707 7.8819 9.41986 7.8819C9.69265 7.8819 9.91999 8.06378 10.0564 8.15471L11.6931 9.79143C12.1023 10.2006 12.1023 10.6553 11.6931 11.0644C11.5567 11.2008 11.4658 11.2918 11.3294 11.4282L11.2839 11.4736C11.1021 11.6555 10.9202 11.8374 10.7838 12.0192C10.3292 12.3829 9.91998 12.5648 9.41986 12.5648Z" fill="white"/>
</svg>
