<svg width="217" height="185" viewBox="0 0 217 185" fill="none" xmlns="http://www.w3.org/2000/svg">
<mask id="mask0" style="mask-type:alpha" maskUnits="userSpaceOnUse" x="0" y="0" width="217" height="186">
<rect x="0.701172" y="0.958496" width="216.299" height="184.043" fill="#C4C4C4"/>
</mask>
<g mask="url(#mask0)">
<path d="M165.721 279.626L3.12134 244.108L54.259 9.87383C55.1268 5.92405 59.0167 3.41056 62.9665 4.27831L211.233 36.6545C215.183 37.5223 217.696 41.4122 216.828 45.362L165.721 279.626Z" stroke="white" stroke-miterlimit="10"/>
<path d="M205.39 60.5505L58.3994 28.4443L10.917 245.831L157.907 277.937L205.39 60.5505Z" stroke="white" stroke-miterlimit="10"/>
<path d="M155.906 39.1979L120.627 31.5078C119.879 31.3582 119.4 30.6101 119.55 29.862L119.819 28.6651C119.968 27.9171 120.717 27.4383 121.465 27.5879L156.743 35.278C157.491 35.4276 157.97 36.1757 157.821 36.9238L157.551 38.1207C157.402 38.8986 156.654 39.3774 155.906 39.1979Z" stroke="white" stroke-miterlimit="10"/>
<path d="M113.296 29.8627C114.404 29.8627 115.301 28.9651 115.301 27.8578C115.301 26.7506 114.404 25.853 113.296 25.853C112.189 25.853 111.292 26.7506 111.292 27.8578C111.292 28.9651 112.189 29.8627 113.296 29.8627Z" stroke="white" stroke-miterlimit="10"/>
<path d="M201.957 121.455L200.341 121.096L208.809 82.376L210.425 82.7351C211.592 83.0044 212.34 84.1414 212.07 85.3084L204.53 119.809C204.261 120.976 203.124 121.724 201.957 121.455Z" stroke="white" stroke-miterlimit="10"/>
<path d="M66.4814 93.0035C66.8549 93.2909 67.1248 93.638 67.2912 94.0448C67.4671 94.4454 67.5061 94.8697 67.4083 95.3175C67.2453 96.064 66.8542 96.5919 66.2351 96.9012C65.6177 97.2026 64.9161 97.2675 64.1304 97.0959C63.3446 96.9243 62.734 96.5728 62.2985 96.0413C61.8648 95.5021 61.7294 94.8592 61.8924 94.1127C61.9903 93.6649 62.1987 93.2947 62.5178 93.0021C62.8465 92.7035 63.2405 92.5014 63.6998 92.3959C63.0601 91.8199 62.8294 91.1233 63.0079 90.3061C63.1692 89.5675 63.5364 89.055 64.1094 88.7685C64.6902 88.4838 65.3185 88.4152 65.9942 88.5628C66.6699 88.7104 67.2085 89.0338 67.6098 89.5331C68.019 90.0341 68.143 90.6539 67.9816 91.3925C67.8031 92.2097 67.3031 92.7467 66.4814 93.0035ZM66.9179 89.9871C66.6569 89.6748 66.2906 89.4672 65.8191 89.3643C65.3477 89.2613 64.9243 89.2964 64.5489 89.4696C64.1814 89.6445 63.9428 89.9834 63.8329 90.4863C63.73 90.9578 63.8112 91.3583 64.0768 91.688C64.3501 92.0193 64.7147 92.2348 65.1704 92.3343C65.6261 92.4339 66.0434 92.3892 66.4222 92.2003C66.8088 92.0131 67.0536 91.6837 67.1566 91.2123C67.2664 90.7094 67.1869 90.301 66.9179 89.9871ZM62.9904 95.5874C63.2856 95.9318 63.724 96.1675 64.3054 96.2945C64.8869 96.4215 65.3836 96.39 65.7955 96.2001C66.2091 96.0023 66.4717 95.6481 66.5833 95.1373C66.6949 94.6266 66.603 94.199 66.3078 93.8547C66.0143 93.5024 65.5768 93.2628 64.9953 93.1358C64.4139 93.0088 63.9164 93.0442 63.5027 93.242C63.0908 93.4319 62.829 93.7822 62.7175 94.2929C62.6059 94.8037 62.6969 95.2352 62.9904 95.5874ZM73.6212 97.9588C72.9108 98.6104 72.0606 98.8281 71.0706 98.6118C70.0806 98.3956 69.3947 97.8424 69.0128 96.9522C68.6406 96.0559 68.596 94.9595 68.8792 93.6631C69.1624 92.3666 69.6592 91.3926 70.3695 90.741C71.0894 90.0832 71.9444 89.8625 72.9344 90.0787C73.9245 90.295 74.6056 90.8512 74.9779 91.7475C75.3597 92.6377 75.409 93.731 75.1258 95.0275C74.8427 96.3239 74.3411 97.3011 73.6212 97.9588ZM69.7467 96.5321C70.0231 97.2264 70.5228 97.6525 71.2457 97.8104C71.9685 97.9683 72.5964 97.7885 73.1293 97.271C73.67 96.7552 74.0605 95.9473 74.3008 94.8473C74.5411 93.7472 74.523 92.8501 74.2466 92.1558C73.978 91.4633 73.4823 91.0381 72.7594 90.8802C72.0365 90.7223 71.4047 90.9012 70.864 91.417C70.3311 91.9345 69.9445 92.7432 69.7042 93.8433C69.464 94.9433 69.4781 95.8396 69.7467 96.5321Z" fill="#19E86E"/>
<path d="M58.6262 119.437C59.4355 119.614 60.0437 120.015 60.4507 120.639C60.8594 121.255 60.9763 121.964 60.8012 122.765C60.6262 123.566 60.2236 124.166 59.5934 124.563C58.965 124.953 58.2461 125.059 57.4368 124.883C56.6275 124.706 56.0185 124.309 55.6097 123.693C55.2027 123.069 55.0867 122.357 55.2618 121.555C55.3974 120.934 55.6864 120.421 56.129 120.016L59.7059 116.586L60.637 116.79L57.9507 119.364C58.1732 119.363 58.3983 119.388 58.6262 119.437ZM56.3134 123.242C56.5976 123.674 57.0304 123.954 57.6119 124.081C58.1933 124.208 58.6995 124.134 59.1303 123.857C59.5689 123.583 59.8509 123.158 59.9762 122.585C60.1015 122.011 60.022 121.508 59.7378 121.076C59.4615 120.645 59.0326 120.366 58.4511 120.239C57.8697 120.112 57.3596 120.186 56.9209 120.46C56.4901 120.737 56.2121 121.162 56.0868 121.735C55.9615 122.309 56.037 122.811 56.3134 123.242ZM67.7809 124.45L67.611 125.228L66.5503 124.996L66.1899 126.646L65.3648 126.466L65.7253 124.816L61.3644 123.864L61.5343 123.086L65.8704 117.933L66.778 118.131L62.4418 123.284L65.8952 124.038L66.4461 121.516L67.2711 121.696L66.7202 124.218L67.7809 124.45Z" fill="#19E86E"/>
<path d="M49.4738 152.745L49.636 152.002L53.26 149.658C54.2939 148.994 54.877 148.36 55.0091 147.755C55.1241 147.229 55.0484 146.784 54.7818 146.421C54.5249 146.052 54.1686 145.818 53.7129 145.719C52.8643 145.533 52.1625 145.787 51.6076 146.481L51.0023 145.917C51.3732 145.463 51.8108 145.155 52.3153 144.993C52.8216 144.824 53.3457 144.799 53.8879 144.917C54.5479 145.061 55.0765 145.411 55.4737 145.967C55.8805 146.517 56.0006 147.173 55.8342 147.935C55.7295 148.415 55.4955 148.845 55.1322 149.227C54.769 149.608 54.2906 149.99 53.697 150.37L50.8275 152.201L54.8937 153.089L54.7186 153.891L49.4738 152.745ZM61.3119 154.269C60.6015 154.92 59.7513 155.138 58.7613 154.922C57.7713 154.705 57.0853 154.152 56.7035 153.262C56.3313 152.366 56.2867 151.269 56.5699 149.973C56.8531 148.677 57.3498 147.702 58.0602 147.051C58.7801 146.393 59.6351 146.172 60.6251 146.389C61.6151 146.605 62.2963 147.161 62.6685 148.057C63.0504 148.948 63.0997 150.041 62.8165 151.337C62.5333 152.634 62.0318 153.611 61.3119 154.269ZM57.4374 152.842C57.7138 153.536 58.2135 153.962 58.9363 154.12C59.6592 154.278 60.2871 154.098 60.82 153.581C61.3607 153.065 61.7512 152.257 61.9915 151.157C62.2318 150.057 62.2137 149.16 61.9372 148.466C61.6687 147.773 61.1729 147.348 60.4501 147.19C59.7272 147.032 59.0954 147.211 58.5546 147.727C58.0218 148.244 57.6352 149.053 57.3949 150.153C57.1546 151.253 57.1688 152.15 57.4374 152.842Z" fill="#19E86E"/>
<path d="M84.6482 93.2163L85.5758 96.837L89.0768 98.1535L85.905 100.158L85.7254 103.899L82.8529 101.475L79.2323 102.492L80.6386 99.0213L78.574 95.8794L82.3143 96.1487L84.6482 93.2163Z" fill="white"/>
<path d="M98.6521 96.2681L99.5497 99.8887L103.051 101.235L99.8789 103.21L99.6994 106.95L96.8268 104.557L93.2061 105.544L94.6125 102.073L92.5479 98.9312L96.2882 99.2005L98.6521 96.2681Z" fill="white"/>
<path d="M112.626 99.3208L113.524 102.941L117.055 104.288L113.853 106.263L113.703 110.003L110.831 107.609L107.21 108.597L108.616 105.126L106.552 101.984L110.292 102.253L112.626 99.3208Z" fill="white"/>
<path d="M126.63 102.372L127.528 106.023L131.028 107.339L127.857 109.314L127.677 113.054L124.805 110.661L121.184 111.648L122.59 108.177L120.526 105.035L124.266 105.304L126.63 102.372Z" fill="white"/>
<path d="M140.604 105.425L141.501 109.075L145.032 110.392L141.831 112.367L141.651 116.137L138.778 113.713L135.158 114.701L136.594 111.23L134.5 108.088L138.27 108.357L140.604 105.425Z" fill="white"/>
<path d="M78.5442 121.164L79.4419 124.814L82.9728 126.131L79.7711 128.136L79.6215 131.876L76.7489 129.452L73.1283 130.469L74.5346 126.969L72.47 123.857L76.2103 124.126L78.5442 121.164Z" fill="white"/>
<path d="M92.5483 124.245L93.446 127.866L96.9469 129.212L93.7751 131.187L93.5956 134.927L90.723 132.534L87.1024 133.521L88.5088 130.05L86.4441 126.908L90.1844 127.178L92.5483 124.245Z" fill="white"/>
<path d="M106.522 127.297L107.42 130.918L110.951 132.265L107.749 134.239L107.599 137.98L104.697 135.586L101.076 136.573L102.513 133.102L100.418 129.96L104.188 130.23L106.522 127.297Z" fill="white"/>
<path d="M120.496 130.35L121.424 134L124.924 135.317L121.753 137.292L121.573 141.032L118.701 138.638L115.08 139.626L116.486 136.155L114.422 133.013L118.162 133.282L120.496 130.35Z" fill="white"/>
<path d="M134.5 133.402L135.397 137.052L138.898 138.369L135.727 140.344L135.547 144.114L132.674 141.69L129.054 142.678L130.46 139.207L128.396 136.065L132.136 136.334L134.5 133.402Z" fill="white"/>
<path d="M72.4399 149.141L73.3376 152.791L76.8684 154.108L73.6667 156.113L73.5171 159.853L70.6146 157.429L66.994 158.447L68.4303 154.946L66.3357 151.834L70.1059 152.103L72.4399 149.141Z" fill="white"/>
<path d="M86.4139 152.223L87.3415 155.843L90.8425 157.16L87.6706 159.165L87.4911 162.905L84.6185 160.511L80.9979 161.499L82.4043 158.028L80.3396 154.886L84.0799 155.155L86.4139 152.223Z" fill="white"/>
<path d="M100.418 155.275L101.315 158.896L104.816 160.242L101.645 162.217L101.465 165.957L98.5924 163.563L94.9718 164.551L96.3781 161.08L94.3135 157.938L98.0538 158.207L100.418 155.275Z" fill="white"/>
<path d="M114.392 158.327L115.289 161.947L118.82 163.294L115.619 165.269L115.469 169.009L112.596 166.615L108.976 167.603L110.382 164.132L108.317 160.99L112.058 161.259L114.392 158.327Z" fill="white"/>
<path d="M128.395 161.379L129.293 165.029L132.794 166.346L129.622 168.321L129.443 172.061L126.57 169.667L122.95 170.655L124.356 167.184L122.291 164.042L126.032 164.311L128.395 161.379Z" stroke="white" stroke-width="0.5" stroke-miterlimit="10"/>
<path d="M66.5496 58.0093L68.0697 58.3413L65.1647 71.6425L63.4165 71.2607L65.9065 59.8596L62.8927 60.0774L62.7876 58.4618L66.5496 58.0093ZM77.5392 72.633C76.3659 73.6907 74.9685 74.0425 73.347 73.6883C71.7255 73.3342 70.602 72.4319 69.9765 70.9813C69.351 69.5307 69.2665 67.7604 69.723 65.6702C70.1795 63.58 70.9944 62.006 72.1677 60.9484C73.341 59.8907 74.7384 59.5389 76.3599 59.893C77.9814 60.2472 79.1049 61.1495 79.7304 62.6001C80.3559 64.0506 80.4404 65.821 79.9839 67.9112C79.5274 70.0014 78.7125 71.5753 77.5392 72.633ZM71.5301 70.0664C71.9163 71.0931 72.6479 71.724 73.7246 71.9592C74.8014 72.1943 75.7294 71.9258 76.5085 71.1537C77.3003 70.3843 77.8761 69.1762 78.2358 67.5294C78.5954 65.8826 78.5758 64.5444 78.1768 63.515C77.7933 62.4756 77.0632 61.8384 75.9864 61.6032C74.9096 61.368 73.9817 61.6365 73.2025 62.4087C72.4234 63.1808 71.8526 64.3966 71.4901 66.0561C71.1305 67.703 71.1438 69.0397 71.5301 70.0664ZM90.2682 75.413C89.0948 76.4707 87.6974 76.8225 86.076 76.4683C84.4545 76.1142 83.331 75.2119 82.7055 73.7613C82.0799 72.3108 81.9954 70.5404 82.4519 68.4502C82.9084 66.36 83.7233 64.7861 84.8967 63.7284C86.07 62.6707 87.4674 62.3189 89.0889 62.6731C90.7103 63.0272 91.8338 63.9295 92.4594 65.3801C93.0849 66.8306 93.1694 68.601 92.7129 70.6912C92.2564 72.7814 91.4415 74.3553 90.2682 75.413ZM84.259 72.8464C84.6453 73.8731 85.3768 74.504 86.4536 74.7392C87.5304 74.9743 88.4583 74.7059 89.2375 73.9337C90.0293 73.1643 90.6051 71.9562 90.9647 70.3094C91.3244 68.6626 91.3047 67.3244 90.9058 66.295C90.5223 65.2556 89.7921 64.6184 88.7154 64.3832C87.6386 64.148 86.7106 64.4165 85.9315 65.1887C85.1523 65.9608 84.5815 67.1767 84.2191 68.8361C83.8594 70.483 83.8727 71.8197 84.259 72.8464ZM102.997 78.193C101.824 79.2507 100.426 79.6025 98.8049 79.2484C97.1834 78.8942 96.0599 77.9919 95.4344 76.5413C94.8089 75.0908 94.7244 73.3204 95.1809 71.2302C95.6374 69.14 96.4523 67.5661 97.6256 66.5084C98.7989 65.4507 100.196 65.0989 101.818 65.4531C103.439 65.8072 104.563 66.7095 105.188 68.1601C105.814 69.6106 105.898 71.381 105.442 73.4712C104.985 75.5614 104.17 77.1354 102.997 78.193ZM96.988 75.6264C97.3743 76.6531 98.1058 77.284 99.1826 77.5192C100.259 77.7544 101.187 77.4859 101.966 76.7137C102.758 75.9443 103.334 74.7362 103.694 73.0894C104.053 71.4426 104.034 70.1045 103.635 69.075C103.251 68.0357 102.521 67.3984 101.444 67.1632C100.368 66.9281 99.4396 67.1966 98.6604 67.9687C97.8813 68.7409 97.3105 69.9567 96.9481 71.6162C96.5884 73.263 96.6017 74.5997 96.988 75.6264ZM116.021 82.921C115.137 82.7279 114.383 82.3575 113.759 81.8096C113.136 81.2618 112.698 80.5945 112.447 79.8079C112.209 79.0126 112.185 78.1785 112.376 77.3054C112.567 76.4323 112.933 75.6948 113.477 75.0931C114.033 74.4828 114.709 74.0587 115.504 73.8207C116.299 73.5827 117.139 73.5603 118.023 73.7534C118.918 73.9488 119.677 74.3205 120.301 74.8683C120.924 75.4161 121.362 76.0834 121.613 76.87C121.866 77.6458 121.899 78.4648 121.711 79.327C121.52 80.2001 121.145 80.9472 120.587 81.5685C120.03 82.1787 119.353 82.6083 118.556 82.8572C117.761 83.0952 116.915 83.1164 116.021 82.921ZM116.284 81.795C116.938 81.938 117.554 81.9182 118.132 81.7355C118.72 81.5553 119.219 81.2354 119.628 80.7759C120.037 80.3164 120.315 79.7483 120.463 79.0716C120.611 78.395 120.595 77.7625 120.414 77.1743C120.234 76.5861 119.913 76.0929 119.451 75.6947C118.992 75.2856 118.434 75.0096 117.78 74.8666C117.125 74.7235 116.503 74.7422 115.915 74.9224C115.34 75.0942 114.848 75.4098 114.439 75.8693C114.03 76.3288 113.752 76.8969 113.604 77.5735C113.456 78.2502 113.472 78.8826 113.652 79.4709C113.833 80.0591 114.153 80.5577 114.612 80.9668C115.072 81.3759 115.629 81.652 116.284 81.795ZM123.951 75.2025L131.514 76.8543L131.268 77.9839L128.092 77.2903L126.404 85.0173L125.176 84.7491L126.864 77.0221L123.704 76.332L123.951 75.2025ZM134.984 87.0626C134.176 86.8862 133.47 86.6119 132.865 86.2397C132.274 85.859 131.808 85.4541 131.467 85.0252L132.087 84.1487C132.457 84.5497 132.893 84.908 133.396 85.2236C133.901 85.5283 134.459 85.7474 135.07 85.8809C135.813 86.043 136.434 86.0243 136.935 85.825C137.449 85.6172 137.759 85.2731 137.864 84.7929C137.964 84.3345 137.835 83.9291 137.478 83.5766C137.131 83.2265 136.614 82.9763 135.926 82.8261L134.158 82.44L134.348 81.5723L136.116 81.9585C137.524 82.266 138.331 81.945 138.539 80.9955C138.648 80.4934 138.521 80.054 138.158 79.6773C137.794 79.3006 137.236 79.03 136.483 78.8655C135.959 78.7511 135.439 78.7233 134.923 78.7822C134.42 78.8325 133.902 78.9537 133.368 79.1459L133.152 78.1725C134.311 77.6824 135.54 77.5791 136.839 77.8628C137.897 78.094 138.7 78.5036 139.246 79.0917C139.795 79.6689 139.981 80.3613 139.804 81.169C139.697 81.6601 139.482 82.0419 139.16 82.3145C138.837 82.5871 138.434 82.7564 137.951 82.8224C138.404 83.1043 138.73 83.4442 138.929 83.8421C139.139 84.2424 139.189 84.6936 139.079 85.1956C138.962 85.7304 138.702 86.1651 138.297 86.4998C137.906 86.826 137.413 87.0386 136.82 87.1377C136.24 87.2283 135.628 87.2032 134.984 87.0626ZM146.036 82.9931C147.247 83.2576 148.138 83.7324 148.709 84.4173C149.291 85.1047 149.478 85.9231 149.271 86.8726C149.068 87.8003 148.565 88.4564 147.76 88.841C146.956 89.2256 145.953 89.2868 144.753 89.0246L141.217 88.2524L143.151 79.3958L144.379 79.6639L143.76 82.4961L146.036 82.9931ZM150.663 90.3154L152.597 81.4588L153.809 81.7234L151.874 90.5799L150.663 90.3154ZM144.938 88.0189C145.779 88.2024 146.472 88.1708 147.017 87.9241C147.563 87.6773 147.905 87.2374 148.043 86.6044C148.184 85.9605 148.057 85.4127 147.664 84.961C147.274 84.4983 146.653 84.174 145.801 83.9881L143.542 83.4947L142.663 87.5219L144.938 88.0189ZM161.588 87.9332C162.238 88.201 162.711 88.5731 163.007 89.0494C163.317 89.5172 163.408 90.0403 163.282 90.6188C163.122 91.35 162.703 91.8586 162.023 92.1446C161.343 92.4306 160.495 92.4628 159.48 92.2411L155.093 91.2829L157.027 82.4263L161.218 83.3416C162.168 83.549 162.866 83.913 163.312 84.4336C163.761 84.9433 163.911 85.5419 163.761 86.2295C163.646 86.7534 163.397 87.162 163.013 87.4554C162.642 87.7403 162.167 87.8996 161.588 87.9332ZM158.012 83.8077L157.415 86.5416L160.362 87.1852C160.951 87.3139 161.43 87.2928 161.799 87.1218C162.168 86.9508 162.401 86.6416 162.499 86.1941C162.592 85.7685 162.5 85.4053 162.222 85.1046C161.958 84.7954 161.504 84.5705 160.86 84.4298L158.012 83.8077ZM159.674 91.1172C160.351 91.265 160.89 91.257 161.292 91.0931C161.704 90.9317 161.96 90.6272 162.057 90.1798C162.15 89.7541 162.043 89.3819 161.735 89.0631C161.438 88.7468 160.984 88.5218 160.373 88.3884L157.165 87.6876L156.564 90.4379L159.674 91.1172ZM169.558 94.6136C168.674 94.4205 167.92 94.0501 167.297 93.5023C166.673 92.9544 166.236 92.2872 165.984 91.5005C165.746 90.7053 165.723 89.8711 165.913 88.998C166.104 88.1249 166.471 87.3875 167.014 86.7857C167.57 86.1754 168.246 85.7513 169.041 85.5133C169.837 85.2754 170.676 85.2529 171.56 85.446C172.455 85.6414 173.214 86.0131 173.838 86.5609C174.462 87.1088 174.899 87.776 175.15 88.5627C175.404 89.3385 175.437 90.1574 175.248 91.0196C175.058 91.8927 174.683 92.6399 174.124 93.2611C173.568 93.8714 172.891 94.301 172.093 94.5499C171.298 94.7878 170.453 94.8091 169.558 94.6136ZM169.821 93.4876C170.476 93.6306 171.092 93.6108 171.669 93.4282C172.258 93.2479 172.756 92.928 173.165 92.4685C173.574 92.009 173.853 91.4409 174.001 90.7643C174.148 90.0876 174.132 89.4552 173.952 88.8669C173.772 88.2787 173.451 87.7855 172.989 87.3874C172.529 86.9783 171.972 86.7022 171.317 86.5592C170.662 86.4162 170.041 86.4348 169.453 86.6151C168.878 86.7868 168.386 87.1024 167.977 87.5619C167.567 88.0214 167.289 88.5895 167.141 89.2662C166.993 89.9428 167.01 90.5753 167.19 91.1635C167.37 91.7517 167.69 92.2504 168.15 92.6595C168.609 93.0685 169.166 93.3446 169.821 93.4876ZM183.457 92.7094C184.107 92.9772 184.58 93.3493 184.876 93.8256C185.186 94.2934 185.278 94.8165 185.151 95.395C184.991 96.1262 184.572 96.6348 183.892 96.9208C183.212 97.2069 182.364 97.239 181.349 97.0173L176.962 96.0591L178.896 87.2026L183.087 88.1179C184.037 88.3252 184.735 88.6892 185.181 89.2098C185.63 89.7195 185.78 90.3182 185.63 91.0057C185.515 91.5296 185.266 91.9382 184.882 92.2317C184.511 92.5165 184.036 92.6758 183.457 92.7094ZM179.881 88.5839L179.284 91.3178L182.231 91.9614C182.82 92.0901 183.299 92.069 183.668 91.898C184.037 91.727 184.27 91.4178 184.368 90.9703C184.461 90.5447 184.369 90.1815 184.091 89.8808C183.827 89.5716 183.373 89.3467 182.73 89.206L179.881 88.5839ZM181.543 95.8934C182.22 96.0412 182.759 96.0332 183.161 95.8693C183.574 95.7079 183.829 95.4034 183.926 94.956C184.019 94.5303 183.912 94.1581 183.604 93.8394C183.307 93.523 182.853 93.2981 182.242 93.1646L179.034 92.4638L178.433 95.2141L181.543 95.8934Z" fill="white"/>
</g>
</svg>
