<svg width="220" height="244" viewBox="0 0 220 244" fill="none" xmlns="http://www.w3.org/2000/svg">
<mask id="mask0" style="mask-type:alpha" maskUnits="userSpaceOnUse" x="0" y="0" width="220" height="244">
<rect y="0.902405" width="220" height="243.098" fill="#C4C4C4"/>
</mask>
<g mask="url(#mask0)">
<path d="M167.844 284.339L2.4624 248.213L54.4752 9.97078C55.3578 5.95341 59.3143 3.3969 63.3316 4.27951L214.135 37.2098C218.153 38.0924 220.709 42.0489 219.826 46.0662L167.844 284.339Z" stroke="white" stroke-width="0.913038" stroke-miterlimit="10"/>
<path d="M208.192 61.514L58.686 28.8585L10.3911 249.965L159.897 282.621L208.192 61.514Z" stroke="white" stroke-width="0.913038" stroke-miterlimit="10"/>
<path d="M157.861 39.7961L121.979 31.9744C121.218 31.8222 120.731 31.0614 120.883 30.3005L121.157 29.0831C121.309 28.3223 122.07 27.8353 122.831 27.9875L158.713 35.8092C159.474 35.9614 159.961 36.7222 159.809 37.4831L159.535 38.7005C159.383 39.4918 158.622 39.9787 157.861 39.7961Z" stroke="white" stroke-width="0.913038" stroke-miterlimit="10"/>
<path d="M114.522 30.3013C115.649 30.3013 116.562 29.3882 116.562 28.2618C116.562 27.1354 115.649 26.2222 114.522 26.2222C113.396 26.2222 112.483 27.1354 112.483 28.2618C112.483 29.3882 113.396 30.3013 114.522 30.3013Z" stroke="white" stroke-width="0.913038" stroke-miterlimit="10"/>
<path d="M204.7 123.461L203.056 123.096L211.669 83.7133L213.313 84.0785C214.5 84.3524 215.26 85.5089 214.987 86.6958L207.317 121.787C207.043 122.974 205.887 123.735 204.7 123.461Z" stroke="white" stroke-width="0.913038" stroke-miterlimit="10"/>
<path d="M49.897 138.414L50.0646 137.647L54.3801 138.59L54.2126 139.357L49.897 138.414ZM54.9202 142.99L55.0851 142.235L58.7711 139.85C59.8228 139.176 60.4158 138.531 60.5502 137.915C60.6672 137.38 60.5901 136.928 60.319 136.559C60.0577 136.183 59.6953 135.945 59.2318 135.844C58.3686 135.655 57.6549 135.914 57.0905 136.62L56.4748 136.045C56.852 135.584 57.2972 135.271 57.8103 135.106C58.3252 134.934 58.8584 134.908 59.4098 135.029C60.0811 135.175 60.6188 135.531 61.0228 136.097C61.4365 136.656 61.5587 137.323 61.3894 138.099C61.2829 138.586 61.0449 139.024 60.6754 139.412C60.3059 139.8 59.8193 140.188 59.2156 140.575L56.297 142.437L60.4328 143.341L60.2547 144.156L54.9202 142.99ZM66.9608 144.54C66.2383 145.203 65.3735 145.424 64.3666 145.205C63.3596 144.985 62.6619 144.422 62.2736 143.517C61.895 142.605 61.8497 141.49 62.1377 140.171C62.4257 138.852 62.931 137.862 63.6535 137.199C64.3857 136.53 65.2553 136.305 66.2623 136.525C67.2693 136.745 67.9621 137.311 68.3407 138.223C68.729 139.128 68.7792 140.24 68.4912 141.559C68.2032 142.877 67.693 143.871 66.9608 144.54ZM63.02 143.089C63.3012 143.795 63.8094 144.229 64.5446 144.389C65.2799 144.55 65.9185 144.367 66.4605 143.841C67.0105 143.316 67.4077 142.494 67.652 141.376C67.8964 140.257 67.878 139.344 67.5969 138.638C67.3237 137.934 66.8195 137.501 66.0842 137.341C65.349 137.18 64.7064 137.362 64.1564 137.887C63.6144 138.413 63.2212 139.236 62.9768 140.354C62.7324 141.473 62.7468 142.385 63.02 143.089Z" fill="#C60635"/>
<path d="M43.6956 166.809L43.8631 166.042L48.1787 166.984L48.0112 167.752L43.6956 166.809ZM52.5105 166.964C53.2937 167.135 53.9064 167.511 54.3486 168.094C54.8005 168.669 54.9392 169.357 54.7647 170.156C54.5901 170.955 54.1765 171.527 53.5238 171.87C52.8809 172.206 52.1678 172.289 51.3846 172.118C50.7532 171.98 50.223 171.705 49.7938 171.294C49.3664 170.874 49.1276 170.357 49.0775 169.743L49.8738 169.49C49.8959 169.964 50.0566 170.359 50.3559 170.675C50.6649 170.986 51.0671 171.195 51.5626 171.303C52.138 171.429 52.6427 171.38 53.0767 171.157C53.5204 170.927 53.8033 170.532 53.9255 169.973C54.0477 169.414 53.9542 168.941 53.6449 168.555C53.3453 168.163 52.9079 167.904 52.3324 167.779L50.0548 167.281L51.2709 163.151L55.7663 164.133L55.5935 164.924L51.8413 164.105L51.0959 166.655L52.5105 166.964ZM54.9585 172.748L55.1234 171.993L58.8094 169.608C59.8611 168.933 60.4541 168.288 60.5885 167.673C60.7055 167.138 60.6284 166.685 60.3573 166.316C60.096 165.941 59.7336 165.703 59.2701 165.602C58.4069 165.413 57.6932 165.672 57.1288 166.377L56.5131 165.803C56.8903 165.341 57.3355 165.028 57.8486 164.864C58.3635 164.692 58.8967 164.666 59.4481 164.786C60.1194 164.933 60.6571 165.289 61.0611 165.855C61.4748 166.414 61.597 167.081 61.4277 167.856C61.3212 168.344 61.0832 168.782 60.7137 169.17C60.3442 169.558 59.8576 169.946 59.2539 170.333L56.3353 172.195L60.4711 173.098L60.293 173.913L54.9585 172.748Z" fill="#C60635"/>
<path d="M43.6397 197.056L43.8072 196.288L48.1228 197.231L47.9552 197.998L43.6397 197.056ZM52.4546 197.21C53.2378 197.381 53.8505 197.758 54.2927 198.34C54.7446 198.916 54.8833 199.604 54.7088 200.403C54.5342 201.202 54.1206 201.773 53.4679 202.116C52.8249 202.453 52.1119 202.536 51.3287 202.365C50.6973 202.227 50.1671 201.952 49.7379 201.54C49.3105 201.12 49.0717 200.603 49.0216 199.989L49.8179 199.736C49.84 200.21 50.0007 200.605 50.3 200.922C50.609 201.232 51.0112 201.441 51.5067 201.55C52.0821 201.675 52.5868 201.626 53.0208 201.403C53.4645 201.173 53.7474 200.779 53.8696 200.219C53.9918 199.66 53.8983 199.187 53.589 198.802C53.2894 198.41 52.852 198.151 52.2765 198.025L49.9989 197.528L51.215 193.397L55.7104 194.379L55.5376 195.171L51.7854 194.351L51.04 196.901L52.4546 197.21Z" fill="#C60635"/>
<path d="M78.396 139.956L79.3394 143.639L82.9003 144.978L79.6743 147.017L79.4916 150.822L76.5699 148.356L72.8873 149.391L74.3177 145.861L72.2178 142.665L76.0221 142.939L78.396 139.956Z" fill="#C60635"/>
<path d="M92.6393 143.061L93.5524 146.743L97.1132 148.113L93.8871 150.122L93.7045 153.926L90.7828 151.491L87.1002 152.495L88.5307 148.965L86.4307 145.769L90.235 146.043L92.6393 143.061Z" stroke="white" stroke-width="0.304346" stroke-miterlimit="10"/>
<path d="M106.852 146.165L107.765 149.848L111.357 151.217L108.1 153.226L107.948 157.03L105.026 154.595L101.344 155.6L102.774 152.069L100.674 148.874L104.478 149.148L106.852 146.165Z" stroke="white" stroke-width="0.304346" stroke-miterlimit="10"/>
<path d="M121.096 149.269L122.009 152.982L125.57 154.321L122.343 156.33L122.161 160.134L119.239 157.7L115.557 158.704L116.987 155.174L114.887 151.978L118.691 152.252L121.096 149.269Z" stroke="white" stroke-width="0.304346" stroke-miterlimit="10"/>
<path d="M135.309 152.374L136.222 156.087L139.813 157.426L136.557 159.435L136.374 163.269L133.452 160.804L129.77 161.808L131.231 158.278L129.1 155.082L132.935 155.356L135.309 152.374Z" stroke="white" stroke-width="0.304346" stroke-miterlimit="10"/>
<path d="M72.1875 168.382L73.1005 172.095L76.6918 173.434L73.4353 175.474L73.2832 179.278L70.3614 176.813L66.6788 177.847L68.1093 174.287L66.0093 171.121L69.8136 171.395L72.1875 168.382Z" fill="#C60635"/>
<path d="M86.4313 171.517L87.3444 175.2L90.9052 176.569L87.6791 178.578L87.4965 182.382L84.5748 179.947L80.8922 180.952L82.3227 177.421L80.2227 174.226L84.027 174.5L86.4313 171.517Z" stroke="white" stroke-width="0.304346" stroke-miterlimit="10"/>
<path d="M100.644 174.621L101.557 178.304L105.148 179.674L101.892 181.682L101.74 185.487L98.7874 183.052L95.1048 184.056L96.5657 180.526L94.4353 177.33L98.2701 177.604L100.644 174.621Z" stroke="white" stroke-width="0.304346" stroke-miterlimit="10"/>
<path d="M114.857 177.726L115.8 181.439L119.361 182.778L116.135 184.787L115.953 188.591L113.031 186.156L109.348 187.16L110.779 183.63L108.679 180.434L112.483 180.708L114.857 177.726Z" stroke="white" stroke-width="0.304346" stroke-miterlimit="10"/>
<path d="M129.1 180.83L130.014 184.543L133.574 185.882L130.348 187.891L130.166 191.726L127.244 189.26L123.561 190.265L124.992 186.734L122.892 183.539L126.696 183.813L129.1 180.83Z" stroke="white" stroke-width="0.304346" stroke-miterlimit="10"/>
<path d="M65.9789 196.839L66.892 200.552L70.4832 201.891L67.2267 203.93L67.0746 207.734L64.1224 205.269L60.4398 206.304L61.9007 202.743L59.7703 199.578L63.605 199.852L65.9789 196.839Z" fill="#C60635"/>
<path d="M80.1919 199.973L81.1354 203.656L84.6963 204.995L81.4702 207.034L81.2876 210.839L78.3658 208.404L74.6833 209.408L76.1137 205.878L74.0137 202.682L77.818 202.956L80.1919 199.973Z" fill="#C60635"/>
<path d="M94.4352 203.078L95.3483 206.76L98.9091 208.13L95.683 210.139L95.5004 213.943L92.5787 211.508L88.8961 212.513L90.3266 208.982L88.2266 205.786L92.0309 206.06L94.4352 203.078Z" stroke="white" stroke-width="0.304346" stroke-miterlimit="10"/>
<path d="M108.648 206.182L109.561 209.865L113.153 211.234L109.896 213.243L109.744 217.047L106.822 214.613L103.14 215.617L104.57 212.086L102.47 208.891L106.275 209.165L108.648 206.182Z" stroke="white" stroke-width="0.304346" stroke-miterlimit="10"/>
<path d="M122.892 209.286L123.805 212.999L127.366 214.339L124.14 216.347L123.957 220.152L121.035 217.717L117.353 218.721L118.783 215.191L116.683 211.995L120.487 212.269L122.892 209.286Z" stroke="white" stroke-width="0.304346" stroke-miterlimit="10"/>
<path d="M63.3553 118.024C62.1619 119.1 60.7406 119.458 59.0914 119.098C57.4421 118.737 56.2994 117.82 55.6632 116.344C55.027 114.869 54.941 113.068 55.4053 110.942C55.8696 108.816 56.6985 107.215 57.8919 106.14C59.0853 105.064 60.5066 104.706 62.1558 105.066C63.8051 105.426 64.9478 106.344 65.584 107.82C66.2202 109.295 66.3062 111.096 65.8419 113.222C65.3775 115.348 64.5487 116.948 63.3553 118.024ZM57.2433 115.414C57.6362 116.458 58.3803 117.1 59.4755 117.339C60.5707 117.578 61.5145 117.305 62.307 116.52C63.1124 115.737 63.698 114.508 64.0638 112.833C64.4296 111.158 64.4096 109.797 64.0038 108.75C63.6138 107.693 62.8711 107.045 61.7759 106.806C60.6807 106.566 59.7369 106.84 58.9444 107.625C58.1519 108.41 57.5714 109.647 57.2027 111.335C56.8369 113.01 56.8504 114.369 57.2433 115.414ZM76.6016 122.833C75.7024 122.637 74.9357 122.26 74.3014 121.703C73.6672 121.145 73.2223 120.467 72.9667 119.667C72.7247 118.858 72.7006 118.009 72.8946 117.121C73.0885 116.233 73.4617 115.483 74.014 114.871C74.5799 114.25 75.2673 113.819 76.0761 113.577C76.8849 113.335 77.7389 113.312 78.638 113.509C79.5483 113.707 80.3205 114.085 80.9548 114.643C81.5891 115.2 82.034 115.878 82.2895 116.679C82.5475 117.468 82.5808 118.301 82.3892 119.178C82.1953 120.066 81.8141 120.826 81.2458 121.457C80.68 122.078 79.9914 122.515 79.1802 122.768C78.3713 123.01 77.5118 123.032 76.6016 122.833ZM76.8691 121.688C77.5352 121.833 78.1618 121.813 78.749 121.627C79.3473 121.444 79.8544 121.119 80.2705 120.651C80.6866 120.184 80.9698 119.606 81.1201 118.918C81.2704 118.23 81.2539 117.586 81.0706 116.988C80.8872 116.39 80.5607 115.888 80.0909 115.483C79.6235 115.067 79.0568 114.786 78.3908 114.641C77.7247 114.495 77.0926 114.514 76.4943 114.698C75.9095 114.872 75.4091 115.193 74.993 115.661C74.5769 116.128 74.2937 116.706 74.1434 117.394C73.9931 118.082 74.0096 118.726 74.1929 119.324C74.3763 119.922 74.7017 120.429 75.169 120.845C75.6364 121.262 76.2031 121.542 76.8691 121.688ZM84.6678 114.982L92.3605 116.663L92.1096 117.811L88.8793 117.106L87.1629 124.965L85.914 124.692L87.6305 116.833L84.4169 116.131L84.6678 114.982ZM95.8894 127.046C95.068 126.866 94.3497 126.587 93.7346 126.209C93.133 125.821 92.6588 125.41 92.3122 124.973L92.943 124.082C93.3191 124.49 93.7629 124.854 94.2743 125.175C94.7881 125.485 95.3558 125.708 95.9775 125.844C96.7323 126.008 97.3645 125.99 97.8739 125.787C98.397 125.575 98.7118 125.225 98.8185 124.737C98.9203 124.271 98.7894 123.858 98.4257 123.5C98.0732 123.144 97.5473 122.889 96.8479 122.737L95.0496 122.344L95.2424 121.461L97.0407 121.854C98.4726 122.167 99.2941 121.84 99.505 120.875C99.6165 120.364 99.4874 119.917 99.1175 119.534C98.7476 119.151 98.1797 118.876 97.4137 118.708C96.8809 118.592 96.3521 118.564 95.8273 118.623C95.316 118.675 94.789 118.798 94.2462 118.993L94.0263 118.003C95.2052 117.505 96.4551 117.4 97.776 117.688C98.8528 117.923 99.6689 118.34 100.224 118.938C100.782 119.525 100.972 120.23 100.792 121.051C100.683 121.551 100.465 121.939 100.137 122.216C99.8085 122.494 99.3988 122.666 98.9073 122.733C99.368 123.02 99.6996 123.365 99.9019 123.77C100.115 124.177 100.166 124.636 100.055 125.147C99.936 125.691 99.6708 126.133 99.2592 126.473C98.8611 126.805 98.3603 127.021 97.7568 127.122C97.1668 127.214 96.5443 127.189 95.8894 127.046ZM107.131 122.906C108.363 123.175 109.269 123.658 109.85 124.355C110.441 125.054 110.632 125.887 110.421 126.852C110.215 127.796 109.703 128.463 108.884 128.854C108.066 129.246 107.047 129.308 105.826 129.041L102.229 128.256L104.196 119.248L105.445 119.52L104.816 122.401L107.131 122.906ZM111.837 130.354L113.804 121.346L115.036 121.615L113.069 130.623L111.837 130.354ZM106.014 128.018C106.869 128.205 107.574 128.173 108.129 127.922C108.684 127.671 109.031 127.223 109.172 126.58C109.315 125.925 109.187 125.367 108.787 124.908C108.39 124.437 107.758 124.108 106.892 123.918L104.594 123.417L103.7 127.513L106.014 128.018ZM122.948 127.931C123.61 128.203 124.091 128.582 124.393 129.066C124.707 129.542 124.8 130.074 124.672 130.663C124.509 131.406 124.083 131.924 123.391 132.215C122.699 132.505 121.837 132.538 120.805 132.313L116.343 131.338L118.31 122.33L122.573 123.261C123.538 123.472 124.248 123.842 124.703 124.372C125.159 124.89 125.311 125.499 125.158 126.198C125.042 126.731 124.789 127.147 124.398 127.445C124.02 127.735 123.537 127.897 122.948 127.931ZM119.312 123.735L118.704 126.516L121.701 127.17C122.301 127.301 122.788 127.28 123.163 127.106C123.539 126.932 123.776 126.617 123.875 126.162C123.97 125.729 123.876 125.36 123.594 125.054C123.325 124.74 122.864 124.511 122.209 124.368L119.312 123.735ZM121.002 131.17C121.691 131.32 122.239 131.312 122.648 131.145C123.067 130.981 123.327 130.671 123.426 130.216C123.521 129.783 123.412 129.405 123.099 129.08C122.797 128.759 122.335 128.53 121.713 128.394L118.45 127.681L117.839 130.479L121.002 131.17ZM131.055 134.726C130.156 134.529 129.389 134.153 128.755 133.595C128.121 133.038 127.676 132.36 127.42 131.559C127.178 130.751 127.154 129.902 127.348 129.014C127.542 128.126 127.915 127.376 128.468 126.764C129.034 126.143 129.721 125.712 130.53 125.47C131.339 125.228 132.193 125.205 133.092 125.401C134.002 125.6 134.774 125.978 135.408 126.535C136.043 127.093 136.488 127.771 136.743 128.571C137.001 129.36 137.034 130.193 136.843 131.07C136.649 131.958 136.268 132.718 135.699 133.35C135.134 133.971 134.445 134.408 133.634 134.661C132.825 134.903 131.965 134.925 131.055 134.726ZM131.323 133.581C131.989 133.726 132.615 133.706 133.203 133.52C133.801 133.337 134.308 133.011 134.724 132.544C135.14 132.077 135.423 131.499 135.574 130.811C135.724 130.122 135.708 129.479 135.524 128.881C135.341 128.282 135.014 127.781 134.544 127.376C134.077 126.96 133.51 126.679 132.844 126.534C132.178 126.388 131.546 126.407 130.948 126.59C130.363 126.765 129.863 127.086 129.447 127.553C129.031 128.021 128.747 128.599 128.597 129.287C128.447 129.975 128.463 130.618 128.647 131.217C128.83 131.815 129.155 132.322 129.623 132.738C130.09 133.154 130.657 133.435 131.323 133.581ZM145.192 132.789C145.853 133.061 146.335 133.44 146.636 133.924C146.951 134.4 147.044 134.932 146.915 135.521C146.753 136.264 146.326 136.782 145.634 137.072C144.943 137.363 144.081 137.396 143.048 137.171L138.586 136.196L140.553 127.188L144.816 128.119C145.782 128.33 146.492 128.7 146.946 129.23C147.403 129.748 147.554 130.357 147.402 131.056C147.285 131.589 147.032 132.005 146.641 132.303C146.264 132.593 145.781 132.755 145.192 132.789ZM141.555 128.593L140.947 131.374L143.945 132.028C144.544 132.159 145.031 132.138 145.407 131.964C145.782 131.79 146.019 131.475 146.119 131.02C146.213 130.587 146.119 130.218 145.837 129.912C145.569 129.598 145.107 129.369 144.452 129.226L141.555 128.593ZM143.246 136.027C143.934 136.178 144.482 136.17 144.891 136.003C145.311 135.839 145.57 135.529 145.669 135.074C145.764 134.641 145.655 134.263 145.342 133.938C145.04 133.616 144.578 133.388 143.957 133.252L140.693 132.539L140.082 135.337L143.246 136.027Z" fill="white"/>
</g>
</svg>
