<svg width="128" height="129" viewBox="0 0 128 129" fill="none" xmlns="http://www.w3.org/2000/svg">
<path d="M1.84616 24.4151L1.84619 23.3569L7.79838 23.357L7.79835 24.4152L1.84616 24.4151ZM9.77456 28.9951L9.77459 27.9535L13.9412 23.754C15.1317 22.5635 15.7269 21.544 15.7269 20.6952C15.727 19.9567 15.4955 19.3835 15.0325 18.9757C14.5806 18.5568 14.035 18.3474 13.3957 18.3474C12.2053 18.3473 11.34 18.8929 10.7999 19.9842L9.82438 19.4055C10.1881 18.689 10.6842 18.1489 11.3125 17.7852C11.9408 17.4104 12.6352 17.2231 13.3957 17.2231C14.3216 17.2231 15.1318 17.5373 15.8262 18.1656C16.5316 18.7828 16.8843 19.6261 16.8843 20.6953C16.8843 21.3676 16.6969 22.0125 16.3221 22.6297C15.9473 23.247 15.4182 23.8973 14.7348 24.5807L11.428 27.8708L17.1322 27.871L17.1321 28.9953L9.77456 28.9951ZM26.0708 27.5735C25.3102 28.6537 24.2355 29.1938 22.8466 29.1938C21.4578 29.1938 20.3776 28.6536 19.606 27.5734C18.8455 26.4822 18.4653 25.0272 18.4653 23.2084C18.4653 21.3897 18.8456 19.9403 19.6062 18.8601C20.3778 17.7688 21.4581 17.2232 22.8469 17.2233C24.2357 17.2233 25.3104 17.769 26.071 18.8602C26.8425 19.9404 27.2283 21.3899 27.2282 23.2086C27.2282 25.0274 26.8424 26.4823 26.0708 27.5735ZM20.4658 26.7963C21.039 27.6451 21.8326 28.0695 22.8467 28.0695C23.8607 28.0695 24.6489 27.6452 25.211 26.7964C25.7842 25.9477 26.0708 24.7518 26.0709 23.2086C26.0709 21.6654 25.7843 20.4695 25.2112 19.6207C24.6491 18.772 23.861 18.3476 22.8469 18.3476C21.8328 18.3476 21.0392 18.7719 20.466 19.6206C19.9038 20.4694 19.6227 21.6653 19.6227 23.2085C19.6226 24.7516 19.9037 25.9476 20.4658 26.7963Z" fill="#C60635"/>
<path d="M1.84641 63.5779L1.84643 62.5197L7.79862 62.5199L7.7986 63.578L1.84641 63.5779ZM13.4951 61.2469C14.5753 61.2469 15.4902 61.5666 16.2397 62.2059C17.0002 62.8342 17.3805 63.6995 17.3805 64.8017C17.3804 65.904 17.0001 66.7748 16.2396 67.4141C15.49 68.0423 14.5751 68.3565 13.4949 68.3564C12.6241 68.3564 11.8471 68.147 11.1637 67.7281C10.4803 67.2982 10.0173 66.6864 9.77486 65.8928L10.7504 65.3307C10.9157 65.9479 11.2408 66.4219 11.7258 66.7526C12.2218 67.0723 12.8115 67.2321 13.4949 67.2321C14.2886 67.2321 14.9389 67.0227 15.446 66.6039C15.964 66.174 16.2231 65.5733 16.2231 64.8017C16.2231 64.0301 15.9641 63.4349 15.446 63.016C14.939 62.5861 14.2887 62.3712 13.4951 62.3712L10.3536 62.3711L10.7671 56.5843L16.9673 56.5844L16.9673 57.6756L11.7922 57.6755L11.5441 61.2468L13.4951 61.2469ZM18.3808 68.1581L18.3808 67.1165L22.5475 62.917C23.7379 61.7266 24.3332 60.707 24.3332 59.8583C24.3332 59.1198 24.1017 58.5466 23.6388 58.1387C23.1869 57.7199 22.6413 57.5104 22.002 57.5104C20.8115 57.5104 19.9462 58.056 19.4061 59.1472L18.4306 58.5685C18.7944 57.852 19.2904 57.3119 19.9187 56.9482C20.547 56.5735 21.2414 56.3861 22.002 56.3861C22.9279 56.3861 23.738 56.7003 24.4324 57.3286C25.1379 57.9459 25.4906 58.7891 25.4906 59.8583C25.4905 60.5307 25.3031 61.1755 24.9284 61.7927C24.5536 62.41 24.0245 63.0603 23.3411 63.7437L20.0342 67.0339L25.7384 67.034L25.7384 68.1583L18.3808 68.1581Z" fill="#C60635"/>
<path d="M10.4687 103.411L10.4687 102.353L16.4209 102.353L16.4209 103.411L10.4687 103.411ZM22.1174 101.08C23.1976 101.08 24.1125 101.4 24.862 102.039C25.6225 102.667 26.0028 103.533 26.0028 104.635C26.0027 105.737 25.6224 106.608 24.8619 107.247C24.1123 107.876 23.1974 108.19 22.1172 108.19C21.2465 108.19 20.4694 107.98 19.786 107.561C19.1026 107.131 18.6397 106.52 18.3972 105.726L19.3727 105.164C19.538 105.781 19.8632 106.255 20.3481 106.586C20.8442 106.906 21.4339 107.065 22.1173 107.065C22.9109 107.065 23.5612 106.856 24.0683 106.437C24.5863 106.007 24.8454 105.407 24.8454 104.635C24.8454 103.863 24.5864 103.268 24.0683 102.849C23.5613 102.419 22.911 102.204 22.1174 102.204L18.9759 102.204L19.3894 96.4175L25.5896 96.4177L25.5896 97.5089L20.4145 97.5088L20.1664 101.08L22.1174 101.08Z" fill="#C60635"/>
<path d="M39.8068 18.0736L42.1076 22.6502L47.1802 23.3893L43.5196 27.0011L44.3729 32.0618L39.8179 29.6565L35.2676 32.0775L36.1356 27.0187L32.4524 23.4157L37.5392 22.6824L39.8068 18.0736Z" fill="#C60635"/>
<path d="M59.4499 18.065L61.7106 22.6504L66.792 23.4296L63.1226 27.0014L63.976 32.062L59.4298 29.6968L54.8706 32.0778L55.7387 27.019L52.0554 23.4159L57.1423 22.6827L59.4499 18.065Z" stroke="white" stroke-width="0.410094" stroke-miterlimit="10"/>
<path d="M79.0526 18.0653L81.3133 22.6506L86.4348 23.421L82.7253 27.0016L83.6188 32.0535L79.0725 29.6883L74.5134 32.0692L75.3814 27.0104L71.6982 23.4073L76.7851 22.6741L79.0526 18.0653Z" stroke="white" stroke-width="0.410094" stroke-miterlimit="10"/>
<path d="M98.6957 18.0567L100.965 22.6822L106.038 23.4213L102.368 26.9931L103.222 32.0537L98.6756 29.6885L94.1164 32.0695L94.9845 27.0106L91.3012 23.4076L96.3881 22.6744L98.6957 18.0567Z" stroke="white" stroke-width="0.410094" stroke-miterlimit="10"/>
<path d="M118.299 18.0572L120.568 22.6827L125.681 23.413L121.971 26.9936L122.833 32.0943L118.278 29.689L113.719 32.0699L114.627 27.0024L110.904 23.4081L116.031 22.6661L118.299 18.0572Z" stroke="white" stroke-width="0.410094" stroke-miterlimit="10"/>
<path d="M39.806 57.2796L42.0755 61.905L47.1882 62.6354L43.4875 66.256L44.381 71.3079L39.8259 68.9027L35.2756 71.3236L36.1349 66.2247L32.4604 62.6618L37.5473 61.9286L39.806 57.2796Z" fill="#C60635"/>
<path d="M59.4575 57.3111L61.7182 61.8965L66.7995 62.6756L63.1302 66.2475L63.9836 71.3081L59.4373 68.9429L54.8782 71.3238L55.7462 66.2651L52.063 62.662L57.1498 61.9288L59.4575 57.3111Z" stroke="white" stroke-width="0.410094" stroke-miterlimit="10"/>
<path d="M79.0607 57.3116L81.3214 61.897L86.4429 62.6674L82.7334 66.248L83.6269 71.2998L79.0405 68.9434L74.4814 71.3243L75.3895 66.2568L71.6662 62.6625L76.7932 61.9205L79.0607 57.3116Z" stroke="white" stroke-width="0.410094" stroke-miterlimit="10"/>
<path d="M98.6635 57.3118L100.973 61.9285L106.046 62.6676L102.376 66.2394L103.23 71.3L98.6834 68.9348L94.1243 71.3158L94.9923 66.257L91.309 62.6539L96.3959 61.9207L98.6635 57.3118Z" stroke="white" stroke-width="0.410094" stroke-miterlimit="10"/>
<path d="M118.307 57.3033L120.576 61.9288L125.649 62.6679L121.979 66.2397L122.841 71.3404L118.286 68.9351L113.727 71.316L114.595 66.2573L110.912 62.6542L115.999 61.921L118.307 57.3033Z" stroke="white" stroke-width="0.410094" stroke-miterlimit="10"/>
<path d="M39.8144 96.5253L42.0839 101.151L47.1965 101.881L43.4959 105.502L44.3893 110.554L39.7942 108.157L35.2438 110.578L36.1432 105.47L32.4286 101.916L37.5556 101.174L39.8144 96.5253Z" fill="#C60635"/>
<path d="M59.4259 96.5657L61.7267 101.142L66.7994 101.881L63.1387 105.493L63.9921 110.554L59.4459 108.189L54.8868 110.57L55.7548 105.511L52.0715 101.908L57.1584 101.175L59.4259 96.5657Z" fill="#C60635"/>
<path d="M79.069 96.5572L81.3298 101.143L86.4111 101.922L82.7417 105.494L83.5951 110.554L79.0488 108.189L74.4897 110.57L75.3578 105.511L71.6745 101.908L76.7614 101.175L79.069 96.5572Z" stroke="white" stroke-width="0.410094" stroke-miterlimit="10"/>
<path d="M98.6718 96.5574L100.933 101.143L106.054 101.913L102.345 105.494L103.238 110.546L98.6917 108.18L94.1326 110.561L95.0006 105.503L91.3173 101.9L96.4042 101.166L98.6718 96.5574Z" stroke="white" stroke-width="0.410094" stroke-miterlimit="10"/>
<path d="M118.315 96.5489L120.584 101.174L125.657 101.913L121.988 105.485L122.841 110.546L118.295 108.181L113.736 110.562L114.604 105.503L110.92 101.9L116.007 101.167L118.315 96.5489Z" stroke="white" stroke-width="0.410094" stroke-miterlimit="10"/>
</svg>
