<svg width="124" height="187" viewBox="0 0 124 187" fill="none" xmlns="http://www.w3.org/2000/svg">
<path d="M104.581 159.292C104.104 159.622 103.445 159.476 103.115 158.999L99.9645 154.31L99.012 154.969C98.5357 155.299 97.8763 155.153 97.5465 154.676C97.2168 154.2 97.3634 153.504 97.8397 153.211L98.7922 152.551L98.1327 151.562L97.1802 152.222C96.7039 152.551 96.0445 152.405 95.7148 151.929C95.385 151.452 95.5316 150.793 96.0079 150.463L96.9604 149.804L88.8639 137.714C88.5341 137.238 88.6807 136.578 89.1569 136.249L96.5574 131.266C100.624 128.555 106.156 129.617 108.867 133.684C111.578 137.751 110.516 143.283 106.449 145.994L99.9279 150.353L100.587 151.342L108.024 146.36C108.501 146.03 109.16 146.177 109.49 146.653C109.82 147.129 109.673 147.789 109.197 148.119L101.76 153.101L104.91 157.79C105.203 158.303 105.057 158.963 104.581 159.292ZM98.6823 148.595L105.203 144.235C105.973 143.722 106.596 143.099 107.072 142.33C107.548 141.597 107.878 140.791 108.061 139.949C108.244 139.106 108.244 138.227 108.061 137.348C107.878 136.468 107.548 135.626 107.035 134.856C106.522 134.087 105.9 133.464 105.13 132.988C104.397 132.512 103.591 132.182 102.749 131.999C101.906 131.816 101.027 131.816 100.148 131.999C99.2684 132.182 98.4258 132.512 97.6565 133.025L91.1353 137.384L98.6823 148.595Z" fill="white"/>
<path d="M101.796 165.85C113.633 165.85 123.228 156.255 123.228 144.418C123.228 132.582 113.633 122.986 101.796 122.986C89.9594 122.986 80.364 132.582 80.364 144.418C80.364 156.255 89.9594 165.85 101.796 165.85Z" stroke="#C60635" stroke-width="1.46543" stroke-miterlimit="10"/>
<path d="M109.526 124.415L94.0659 164.422" stroke="#C60635" stroke-width="1.46543" stroke-miterlimit="10"/>
<path d="M53.2536 179.186C52.8506 179.076 52.6308 178.673 52.7773 178.27L53.913 174.57L53.1437 174.35C52.7407 174.24 52.5208 173.837 52.6674 173.434C52.7773 173.031 53.1803 172.811 53.5833 172.958L54.3526 173.178L54.6091 172.372L53.8397 172.152C53.4367 172.042 53.2169 171.639 53.3635 171.236C53.4734 170.833 53.8764 170.613 54.2794 170.76L55.0487 170.979L57.9429 161.381C58.0529 160.978 58.4558 160.758 58.8588 160.905L64.7572 162.7C67.9812 163.689 69.813 167.096 68.8604 170.32C67.8713 173.544 64.4641 175.376 61.2402 174.423L56.0379 172.848L55.7814 173.654L61.7164 175.449C62.1194 175.559 62.3392 175.962 62.1927 176.365C62.0828 176.768 61.6798 176.988 61.2768 176.841L55.3418 175.046L54.2061 178.746C54.0229 179.076 53.6199 179.296 53.2536 179.186ZM56.3676 171.346L61.5699 172.921C62.1561 173.104 62.7789 173.178 63.4017 173.104C63.9879 173.031 64.574 172.848 65.0869 172.591C65.6365 172.298 66.0761 171.932 66.4791 171.456C66.8821 170.979 67.1752 170.43 67.3584 169.844C67.5415 169.258 67.6148 168.635 67.5415 168.012C67.4683 167.426 67.2851 166.84 67.0286 166.29C66.7355 165.74 66.3692 165.301 65.8929 164.898C65.4167 164.495 64.8671 164.202 64.2809 164.019L59.0786 162.443L56.3676 171.346Z" fill="white"/>
<path d="M59.9581 186C68.1324 186 74.759 179.374 74.759 171.199C74.759 163.025 68.1324 156.398 59.9581 156.398C51.7838 156.398 45.1572 163.025 45.1572 171.199C45.1572 179.374 51.7838 186 59.9581 186Z" stroke="#C60635" stroke-width="0.732717" stroke-miterlimit="10"/>
<path d="M73.9896 166.583L45.8899 175.815" stroke="#C60635" stroke-width="0.732717" stroke-miterlimit="10"/>
<path d="M44.7539 100.052C43.1419 100.052 41.823 98.7334 41.823 97.1214V81.5878H38.5991C36.9871 81.5878 35.6682 80.269 35.6682 78.657C35.6682 77.045 36.9871 75.7261 38.5991 75.7261H41.823V72.3922H38.5991C36.9871 72.3922 35.6682 71.0733 35.6682 69.4614C35.6682 67.8494 36.9871 66.5305 38.5991 66.5305H41.823V26.3043C41.823 24.6924 43.1419 23.3735 44.7539 23.3735H69.3732C82.8918 23.3735 93.8826 34.3642 93.8826 47.8829C93.8826 61.4015 82.8918 72.3922 69.3732 72.3922H47.6848V75.7261H72.4506C74.0626 75.7261 75.3815 77.045 75.3815 78.657C75.3815 80.269 74.0626 81.5878 72.4506 81.5878H47.6848V97.1214C47.6848 98.7334 46.3659 100.052 44.7539 100.052ZM47.6848 66.4572H69.3732C71.9011 66.4572 74.319 65.981 76.6271 64.9918C78.8252 64.0393 80.8402 62.7204 82.5255 60.9985C84.2473 59.2766 85.5662 57.2983 86.5188 55.0635C87.4713 52.7554 87.9842 50.3375 87.9842 47.8096C87.9842 45.2817 87.5079 42.8637 86.5188 40.5557C85.5662 38.3575 84.2473 36.3426 82.5255 34.6207C80.8036 32.8988 78.8252 31.5799 76.6271 30.6274C74.3557 29.6748 71.9011 29.1619 69.3732 29.1619H47.6848V66.4572Z" fill="white"/>
<path d="M61.2035 120.898C93.9008 120.898 120.407 94.3918 120.407 61.6946C120.407 28.9974 93.9008 2.49103 61.2035 2.49103C28.5063 2.49103 2 28.9974 2 61.6946C2 94.3918 28.5063 120.898 61.2035 120.898Z" stroke="#C60635" stroke-width="3.66359" stroke-miterlimit="10"/>
<path d="M109.673 27.7332L12.6975 95.656" stroke="#C60635" stroke-width="3.66359" stroke-miterlimit="10"/>
</svg>
