<svg width="150" height="187" viewBox="0 0 150 187" fill="none" xmlns="http://www.w3.org/2000/svg">
<path d="M62.6353 28.0244C61.3967 27.0217 60.9249 25.6652 61.5147 24.1318C62.1634 22.3624 63.9328 21.1239 65.7021 21.4778C68.828 22.0675 71.1872 24.0139 73.3694 26.1371C74.1951 26.9628 73.7822 28.2013 72.4847 28.3783C70.4204 28.7321 65.2893 30.1476 62.6353 28.0244ZM70.5974 26.314C68.7691 25.0165 67.4715 23.7779 65.7021 23.3061C64.5815 23.0112 63.579 23.2471 63.1661 24.3087C62.7532 25.3703 63.6379 26.0191 64.4636 26.314C66.3509 27.0218 68.2972 27.0807 70.5974 26.314Z" fill="white"/>
<path d="M124.563 21.0056C123.147 21.1236 122.853 20.1799 123.383 19.0593C124.563 16.5822 126.627 14.0461 128.691 13.5153C133.587 12.1588 135.533 15.3437 134.117 17.7618C133.646 18.5285 132.702 19.2952 131.935 19.4722C129.517 20.1209 127.158 20.8877 124.563 21.0056ZM132.466 17.29C133.941 15.2847 131.169 14.1641 128.691 14.9898C127.335 15.4616 126.332 16.5232 125.507 17.5849C125.035 18.2336 125.212 18.8234 126.155 18.7644C128.573 18.5875 131.64 18.4695 132.466 17.29Z" fill="white"/>
<path d="M127.571 42.5917C126.215 42.6507 124.445 42.0609 122.912 41.707C121.673 41.4711 121.378 39.9966 122.499 39.2299C125.212 37.3426 128.279 36.6938 131.582 37.3426C132.466 37.5195 132.879 38.2863 132.997 39.1709C133.115 40.2915 132.584 41.1762 131.641 41.707C130.343 42.4148 128.987 42.4737 127.571 42.5917ZM131.287 39.8787C131.228 38.5812 125.507 38.5222 125.507 39.7607C125.507 41.1762 131.287 41.4121 131.287 39.8787Z" fill="white"/>
<path d="M119.137 9.38673C119.373 6.20187 120.14 3.6068 121.968 1.48356C122.676 0.716838 123.56 -0.226793 124.74 0.480952C125.86 1.12972 125.684 2.30927 125.271 3.37089C124.209 5.96595 122.204 7.7943 120.552 9.97651C120.316 10.2714 119.904 10.4483 119.55 10.1534C119.078 9.85855 119.137 9.38673 119.137 9.38673ZM120.611 7.32247C121.083 7.61736 121.26 7.14554 121.496 6.85065C122.322 5.78903 123.206 4.66841 124.032 3.54782C124.386 3.07599 124.504 2.42724 123.914 2.01438C123.442 1.66051 122.971 2.01437 122.558 2.36824C121.496 3.48884 120.257 7.08656 120.611 7.32247Z" fill="white"/>
<path d="M79.0317 16.1694C78.7958 17.231 78.0291 17.113 77.3804 16.8182C76.0239 16.1104 75.0802 14.9898 74.7263 13.5154C74.4904 12.6307 74.9032 11.8639 75.7879 11.5101C76.6726 11.1562 77.1444 11.746 77.5573 12.4538C78.265 13.6333 78.5009 14.9898 79.0317 16.1694Z" fill="white"/>
<path d="M93.3045 34.5707C93.4814 34.1578 93.5403 33.686 94.0711 33.568C94.6019 33.509 94.8969 33.9809 95.0149 34.3347C95.8995 36.5169 96.9611 38.5812 97.256 40.9404C97.4329 42.6507 96.4303 44.2432 95.1917 44.3611C94.0122 44.5381 92.8326 43.1226 92.7147 41.2942C92.7147 41.3532 92.5377 36.399 93.3045 34.5707ZM94.8969 38.0504C94.602 37.6965 93.9532 37.9325 93.9532 38.4043C93.8352 39.4069 94.0122 40.3506 94.4251 41.2353C94.602 41.6481 94.7789 42.1199 95.3687 41.943C95.7816 41.8251 95.9585 41.4122 95.8995 41.0583C95.6636 39.9967 95.7226 38.9351 94.8969 38.0504Z" fill="white"/>
<path d="M149.983 35.6326C149.983 31.3271 149.216 27.1396 148.155 23.0111C147.86 21.9495 147.211 21.6546 146.798 21.6546C146.621 21.6546 145.795 21.4187 144.734 23.483C144.557 22.7752 143.79 21.6546 143.023 21.7136C142.021 21.7726 141.667 22.5393 141.254 23.1881C140.31 22.3624 138.954 22.5983 138.305 24.4856C137.774 25.9601 137.597 27.4345 137.597 28.968C137.597 35.1608 137.715 41.2945 137.538 47.4873C137.42 52.6774 137.008 57.8676 135.769 62.9987C135.415 64.3552 134.707 65.4758 133.351 65.8297C130.756 66.5374 125.094 65.004 123.443 64.2373C123.148 64.1193 123.325 63.6475 123.384 63.1757C123.443 62.6448 123.325 62.5269 122.44 62.173C121.909 61.9961 104.805 54.2109 104.746 54.1519C103.862 53.7391 103.272 53.2083 103.626 52.2646C104.805 49.1387 105.218 45.541 109.17 44.2435C110.703 43.7716 111.765 42.2972 112.826 40.9407C113.77 39.7611 113.947 38.4046 113.829 36.9891C113.711 35.7505 113.239 35.0428 111.824 35.7505C110.408 36.4583 108.934 37.1071 107.459 37.6968C106.869 37.9328 105.985 38.4046 105.513 37.7558C105.1 37.107 106.044 36.6942 106.516 36.3403C108.403 34.8659 110.408 33.4504 112.296 31.9759C114.478 30.2655 114.773 29.2629 113.711 26.7268C112.355 23.483 110.939 20.2981 108.993 17.4081C108.049 15.9927 108.049 14.99 109.465 13.8694C110.585 12.9847 113.062 11.3333 113.711 9.68195C114.124 8.56135 113.239 6.55608 110.703 7.73565C112.06 5.78936 108.993 5.02264 106.928 6.08426C107.872 4.3149 102.21 5.19955 100.382 5.90729C93.3634 8.56134 87.8194 12.9258 84.3986 19.7673C84.1037 20.3571 83.7498 20.8289 83.278 21.2418C81.5676 22.7162 80.7419 24.6625 80.2111 26.7858C79.0905 31.2682 78.5007 35.7505 78.0289 40.3509C77.9109 41.7074 77.3211 42.2972 76.0236 41.7074C75.5518 41.4715 68.4744 37.5789 51.3705 37.4019C50.6038 37.4019 50.2499 38.8174 50.014 38.8174C43.1725 39.2893 36.2719 41.8254 30.61 45.3051C22.7658 50.0824 16.809 57.1008 10.6752 63.7654C9.61359 64.945 8.49298 65.8887 7.19545 66.3605C6.25179 66.7144 5.19016 66.8323 4.01058 66.5375C2.59509 66.1836 1.41549 65.9477 0.589787 67.0093C-0.294894 68.1888 0.059022 70.3121 2.77204 70.9019C1.17962 71.3147 0.589802 74.3226 3.18487 74.7355C2.83099 75.1483 1.76938 76.3869 4.06955 77.3306C7.43133 78.6871 10.4392 77.6844 13.2113 75.7971C18.1065 72.4353 22.176 68.1299 26.5404 64.1193C30.551 60.4036 34.6205 56.747 39.4568 54.1519C41.9929 52.7954 44.293 51.085 47.4779 53.0903C49.0703 54.0929 51.2526 54.0929 53.1399 54.6237C55.558 55.3315 55.617 55.4494 54.0835 57.4547C49.0114 64.2373 45.2367 71.8455 41.3441 79.3358C40.8133 80.3384 40.4594 81.518 41.521 82.2847C42.8186 83.2284 42.4058 84.0541 41.698 84.9978C37.9234 90.3648 34.7385 96.0858 31.3767 101.689C29.0766 105.463 26.7174 109.179 24.3582 113.013C23.5325 112.364 23.7685 111.597 23.7685 110.948C23.5915 104.756 23.4146 98.6219 23.6505 92.4291C23.7685 89.4802 22.9428 88.5955 20.1118 88.4775C16.2782 88.3006 12.4446 88.3006 8.66992 88.6545C6.13383 88.8904 3.65671 89.5391 1.35654 90.6597C0.648795 90.9546 0 91.3675 0 92.3111C0 93.2548 0.825717 93.3728 1.4155 93.6677C2.88997 94.3754 4.54138 94.1985 6.1338 94.3164C9.37763 94.6113 9.67254 94.7882 9.31867 98.0321C8.31603 107.233 8.49297 116.433 8.72888 125.693C8.84684 130.058 10.3213 134.068 13.4472 137.253C16.4551 140.32 19.9938 141.676 24.3582 140.202C27.779 139.022 30.7869 137.194 33.441 134.776C39.4568 129.291 44.9418 123.275 50.6038 117.436C51.7244 116.257 52.4911 116.198 53.6706 117.377C56.7375 120.444 59.4506 123.806 62.7534 126.637C71.7771 134.481 80.329 142.856 88.4681 151.585C94.7788 158.308 100.972 165.15 107.99 171.166C113.888 176.179 119.668 181.369 125.448 186.5C126.391 187.326 127.217 187.031 127.984 186.323C133.41 180.897 138.541 175.294 141.903 168.335C142.611 166.919 142.611 165.327 142.139 163.852C141.49 161.965 140.31 161.611 138.6 162.614C136.477 163.852 134.766 165.563 133.056 167.273C131.759 168.512 130.933 168.512 129.694 167.096C121.673 157.895 113.534 148.813 104.982 140.084C96.3712 131.296 88.822 121.683 81.2138 112.01C78.2648 108.294 78.2648 108.294 81.2138 104.638C81.8035 103.93 82.4523 103.458 83.337 103.753C84.9884 104.461 85.8731 103.576 86.8167 102.338C86.8167 102.279 94.8378 91.0726 104.333 76.4459C104.982 75.4432 105.69 75.0304 107.046 75.6202C108.521 76.3279 110.054 76.9767 111.588 77.5664C112.59 77.9793 113.593 78.923 114.537 78.5691C115.952 78.0383 117.132 78.5691 118.193 78.9819C121.201 80.1615 124.268 80.6923 127.394 81.2821C136.89 82.8746 143.672 79.3358 147.388 70.3711C149.511 65.2989 149.924 59.8729 149.983 54.4468C150.042 48.372 149.924 42.0023 149.983 35.6326ZM87.4655 37.4019C87.5834 36.6352 88.2912 36.0454 89.1169 35.9864C90.9453 35.8685 91.1221 34.7479 90.8272 33.3324C90.4734 31.8579 90.1785 30.3835 89.7657 28.909C89.5298 27.8474 89.8246 27.1396 90.7683 26.5498C95.6045 23.5419 100.441 20.475 105.277 17.4081C106.339 16.7004 107.223 16.7594 107.754 17.939C108.403 19.2365 107.282 19.3544 106.516 19.7673C106.044 20.0032 104.982 19.9442 105.336 20.8879C105.631 21.7136 106.339 21.0648 106.811 21.0648C107.459 21.0648 108.167 20.8289 108.698 21.0059C109.641 21.3597 110.467 21.9495 109.229 23.0701C108.757 23.542 108.108 23.9548 108.108 24.7805C108.108 25.1933 108.639 25.3113 108.875 24.9574L108.934 24.8984C109.229 24.3087 109.641 23.6599 110.29 23.7189C110.644 23.7189 110.762 23.9548 110.88 24.1907C112.001 26.6088 112.767 28.6731 112.885 28.968C113.121 29.8527 112.649 30.6784 111.706 31.2681C109.111 32.9785 106.634 34.8659 104.333 36.9891C103.508 37.8148 101.974 38.6995 102.682 39.8791C103.508 41.2945 104.982 40.115 106.103 39.7611C107.695 39.2893 109.17 38.5225 110.644 37.8738C111.175 37.6379 111.765 37.343 112.237 37.8738C112.708 38.4046 112.414 38.9354 112.178 39.4662C111.293 41.7664 109.288 42.9459 107.282 43.6537C104.864 44.4794 103.98 46.2487 103.331 48.372C102.8 49.9644 102.269 51.4979 101.738 53.0313C101.384 54.0339 100.795 54.3878 99.7331 54.3288C95.8995 54.0929 92.3607 53.0903 89.4118 50.4952C88.6451 49.8465 88.4091 49.1387 88.763 48.195C89.5887 46.0718 90.0016 43.8306 90.1785 41.5305C90.2375 40.4099 90.0606 39.5252 88.822 39.1123C87.9963 38.7585 87.3475 38.2866 87.4655 37.4019ZM47.0651 49.2567C46.7702 49.8464 46.4752 50.3183 45.7085 50.4362C40.1645 51.3209 35.7411 54.3878 31.4947 57.6906C26.4225 61.6422 22.0581 66.4195 17.1629 70.666C16.2782 71.4327 15.3934 72.1994 14.4498 72.9071C14.1549 73.1431 10.0264 76.151 8.66992 76.3869C7.43136 76.6228 4.65933 76.8587 4.36444 75.8561C4.12853 75.0894 5.95687 74.7355 6.72359 74.3816C7.07746 74.2637 7.49036 74.1457 7.43138 73.6739C7.3724 73.202 6.95955 73.1431 6.5467 73.202C4.36448 73.4969 3.24386 73.4379 3.1259 72.8481C2.88999 71.6686 6.78255 72.1404 6.48766 70.7839C6.3697 70.2531 5.77997 70.3121 5.36712 70.3121C4.3055 70.371 3.36185 69.9582 2.41819 69.5453C1.88738 69.3094 1.59248 68.8376 1.8284 68.3068C2.06431 67.776 2.59512 68.0709 3.00797 68.1888C6.48772 69.0735 9.14176 67.835 11.5599 65.3579C17.6347 59.0472 23.0607 52.0877 30.492 47.2514C35.8001 43.8306 41.58 41.3535 47.8908 40.4688C49.2473 40.2919 50.014 40.6458 49.4832 42.0613C48.7164 44.4204 48.2446 46.9565 47.0651 49.2567ZM18.5193 94.1984C19.0501 94.1395 19.5809 94.0215 20.0528 93.8446C21.8811 93.2548 22.235 94.1985 22.235 95.7909C22.0581 102.279 22.176 108.766 22.6478 115.254C22.7068 115.903 22.4119 116.846 23.2376 117.082C24.1223 117.318 24.2993 116.315 24.5942 115.785C30.728 106.053 36.8617 96.3217 42.9955 86.6492C43.4673 85.9414 43.7622 84.7619 44.8238 84.9978C45.7675 85.1747 46.8292 85.5876 47.0061 86.8261C46.3573 88.1236 45.0008 90.8367 43.2314 94.1984C42.8776 94.1395 42.5237 94.1984 42.3468 94.6703C42.1698 95.1421 42.3468 95.3191 42.5827 95.496C40.8723 98.7398 38.8081 102.455 36.6259 106.171C26.5995 123.334 22.6478 125.457 21.1734 125.221C16.691 124.396 17.1628 106.171 18.5193 94.1984ZM48.1267 87.239C50.3679 86.8851 51.7244 88.8904 53.6117 89.5392C54.4374 89.834 54.0836 90.3648 53.7297 90.8957C52.3142 92.783 47.124 94.6703 44.47 94.3754C46.1804 91.1316 47.4779 88.4775 48.1267 87.239ZM80.3291 114.133C89.0579 125.457 98.1406 136.486 108.167 146.69C115.421 154.062 122.204 161.906 129.281 169.514C130.284 170.576 130.343 171.343 129.34 172.463C127.866 174.056 126.509 175.766 125.153 177.417C124.504 178.243 123.796 178.42 122.853 177.948C120.14 176.651 118.488 174.115 116.424 172.109C102.918 159.134 90.8273 144.743 77.3801 131.709C71.6002 126.106 65.6433 120.621 60.3942 114.487C60.1583 114.192 59.9224 113.485 59.3916 114.015C58.9788 114.428 59.4506 114.959 59.7455 115.313C62.7534 119.087 66.0562 122.626 69.5949 125.929C78.4417 134.186 86.8757 142.797 95.1327 151.585C103.508 160.55 112.119 169.278 120.965 177.771C121.555 178.361 122.971 179.128 122.204 179.954C121.319 180.897 120.612 179.423 119.963 178.892C114.242 173.938 108.521 168.983 102.977 163.852C97.138 158.367 91.8299 152.351 86.3449 146.513C79.0315 138.786 71.3643 131.414 63.3432 124.514C60.0993 121.742 57.3273 118.498 54.2604 115.549C53.9066 115.254 53.6707 114.9 53.6117 114.428C53.5527 113.897 53.7886 113.131 53.0219 112.954C52.3731 112.777 52.0193 113.426 51.6654 113.838C46.4753 119.146 41.3441 124.514 36.154 129.822C33.1461 132.889 30.0202 135.896 25.9506 137.607C21.6452 139.494 17.2808 138.432 14.3908 134.717C12.0317 131.709 10.7932 128.229 10.6752 124.514C10.3803 115.254 10.4393 105.935 11.0291 96.6756C11.147 95.0242 11.6778 94.2574 13.4472 94.3164C14.7447 94.3754 16.0422 94.4344 17.2808 94.3164C16.5731 100.745 14.2729 125.162 20.9374 126.283C21.0554 126.283 21.2324 126.342 21.4683 126.342C23.0607 126.342 27.0123 124.749 37.5695 106.702C39.8107 102.868 41.9339 99.0347 43.7033 95.6729C47.242 96.3217 50.191 94.7882 52.845 92.8419C55.735 90.7777 55.676 90.5418 58.8018 92.3701C59.4506 92.724 60.984 93.6087 62.7534 94.5523C61.4559 96.8525 58.8018 101.394 56.4427 105.758C56.3837 105.876 56.3247 106.053 56.3837 106.23C56.4427 106.407 56.5607 106.525 56.6786 106.584C57.2684 106.82 57.7992 106.938 58.3889 106.938C62.5764 106.938 66.587 100.391 68.1795 97.4423C68.8872 97.7962 69.418 98.0911 69.6539 98.15C71.2464 98.8578 72.7798 99.5655 74.3132 100.273C75.0799 100.627 75.6107 101.276 75.4928 102.102C74.903 106.997 77.5571 110.595 80.3291 114.133ZM67.3538 96.9115C65.4075 100.568 61.3969 106.466 57.9172 105.699C60.2173 101.512 62.6354 97.2653 63.874 95.0831C65.0536 95.7319 66.2921 96.3807 67.3538 96.9115ZM79.9162 102.868C80.506 103.222 78.3828 105.994 77.3212 107.174C76.6724 106.348 75.9057 100.745 77.1442 101.394C77.9699 101.807 78.7956 102.161 79.9162 102.868ZM115.657 75.2073C114.891 76.6228 113.947 76.9767 112.59 76.151C110.88 75.1483 109.052 74.4996 107.223 73.7918C105.926 73.261 104.982 73.4969 104.156 74.7355C103.685 75.3842 103.331 75.9151 103.036 76.3279L90.2375 95.0242C88.8809 97.0294 87.5245 99.0347 86.2269 101.04C85.8731 101.63 85.4602 102.043 84.3396 101.984C82.6882 101.335 80.6829 100.509 78.6776 99.7425C69.5949 96.2037 61.5149 90.7187 52.845 86.4133C50.132 85.0567 47.4779 83.5233 44.8829 81.9309C43.4674 81.1052 42.9365 80.1615 43.8802 78.5691C45.0598 76.5638 50.014 67.0682 50.3089 66.5964C50.8397 65.7117 57.1504 56.3931 57.5633 55.6264C57.9762 54.9186 57.3863 53.798 56.4427 53.6211C54.0246 53.0903 51.9013 52.5595 49.4242 52.3236C48.2446 52.2056 47.5959 51.5568 48.1267 50.3773C49.4832 47.5463 50.3089 44.5384 51.3705 41.6484C51.9603 40.056 52.786 39.5842 54.3195 39.7611C55.2042 39.8791 56.0888 39.879 56.4427 39.938C63.2252 40.2329 69.3 41.6484 75.1389 43.8896C75.8467 44.1845 77.1442 44.5974 77.557 45.0692C77.3801 45.7179 77.2032 46.2488 77.0852 47.3694C77.0852 47.4873 76.9083 51.7338 80.8009 48.7259C80.6239 50.9081 82.4523 52.0287 84.1037 49.7285C84.4576 53.2083 87.5245 50.6132 88.94 52.0287C92.3017 55.3315 96.6661 55.9803 101.149 55.6264C103.213 55.5084 104.805 56.57 106.516 57.3368C110.998 59.2241 115.421 61.3473 119.904 63.2936C121.496 64.0014 121.791 64.7681 120.788 66.3015C118.901 69.1915 117.25 72.1994 115.657 75.2073ZM147.978 55.6264C147.978 60.9935 147.329 66.4195 145.265 71.4916C143.023 76.9767 137.656 80.3385 131.758 79.8077C127.335 79.4538 122.971 78.6281 118.724 77.0946C117.073 76.5048 116.896 75.915 117.722 74.4406C118.96 72.3173 120.14 70.1351 121.319 67.9529C121.909 66.8323 122.735 66.4195 123.973 66.6554C126.097 67.0682 128.161 67.776 130.343 67.894C134.354 68.1299 136.772 66.4195 137.597 62.4089C139.485 52.9723 139.485 43.4767 139.426 33.9222C139.426 31.4451 139.426 28.968 139.426 26.4909C139.426 25.8421 139.485 24.6036 139.957 24.5446C140.723 24.4266 140.546 25.6062 140.605 26.137C140.664 26.6089 140.605 27.2576 141.313 27.2576C142.139 27.2576 142.139 26.6678 142.257 26.078C142.316 25.6652 142.316 25.1933 142.375 24.7215C142.434 24.3087 142.375 23.7189 142.964 23.7189C143.495 23.7189 143.613 24.2497 143.79 24.6626C143.967 25.1934 143.908 26.078 144.616 26.078C145.619 26.078 145.029 23.7778 146.326 24.1907C146.503 24.2497 146.621 24.3087 146.739 24.4266C148.508 26.137 147.978 55.6264 147.978 55.6264ZM11.7957 148.813C10.8521 148.223 10.3213 147.456 10.5572 146.277C10.7931 145.038 11.5598 144.684 12.6215 145.215C16.3961 147.161 20.2297 147.928 24.2993 146.218C24.7121 146.041 25.2429 146.041 25.4789 146.513C25.8327 147.161 25.5378 147.751 25.066 148.223C21.4683 151.703 13.919 150.169 11.7957 148.813ZM29.3125 151.408C29.9023 150.995 30.551 150.405 31.1408 151.113C31.7306 151.762 31.1408 152.41 30.6689 152.941C27.4841 156.185 23.5915 157.188 19.1681 156.421C18.2244 156.244 17.9295 155.654 17.9885 154.77C18.0475 154.003 18.5194 153.472 19.3451 153.472C22.5299 153.59 25.3019 154.534 29.3125 151.408ZM108.403 27.5525C107.99 27.6704 107.341 27.6705 106.869 27.9653C105.336 28.791 104.628 27.9064 104.097 26.6678C103.862 26.137 103.626 25.4882 104.274 25.1344C104.923 24.7805 105.159 25.4882 105.395 25.9011C106.162 27.1396 107.223 26.7268 108.285 26.6088C109.229 26.4909 110.467 26.019 110.998 27.2576C111.47 28.4372 110.644 29.3219 109.759 29.9706C108.993 30.5014 108.226 31.0322 107.4 31.5041C107.105 31.681 106.634 31.799 106.457 31.2681C106.339 30.9143 106.575 30.6784 106.869 30.5014C107.577 30.0296 108.344 29.5578 109.052 29.027C109.347 28.791 109.877 28.5551 109.641 27.9653C109.406 27.4935 108.934 27.6115 108.403 27.5525ZM95.2506 26.6088C96.3123 25.4882 97.4919 24.4856 98.8484 23.6599C99.2023 23.424 99.6151 23.9548 99.3202 24.2497C98.2586 25.3703 97.02 26.3139 95.7815 27.1396C95.3686 27.4345 94.9558 26.9627 95.2506 26.6088ZM100.323 30.0886C100.441 30.9732 97.3149 31.74 97.197 30.6194C97.079 29.7937 100.146 29.1449 100.323 30.0886Z" fill="white"/>
<path d="M101.148 75.7382C100.617 75.5023 99.9097 75.0894 99.025 74.4996C97.3147 73.438 95.4863 72.7303 93.599 72.3764C89.8834 71.7276 86.8754 69.8993 84.1624 67.4812C81.2725 64.9451 78.2056 62.5269 74.4309 61.3474C72.2487 60.6986 70.0665 60.1088 67.8253 59.8729C64.4635 59.519 62.1043 57.5137 59.5682 55.7444C59.5682 55.7444 59.5093 55.7444 59.4503 55.7444C58.3887 55.7444 57.6809 56.924 58.3297 57.7497L58.3887 57.8086C61.2197 60.5806 64.8764 61.4653 68.5331 61.9372C73.7232 62.5859 77.7338 65.2989 81.4494 68.5428C84.5753 71.2558 87.996 73.2021 92.1835 73.7919C95.2504 74.2637 97.7865 76.0331 100.441 77.5075C100.5 77.5665 100.559 77.5665 100.618 77.5665C101.561 77.8614 102.328 76.6229 101.679 75.9151C101.443 75.9151 101.325 75.7972 101.148 75.7382ZM97.1377 81.5771C93.717 78.8641 89.4705 78.0973 85.401 77.0357C81.9212 76.0921 79.0313 74.3817 76.5541 71.8456C74.6079 69.7814 72.4846 67.835 69.6537 67.0093C67.5304 66.4196 65.3482 65.8298 63.225 65.6528C59.9811 65.3579 57.3861 63.7065 54.6731 62.35C54.2602 62.1731 53.6114 61.8782 53.3165 62.5269C53.0216 63.1167 53.7883 63.6476 53.9653 63.7655C54.614 64.1194 55.3218 64.5912 56.0295 65.0041C58.9785 66.7734 62.3403 67.1863 65.6431 67.7761C68.9459 68.3658 71.6589 69.7224 73.5462 72.1995C76.908 76.5049 81.5084 78.2743 86.5805 79.2769C89.7064 79.8667 92.4784 80.9873 95.0735 82.7567C95.5453 83.0516 95.8992 83.3464 96.1941 83.5234C96.3121 83.6413 96.43 83.6413 96.6069 83.7003C97.4326 83.8183 97.9634 82.9336 97.6095 82.1669C97.4326 81.931 97.3147 81.6951 97.1377 81.5771ZM89.7654 86.6493C87.4652 85.5287 84.9291 85.2338 82.511 84.7619C78.5594 84.0542 75.5515 81.931 72.8385 79.2179C71.1281 77.5076 69.5947 75.6202 67.3535 74.6176C65.7611 73.9098 64.0507 73.32 62.2813 73.1431C58.0349 72.6713 54.85 70.3122 51.842 67.5991C51.6651 67.4812 50.8394 67.1273 50.3086 67.7171C49.8958 68.1889 49.6599 68.7197 50.1907 69.5454C50.2497 69.6634 50.3086 69.7224 50.4265 69.8403C53.8473 73.0252 57.9759 74.7945 62.6352 75.3253C65.2302 75.6202 67.1765 77.0357 68.8869 78.9231C71.364 81.6361 74.0771 84.0542 77.6158 85.4697C79.4441 86.1774 81.3314 86.7082 83.2777 86.9441C84.9291 87.1801 86.4626 87.6519 87.878 88.3596C88.3499 88.5956 91.5937 90.3649 91.8297 90.5418C92.1245 90.7188 92.4195 90.6598 92.6554 90.5418C93.1272 90.3059 93.4221 89.7751 93.3631 89.2443C93.3041 89.0084 93.1862 88.7725 92.9503 88.5955C92.4784 88.4776 90.2962 86.9441 89.7654 86.6493Z" fill="#C60635"/>
</svg>
