<svg width="52" height="53" viewBox="0 0 52 53" fill="none" xmlns="http://www.w3.org/2000/svg">
<path d="M32.314 41.8265C20.5288 47.996 6.72658 42.6175 1.704 30.9508C-3.04174 19.8774 2.49497 6.62892 13.7266 2.16002C26.5796 -2.94166 39.8677 4.80973 43.071 16.6741C43.2292 16.5159 43.3874 16.3972 43.5061 16.2786C44.8111 14.9735 46.1162 13.6684 47.4213 12.3634C47.8959 11.8888 48.4495 11.7701 49.0428 11.9679C49.636 12.1656 50.0315 12.6006 50.1501 13.2334C50.2688 13.8662 49.9919 14.3408 49.5569 14.7758C47.8563 16.4763 46.1558 18.1769 44.4552 19.8774C43.9806 20.352 43.7829 20.7475 43.8225 21.4594C44.0202 24.3859 43.5456 27.2334 42.5174 30.0017C42.2405 30.7531 41.8846 31.5441 41.5287 32.2559C41.3309 32.6514 41.3705 32.8492 41.6869 33.1655C44.4552 35.8943 47.2236 38.6627 49.9919 41.431C52.6021 44.0412 52.6812 47.9564 50.1501 50.4875C47.5795 53.0581 43.427 53.0581 40.8564 50.4875C38.1276 47.7587 35.3988 45.0299 32.67 42.3011C32.5513 42.1824 32.4327 41.9847 32.314 41.8265ZM37.0993 22.7645C37.9298 21.8944 38.7208 21.0639 39.5513 20.3125C40.184 19.7588 40.2631 19.2052 40.105 18.4142C37.8903 8.28995 27.5288 1.88319 17.4836 4.41425C7.95257 6.82667 2.05991 15.804 3.56273 25.5328C5.14464 35.7757 15.3084 42.8943 25.4722 40.8378C33.2632 39.2559 39.0372 33.2842 40.3027 25.5328C40.3818 25.0582 40.4213 24.5836 40.4609 24.1091C40.4213 24.1091 40.3818 24.0695 40.3027 24.0695C39.6699 24.7418 38.9976 25.4142 38.3648 26.0469C37.5343 26.8774 36.6643 26.8774 35.8338 26.0469C34.4892 24.7023 33.1841 23.3972 31.8394 22.0526C31.444 21.6571 31.0881 21.2221 30.5739 20.6684C30.4157 20.9452 30.3366 21.143 30.1785 21.3012C27.5683 23.9113 24.9977 26.5215 22.3875 29.0921C21.557 29.9226 20.9242 30.0017 19.9751 29.2503C19.3423 28.7362 18.7491 28.1034 18.1559 27.5102C17.5231 26.8379 16.9299 26.1656 16.218 25.4141C15.9808 25.7305 15.9017 25.8887 15.7435 26.0074C14.122 27.6288 12.5005 29.2503 10.8791 30.8718C10.2068 31.5441 9.25764 31.5441 8.62487 30.9508C7.95256 30.3181 7.87348 29.369 8.5458 28.6966C10.7209 26.482 12.9356 24.3068 15.1107 22.1317C15.7435 21.5385 16.574 21.5385 17.2463 22.1317C17.4441 22.2899 17.6022 22.4876 17.8 22.6458C18.8677 23.7136 19.9355 24.8209 21.122 26.0074C21.2802 25.7701 21.3593 25.5724 21.4779 25.4537C24.0485 22.8831 26.5796 20.3125 29.1502 17.7814C30.218 16.7136 30.9694 16.7136 32.0372 17.7814C33.6982 19.3633 35.3592 21.0244 37.0993 22.7645ZM35.0033 40.0864C37.7321 42.8548 40.54 45.7417 43.3874 48.5496C44.0993 49.2615 45.0484 49.4197 46.0371 49.1824C48.5286 48.5892 49.3987 45.6627 47.619 43.8039C44.9693 41.0751 42.2406 38.4254 39.5909 35.7362C39.5118 35.6571 39.4722 35.6175 39.4722 35.6175C37.9298 37.1994 36.4665 38.6627 35.0033 40.0864Z" fill="#C60635"/>
</svg>
