<svg width="125" height="189" viewBox="0 0 125 189" fill="none" xmlns="http://www.w3.org/2000/svg">
<path d="M10.5248 52.9572L14.8178 53.4424L15.1944 54.1516L9.93846 56.9426L9.55154 56.214L13.5931 54.0679L9.56597 53.5908L9.45763 53.3868L11.3179 49.7835L7.27642 51.9296L6.88949 51.201L12.1454 48.4099L12.522 49.1192L10.5248 52.9572ZM13.332 57.6573C12.825 57.9847 12.5061 58.4239 12.3752 58.975C12.2509 59.5226 12.34 60.0814 12.6427 60.6513C12.9901 61.3055 13.4807 61.7134 14.1145 61.875L13.9347 62.5683C13.5186 62.4571 13.14 62.2679 12.7988 62.0007C12.4675 61.7366 12.1884 61.3907 11.9614 60.9633C11.6828 60.4387 11.5483 59.9039 11.558 59.3591C11.5676 58.8143 11.716 58.312 12.0033 57.8523C12.294 57.399 12.6984 57.0348 13.2165 56.7596C13.7347 56.4845 14.2562 56.3487 14.7812 56.3522C15.3161 56.3588 15.8085 56.5042 16.2583 56.7884C16.7081 57.0726 17.0724 57.4771 17.3509 58.0017C17.6055 58.481 17.7239 58.9619 17.7062 59.4446C17.6885 59.9273 17.5386 60.3722 17.2567 60.7793C16.9781 61.193 16.5895 61.5322 16.0908 61.797C15.9936 61.8486 15.8427 61.9163 15.6381 62L13.332 57.6573ZM16.6903 58.3525C16.4083 57.8214 16.019 57.4635 15.5224 57.2788C15.0292 57.1007 14.5113 57.1183 13.9687 57.3317L15.9085 60.9846C16.425 60.6439 16.7464 60.2407 16.8728 59.7751C17.0091 59.3124 16.9483 58.8382 16.6903 58.3525ZM17.5181 69.809L22.1911 67.3275L22.578 68.0561L17.3221 70.8471L13.9378 64.474L19.1937 61.683L19.5806 62.4116L14.9076 64.8931L16.022 66.9916L20.695 64.5101L21.0819 65.2387L16.4089 67.7202L17.5181 69.809ZM24.5047 71.4734C24.8968 72.2117 25.0113 72.8651 24.848 73.4333C24.6947 74.0046 24.2845 74.4674 23.6174 74.8216L20.3531 76.5551L19.9662 75.8264L21.1612 75.1919C20.7617 75.2213 20.333 75.1334 19.8753 74.9281C19.424 74.7194 19.066 74.3657 18.8011 73.867C18.5053 73.3099 18.4187 72.7872 18.5412 72.2987C18.6672 71.8166 18.9698 71.4483 19.4491 71.1938C19.9414 70.9324 20.4375 70.8973 20.9375 71.0884C21.441 71.2861 21.8647 71.7087 22.2087 72.3564C22.4838 72.8745 22.7629 73.4861 23.0459 74.191L23.2208 74.0981C23.6871 73.8505 23.9679 73.5271 24.0631 73.1278C24.1682 72.7315 24.0831 72.2743 23.808 71.7562C23.6601 71.4777 23.4587 71.2235 23.2037 70.9935C22.9552 70.7601 22.6769 70.58 22.3687 70.453L22.707 69.8001C23.098 69.9578 23.4463 70.1838 23.7521 70.4781C24.0578 70.7725 24.3087 71.1042 24.5047 71.4734ZM19.5901 73.7344C19.7655 74.0647 20.0097 74.3212 20.3225 74.5038C20.6388 74.6929 20.971 74.7946 21.3191 74.8091C21.6737 74.8201 21.9902 74.7516 22.2687 74.6037L22.4241 74.5212C22.2439 73.9942 21.9973 73.4359 21.6843 72.8466C21.4264 72.3608 21.1362 72.0333 20.8139 71.864C20.498 71.6914 20.1781 71.691 19.8543 71.863C19.5369 72.0315 19.3559 72.277 19.3113 72.5996C19.2668 72.9222 19.3597 73.3005 19.5901 73.7344ZM23.6954 77.1731C23.1883 77.5005 22.8694 77.9397 22.7386 78.4907C22.6142 79.0384 22.7034 79.5972 23.006 80.1671C23.3534 80.8213 23.844 81.2292 24.4778 81.3908L24.298 82.0841C23.8819 81.9729 23.5033 81.7837 23.1621 81.5165C22.8309 81.2523 22.5518 80.9065 22.3248 80.4791C22.0462 79.9544 21.9117 79.4197 21.9213 78.8749C21.9309 78.3301 22.0793 77.8278 22.3666 77.3681C22.6573 76.9148 23.0617 76.5506 23.5799 76.2754C24.098 76.0003 24.6196 75.8645 25.1445 75.868C25.6794 75.8746 26.1718 76.02 26.6216 76.3042C27.0715 76.5884 27.4357 76.9928 27.7143 77.5175C27.9688 77.9967 28.0872 78.4777 28.0695 78.9604C28.0518 79.4431 27.902 79.888 27.62 80.2951C27.3414 80.7087 26.9528 81.048 26.4541 81.3128C26.3569 81.3644 26.2061 81.4321 26.0014 81.5158L23.6954 77.1731ZM27.0537 77.8683C26.7716 77.3372 26.3823 76.9793 25.8857 76.7946C25.3925 76.6165 24.8746 76.6341 24.332 76.8475L26.2718 80.5004C26.7883 80.1597 27.1098 79.7565 27.2362 79.2908C27.3724 78.8282 27.3116 78.354 27.0537 77.8683ZM29.1134 80.3633L31.4969 84.8517L30.8265 85.2077L29.8257 83.323L25.2401 85.758L24.8532 85.0294L29.4387 82.5943L28.4431 80.7193L29.1134 80.3633ZM35.0607 91.3519C35.3118 91.8247 35.4239 92.3173 35.3971 92.8297C35.3703 93.3422 35.2049 93.8203 34.9008 94.264C34.6067 94.7108 34.2005 95.0718 33.6824 95.347C33.1578 95.6256 32.628 95.7616 32.0931 95.755C31.5681 95.7515 31.0859 95.6173 30.6464 95.3525C30.2133 95.0843 29.8695 94.7105 29.615 94.2312C29.3777 93.7843 29.2532 93.3232 29.2416 92.8478C29.2334 92.3789 29.3424 91.9432 29.5688 91.5407L26.9165 92.9491L26.5296 92.2204L33.4565 88.5421L33.8434 89.2707L32.8622 89.7918C33.3159 89.8331 33.7365 89.9918 34.1238 90.2677C34.5111 90.5436 34.8234 90.905 35.0607 91.3519ZM30.2383 93.7632C30.4344 94.1324 30.6957 94.4213 31.0223 94.6298C31.3554 94.8348 31.7171 94.9375 32.1075 94.9378C32.5078 94.9411 32.9055 94.8378 33.3006 94.628C33.7022 94.4148 34.0137 94.1414 34.2352 93.808C34.4601 93.4809 34.5808 93.122 34.5975 92.7313C34.6176 92.3469 34.5279 91.9669 34.3284 91.5913C34.1221 91.2027 33.8506 90.9026 33.5141 90.6911C33.1841 90.4761 32.8172 90.3637 32.4134 90.3539C32.0131 90.3506 31.6122 90.4556 31.2106 90.6688C30.8091 90.882 30.4976 91.1554 30.2761 91.4889C30.0581 91.8288 29.9457 92.1957 29.9389 92.5896C29.9322 92.9834 30.032 93.3746 30.2383 93.7632ZM38.0925 97.0612C38.4845 97.7995 38.599 98.4528 38.4358 99.0211C38.2825 99.5924 37.8722 100.055 37.2051 100.409L33.9408 102.143L33.5539 101.414L34.7489 100.78C34.3494 100.809 33.9207 100.721 33.463 100.516C33.0117 100.307 32.6537 99.9535 32.3888 99.4547C32.0931 98.8977 32.0064 98.375 32.129 97.8864C32.2549 97.4044 32.5575 97.0361 33.0368 96.7816C33.5291 96.5202 34.0252 96.4851 34.5253 96.6762C35.0288 96.8738 35.4525 97.2965 35.7964 97.9442C36.0715 98.4623 36.3506 99.0739 36.6336 99.7788L36.8085 99.6859C37.2748 99.4383 37.5556 99.1148 37.6508 98.7156C37.7559 98.3193 37.6709 97.8621 37.3957 97.344C37.2478 97.0655 37.0464 96.8113 36.7914 96.5813C36.543 96.3479 36.2646 96.1677 35.9564 96.0408L36.2947 95.3879C36.6857 95.5456 37.034 95.7716 37.3398 96.0659C37.6455 96.3603 37.8964 96.692 38.0925 97.0612ZM33.1778 99.3222C33.3533 99.6525 33.5974 99.909 33.9102 100.092C34.2265 100.281 34.5587 100.382 34.9068 100.397C35.2614 100.408 35.5779 100.339 35.8564 100.192L36.0119 100.109C35.8316 99.5819 35.585 99.0237 35.272 98.4343C35.0141 97.9486 34.7239 97.6211 34.4016 97.4518C34.0857 97.2791 33.7658 97.2788 33.442 97.4507C33.1246 97.6193 32.9436 97.8648 32.8991 98.1874C32.8545 98.51 32.9474 98.8883 33.1778 99.3222ZM35.5262 105.363C35.2716 104.884 35.1092 104.413 35.0389 103.953C34.9784 103.495 34.9833 103.09 35.0534 102.737L35.7555 102.675C35.7117 103.031 35.7176 103.401 35.7729 103.787C35.8348 104.169 35.962 104.542 36.1546 104.905C36.3885 105.345 36.6617 105.648 36.9741 105.814C37.2965 105.984 37.6001 105.993 37.8851 105.841C38.1572 105.697 38.3055 105.46 38.3303 105.132C38.3585 104.809 38.2642 104.444 38.0476 104.036L37.4904 102.987L38.0053 102.714L38.5625 103.763C39.0061 104.598 39.5097 104.867 40.0732 104.567C40.3711 104.409 40.5372 104.159 40.5715 103.817C40.6058 103.475 40.5042 103.081 40.2669 102.634C40.1018 102.323 39.895 102.051 39.6466 101.817C39.408 101.587 39.1273 101.379 38.8046 101.193L39.2002 100.672C39.9376 101.044 40.511 101.616 40.9202 102.386C41.2539 103.015 41.3893 103.59 41.3267 104.113C41.2706 104.633 41.0029 105.02 40.5236 105.275C40.2321 105.43 39.9497 105.484 39.6763 105.438C39.4029 105.392 39.1471 105.263 38.9089 105.049C38.9601 105.395 38.9282 105.703 38.8134 105.971C38.7021 106.246 38.4974 106.463 38.1995 106.621C37.8821 106.789 37.5538 106.843 37.2144 106.783C36.8849 106.725 36.5694 106.569 36.2679 106.314C35.9763 106.062 35.7291 105.745 35.5262 105.363ZM41.8042 110.43C41.9462 110.87 41.9608 111.265 41.848 111.615C41.7451 111.969 41.522 112.237 41.1788 112.419C40.7448 112.649 40.3119 112.655 39.8801 112.436C39.4482 112.217 39.0724 111.806 38.7525 111.204L37.3699 108.6L42.6258 105.809L43.9465 108.296C44.2458 108.86 44.3598 109.364 44.2887 109.809C44.2241 110.25 43.9877 110.579 43.5797 110.795C43.2688 110.96 42.9583 111.009 42.6483 110.941C42.3482 110.876 42.0668 110.706 41.8042 110.43ZM42.3521 106.889L40.7297 107.75L41.6583 109.499C41.844 109.849 42.058 110.08 42.3002 110.192C42.5425 110.304 42.7964 110.29 43.0619 110.149C43.3145 110.015 43.4572 109.814 43.4901 109.548C43.5328 109.284 43.4527 108.961 43.2498 108.579L42.3521 106.889ZM39.3977 110.824C39.6109 111.226 39.8438 111.492 40.0964 111.624C40.3524 111.762 40.6131 111.76 40.8787 111.619C41.1313 111.485 41.2721 111.273 41.301 110.984C41.3335 110.701 41.2534 110.378 41.0608 110.016L40.0496 108.111L38.4175 108.978L39.3977 110.824ZM48.2273 116.358L42.9714 119.149L42.5845 118.42L46.694 116.238L40.7376 114.942L40.428 114.359L45.684 111.568L46.0709 112.297L41.9808 114.469L47.9126 115.765L48.2273 116.358ZM48.8073 117.45L51.1907 121.938L50.5204 122.294L49.5196 120.41L44.934 122.845L44.5471 122.116L49.1326 119.681L48.1369 117.806L48.8073 117.45ZM54.1269 127.468L48.871 130.259L48.4841 129.53L52.5936 127.348L46.6372 126.052L46.3276 125.469L51.5836 122.678L51.9705 123.407L47.8804 125.579L53.8122 126.875L54.1269 127.468ZM57.6318 133.857C57.9104 134.381 58.0448 134.916 58.0352 135.461C58.0256 136.006 57.8772 136.508 57.5899 136.968C57.3092 137.424 56.9129 137.788 56.4013 138.06C55.8831 138.335 55.3499 138.464 54.8017 138.448C54.2599 138.429 53.7574 138.272 53.2942 137.978C52.8375 137.681 52.4698 137.27 52.1913 136.746C51.9299 136.254 51.7929 135.753 51.7805 135.245C51.7745 134.734 51.8875 134.258 52.1195 133.82C52.358 133.377 52.6984 133.01 53.1406 132.717L52.3771 131.279L50.0649 132.507L49.678 131.778L54.9339 128.987L55.3208 129.716L53.0475 130.923L53.811 132.361C54.2983 132.169 54.7855 132.101 55.2724 132.158C55.7593 132.215 56.2098 132.391 56.6238 132.686C57.0378 132.981 57.3738 133.371 57.6318 133.857ZM52.8668 136.4C53.0731 136.788 53.3446 137.088 53.6811 137.3C54.0211 137.518 54.3912 137.628 54.7915 137.632C55.1952 137.642 55.5979 137.54 55.9995 137.327C56.401 137.113 56.7108 136.837 56.9288 136.497C57.1503 136.163 57.2627 135.796 57.266 135.396C57.2758 134.992 57.1775 134.596 56.9711 134.208C56.7648 133.819 56.4916 133.516 56.1517 133.298C55.8216 133.083 55.4547 132.97 55.051 132.96C54.6472 132.951 54.2446 133.052 53.843 133.266C53.4414 133.479 53.1316 133.755 52.9136 134.095C52.6956 134.435 52.5817 134.807 52.5719 135.211C52.5621 135.615 52.6604 136.011 52.8668 136.4Z" fill="#303030"/>
<path d="M6.45796 39.8525L3.99921 47.8827M1.20044 42.6252L9.25676 45.1101" stroke="#303030" stroke-width="1.56941" stroke-miterlimit="10"/>
<path d="M43.1274 37.6604C43.0302 37.0744 43.0727 36.5247 43.2552 36.0113C43.4376 35.4978 43.738 35.0689 44.1566 34.7244C44.5836 34.3859 45.0865 34.1686 45.6653 34.0726C46.244 33.9766 46.7829 34.021 47.2819 34.2058C47.7893 34.3966 48.2122 34.7055 48.5507 35.1325C48.8891 35.5596 49.107 36.0661 49.2042 36.652C49.3027 37.2453 49.2607 37.7986 49.0783 38.312C48.8959 38.8255 48.5954 39.2545 48.1768 39.599C47.7655 39.9423 47.274 40.1613 46.7025 40.2562C46.1238 40.3522 45.5771 40.3054 45.0624 40.1158C44.555 39.9249 44.1285 39.6166 43.7828 39.1908C43.4443 38.7638 43.2258 38.2536 43.1274 37.6604ZM43.878 37.547C43.95 37.9811 44.1119 38.3519 44.3636 38.6595C44.6166 38.9744 44.9329 39.2006 45.3125 39.3383C45.6922 39.476 46.1063 39.5077 46.5548 39.4332C47.0033 39.3588 47.385 39.1951 47.6999 38.9422C48.0147 38.6892 48.2374 38.3735 48.3678 37.9951C48.5055 37.6154 48.5384 37.2085 48.4663 36.7745C48.3943 36.3404 48.2318 35.966 47.9789 35.6511C47.7344 35.3423 47.4223 35.1191 47.0426 34.9814C46.6629 34.8437 46.2489 34.812 45.8003 34.8865C45.3518 34.9609 44.9701 35.1246 44.6553 35.3775C44.3404 35.6305 44.1142 35.9468 43.9765 36.3265C43.8388 36.7061 43.8059 37.113 43.878 37.547ZM49.6902 40.1851L50.5221 45.1985L49.7733 45.3228L49.424 43.2176L44.3021 44.0675L44.167 43.2537L49.289 42.4037L48.9414 40.3094L49.6902 40.1851ZM51.5325 51.2878L45.6619 52.2619L45.5268 51.4481L50.7464 50.5819L50.1432 46.9467L44.9236 47.8128L44.7885 46.999L50.6592 46.0248L51.5325 51.2878ZM52.542 57.3711L52.6897 58.2609L46.3958 56.685L45.801 56.5273C45.267 56.4003 44.8651 56.1957 44.5953 55.9134C44.3182 55.6323 44.1382 55.2422 44.0554 54.743C44.023 54.5477 44.0195 54.3475 44.045 54.1426C44.0704 53.9377 44.1163 53.7665 44.1828 53.6291L44.8029 53.805C44.7135 54.0279 44.6947 54.295 44.7463 54.606C44.7967 54.9099 44.9099 55.1438 45.0858 55.3079C45.2629 55.4792 45.5226 55.6108 45.8649 55.7027L46.2608 55.8043L51.6957 52.2709L51.8433 53.1607L47.2552 56.0853L52.542 57.3711ZM46.9146 59.8109L52.7852 58.8368L53.4659 62.9386L52.8148 63.0467L52.2692 59.7587L47.0496 60.6248L46.9146 59.8109ZM54.4854 69.0824L48.6147 70.0566L48.4797 69.2428L53.0699 68.4811L47.835 65.3579L47.727 64.7068L53.5976 63.7326L53.7327 64.5465L49.1642 65.3046L54.3756 68.4205L54.4854 69.0824ZM52.5181 74.8995C52.513 75.3612 52.4012 75.7403 52.1828 76.0367C51.9728 76.3391 51.6761 76.5222 51.2927 76.5858C50.808 76.6662 50.3958 76.5339 50.056 76.1889C49.7163 75.8439 49.4906 75.3349 49.379 74.6621L48.8964 71.7539L54.767 70.7798L55.228 73.5577C55.3325 74.1871 55.2803 74.7013 55.0714 75.1002C54.8698 75.4979 54.5411 75.7345 54.0854 75.8102C53.7381 75.8678 53.4283 75.8151 53.156 75.6522C52.8921 75.4953 52.6794 75.2444 52.5181 74.8995ZM54.1642 71.7161L52.352 72.0168L52.6761 73.9701C52.7409 74.3607 52.8703 74.6477 53.0643 74.8311C53.2583 75.0145 53.5036 75.0816 53.8002 75.0324C54.0823 74.9856 54.2813 74.841 54.3972 74.5988C54.5216 74.3626 54.5483 74.0311 54.4775 73.6042L54.1642 71.7161ZM50.1115 74.5071C50.1859 74.9557 50.3219 75.2825 50.5195 75.4876C50.7182 75.6999 50.9659 75.7814 51.2625 75.7322C51.5447 75.6854 51.7455 75.5294 51.8651 75.2643C51.9858 75.0064 52.0126 74.6749 51.9453 74.2697L51.5924 72.1428L49.7693 72.4454L50.1115 74.5071ZM56.2941 79.3772C56.4309 80.2019 56.3316 80.8577 55.9961 81.3445C55.669 81.8373 55.1329 82.1456 54.3878 82.2692L50.7417 82.8743L50.6066 82.0604L51.9414 81.8389C51.5533 81.7398 51.1749 81.5201 50.8062 81.1799C50.4448 80.8384 50.2178 80.3892 50.1254 79.8322C50.0221 79.21 50.1063 78.6868 50.3779 78.2627C50.6506 77.8457 51.0547 77.5928 51.59 77.504C52.1398 77.4128 52.6214 77.5373 53.0346 77.8776C53.4491 78.2251 53.7164 78.7605 53.8364 79.484C53.9324 80.0627 54.0025 80.7312 54.0466 81.4896L54.2419 81.4572C54.7628 81.3707 55.1318 81.1534 55.3491 80.8051C55.5748 80.4629 55.6396 80.0024 55.5436 79.4237C55.4919 79.1126 55.3818 78.8075 55.2133 78.5084C55.0519 78.2081 54.8454 77.9488 54.5935 77.7304L55.122 77.219C55.4424 77.4929 55.7008 77.818 55.8971 78.1942C56.0933 78.5705 56.2256 78.9648 56.2941 79.3772ZM50.9156 79.9575C50.9768 80.3264 51.1266 80.6472 51.3652 80.9199C51.6049 81.1997 51.8874 81.4019 52.2129 81.5263C52.5455 81.6495 52.8674 81.6853 53.1784 81.6336L53.3521 81.6048C53.3489 81.0479 53.2926 80.4402 53.1834 79.7819C53.0933 79.2393 52.9224 78.8365 52.6707 78.5735C52.4261 78.3093 52.123 78.2072 51.7613 78.2673C51.4068 78.3261 51.1571 78.5013 51.0122 78.793C50.8673 79.0846 50.8351 79.4728 50.9156 79.9575ZM53.7137 84.5233C53.1289 84.6724 52.6868 84.9874 52.3875 85.4682C52.0954 85.9478 52.0022 86.5059 52.1078 87.1425C52.2291 87.8732 52.5645 88.416 53.114 88.7708L52.7229 89.3709C52.3638 89.1331 52.0651 88.8333 51.8266 88.4715C51.5966 88.1157 51.442 87.699 51.3627 87.2216C51.2655 86.6356 51.3081 86.0859 51.4905 85.5724C51.6729 85.059 51.9734 84.63 52.392 84.2855C52.8117 83.9482 53.311 83.7316 53.8898 83.6356C54.4685 83.5395 55.0062 83.5767 55.5027 83.747C56.0078 83.9234 56.4283 84.2178 56.7644 84.6304C57.1004 85.0429 57.3171 85.5422 57.4143 86.1282C57.5032 86.6635 57.4624 87.1572 57.2921 87.6091C57.1218 88.0611 56.8382 88.4353 56.4414 88.7315C56.0457 89.0351 55.5694 89.2331 55.0124 89.3255C54.9038 89.3435 54.7393 89.3597 54.5186 89.374L53.7137 84.5233ZM56.6764 86.2506C56.578 85.6574 56.3227 85.1943 55.9107 84.8613C55.4998 84.5355 55.0032 84.3874 54.4209 84.4172L55.0979 88.4973C55.696 88.3386 56.129 88.0586 56.3969 87.6573C56.6733 87.2621 56.7665 86.7932 56.6764 86.2506ZM57.8355 89.2712L58.6674 94.2846L57.9187 94.4089L57.5694 92.3037L52.4475 93.1536L52.3124 92.3397L57.4343 91.4898L57.0868 89.3955L57.8355 89.2712ZM54.3253 104.47L54.1741 103.559L56.3893 101.05L56.1768 99.7697L53.6158 100.195L53.4808 99.3808L59.3514 98.4066L59.4865 99.2204L56.9038 99.649L57.1181 100.94L60.0177 102.422L60.1672 103.322L56.9115 101.577L54.3253 104.47ZM55.2676 110.149L55.1326 109.335L60.3522 108.469L59.8876 105.669L56.8818 106.101C56.2946 106.191 55.8274 106.198 55.4803 106.122C55.1415 106.052 54.8873 105.908 54.7174 105.691C54.5548 105.472 54.4417 105.172 54.3781 104.788L54.9858 104.687C55.0434 104.99 55.2061 105.186 55.4736 105.275C55.7484 105.364 56.1945 105.364 56.8118 105.276L60.4054 104.758L61.1383 109.175L55.2676 110.149ZM62.2931 116.134L56.4225 117.108L56.2874 116.294L60.8776 115.532L55.6428 112.409L55.5347 111.758L61.4054 110.784L61.5404 111.598L56.9719 112.356L62.1833 115.472L62.2931 116.134ZM59.413 118.869C58.8282 119.018 58.3861 119.333 58.0868 119.814C57.7947 120.293 57.7015 120.851 57.8071 121.488C57.9284 122.219 58.2637 122.761 58.8132 123.116L58.4222 123.716C58.0631 123.479 57.7643 123.179 57.5259 122.817C57.2959 122.461 57.1413 122.044 57.062 121.567C56.9648 120.981 57.0074 120.431 57.1898 119.918C57.3722 119.404 57.6727 118.975 58.0913 118.631C58.511 118.294 59.0103 118.077 59.589 117.981C60.1678 117.885 60.7055 117.922 61.202 118.092C61.707 118.269 62.1276 118.563 62.4637 118.976C62.7997 119.388 63.0164 119.888 63.1136 120.474C63.2024 121.009 63.1617 121.503 62.9914 121.955C62.8211 122.407 62.5375 122.781 62.1407 123.077C61.745 123.38 61.2687 123.578 60.7116 123.671C60.6031 123.689 60.4385 123.705 60.2179 123.719L59.413 118.869ZM62.3757 120.596C62.2773 120.003 62.022 119.54 61.6099 119.207C61.1991 118.881 60.7025 118.733 60.1202 118.763L60.7972 122.843C61.3953 122.684 61.8283 122.404 62.0962 122.003C62.3726 121.608 62.4657 121.139 62.3757 120.596ZM61.9104 129.417L64.4279 128.999L64.563 129.813L58.6923 130.787L58.5573 129.973L61.1833 129.537L60.5801 125.902L57.954 126.338L57.819 125.524L63.6897 124.55L63.8247 125.364L61.3072 125.781L61.9104 129.417ZM64.7658 131.035L65.5977 136.048L64.8489 136.172L64.4996 134.067L59.3777 134.917L59.2426 134.103L64.3645 133.253L64.017 131.159L64.7658 131.035ZM60.2006 140.548C60.1034 139.962 60.146 139.413 60.3284 138.899C60.5108 138.386 60.8113 137.957 61.2299 137.612C61.6569 137.274 62.1598 137.057 62.7385 136.961C63.3173 136.864 63.8561 136.909 64.3551 137.094C64.8625 137.285 65.2855 137.593 65.6239 138.02C65.9624 138.447 66.1802 138.954 66.2775 139.54C66.3759 140.133 66.3339 140.686 66.1515 141.2C65.9691 141.713 65.6686 142.142 65.25 142.487C64.8387 142.83 64.3473 143.049 63.7758 143.144C63.197 143.24 62.6503 143.193 62.1357 143.004C61.6283 142.813 61.2017 142.504 60.856 142.079C60.5175 141.652 60.2991 141.142 60.2006 140.548ZM60.9512 140.435C61.0232 140.869 61.1851 141.24 61.4369 141.547C61.6898 141.862 62.0061 142.089 62.3858 142.226C62.7654 142.364 63.1795 142.396 63.6281 142.321C64.0766 142.247 64.4583 142.083 64.7731 141.83C65.0879 141.577 65.3106 141.261 65.4411 140.883C65.5788 140.503 65.6116 140.096 65.5396 139.662C65.4675 139.228 65.3051 138.854 65.0521 138.539C64.8076 138.23 64.4955 138.007 64.1158 137.869C63.7362 137.732 63.3221 137.7 62.8736 137.774C62.425 137.849 62.0434 138.012 61.7285 138.265C61.4137 138.518 61.1874 138.835 61.0497 139.214C60.912 139.594 60.8792 140.001 60.9512 140.435ZM64.6693 148.126C64.6642 148.588 64.5524 148.967 64.334 149.263C64.124 149.566 63.8273 149.749 63.4439 149.812C62.9592 149.893 62.547 149.76 62.2072 149.415C61.8675 149.07 61.6418 148.561 61.5302 147.889L61.0476 144.98L66.9183 144.006L67.3792 146.784C67.4837 147.414 67.4315 147.928 67.2226 148.327C67.021 148.724 66.6923 148.961 66.2366 149.037C65.8893 149.094 65.5795 149.042 65.3072 148.879C65.0433 148.722 64.8307 148.471 64.6693 148.126ZM66.3154 144.943L64.5032 145.243L64.8273 147.196C64.8922 147.587 65.0216 147.874 65.2155 148.058C65.4095 148.241 65.6548 148.308 65.9514 148.259C66.2335 148.212 66.4326 148.067 66.5485 147.825C66.6728 147.589 66.6996 147.257 66.6287 146.831L66.3154 144.943ZM62.2627 147.734C62.3371 148.182 62.4731 148.509 62.6707 148.714C62.8695 148.926 63.1171 149.008 63.4137 148.959C63.6959 148.912 63.8967 148.756 64.0163 148.491C64.137 148.233 64.1638 147.901 64.0965 147.496L63.7436 145.369L61.9205 145.672L62.2627 147.734Z" fill="#303030"/>
<path d="M46.0078 24.0273L41.0903 30.8543M40.1226 24.9951L46.9756 29.8865" stroke="#303030" stroke-width="1.56941" stroke-miterlimit="10"/>
<path d="M73.5793 61.0216C73.6172 60.4362 73.7832 59.9142 74.0774 59.4555C74.3716 58.9969 74.758 58.6471 75.2366 58.4062C75.7224 58.1657 76.2617 58.0646 76.8545 58.103C77.4472 58.1413 77.9654 58.3108 78.4089 58.6113C78.8597 58.9124 79.2015 59.3093 79.4342 59.802C79.6668 60.2947 79.7642 60.8338 79.7264 61.4192C79.698 61.8583 79.5907 62.2665 79.4047 62.644C79.2259 63.0219 78.9695 63.3507 78.6354 63.6304L78.1681 63.0159C78.4325 62.7905 78.6286 62.5423 78.7564 62.2714C78.8841 62.0004 78.9589 61.6966 78.9807 61.3599C79.0086 60.9282 78.9385 60.5342 78.7705 60.1779C78.6025 59.8217 78.3492 59.5334 78.0108 59.3131C77.6723 59.0928 77.2725 58.9677 76.8115 58.9379C76.3431 58.9076 75.927 58.9799 75.5629 59.1548C75.1989 59.3297 74.9106 59.5829 74.6981 59.9145C74.4851 60.2535 74.3644 60.6425 74.336 61.0816C74.3142 61.4182 74.3495 61.7255 74.4417 62.0033C74.5413 62.2817 74.7077 62.5496 74.9409 62.8072L74.4093 63.357C74.1058 63.0508 73.8826 62.6947 73.7399 62.2886C73.604 61.8903 73.5504 61.468 73.5793 61.0216ZM79.2959 68.0759C79.2613 68.6101 79.0981 69.0882 78.8063 69.5103C78.5144 69.9323 78.1226 70.2524 77.6309 70.4704C77.1459 70.6962 76.6108 70.7902 76.0253 70.7524C75.4326 70.714 74.9103 70.5517 74.4585 70.2652C74.0136 69.9866 73.6736 69.6192 73.4386 69.1631C73.2108 68.7075 73.1145 68.2089 73.1495 67.6674C73.1822 67.1624 73.3183 66.7046 73.558 66.2939C73.7972 65.8905 74.1188 65.5769 74.5227 65.3532L71.526 65.1594L71.5793 64.3361L79.4058 64.8423L79.3525 65.6656L78.2439 65.5939C78.6083 65.8673 78.8829 66.2231 79.0677 66.6613C79.2525 67.0994 79.3285 67.571 79.2959 68.0759ZM73.9257 67.5963C73.8987 68.0134 73.9695 68.3965 74.138 68.7454C74.3138 69.0948 74.5677 69.3721 74.8999 69.5773C75.2388 69.7903 75.6315 69.9112 76.0779 69.9401C76.5316 69.9694 76.9402 69.9003 77.3038 69.7328C77.6669 69.5725 77.9581 69.3305 78.1775 69.0067C78.3963 68.6901 78.5195 68.3196 78.547 67.8952C78.5754 67.4561 78.5019 67.0582 78.3266 66.7015C78.1585 66.3453 77.9053 66.057 77.5668 65.8367C77.2278 65.6237 76.8315 65.5025 76.3778 65.4732C75.9241 65.4438 75.5154 65.5129 75.1519 65.6805C74.7878 65.8554 74.4996 66.1086 74.2871 66.4402C74.0745 66.7719 73.9541 67.1572 73.9257 67.5963ZM76.8716 74.5401C76.8191 75.3524 76.5986 75.9775 76.2102 76.4153C75.8214 76.8605 75.3086 77.0625 74.6719 77.0213C74.0499 76.9811 73.5745 76.7188 73.2458 76.2346C72.917 75.7504 72.7786 75.1058 72.8307 74.3008L72.984 71.9298L78.9226 72.3139L78.8693 73.1372L76.9703 73.0143L76.8716 74.5401ZM72.5744 78.2635L78.5129 78.6476L78.4604 79.4599L72.5219 79.0758L72.5744 78.2635ZM73.5017 74.3222C73.4653 74.8857 73.554 75.3323 73.7678 75.6621C73.9816 75.9919 74.3007 76.1706 74.7252 76.198C75.1569 76.226 75.5001 76.0902 75.7546 75.7906C76.0164 75.4916 76.1658 75.0566 76.2027 74.4858L76.3007 72.971L73.6004 72.7964L73.5017 74.3222ZM75.2237 84.6806C75.1139 85.1291 74.919 85.4729 74.6389 85.7119C74.3658 85.9588 74.0353 86.0697 73.6474 86.0446C73.1571 86.0129 72.7857 85.7905 72.5332 85.3773C72.2807 84.9642 72.1764 84.4173 72.2204 83.7368L72.4107 80.7949L78.3492 81.179L78.1674 83.9891C78.1263 84.6258 77.9587 85.1146 77.6648 85.4557C77.3781 85.7972 77.0043 85.9531 76.5433 85.9233C76.192 85.9006 75.9022 85.779 75.674 85.5584C75.4526 85.3457 75.3025 85.0531 75.2237 84.6806ZM77.5495 81.954L75.7164 81.8355L75.5886 83.8113C75.563 84.2065 75.6239 84.5154 75.7712 84.738C75.9184 84.9606 76.1421 85.0817 76.4421 85.1011C76.7275 85.1195 76.9541 85.0239 77.122 84.8143C77.2967 84.6125 77.3981 84.2958 77.426 83.864L77.5495 81.954ZM72.969 83.7521C72.9396 84.2058 72.9979 84.555 73.1437 84.7996C73.2891 85.0515 73.5118 85.1871 73.8119 85.2065C74.0973 85.225 74.3283 85.1187 74.5049 84.8876C74.681 84.6638 74.7823 84.347 74.8088 83.9372L74.948 81.7858L73.1039 81.6665L72.969 83.7521ZM77.8845 89.8986C77.8305 90.7328 77.5849 91.3489 77.1476 91.7469C76.7172 92.1526 76.1251 92.3311 75.3714 92.2823L71.6832 92.0438L71.7364 91.2205L73.0866 91.3078C72.7311 91.1232 72.4124 90.8233 72.1306 90.4083C71.8562 89.9937 71.7372 89.5047 71.7736 88.9412C71.8143 88.3119 72.015 87.8215 72.3758 87.47C72.7361 87.1259 73.187 86.9713 73.7285 87.0064C74.2847 87.0423 74.7254 87.2729 75.0506 87.6981C75.3754 88.1307 75.5141 88.7128 75.4667 89.4446C75.4289 90.03 75.3453 90.697 75.2161 91.4456L75.4137 91.4583C75.9406 91.4924 76.3493 91.3645 76.64 91.0747C76.9375 90.7927 77.1051 90.3589 77.143 89.7735C77.1633 89.4588 77.1254 89.1367 77.0291 88.8071C76.9402 88.478 76.7979 88.1786 76.6022 87.9087L77.2329 87.5306C77.4829 87.8701 77.6607 88.2454 77.7664 88.6564C77.8721 89.0674 77.9114 89.4815 77.8845 89.8986ZM72.5147 89.2427C72.4905 89.6159 72.5637 89.9623 72.734 90.282C72.904 90.6089 73.1333 90.8699 73.4219 91.065C73.7179 91.2605 74.0233 91.3684 74.3379 91.3888L74.5136 91.4001C74.6369 90.857 74.7201 90.2524 74.7631 89.5865C74.7986 89.0376 74.7236 88.6066 74.5381 88.2933C74.36 87.9805 74.0879 87.8122 73.722 87.7886C73.3634 87.7654 73.0805 87.8794 72.8732 88.1305C72.6659 88.3816 72.5464 88.7524 72.5147 89.2427ZM74.2032 94.3245C73.5998 94.3369 73.0978 94.5433 72.6971 94.9436C72.3038 95.3444 72.0863 95.8668 72.0446 96.5107C71.9968 97.2498 72.2002 97.8546 72.6548 98.3249L72.1377 98.8205C71.842 98.5075 71.6191 98.1477 71.469 97.7411C71.3258 97.3424 71.2698 96.9015 71.301 96.4186C71.3394 95.8258 71.5056 95.3001 71.7998 94.8415C72.094 94.3829 72.4841 94.0333 72.9699 93.7928C73.4553 93.5597 73.9907 93.462 74.5762 93.4999C75.1616 93.5378 75.6768 93.696 76.1217 93.9746C76.5735 94.261 76.9162 94.6433 77.1498 95.1214C77.3835 95.5994 77.4811 96.1348 77.4428 96.7276C77.4078 97.2691 77.256 97.7406 76.9875 98.1421C76.7191 98.5436 76.358 98.8436 75.9042 99.0421C75.45 99.2479 74.9411 99.3325 74.3777 99.2961C74.2679 99.289 74.1039 99.2674 73.8858 99.2312L74.2032 94.3245ZM76.6964 96.6793C76.7352 96.0792 76.5917 95.5703 76.266 95.1524C75.9398 94.7418 75.4898 94.4849 74.916 94.3817L74.649 98.509C75.2675 98.4902 75.7528 98.3158 76.1048 97.9858C76.4637 97.6637 76.6609 97.2282 76.6964 96.6793ZM77.1394 99.8842L76.8114 104.956L76.054 104.907L76.1918 102.777L71.0107 102.442L71.0639 101.619L76.245 101.954L76.382 99.8352L77.1394 99.8842ZM70.3139 111.511C70.3517 110.926 70.5178 110.404 70.812 109.945C71.1062 109.486 71.4926 109.137 71.9711 108.896C72.457 108.655 72.9963 108.554 73.589 108.592C74.1818 108.631 74.6999 108.8 75.1434 109.101C75.5943 109.402 75.936 109.799 76.1687 110.291C76.4014 110.784 76.4988 111.323 76.4609 111.909C76.4325 112.348 76.3253 112.756 76.1392 113.133C75.9605 113.511 75.704 113.84 75.37 114.12L74.9027 113.505C75.1671 113.28 75.3632 113.032 75.4909 112.761C75.6187 112.49 75.6934 112.186 75.7152 111.849C75.7431 111.418 75.6731 111.024 75.5051 110.667C75.337 110.311 75.0838 110.023 74.7453 109.803C74.4068 109.582 74.0071 109.457 73.546 109.427C73.0777 109.397 72.6615 109.469 72.2975 109.644C71.9334 109.819 71.6452 110.072 71.4326 110.404C71.2197 110.743 71.099 111.132 71.0706 111.571C71.0488 111.908 71.084 112.215 71.1763 112.493C71.2759 112.771 71.4423 113.039 71.6754 113.297L71.1439 113.846C70.8403 113.54 70.6172 113.184 70.4744 112.778C70.3385 112.38 70.285 111.957 70.3139 111.511ZM70.5509 119.776L70.5161 120.314L68.9903 120.216L69.045 119.37L69.9122 119.427L70.1912 115.113L69.324 115.057L69.3787 114.211L70.9044 114.31L70.8839 114.628C70.8768 114.738 70.9319 114.852 71.0492 114.97C71.1733 115.095 71.3574 115.203 71.6015 115.292C71.8524 115.389 72.1569 115.453 72.515 115.483L76.1084 115.826L75.8308 120.118L70.5509 119.776ZM75.2247 119.263L75.3986 116.574L72.5394 116.301C71.7724 116.229 71.1978 116.023 70.8157 115.682L70.6034 118.964L75.2247 119.263ZM72.3749 122.592C71.7716 122.605 71.2695 122.811 70.8689 123.211C70.4755 123.612 70.258 124.134 70.2164 124.778C70.1686 125.518 70.372 126.122 70.8265 126.593L70.3095 127.088C70.0137 126.775 69.7908 126.415 69.6408 126.009C69.4975 125.61 69.4415 125.169 69.4728 124.686C69.5111 124.093 69.6774 123.568 69.9716 123.109C70.2658 122.651 70.6558 122.301 71.1417 122.06C71.6271 121.827 72.1625 121.73 72.7479 121.768C73.3334 121.805 73.8486 121.964 74.2935 122.242C74.7453 122.529 75.088 122.911 75.3216 123.389C75.5552 123.867 75.6529 124.403 75.6145 124.995C75.5795 125.537 75.4278 126.008 75.1593 126.41C74.8908 126.811 74.5297 127.111 74.076 127.31C73.6218 127.516 73.1129 127.6 72.5494 127.564C72.4397 127.557 72.2757 127.535 72.0576 127.499L72.3749 122.592ZM74.8681 124.947C74.9069 124.347 74.7635 123.838 74.4378 123.42C74.1116 123.009 73.6616 122.753 73.0877 122.649L72.8208 126.777C73.4393 126.758 73.9245 126.583 74.2766 126.254C74.6354 125.931 74.8326 125.496 74.8681 124.947ZM69.012 133.344L69.0653 132.521L74.3452 132.862L74.5283 130.03L71.503 129.768C70.9107 129.723 70.4542 129.623 70.1334 129.47C69.8194 129.325 69.6044 129.127 69.4883 128.877C69.3795 128.628 69.3377 128.309 69.3628 127.921L69.9775 127.961C69.9649 128.269 70.0788 128.497 70.3191 128.645C70.5667 128.793 71.001 128.894 71.6221 128.949L75.2395 129.26L74.9505 133.728L69.012 133.344ZM68.5738 140.12L68.6334 139.198L71.3603 137.258L71.4441 135.963L68.8535 135.795L68.9067 134.972L74.8453 135.356L74.792 136.179L72.1795 136.01L72.095 137.317L74.5826 139.417L74.5236 140.329L71.7493 137.889L68.5738 140.12ZM74.0904 147.028L68.1519 146.644L68.2051 145.821L72.8483 146.121L68.4593 141.891L68.5019 141.232L74.4404 141.616L74.3871 142.44L69.7658 142.141L74.1337 146.358L74.0904 147.028Z" fill="#303030"/>
<path d="M79.4881 48.353L73.1843 53.9244M73.5505 47.9868L79.1219 54.2906" stroke="#303030" stroke-width="1.56941" stroke-miterlimit="10"/>
<path d="M114.523 15.9655L114.386 16.4867L112.908 16.0965L113.124 15.2775L113.964 15.4993L115.067 11.3194L114.227 11.0976L114.443 10.2786L115.921 10.6688L115.84 10.9773C115.812 11.0836 115.844 11.2059 115.937 11.3441C116.034 11.4912 116.194 11.632 116.417 11.7666C116.644 11.9101 116.931 12.0312 117.276 12.13L120.737 13.1571L119.639 17.3158L114.523 15.9655ZM119.209 16.3603L119.897 13.7545L117.143 12.9367C116.404 12.7189 115.88 12.4061 115.571 11.9983L114.731 15.1784L119.209 16.3603ZM115.772 19.0795C115.178 18.9756 114.645 19.0816 114.175 19.3974C113.712 19.7151 113.398 20.186 113.233 20.8099C113.044 21.5261 113.128 22.1586 113.483 22.7076L112.881 23.0946C112.651 22.7305 112.501 22.3345 112.432 21.9067C112.368 21.4879 112.398 21.0445 112.521 20.5765C112.673 20.0022 112.937 19.5182 113.314 19.1247C113.691 18.7312 114.141 18.4631 114.664 18.3206C115.185 18.1851 115.729 18.1922 116.297 18.3419C116.864 18.4916 117.339 18.746 117.722 19.105C118.111 19.4729 118.373 19.9139 118.511 20.428C118.648 20.9421 118.641 21.4863 118.489 22.0606C118.351 22.5853 118.111 23.0189 117.771 23.3613C117.43 23.7037 117.018 23.9287 116.534 24.0362C116.049 24.1508 115.533 24.136 114.988 23.9919C114.881 23.9639 114.724 23.9111 114.517 23.8337L115.772 19.0795ZM117.766 21.8697C117.92 21.2883 117.877 20.7612 117.637 20.2885C117.396 19.8229 117.004 19.4842 116.461 19.2726L115.405 23.2717C116.016 23.3721 116.525 23.2943 116.934 23.0382C117.349 22.791 117.626 22.4015 117.766 21.8697ZM110.978 26.3824C111.116 25.8577 111.316 25.4023 111.577 25.0161C111.844 24.6389 112.122 24.3446 112.413 24.1332L112.971 24.5647C112.697 24.796 112.45 25.072 112.229 25.3928C112.015 25.7156 111.855 26.0755 111.75 26.4725C111.623 26.9547 111.618 27.3628 111.734 27.697C111.856 28.0401 112.073 28.2528 112.385 28.3352C112.683 28.4138 112.952 28.3408 113.194 28.1163C113.433 27.8989 113.612 27.5668 113.73 27.1201L114.033 25.9714L114.596 26.1202L114.293 27.2689C114.052 28.1836 114.24 28.7223 114.856 28.8851C115.183 28.9712 115.474 28.9003 115.732 28.6724C115.989 28.4446 116.182 28.086 116.311 27.5967C116.401 27.2564 116.434 26.9162 116.41 26.5761C116.391 26.245 116.326 25.9018 116.216 25.5464L116.86 25.432C117.149 26.206 117.182 27.0149 116.959 27.8587C116.778 28.5465 116.486 29.0612 116.085 29.4028C115.691 29.7463 115.232 29.8488 114.707 29.7103C114.388 29.6261 114.143 29.4744 113.974 29.2551C113.804 29.0359 113.704 28.7669 113.675 28.4481C113.477 28.7372 113.245 28.9414 112.978 29.0607C112.71 29.187 112.413 29.2071 112.087 29.1211C111.739 29.0294 111.461 28.8461 111.253 28.5712C111.05 28.3053 110.925 27.9764 110.877 27.5844C110.834 27.2014 110.867 26.8007 110.978 26.3824ZM114.504 36.7735L108.75 35.2548L108.96 34.4571L113.459 35.6445L109.965 30.6494L110.134 30.0113L115.888 31.53L115.677 32.3277L111.199 31.1458L114.675 36.1247L114.504 36.7735ZM110.446 42.1465L112.914 42.7978L112.703 43.5955L106.949 42.0768L107.16 41.2791L109.734 41.9585L110.674 38.3954L108.1 37.7161L108.311 36.9184L114.065 38.4371L113.854 39.2348L111.387 38.5835L110.446 42.1465ZM107.592 51.3208C107.046 51.1767 106.593 50.9128 106.231 50.5292C105.87 50.1456 105.626 49.6755 105.5 49.1189C105.379 48.5712 105.396 47.9915 105.549 47.3799L103.741 46.9027L103.949 46.1156L105.757 46.5928C105.927 45.9778 106.2 45.462 106.575 45.0453C106.951 44.6287 107.39 44.3427 107.894 44.1874C108.397 44.0321 108.922 44.0265 109.468 44.1706C110.014 44.3147 110.468 44.5786 110.829 44.9622C111.191 45.3458 111.432 45.8114 111.553 46.3591C111.674 46.9067 111.66 47.4909 111.511 48.1115L113.202 48.5579L112.995 49.3449L111.303 48.8986C111.126 49.5117 110.85 50.0266 110.475 50.4433C110.099 50.8599 109.66 51.1459 109.156 51.3012C108.66 51.4583 108.138 51.4649 107.592 51.3208ZM109.268 44.9711C108.836 44.857 108.423 44.8542 108.03 44.963C107.645 45.0735 107.308 45.2844 107.022 45.5955C106.735 45.9065 106.526 46.2951 106.395 46.7613L110.873 47.9431C110.989 47.4732 111 47.0322 110.904 46.6201C110.808 46.2079 110.619 45.8586 110.338 45.5721C110.058 45.2856 109.701 45.0853 109.268 44.9711ZM106.188 47.5483C106.071 48.0182 106.062 48.4556 106.16 48.8607C106.256 49.2728 106.444 49.6221 106.725 49.9086C107.006 50.1951 107.363 50.3955 107.795 50.5096C108.228 50.6238 108.637 50.6256 109.022 50.515C109.415 50.4063 109.755 50.1964 110.042 49.8853C110.327 49.5813 110.535 49.1962 110.665 48.7301L106.188 47.5483ZM103.544 54.5483C103.695 53.974 103.959 53.4901 104.336 53.0965C104.713 52.703 105.163 52.435 105.686 52.2924C106.215 52.1588 106.762 52.1668 107.33 52.3165C107.897 52.4663 108.37 52.7277 108.749 53.1009C109.134 53.483 109.393 53.9382 109.527 54.4665C109.66 54.9947 109.651 55.546 109.5 56.1204C109.346 56.7018 109.081 57.1893 108.704 57.5828C108.327 57.9763 107.877 58.2443 107.354 58.3869C106.838 58.5314 106.3 58.5297 105.74 58.3818C105.173 58.2321 104.693 57.9652 104.302 57.5812C103.917 57.1991 103.655 56.743 103.514 56.2129C103.38 55.6846 103.39 55.1297 103.544 54.5483ZM104.275 54.7527C104.162 55.1781 104.158 55.5827 104.262 55.9665C104.363 56.3574 104.559 56.6934 104.849 56.9747C105.139 57.256 105.503 57.4547 105.943 57.5707C106.382 57.6867 106.798 57.6939 107.189 57.5923C107.579 57.4907 107.912 57.294 108.186 57.0023C108.467 56.7125 108.664 56.3549 108.777 55.9295C108.889 55.504 108.894 55.0959 108.793 54.705C108.696 54.3231 108.503 53.9915 108.213 53.7102C107.923 53.4289 107.559 53.2303 107.119 53.1142C106.679 52.9982 106.264 52.991 105.873 53.0926C105.482 53.1942 105.146 53.39 104.865 53.6798C104.584 53.9696 104.387 54.3272 104.275 54.7527ZM107.523 63.6089C107.387 64.1266 107.135 64.5644 106.767 64.9225C106.399 65.2805 105.953 65.5193 105.429 65.6387C104.91 65.7671 104.366 65.7564 103.799 65.6067C103.225 65.4551 102.743 65.1954 102.355 64.8274C101.972 64.4684 101.709 64.0425 101.566 63.5497C101.43 63.0588 101.431 62.551 101.57 62.0263C101.699 61.537 101.921 61.1139 102.235 60.7569C102.547 60.407 102.923 60.1611 103.363 60.0192L100.459 59.2529L100.669 58.4552L108.253 60.4567L108.042 61.2544L106.968 60.9709C107.273 61.3093 107.474 61.7112 107.571 62.1768C107.668 62.6423 107.652 63.1197 107.523 63.6089ZM102.345 62.1058C102.239 62.5099 102.234 62.8994 102.333 63.2743C102.438 63.651 102.634 63.9719 102.92 64.2371C103.212 64.5113 103.574 64.7055 104.007 64.8197C104.446 64.9357 104.861 64.9465 105.25 64.8519C105.637 64.7645 105.969 64.583 106.247 64.3073C106.522 64.0388 106.715 63.6989 106.823 63.2876C106.935 62.8622 106.94 62.4576 106.836 62.0738C106.74 61.6919 106.547 61.3603 106.257 61.079C105.965 60.8048 105.6 60.6097 105.16 60.4937C104.72 60.3776 104.306 60.3669 103.917 60.4614C103.526 60.563 103.195 60.7561 102.922 61.0407C102.65 61.3253 102.458 61.6803 102.345 62.1058ZM102.065 69.9349L104.888 73.2056L104.683 73.982L98.929 72.4633L99.1396 71.6656L103.564 72.8334L100.931 69.7493L100.99 69.5259L104.802 68.143L100.378 66.9752L100.588 66.1775L106.342 67.6962L106.137 68.4726L102.065 69.9349ZM102.861 80.8855L97.1069 79.3668L97.3175 78.5691L101.816 79.7565L98.3225 74.7614L98.4909 74.1233L104.245 75.642L104.034 76.4397L99.5567 75.2578L103.032 80.2367L102.861 80.8855ZM101.692 85.7013C101.556 86.2189 101.304 86.6567 100.936 87.0148C100.568 87.3729 100.122 87.6116 99.5979 87.731C99.0786 87.8594 98.5354 87.8488 97.9681 87.6991C97.3938 87.5475 96.9125 87.2877 96.5242 86.9198C96.1411 86.5608 95.8781 86.1349 95.7351 85.6421C95.5992 85.1511 95.6005 84.6433 95.739 84.1186C95.8681 83.6294 96.0898 83.2062 96.4039 82.8493C96.7162 82.4994 97.0921 82.2535 97.5315 82.1116L94.6279 81.3452L94.8385 80.5475L102.422 82.5491L102.211 83.3468L101.137 83.0632C101.442 83.4016 101.643 83.8036 101.74 84.2691C101.837 84.7346 101.821 85.212 101.692 85.7013ZM96.5144 84.1981C96.4077 84.6023 96.4035 84.9918 96.5018 85.3666C96.6071 85.7433 96.803 86.0643 97.0895 86.3295C97.3812 86.6037 97.7433 86.7978 98.1758 86.912C98.6155 87.028 99.0298 87.0388 99.4188 86.9443C99.8059 86.8568 100.138 86.6753 100.416 86.3997C100.691 86.1311 100.884 85.7912 100.992 85.38C101.104 84.9545 101.109 84.5499 101.005 84.1661C100.909 83.7842 100.716 83.4526 100.426 83.1713C100.134 82.8971 99.7686 82.702 99.329 82.586C98.8894 82.47 98.4751 82.4592 98.0861 82.5537C97.6952 82.6554 97.3636 82.8485 97.0913 83.1331C96.819 83.4177 96.6267 83.7727 96.5144 84.1981ZM99.4949 93.6388L99.2647 94.511L94.1704 90.4928L93.6925 90.105C93.2575 89.7703 92.9749 89.4188 92.8445 89.0507C92.707 88.6807 92.7028 88.2511 92.832 87.7618C92.8825 87.5704 92.9614 87.3864 93.0687 87.2099C93.1759 87.0335 93.288 86.8962 93.4049 86.7981L93.8984 87.2128C93.7255 87.3795 93.5988 87.6153 93.5183 87.9202C93.4397 88.218 93.447 88.4778 93.5401 88.6996C93.6314 88.9285 93.8143 89.155 94.0889 89.3791L94.4084 89.6341L100.814 88.6399L100.584 89.5121L95.2002 90.2982L99.4949 93.6388ZM95.8229 94.6629C95.2284 94.5591 94.696 94.6651 94.2259 94.9809C93.7628 95.2986 93.4489 95.7694 93.2842 96.3934C93.0952 97.1095 93.1786 97.7421 93.5342 98.291L92.9315 98.678C92.7015 98.3139 92.5519 97.918 92.4828 97.4902C92.4189 97.0713 92.4487 96.6279 92.5722 96.1599C92.7238 95.5856 92.9881 95.1017 93.365 94.7081C93.7419 94.3146 94.1919 94.0466 94.7149 93.904C95.2361 93.7685 95.7803 93.7756 96.3475 93.9254C96.9148 94.0751 97.3899 94.3294 97.773 94.6884C98.1613 95.0563 98.4241 95.4974 98.5615 96.0114C98.6989 96.5255 98.6917 97.0697 98.5402 97.6441C98.4017 98.1688 98.1621 98.6023 97.8214 98.9447C97.4808 99.2871 97.0687 99.5121 96.5853 99.6196C96.0999 99.7342 95.5843 99.7195 95.0383 99.5754C94.9319 99.5473 94.7752 99.4946 94.5681 99.4172L95.8229 94.6629ZM97.8169 97.4532C97.9704 96.8718 97.9275 96.3447 97.6882 95.872C97.447 95.4063 97.0548 95.0677 96.5115 94.856L95.4559 98.8551C96.0665 98.9556 96.5763 98.8778 96.9852 98.6216C97.3993 98.3745 97.6765 97.985 97.8169 97.4532ZM97.6355 100.684L96.3386 105.597L95.6047 105.404L96.1493 103.34L91.1292 102.015L91.3397 101.218L96.3599 102.543L96.9017 100.49L97.6355 100.684ZM93.9108 114.796L88.1568 113.277L88.3673 112.479L93.4832 113.83L94.4236 110.267L89.3077 108.916L89.5183 108.119L95.2723 109.637L93.9108 114.796ZM86.9006 117.605C87.0522 117.031 87.3164 116.547 87.6933 116.154C88.0702 115.76 88.5202 115.492 89.0433 115.35C89.5715 115.216 90.1193 115.224 90.6865 115.374C91.2538 115.523 91.7271 115.785 92.1064 116.158C92.4909 116.54 92.75 116.995 92.8836 117.524C93.0173 118.052 93.0083 118.603 92.8567 119.178C92.7032 119.759 92.438 120.246 92.0611 120.64C91.6842 121.033 91.2343 121.302 90.7112 121.444C90.1953 121.589 89.6572 121.587 89.097 121.439C88.5298 121.289 88.0504 121.022 87.6587 120.638C87.2742 120.256 87.0115 119.8 86.8708 119.27C86.7372 118.742 86.7471 118.187 86.9006 117.605ZM87.6317 117.81C87.5194 118.235 87.515 118.64 87.6185 119.024C87.7201 119.415 87.9158 119.751 88.2056 120.032C88.4954 120.313 88.8601 120.512 89.2998 120.628C89.7394 120.744 90.1546 120.751 90.5455 120.649C90.9364 120.548 91.2689 120.351 91.5431 120.06C91.8244 119.77 92.0212 119.412 92.1334 118.987C92.2457 118.561 92.2511 118.153 92.1495 117.762C92.0531 117.38 91.86 117.049 91.5701 116.767C91.2803 116.486 90.9156 116.287 90.476 116.171C90.0364 116.055 89.6211 116.048 89.2302 116.15C88.8394 116.251 88.5033 116.447 88.222 116.737C87.9407 117.027 87.7439 117.384 87.6317 117.81ZM84.5392 126.983L84.775 126.09L87.824 124.71L88.1553 123.455L85.6452 122.793L85.8558 121.995L91.6098 123.514L91.3992 124.312L88.8679 123.643L88.5338 124.909L90.5711 127.449L90.3381 128.332L88.0844 125.405L84.5392 126.983ZM88.935 133.648L88.7048 134.52L83.6105 130.502L83.1326 130.114C82.6976 129.78 82.415 129.428 82.2846 129.06C82.1471 128.69 82.1429 128.26 82.2721 127.771C82.3226 127.58 82.4015 127.396 82.5088 127.219C82.616 127.043 82.7281 126.905 82.845 126.807L83.3385 127.222C83.1656 127.389 83.0389 127.625 82.9584 127.929C82.8798 128.227 82.8871 128.487 82.9802 128.709C83.0715 128.938 83.2544 129.164 83.529 129.388L83.8485 129.643L90.2544 128.649L90.0242 129.521L84.6403 130.307L88.935 133.648ZM87.1944 140.243L81.4403 138.724L81.6509 137.927L86.7667 139.277L87.7072 135.714L82.5913 134.364L82.8018 133.566L88.5558 135.085L87.1944 140.243ZM86.2862 144.072C86.0729 144.88 85.7134 145.437 85.2078 145.744C84.7074 146.059 84.092 146.121 83.3617 145.928L79.788 144.985L79.9986 144.187L81.3068 144.532C80.9934 144.283 80.7384 143.927 80.5416 143.466C80.352 143.006 80.3292 142.503 80.4733 141.957C80.6342 141.347 80.9255 140.905 81.3471 140.629C81.7669 140.361 82.2391 140.296 82.7638 140.434C83.3027 140.577 83.6908 140.888 83.9282 141.367C84.1638 141.854 84.188 142.452 84.0008 143.161C83.8511 143.729 83.6409 144.367 83.3701 145.077L83.5616 145.127C84.0721 145.262 84.4978 145.215 84.8388 144.987C85.185 144.767 85.4329 144.374 85.5826 143.806C85.6631 143.501 85.6878 143.178 85.6567 142.836C85.6327 142.496 85.5506 142.175 85.4105 141.872L86.1021 141.623C86.2821 142.004 86.3845 142.406 86.4092 142.83C86.4339 143.254 86.3929 143.668 86.2862 144.072ZM81.1426 142.396C81.0471 142.757 81.0523 143.111 81.1581 143.458C81.2619 143.811 81.4368 144.111 81.6826 144.358C81.9355 144.607 82.2144 144.772 82.5193 144.852L82.6894 144.897C82.9149 144.388 83.1128 143.811 83.2831 143.165C83.4234 142.633 83.4327 142.196 83.3109 141.853C83.1962 141.512 82.9615 141.294 82.607 141.201C82.2596 141.109 81.96 141.166 81.7083 141.373C81.4565 141.58 81.268 141.92 81.1426 142.396ZM85.354 147.216L84.0571 152.129L83.3232 151.936L83.8678 149.872L78.8477 148.547L79.0582 147.75L84.0784 149.075L84.6202 147.022L85.354 147.216ZM80.5506 152.527C79.956 152.423 79.4237 152.529 78.9535 152.845C78.4904 153.162 78.1766 153.633 78.0119 154.257C77.8228 154.973 77.9062 155.606 78.2619 156.155L77.6591 156.542C77.4291 156.178 77.2795 155.782 77.2104 155.354C77.1465 154.935 77.1763 154.492 77.2999 154.024C77.4514 153.449 77.7157 152.966 78.0926 152.572C78.4695 152.178 78.9195 151.91 79.4425 151.768C79.9637 151.632 80.5079 151.64 81.0751 151.789C81.6424 151.939 82.1176 152.193 82.5006 152.552C82.8889 152.92 83.1518 153.361 83.2891 153.875C83.4265 154.389 83.4194 154.934 83.2678 155.508C83.1293 156.033 82.8897 156.466 82.549 156.809C82.2084 157.151 81.7963 157.376 81.3129 157.483C80.8276 157.598 80.3119 157.583 79.7659 157.439C79.6596 157.411 79.5028 157.358 79.2957 157.281L80.5506 152.527ZM82.5445 155.317C82.698 154.736 82.6551 154.209 82.4158 153.736C82.1746 153.27 81.7824 152.932 81.2391 152.72L80.1836 156.719C80.7942 156.819 81.3039 156.742 81.7128 156.485C82.1269 156.238 82.4042 155.849 82.5445 155.317ZM75.1831 162.432L75.3936 161.634L80.5095 162.984L81.2338 160.24L78.3151 159.402C77.7426 159.243 77.3137 159.058 77.0283 158.846C76.7481 158.643 76.5751 158.408 76.5093 158.14C76.4505 157.874 76.4707 157.553 76.5699 157.178L77.1655 157.335C77.094 157.634 77.1619 157.88 77.3693 158.071C77.5838 158.264 77.9905 158.447 78.5895 158.621L82.0797 159.622L80.9371 163.95L75.1831 162.432ZM77.2115 165.178C76.617 165.074 76.0846 165.18 75.6145 165.496C75.1514 165.813 74.8375 166.284 74.6728 166.908C74.4838 167.624 74.5671 168.257 74.9228 168.806L74.3201 169.193C74.0901 168.829 73.9405 168.433 73.8714 168.005C73.8075 167.586 73.8373 167.143 73.9608 166.675C74.1124 166.1 74.3767 165.616 74.7536 165.223C75.1305 164.829 75.5804 164.561 76.1035 164.419C76.6247 164.283 77.1689 164.29 77.7361 164.44C78.3034 164.59 78.7785 164.844 79.1616 165.203C79.5499 165.571 79.8127 166.012 79.9501 166.526C80.0874 167.04 80.0803 167.585 79.9287 168.159C79.7903 168.684 79.5507 169.117 79.21 169.46C78.8694 169.802 78.4573 170.027 77.9738 170.134C77.4885 170.249 76.9729 170.234 76.4269 170.09C76.3205 170.062 76.1638 170.009 75.9567 169.932L77.2115 165.178ZM79.2055 167.968C79.359 167.387 79.316 166.859 79.0768 166.387C78.8356 165.921 78.4434 165.582 77.9 165.371L76.8445 169.37C77.4551 169.47 77.9649 169.393 78.3738 169.136C78.7879 168.889 79.0651 168.5 79.2055 167.968ZM77.3988 177.356L71.6448 175.838L71.8553 175.04L76.3543 176.227L72.8603 171.232L73.0287 170.594L78.7827 172.113L78.5722 172.911L74.0945 171.729L77.57 176.708L77.3988 177.356ZM79.5637 176.87C79.1453 176.759 78.8413 176.546 78.6515 176.231C78.4689 175.917 78.4327 175.551 78.5431 175.133C78.6536 174.714 78.8665 174.41 79.1821 174.221C79.5028 174.04 79.8724 174.005 80.2907 174.115L80.1307 174.721C79.5351 174.564 79.169 174.744 79.0324 175.262C78.965 175.517 78.9889 175.728 79.1042 175.895C79.2246 176.071 79.4302 176.197 79.7209 176.274L79.5637 176.87Z" fill="#303030"/>
<path d="M122.516 2.55274L115.244 6.79015M116.761 1.03564L120.999 8.30724" stroke="#303030" stroke-width="1.56941" stroke-miterlimit="10"/>
<path d="M88.669 187.089H40.8543C38.3694 187.089 36.2769 185.206 36.0415 182.721L28.9268 110.554C28.796 109.194 29.8423 108.043 31.2025 108.043H98.2947C99.6549 108.043 100.701 109.22 100.57 110.554L93.4819 182.721C93.2465 185.206 91.1539 187.089 88.669 187.089Z" fill="#C60635" stroke="#303030" stroke-width="2.09255" stroke-miterlimit="10"/>
<path d="M59.8704 129.361H61.2044C63.8985 129.361 66.0695 131.532 66.0695 134.226V176.653" stroke="white" stroke-width="1.04627" stroke-miterlimit="10" stroke-linecap="round" stroke-linejoin="round"/>
<path d="M42.2144 129.492H43.5483C46.2425 129.492 48.5182 131.663 48.6228 134.331L50.5584 176.653" stroke="white" stroke-width="1.04627" stroke-miterlimit="10" stroke-linecap="round" stroke-linejoin="round"/>
<path d="M87.2825 129.492H85.9485C83.2544 129.492 80.9787 131.663 80.8741 134.331L78.9385 176.652" stroke="white" stroke-width="1.04627" stroke-miterlimit="10" stroke-linecap="round" stroke-linejoin="round"/>
<path d="M36.8 120.729H92.7234" stroke="white" stroke-width="1.04627" stroke-miterlimit="10" stroke-linecap="round" stroke-linejoin="round"/>
</svg>
