<svg width="38" height="38" viewBox="0 0 38 38" fill="none" xmlns="http://www.w3.org/2000/svg">
<path d="M38 5.12696V32.7915C38 35.6068 35.7103 37.8966 32.8951 37.8966H5.23048C2.41522 37.8966 0.125488 35.6068 0.125488 32.7915V5.12696C0.125488 2.3117 2.41522 0.0219727 5.23048 0.0219727H32.8951C35.7103 0.0219727 38 2.3117 38 5.12696Z" fill="#2787F5"/>
<path d="M28.1279 20.1037C27.6774 19.5406 27.8276 19.2779 28.1279 18.7899C28.1279 18.7899 31.8065 13.7224 32.1818 11.9957C32.3695 11.3576 32.1819 10.9072 31.281 10.9072H28.278C27.5273 10.9072 27.1519 11.3201 26.9642 11.733C26.9642 11.733 25.4252 15.374 23.2856 17.7764C22.5724 18.452 22.2722 18.6773 21.8968 18.6773C21.7091 18.6773 21.4088 18.4521 21.4088 17.8139V11.9582C21.4088 11.2074 21.1836 10.8696 20.5454 10.8696H15.8158C15.3278 10.8696 15.0651 11.2075 15.0651 11.5453C15.0651 12.2585 16.1537 12.4086 16.2663 14.4356V18.7899C16.2663 19.7283 16.0786 19.916 15.7032 19.916C14.6897 19.916 12.2123 16.2374 10.7484 12.0333C10.4481 11.2075 10.1478 10.9072 9.39705 10.9072H6.39411C5.53077 10.9072 5.38062 11.3201 5.38062 11.733C5.38062 12.5212 6.3941 16.3875 10.1102 21.5301C12.5877 25.021 16.0786 26.9354 19.2692 26.9354C21.1836 26.9354 21.4088 26.5224 21.4088 25.8092C21.4088 22.4685 21.2211 22.1682 22.1971 22.1682C22.6475 22.1682 23.3982 22.3934 25.2 24.0825C27.227 26.072 27.5648 26.9729 28.7285 26.9729H31.7314C32.5948 26.9729 33.0077 26.56 32.7824 25.7342C32.1819 23.9324 28.3156 20.3664 28.1279 20.1037Z" fill="white"/>
</svg>
