<svg width="13" height="13" viewBox="0 0 13 13" fill="none" xmlns="http://www.w3.org/2000/svg">
<path d="M10.4285 2.61787C9.28566 1.47501 7.76184 0.855957 6.19041 0.855957C4.57137 0.855957 3.04758 1.47501 1.95234 2.61787C0.857102 3.76072 0.19043 5.28451 0.19043 6.85594C0.19043 8.42737 0.809483 9.99881 1.95234 11.094C3.0952 12.2369 4.61899 12.856 6.19041 12.856C7.76184 12.856 9.33328 12.2369 10.4285 11.094C11.5714 9.95119 12.1904 8.42737 12.1904 6.85594C12.1904 5.28451 11.5714 3.76072 10.4285 2.61787ZM10.8095 9.47499H9.04756C9.28565 8.7607 9.42852 8.04641 9.47614 7.23689H11.4761C11.4285 8.04641 11.1904 8.80832 10.8095 9.47499ZM6.19041 12.1417C5.42851 11.7131 4.80947 10.9988 4.3809 10.1417H8.04757C7.57138 10.9988 6.9047 11.7131 6.19041 12.1417ZM4.04756 9.47499C3.80946 8.80832 3.61899 8.04641 3.57137 7.23689H8.76185C8.71424 8.04641 8.57138 8.7607 8.28566 9.47499H4.04756ZM0.857079 7.23689H2.85708C2.9047 7.99879 3.04757 8.7607 3.28567 9.47499H1.52376C1.1428 8.80832 0.904698 8.04641 0.857079 7.23689ZM1.52376 4.33214H3.28567C3.04757 5.04643 2.9047 5.76072 2.85708 6.57024H0.857079C0.904698 5.7131 1.1428 4.99881 1.52376 4.33214ZM6.19041 1.61785C6.95232 2.04642 7.57136 2.76071 7.99993 3.61785H4.33329C4.80948 2.76071 5.42851 2.04642 6.19041 1.61785ZM8.33327 4.33214C8.57137 4.99881 8.76184 5.76072 8.80946 6.57024H3.61901C3.66662 5.76072 3.80948 5.04643 4.0952 4.33214H8.33327ZM11.4761 6.5226H9.47614C9.42852 5.7607 9.28565 4.99882 9.04756 4.28453H10.8095C11.1904 4.99882 11.4285 5.71308 11.4761 6.5226ZM8.76185 3.61785C8.42852 2.90357 7.99996 2.2369 7.42853 1.71309C8.57138 1.99881 9.61899 2.66547 10.3333 3.61785H8.76185ZM4.9047 1.71309C4.38089 2.2369 3.9047 2.85595 3.57137 3.61785H1.99995C2.71423 2.71309 3.71422 1.99881 4.9047 1.71309ZM3.57137 10.1893C3.9047 10.9036 4.33327 11.5702 4.9047 12.094C3.76184 11.8083 2.71423 11.1417 1.99995 10.1893H3.57137ZM7.47613 12.0464C7.99994 11.5226 8.47613 10.9036 8.80946 10.1417H10.3809C9.61898 11.094 8.61899 11.7607 7.47613 12.0464Z" fill="white" stroke="white" stroke-width="0.170266" stroke-miterlimit="10"/>
</svg>
