<svg width="82" height="24" viewBox="0 0 82 24" fill="none" xmlns="http://www.w3.org/2000/svg">
<path d="M77.7406 20.6031C79.314 20.6031 80.4379 20.3034 81.2622 19.704V16.9317C80.4005 17.5311 79.389 17.9057 77.9279 17.9057C75.4927 17.9057 74.4812 16.0325 74.4812 13.0354C74.4812 9.88844 75.7175 8.27749 77.9653 8.27749C79.2766 8.27749 80.5878 8.72706 81.2622 9.17663V6.2919C80.5503 5.8798 79.2766 5.61756 77.5907 5.61756C73.2074 5.61756 70.9596 8.76452 70.9596 13.1478C70.9596 17.9432 73.17 20.6031 77.7406 20.6031ZM56.3861 19.3293V16.557C55.3371 17.2688 53.5388 17.9057 51.8904 17.9057C49.3804 17.9057 48.4437 16.7069 48.2939 14.3092H56.536V12.5109C56.536 7.49074 54.3256 5.58008 50.9164 5.58008C46.7579 5.58008 44.7723 8.76452 44.7723 13.1478C44.7723 18.168 47.2449 20.6031 51.5907 20.6031C53.7636 20.6031 55.3746 20.0037 56.3861 19.3293ZM25.0662 5.84233V11.5369H20.4957V5.84233H17.0864V20.3409H20.4957V14.3092H25.0662V20.3409H28.4755V5.87981H25.0662V5.84233ZM43.9106 17.606H42.4121V5.87981H32.4466V7.11611C32.4466 10.6377 32.2219 15.2083 31.023 17.6435H29.8991V23.6752H33.0461V20.3409H40.6887V23.6377H43.8357L43.9106 17.606ZM67.2881 20.3409H71.1844L65.7146 12.5484L70.5475 5.87981H67.1008L62.268 12.5484V5.87981H58.8587V20.3409H62.268V13.2227L67.2881 20.3409ZM50.8414 8.27749C52.5273 8.27749 53.0518 9.70113 53.0518 11.4994V11.7991H48.2939C48.3688 9.47634 49.193 8.27749 50.8414 8.27749ZM38.9654 17.606H34.1325C35.0691 15.4331 35.3314 11.4994 35.3314 8.98931V8.53974H38.9654V17.606Z" fill="black"/>
<path d="M14.2017 20.341H10.7175V3.07011H9.14404C6.29678 3.07011 4.79823 4.49374 4.79823 6.62918C4.79823 9.02688 5.84722 10.1508 7.9452 11.5744L9.706 12.7733L4.68585 20.341H0.939453L5.47258 13.5975C2.8501 11.7243 1.38901 9.926 1.38901 6.85396C1.38901 2.99517 4.04895 0.410156 9.14404 0.410156H14.2017V20.341Z" fill="#FC3F1D"/>
</svg>
