<svg width="70" height="18" viewBox="0 0 70 18" fill="none" xmlns="http://www.w3.org/2000/svg">
<path d="M0.635743 1.28073H15.1912C15.5258 1.28073 15.7935 1.54843 15.7935 1.88304V4.76066C15.7935 5.12873 15.6262 5.4968 15.325 5.76449L7.1606 12.5905H15.1577C15.4923 12.5905 15.76 12.8582 15.76 13.1928V16.4719C15.76 16.8066 15.4923 17.0742 15.1577 17.0742H0.60229C0.267682 17.0742 0 16.8066 0 16.4719V13.6278C0 13.2597 0.167292 12.8916 0.468439 12.624L8.63288 5.79794H0.635743C0.301135 5.79794 0.0334526 5.53027 0.0334526 5.1622V1.88304C0.0334526 1.54843 0.301135 1.28073 0.635743 1.28073ZM25.9656 0.711914C27.6386 0.711914 29.1443 1.07997 30.4159 1.78264C31.6539 2.48532 32.6912 3.48916 33.3604 4.72721C34.0631 5.96526 34.4312 7.47099 34.4312 9.17749C34.4312 10.8505 34.0631 12.3563 33.3604 13.6278C32.6577 14.8658 31.6539 15.9031 30.4159 16.5723C29.1778 17.2415 27.6721 17.6431 25.9656 17.6431C24.2591 17.6431 22.7868 17.275 21.5153 16.5723C20.2438 15.8696 19.24 14.8658 18.5707 13.6278C17.8681 12.3897 17.5 10.884 17.5 9.17749C17.5 7.50445 17.8681 5.99872 18.5707 4.72721C19.2734 3.48916 20.2772 2.45186 21.5153 1.78264C22.7868 1.07997 24.2925 0.711914 25.9656 0.711914ZM25.9656 5.22912C25.1625 5.22912 24.4598 5.39643 23.8575 5.73103C23.2887 6.03218 22.8203 6.50062 22.4857 7.10292C22.1845 7.67175 21.9838 8.40789 21.9838 9.21095C21.9838 10.014 22.1511 10.7167 22.4857 11.319C22.7868 11.8878 23.2553 12.3563 23.8575 12.6909C24.4264 12.992 25.1625 13.1928 25.9656 13.1928C26.7686 13.1928 27.4713 13.0255 28.0736 12.6909C28.6424 12.3897 29.1109 11.9213 29.4455 11.319C29.7467 10.7501 29.9474 10.014 29.9474 9.21095C29.9474 8.40789 29.7801 7.70521 29.4455 7.10292C29.1444 6.53409 28.6759 6.06564 28.0736 5.73103C27.4713 5.39643 26.7686 5.22912 25.9656 5.22912ZM44.0344 0.711914C45.7074 0.711914 47.2132 1.07997 48.4847 1.78264C49.7227 2.48532 50.76 3.48916 51.4293 4.72721C52.1319 5.96526 52.5 7.47099 52.5 9.17749C52.5 10.8505 52.1319 12.3563 51.4293 13.6278C50.7266 14.8658 49.7227 15.9031 48.4847 16.5723C47.2466 17.2415 45.7409 17.6431 44.0344 17.6431C42.3614 17.6431 40.8556 17.275 39.5841 16.5723C38.3126 15.8696 37.3088 14.8658 36.6396 13.6278C35.9704 12.3897 35.5688 10.884 35.5688 9.17749C35.5688 7.50445 35.9369 5.99872 36.6396 4.72721C37.3423 3.4557 38.3461 2.45186 39.5841 1.78264C40.8556 1.07997 42.3614 0.711914 44.0344 0.711914ZM44.0344 5.22912C43.2313 5.22912 42.5287 5.39643 41.9264 5.73103C41.3575 6.03218 40.8891 6.50062 40.5545 7.10292C40.2199 7.70521 40.0526 8.40789 40.0526 9.21095C40.0526 10.014 40.2199 10.7167 40.5545 11.319C40.8556 11.8878 41.3241 12.3563 41.9264 12.6909C42.4952 12.992 43.2313 13.1928 44.0344 13.1928C44.8375 13.1928 45.5401 13.0255 46.1424 12.6909C46.7113 12.3897 47.1797 11.9213 47.5143 11.319C47.8155 10.7501 48.0163 10.014 48.0163 9.21095C48.0163 8.40789 47.8489 7.70521 47.5143 7.10292C47.1797 6.50062 46.7447 6.06564 46.1424 5.73103C45.5401 5.39643 44.8375 5.22912 44.0344 5.22912ZM70 1.88304V16.4385C70 16.7731 69.7323 17.0408 69.3977 17.0408H66.5201C66.152 17.0408 65.7839 16.8735 65.5162 16.5723L58.6902 8.44135V16.4385C58.6902 16.7731 58.4226 17.0408 58.0545 17.0408H54.8088C54.4742 17.0408 54.2065 16.7731 54.2065 16.4385V1.88304C54.2065 1.54843 54.4742 1.28073 54.8088 1.28073H57.6864C58.0545 1.28073 58.4225 1.44804 58.6902 1.74919L65.5162 9.91363V1.91649C65.5162 1.58189 65.7839 1.3142 66.1185 1.3142H69.3977C69.6988 1.28074 70 1.54843 70 1.88304Z" fill="url(#paint0_linear)"/>
<defs>
<linearGradient id="paint0_linear" x1="54.1359" y1="9.17291" x2="15.2782" y2="9.17291" gradientUnits="userSpaceOnUse">
<stop stop-color="#6339F5"/>
<stop offset="1" stop-color="#3D3F55"/>
</linearGradient>
</defs>
</svg>
