<svg width="205" height="71" viewBox="0 0 245 81" fill="none" xmlns="http://www.w3.org/2000/svg">
<path d="M104.707 42.8018C104.707 54.3018 95.707 62.8018 84.607 62.8018C73.507 62.8018 64.507 54.3018 64.507 42.8018C64.507 31.2018 73.507 22.8018 84.607 22.8018C95.707 22.8018 104.707 31.2018 104.707 42.8018ZM95.907 42.8018C95.907 35.6018 90.707 30.7018 84.607 30.7018C78.507 30.7018 73.307 35.6018 73.307 42.8018C73.307 49.9018 78.507 54.9018 84.607 54.9018C90.707 54.9018 95.907 49.9018 95.907 42.8018Z" fill="#EA4335"/>
<path d="M148.107 42.8018C148.107 54.3018 139.107 62.8018 128.007 62.8018C116.907 62.8018 107.907 54.3018 107.907 42.8018C107.907 31.2018 116.907 22.8018 128.007 22.8018C139.107 22.8018 148.107 31.2018 148.107 42.8018ZM139.307 42.8018C139.307 35.6018 134.107 30.7018 128.007 30.7018C121.907 30.7018 116.707 35.6018 116.707 42.8018C116.707 49.9018 121.907 54.9018 128.007 54.9018C134.107 54.9018 139.307 49.9018 139.307 42.8018Z" fill="#FBBC05"/>
<path d="M189.607 24.0013V60.0013C189.607 74.8013 180.907 80.9014 170.507 80.9014C160.807 80.9014 154.907 74.4013 152.707 69.1013L160.407 65.9014C161.807 69.2014 165.107 73.0013 170.507 73.0013C177.107 73.0013 181.207 68.9013 181.207 61.3013V58.4014H180.907C178.907 60.8014 175.107 63.0013 170.307 63.0013C160.307 63.0013 151.107 54.3013 151.107 43.0013C151.107 31.7013 160.307 22.9014 170.307 22.9014C175.107 22.9014 178.907 25.0014 180.907 27.4014H181.207V24.0013H189.607ZM181.907 42.9014C181.907 35.8014 177.207 30.7014 171.207 30.7014C165.107 30.7014 160.007 35.9014 160.007 42.9014C160.007 49.9014 165.107 55.0013 171.207 55.0013C177.207 54.9013 181.907 49.9014 181.907 42.9014Z" fill="#4285F4"/>
<path d="M203.407 2.90137V61.6013H194.807V2.90137H203.407Z" fill="#34A853"/>
<path d="M236.907 49.4014L243.707 54.0013C241.507 57.3013 236.207 62.9014 227.007 62.9014C215.607 62.9014 207.107 54.1014 207.107 42.9014C207.107 31.0014 215.707 22.9014 226.007 22.9014C236.407 22.9014 241.507 31.2014 243.207 35.7014L244.107 38.0013L217.307 49.1013C219.407 53.1013 222.507 55.2014 227.007 55.2014C231.507 54.9014 234.607 52.7014 236.907 49.4014ZM215.807 42.2014L233.707 34.8013C232.707 32.3013 229.807 30.6013 226.307 30.6013C221.807 30.5013 215.607 34.4014 215.807 42.2014Z" fill="#EA4335"/>
<path d="M32.0069 37.6015V29.1015H60.7069C61.0069 30.6015 61.1069 32.3016 61.1069 34.2016C61.1069 40.6016 59.4069 48.5015 53.7069 54.1015C48.2069 59.8015 41.2069 62.8015 32.0069 62.8015C14.8069 62.8015 0.406921 48.8016 0.406921 31.7016C0.406921 14.6016 14.8069 0.601562 32.0069 0.601562C41.5069 0.601562 48.3069 4.30157 53.3069 9.20157L47.3069 15.2016C43.7069 11.8016 38.7069 9.10156 32.0069 9.10156C19.5069 9.10156 9.70692 19.2016 9.70692 31.7016C9.70692 44.2016 19.5069 54.3015 32.0069 54.3015C40.1069 54.3015 44.8069 51.0015 47.7069 48.1015C50.1069 45.7015 51.7069 42.3015 52.3069 37.6015H32.0069Z" fill="#4285F4"/>
</svg>
