<svg width="314" height="200" viewBox="0 0 494 298" fill="none" xmlns="http://www.w3.org/2000/svg">
<path d="M84.4 66.2001L82.5699 68.5772L84.385 69.9746L86.2112 68.5917L84.4 66.2001ZM146.2 19.4001L148.568 17.5583L146.75 15.2206L144.389 17.0085L146.2 19.4001ZM193.8 80.6L191.432 82.4419L192.358 83.6322L193.865 83.5993L193.8 80.6ZM253.4 79.3L255.647 77.3124L254.725 76.2704L253.335 76.3008L253.4 79.3ZM303.2 135.6L300.953 137.588L302.506 139.344L304.586 138.261L303.2 135.6ZM336.8 118.1L339.277 116.408L337.776 114.209L335.414 115.439L336.8 118.1ZM384.4 187.8L381.923 189.492L383.263 191.455L385.481 190.599L384.4 187.8ZM412.1 177.1L414.657 175.531L413.35 173.401L411.019 174.302L412.1 177.1ZM483.402 297.318C485.013 297.703 486.632 296.71 487.018 295.098L493.301 268.84C493.687 267.228 492.693 265.609 491.082 265.224C489.471 264.838 487.852 265.832 487.466 267.443L481.881 290.784L458.54 285.199C456.928 284.813 455.309 285.807 454.924 287.418C454.538 289.029 455.532 290.648 457.143 291.034L483.402 297.318ZM0.869835 5.67716L82.5699 68.5772L86.2301 63.823L4.53007 0.922934L0.869835 5.67716ZM86.2112 68.5917L148.011 21.7917L144.389 17.0085L82.5889 63.8085L86.2112 68.5917ZM143.832 21.2419L191.432 82.4419L196.168 78.7582L148.568 17.5583L143.832 21.2419ZM193.865 83.5993L253.465 82.2993L253.335 76.3008L193.735 77.6008L193.865 83.5993ZM251.153 81.2877L300.953 137.588L305.447 133.612L255.647 77.3124L251.153 81.2877ZM304.586 138.261L338.186 120.761L335.414 115.439L301.814 132.939L304.586 138.261ZM334.323 119.792L381.923 189.492L386.877 186.108L339.277 116.408L334.323 119.792ZM385.481 190.599L413.181 179.899L411.019 174.302L383.319 185.002L385.481 190.599ZM409.543 178.669L481.543 295.969L486.657 292.831L414.657 175.531L409.543 178.669Z" fill="#C60635"/>
</svg>
