<svg width="105" height="107" viewBox="0 0 155 157" fill="none" xmlns="http://www.w3.org/2000/svg">
<path d="M101.3 89.6033C96.7001 89.6033 93 85.9033 93 81.3033C93 80.2033 93.2 79.2033 93.6 78.2033L93.9 77.4034L86.4 70.3033L85.7 70.5033C82 71.8033 78.1 72.4034 74.1 72.4034C66.2 72.4034 58.4 69.7034 52.1 64.9034L51.4 64.3033L34.1 78.0033L34.3 78.8033C34.5 79.6033 34.7 80.4033 34.7 81.2033C34.7 85.8033 31 89.5033 26.4 89.5033C21.8 89.5033 18.1 85.8033 18.1 81.2033C18.1 76.6033 21.8 72.9034 26.4 72.9034C27.9 72.9034 29.3 73.3033 30.6 74.0033L31.3 74.4034L48 61.2033L47.1 60.2033C42.8 55.4033 39.8 49.5033 38.6 43.1033C38.5 42.5033 38.6 41.9033 38.9 41.4033C39.2 40.9033 39.7001 40.6033 40.3 40.5033C40.4 40.5033 40.6 40.5033 40.7 40.5033C41.8 40.5033 42.7 41.3033 42.9 42.3033C45.8 57.1033 58.9 67.8033 74 67.8033C76.1 67.8033 78.3 67.6033 80.4 67.2033L82.7 66.7033L71.4 56.0033L70.7 56.4034C69.6 56.9034 68.4 57.2033 67.1 57.2033C65.6 57.2033 64.2 56.8033 62.9 56.1033L62.2 55.7033L60.9 56.8033C60.5 57.1033 60 57.3033 59.5 57.3033C58.8 57.3033 58.2001 57.0033 57.8 56.5033C57.4 56.0033 57.3 55.5033 57.3 54.9034C57.4 54.3034 57.7 53.8034 58.1 53.4034L59.4 52.3033L59.2 51.5033C59 50.7033 58.8 49.9033 58.8 49.1033C58.8 44.5033 62.5 40.8033 67.1 40.8033C71.7 40.8033 75.4 44.5033 75.4 49.1033C75.4 50.2033 75.2001 51.2033 74.8 52.2033L74.5 53.0033L87.3 65.1033L88 64.7033C97.7 59.9033 104.3 50.6033 105.5 39.9033L105.6 38.6033H74C73.3 38.6033 72.6 38.2033 72.2 37.6033L54.9 11.3033L53.9 12.2033C53.5 12.5033 53.2001 12.8033 52.8 13.2033C47 18.6033 43.4 25.8033 42.7 33.7033C42.6 34.8033 41.6 35.7033 40.5 35.7033C40.4 35.7033 40.4 35.7033 40.3 35.7033C39.7001 35.6033 39.2001 35.4033 38.8 34.9033C38.4 34.4033 38.2001 33.9033 38.3 33.3033C39.1 24.3033 43.2001 16.0033 49.8 9.90332C56.5 3.70332 65.2 0.40332 74.2 0.40332C94.1 0.40332 110.3 16.6033 110.3 36.5033C110.3 49.3033 103.4 61.3033 92.3 67.7033L90.9 68.5033L97 74.3033L97.7 73.9034C98.8 73.4034 100 73.1033 101.3 73.1033C102.5 73.1033 103.8 73.4034 104.9 73.9034L105.6 74.3033L121.9 59.0033L121.6 58.2033C121.2 57.2033 121 56.2033 121 55.1033C121 50.5033 124.7 46.8033 129.3 46.8033C133.9 46.8033 137.6 50.5033 137.6 55.1033C137.6 59.7033 133.9 63.4034 129.3 63.4034C128.1 63.4034 126.8 63.1033 125.7 62.6033L125 62.2033L108.7 77.4034L109 78.2033C109.4 79.2033 109.6 80.2033 109.6 81.3033C109.6 85.8033 105.8 89.6033 101.3 89.6033ZM98.4 78.8033C97.8 79.5033 97.5 80.4033 97.5 81.3033C97.5 83.4033 99.2001 85.1033 101.3 85.1033C103.4 85.1033 105.1 83.4033 105.1 81.3033C105.1 80.3033 104.7 79.4033 104.1 78.7033C103.4 77.9033 102.4 77.5033 101.3 77.5033C100.3 77.5033 99.4 77.9033 98.7 78.5033L98.4 78.8033ZM26.6 77.5033C24.5 77.5033 22.8 79.2033 22.8 81.3033C22.8 83.4033 24.5 85.1033 26.6 85.1033C28.7 85.1033 30.4 83.4033 30.4 81.3033C30.4 79.2033 28.7 77.5033 26.6 77.5033ZM129.2 51.3033C127.1 51.3033 125.4 53.0033 125.4 55.1033C125.4 57.2033 127.1 58.9034 129.2 58.9034C131.3 58.9034 133 57.2033 133 55.1033C133 53.0033 131.4 51.3033 129.2 51.3033ZM67.2 45.3033C65.1 45.3033 63.4 47.0033 63.4 49.1033C63.4 51.2033 65.1 52.9034 67.2 52.9034C69.3 52.9034 71 51.2033 71 49.1033C71 47.0033 69.4 45.3033 67.2 45.3033ZM74.2 4.70334C69.2 4.70334 64.2001 5.90334 59.8 8.20334L58.6 8.80331L75.4 34.1033H105.8L105.7 32.8033C103.8 16.8033 90.3 4.70334 74.2 4.70334Z" fill="#C60635"/>
<path d="M47.5 156.603C46.3 156.603 45.3 155.603 45.3 154.403C45.3 145.803 52.3 138.703 60.9 138.503H62.1V127.903H16.8C8.00005 127.903 0.900024 120.803 0.900024 112.003V25.9033C0.900024 17.1033 8.00005 10.0033 16.8 10.0033H31.2C32.4 10.0033 33.4 11.0033 33.4 12.2033C33.4 13.4033 32.4 14.4033 31.2 14.4033H16.8C10.5 14.4033 5.30005 19.5033 5.30005 25.9033V100.203H150.6V25.9033C150.6 19.6033 145.5 14.4033 139.1 14.4033H124.7C123.5 14.4033 122.5 13.4033 122.5 12.2033C122.5 11.0033 123.5 10.0033 124.7 10.0033H139.1C147.9 10.0033 155 17.1033 155 25.9033V112.003C155 120.803 147.9 127.903 139.1 127.903H93.8V138.503H95C103.6 138.703 110.6 145.803 110.6 154.403C110.6 155.603 109.6 156.603 108.4 156.603H47.5ZM61.1 142.903C56.3 142.903 51.9 146.003 50.3 150.503L49.7 152.103H106L105.4 150.503C103.8 145.903 99.4 142.903 94.6 142.903H61.1ZM66.4 138.503H89.3V127.903H66.4V138.503ZM5.30005 112.003C5.30005 118.303 10.4 123.503 16.8 123.503H139.2C145.5 123.503 150.7 118.403 150.7 112.003V104.603H5.30005V112.003Z" fill="#C60635"/>
</svg>
