<svg width="113" height="123" viewBox="0 0 163 173" fill="none" xmlns="http://www.w3.org/2000/svg">
<path d="M20.2543 77.8029C19.0543 77.8029 18.0543 76.8029 18.0543 75.6029C18.0543 74.4029 19.0543 73.403 20.2543 73.403H46.1543C47.3543 73.403 48.3543 74.4029 48.3543 75.6029C48.3543 76.8029 47.3543 77.8029 46.1543 77.8029H20.2543Z" fill="#C60635"/>
<path d="M20.2543 94.2029C19.0543 94.2029 18.0543 93.2029 18.0543 92.0029C18.0543 90.8029 19.0543 89.8029 20.2543 89.8029H48.4543C49.6543 89.8029 50.6543 90.8029 50.6543 92.0029C50.6543 93.2029 49.6543 94.2029 48.4543 94.2029H20.2543Z" fill="#C60635"/>
<path d="M62.4543 94.2029C61.8543 94.2029 61.2543 94.0029 60.8543 93.6029C60.4543 93.2029 60.1543 92.6029 60.1543 92.0029C60.1543 91.4029 60.3543 90.803 60.7543 90.403C61.1543 90.003 61.7543 89.7029 62.3543 89.7029C62.9543 89.7029 63.5543 89.903 63.9543 90.403C64.3543 90.803 64.5543 91.4029 64.5543 92.0029C64.5543 92.6029 64.3543 93.2029 63.9543 93.6029C63.6543 93.9029 63.0543 94.2029 62.4543 94.2029Z" fill="#C60635"/>
<path d="M94.3543 72.1029C78.4543 72.1029 65.4543 59.1029 65.4543 43.2029C65.4543 27.3029 78.4543 14.3029 94.3543 14.3029C110.254 14.3029 123.254 27.3029 123.254 43.2029C123.254 59.1029 110.254 72.1029 94.3543 72.1029ZM94.3543 18.8029C80.8543 18.8029 69.9543 29.8029 69.9543 43.2029C69.9543 56.6029 80.9543 67.6029 94.3543 67.6029C107.854 67.6029 118.754 56.6029 118.754 43.2029C118.754 29.8029 107.854 18.8029 94.3543 18.8029Z" fill="#C60635"/>
<path d="M47.1543 172.603C45.9543 172.603 44.9543 171.603 44.9543 170.403C44.9543 161.803 51.9543 154.703 60.5543 154.503H61.7543V143.903H16.4543C7.65428 143.903 0.554291 136.803 0.554291 128.003V41.9029C0.554291 33.1029 7.65428 26.0029 16.4543 26.0029H54.7543L55.0543 25.3029C62.0543 9.90292 77.5543 0.00292969 94.3543 0.00292969C111.154 0.00292969 126.654 9.90292 133.654 25.3029L133.954 26.0029H138.754C147.554 26.0029 154.654 33.1029 154.654 41.9029V88.903L159.154 93.403C163.154 97.503 163.154 104.003 159.154 108.103C158.054 109.203 156.854 110.003 155.454 110.503L154.654 110.803V128.003C154.654 136.803 147.554 143.903 138.754 143.903H93.4543V154.503H94.6543C103.254 154.703 110.254 161.803 110.254 170.403C110.254 171.603 109.254 172.603 108.054 172.603H47.1543ZM60.8543 158.903C56.0543 158.903 51.6543 162.003 50.0543 166.503L49.4543 168.103H105.654L105.054 166.503C103.454 161.903 99.0543 158.903 94.2543 158.903H60.8543ZM66.1543 154.503H89.0543V143.903H66.1543V154.503ZM4.95428 128.003C4.95428 134.303 10.0543 139.503 16.4543 139.503H138.854C145.154 139.503 150.354 134.403 150.354 128.003V120.603H4.95428V128.003ZM16.3543 30.4029C10.0543 30.4029 4.85428 35.5029 4.85428 41.9029V116.203H150.154V111.003L149.254 110.803C147.454 110.403 145.754 109.403 144.354 108.103L116.554 80.3029L115.754 80.8029C109.254 84.6029 101.754 86.6029 94.2543 86.6029C77.8543 86.6029 62.5543 77.0029 55.3543 62.2029L55.0543 61.5029H20.1543C18.9543 61.5029 17.9543 60.5029 17.9543 59.3029C17.9543 58.1029 18.9543 57.1029 20.1543 57.1029H53.2543L52.7543 55.6029C51.5543 51.7029 51.0543 47.6029 51.0543 43.4029C51.0543 39.6029 51.5543 35.8029 52.5543 32.1029L52.9543 30.6029H16.3543V30.4029ZM127.954 70.3029C126.054 72.7029 123.854 74.9029 121.454 76.8029L120.454 77.6029L147.654 104.803C148.754 105.903 150.254 106.503 151.854 106.503C153.454 106.503 154.954 105.903 156.054 104.803C158.354 102.503 158.354 98.703 156.054 96.403L128.854 69.2029L127.954 70.3029ZM136.054 31.9029C137.054 35.6029 137.554 39.4029 137.554 43.2029C137.554 50.8029 135.554 58.2029 131.754 64.7029L131.254 65.5029L150.154 84.403V41.8029C150.154 35.5029 145.054 30.3029 138.654 30.3029H135.554L136.054 31.9029ZM94.3543 4.40292C72.9543 4.40292 55.5543 21.8029 55.5543 43.2029C55.5543 64.6029 72.9543 82.0029 94.3543 82.0029C115.754 82.0029 133.154 64.6029 133.154 43.2029C133.154 21.8029 115.754 4.40292 94.3543 4.40292Z" fill="#C60635"/>
<path d="M106.254 45.4029C105.054 45.4029 104.054 44.4029 104.054 43.2029C104.054 37.8029 99.6543 33.5029 94.3543 33.5029C93.1543 33.5029 92.1543 32.5029 92.1543 31.3029C92.1543 30.1029 93.1543 29.1029 94.3543 29.1029C102.154 29.1029 108.554 35.5029 108.554 43.3029C108.554 44.4029 107.554 45.4029 106.254 45.4029Z" fill="#C60635"/>
</svg>
