<svg width="181" height="99" viewBox="0 0 181 99" fill="none" xmlns="http://www.w3.org/2000/svg">
<path d="M103.8 98.401C100.8 98.401 98.1 97.501 95.7 95.701L96.9 94.301C99.2 96.001 101.5 96.801 103.9 96.801C105.6 96.801 106.8 96.401 107.8 95.701C108.7 94.901 109.2 94.001 109.2 92.901C109.2 91.801 108.7 90.901 107.7 90.301C106.7 89.701 105.4 89.101 103.8 88.501C102.9 88.201 102.2 88.001 101.7 87.801C101.2 87.601 100.6 87.401 99.9 87.001C99.2 86.701 98.6 86.301 98.2 85.901C97.8 85.501 97.5 85.101 97.2 84.601C96.9 84.101 96.7 83.501 96.7 82.801C96.7 81.301 97.3 80.001 98.6 79.001C99.9 78.001 101.6 77.501 103.8 77.501C106.2 77.501 108.3 78.201 110.1 79.601L109 80.901C107.2 79.701 105.5 79.101 103.7 79.101C102.1 79.101 100.9 79.501 100 80.201C99.1 80.901 98.7 81.801 98.7 82.701C98.7 83.301 98.8 83.701 99.1 84.201C99.4 84.601 99.8 85.001 100.4 85.301C101 85.601 101.5 85.901 102 86.101C102.5 86.301 103.1 86.501 104 86.801C106.5 87.701 108.2 88.401 109 88.901C110.5 89.901 111.2 91.201 111.2 92.901C111.2 94.501 110.5 95.801 109.2 96.901C107.9 97.901 106.1 98.401 103.8 98.401Z" fill="white"/>
<path d="M124.5 98.401C121.6 98.401 119.1 97.501 117.2 95.601C115.2 93.701 114.3 91.201 114.3 88.001C114.3 84.901 115.3 82.301 117.2 80.401C119.1 78.501 121.4 77.501 123.9 77.501C126.5 77.501 128.6 78.301 130.1 79.901C131.6 81.501 132.4 83.801 132.4 86.701C132.4 87.401 132.4 87.901 132.3 88.201H116.4C116.5 90.701 117.3 92.801 118.8 94.401C120.3 96.001 122.3 96.801 124.8 96.801C126.9 96.801 128.9 96.201 130.7 95.001L131.5 96.401C129.1 97.801 126.8 98.401 124.5 98.401ZM116.4 86.701H130.5C130.5 84.201 129.9 82.301 128.8 81.001C127.6 79.701 126.1 79.101 124 79.101C122 79.101 120.3 79.801 118.9 81.201C117.4 82.601 116.6 84.401 116.4 86.701Z" fill="white"/>
<path d="M137.5 78.001H139.3L139.5 81.701H139.6C141.3 78.901 143.4 77.501 145.9 77.501C146.8 77.501 147.5 77.601 148.1 77.901L147.6 79.601C147 79.401 146.3 79.301 145.6 79.301C143.1 79.301 141.1 81.001 139.6 84.401V98.001H137.5V78.001Z" fill="white"/>
<path d="M151.1 97.901V78.001H152.9L153.1 81.101H153.2C155.5 78.701 157.8 77.501 160.2 77.501C163.4 77.501 165.5 78.901 166.3 81.601C169.1 78.901 171.6 77.501 173.8 77.501C178.2 77.501 180.4 80.001 180.4 85.101V97.901H178.3V85.401C178.3 81.301 176.7 79.201 173.4 79.201C171.4 79.201 169.2 80.401 166.8 82.901V97.901H164.8V85.401C164.8 83.301 164.4 81.701 163.6 80.701C162.8 79.701 161.5 79.201 159.8 79.201C157.8 79.201 155.6 80.401 153.2 82.901V97.901H151.1Z" fill="white"/>
<path d="M53.3 38.3009C53.3 48.5009 53.3 69.6009 53.3 70.2009H49.6C49.6 70.2009 49.7 50.0009 49.6 40.2009C49.6 37.4009 48.5 34.1009 46.4 31.8009C43.1 28.2009 34.5 27.7009 31.1 32.9009C29.5 35.3009 28.4 37.9009 28.4 40.7009C28.3 49.8009 28.4 70.1009 28.4 70.1009H24.7C24.7 70.1009 24.7 49.8009 24.7 40.5009C24.7 38.3009 24.1 36.1009 23.3 34.1009C22 30.8009 19.3 29.1009 15.8 28.9009C8.2 28.5009 3.8 33.0009 3.7 41.3009C3.6 50.3009 3.7 69.3009 3.7 70.0009H0C0 69.6009 0 40.2009 0 27.0009C0 26.0009 0.799994 25.1009 1.89999 25.1009C2.89999 25.1009 3.8 25.9009 3.8 27.0009V31.6009C6.8 26.6009 11 24.6009 16.2 24.8009C21.4 25.0009 25.5 27.2009 27.7 32.3009C29.9 28.8009 32.6 26.2009 36.6 25.3009C45.2 23.5009 53.3 27.9009 53.3 38.3009ZM63.9 24.3009C64.9 24.3009 65.8 23.5009 65.8 22.4009V18.2009C65.8 17.2009 65 16.3009 63.9 16.3009C62.9 16.3009 62 17.1009 62 18.2009V22.4009C62.1 23.5009 62.9 24.3009 63.9 24.3009ZM128.7 64.5009C129.7 64.5009 130.6 63.7009 130.6 62.6009V58.4009C130.6 57.4009 129.8 56.5009 128.7 56.5009C127.6 56.5009 126.8 57.3009 126.8 58.4009V62.6009C126.8 63.6009 127.7 64.5009 128.7 64.5009ZM70.4 25.6009C65.3 25.6009 61.9 29.1009 61.9 34.1009C61.9 43.2009 61.9 52.3009 61.9 61.4009C61.9 66.9009 65.1 70.2009 70.6 70.2009C76.1 70.3009 88.4 70.2009 88.4 70.2009C88.4 69.0009 88.4 67.8009 88.4 66.6009C87.7 66.6009 76.2 66.6009 71.1 66.6009C67.5 66.6009 66.1 65.2009 66.1 61.5009C66.1 57.7009 66.1 53.9009 66.1 50.1009C66.1 49.6009 66.1 49.1009 66.2 48.4009C73.1 48.4009 79.9 48.4009 86.7 48.4009C86.7 47.2009 86.7 46.2009 86.7 45.0009C79.8 45.0009 73 45.0009 66.1 45.0009C66.1 41.0009 66.1 37.2009 66.1 33.4009C66.1 30.8009 67.7 29.2009 70.3 29.2009C75.8 29.2009 88.4 29.2009 88.4 29.2009V25.5009C88.3 25.6009 75.9 25.6009 70.4 25.6009ZM102.1 63.1009C101.9 61.8009 101.8 60.5009 101.8 59.2009C101.8 48.2009 101.8 16.1009 101.8 2.90088C101.8 1.80088 100.9 0.900879 99.8 0.900879C98.7 0.900879 97.8 1.80088 97.8 2.90088C97.8 15.9009 97.8 47.7009 97.8 58.6009C97.8 60.3009 97.9 62.1009 98 63.8009C98.3 67.4009 100.1 69.6009 103.7 70.4009C105.3 70.7009 106.9 70.7009 108.7 70.7009V67.0009C108.7 67.0009 107 67.0009 106.2 67.0009C103.8 66.9009 102.5 65.5009 102.1 63.1009ZM143 57.9009C142 65.5009 137.1 70.9009 128.5 70.8009C119.9 70.9009 115 65.5009 114 57.9009C113.1 50.6009 112.9 43.3009 114.2 36.1009C115.3 30.3009 118.6 26.6009 124.3 25.3009C124.6 25.2009 125.2 25.0009 126.6 24.9009C126.6 23.6009 126.6 20.3009 126.6 18.2009C126.6 17.7009 126.8 17.2009 127.2 16.9009C127.5 16.6009 128 16.3009 128.5 16.3009C129 16.3009 129.5 16.5009 129.8 16.9009C130.1 17.2009 130.4 17.7009 130.4 18.2009C130.4 20.2009 130.4 23.6009 130.4 24.9009C131.8 25.0009 132.4 25.2009 132.7 25.3009C138.3 26.6009 141.7 30.3009 142.8 36.1009C144.1 43.4009 144 50.6009 143 57.9009ZM139.4 41.0009C139.3 39.5009 139.1 38.0009 138.8 36.5009C137.6 31.6009 133.7 28.6009 128.5 28.6009C123.4 28.6009 119.4 31.5009 118.2 36.5009C117.8 38.0009 117.7 39.5009 117.6 41.0009C117.3 46.8009 116.9 52.7009 118.1 58.5009C119.3 64.2009 123 67.4009 128.4 67.4009C133.8 67.4009 137.6 64.2009 138.7 58.5009C140.1 52.6009 139.7 46.8009 139.4 41.0009ZM180.4 41.5009C180.4 39.6009 180.4 37.6009 180.1 35.7009C179.3 30.8009 176.8 27.2009 171.9 25.7009C166.3 24.0009 159.3 25.1009 155.4 31.0009C155.3 31.1009 155.1 31.5009 155 31.6009V27.5009C155 26.4009 154.1 25.5009 153 25.5009C151.9 25.5009 151 26.4009 151 27.5009V70.3009H154.7C154.7 70.3009 154.7 50.1009 154.7 40.5009C154.7 35.5009 159.4 29.5009 165.8 29.1009C170.5 28.8009 174.7 30.7009 176 35.9009C176.4 37.4009 176.4 39.0009 176.4 40.6009C176.4 49.9009 176.4 70.4009 176.4 70.4009H180.1C180.4 70.1009 180.4 50.4009 180.4 41.5009Z" fill="white"/>
</svg>
