<svg width="500" height="544" viewBox="0 0 724 800" fill="none" xmlns="http://www.w3.org/2000/svg">
<mask id="mask0" style="mask-type:alpha" maskUnits="userSpaceOnUse" x="0" y="0" width="724" height="800">
<rect x="0.303467" y="0.44751" width="722.861" height="798.754" fill="#C4C4C4"/>
</mask>
<g mask="url(#mask0)">
<path d="M551.792 931.742L8.39185 813.042L179.292 30.2416C182.192 17.0416 195.192 8.64161 208.392 11.5416L703.892 119.742C717.092 122.642 725.492 135.642 722.592 148.842L551.792 931.742Z" stroke="white" stroke-width="3" stroke-miterlimit="10"/>
<path d="M684.365 199.601L193.13 92.3035L34.4455 818.801L525.681 926.098L684.365 199.601Z" stroke="white" stroke-width="3" stroke-miterlimit="10"/>
<path d="M518.992 128.242L401.092 102.542C398.592 102.042 396.992 99.5416 397.492 97.0416L398.392 93.0416C398.892 90.5416 401.392 88.9416 403.892 89.4416L521.792 115.142C524.292 115.642 525.892 118.142 525.392 120.642L524.492 124.642C523.992 127.242 521.492 128.842 518.992 128.242Z" stroke="white" stroke-width="3" stroke-miterlimit="10"/>
<path d="M376.592 97.0416C380.292 97.0416 383.292 94.0419 383.292 90.3416C383.292 86.6413 380.292 83.6416 376.592 83.6416C372.892 83.6416 369.892 86.6413 369.892 90.3416C369.892 94.0419 372.892 97.0416 376.592 97.0416Z" stroke="white" stroke-width="3" stroke-miterlimit="10"/>
<path d="M672.892 403.142L667.492 401.942L695.792 272.542L701.192 273.742C705.092 274.642 707.592 278.442 706.692 282.342L681.492 397.642C680.592 401.542 676.792 404.042 672.892 403.142Z" stroke="white" stroke-width="3" stroke-miterlimit="10"/>
<path d="M164.069 453.112L164.619 450.591L178.799 453.688L178.249 456.209L164.069 453.112ZM180.574 468.148L181.116 465.667L193.227 457.83C196.682 455.613 198.631 453.494 199.072 451.472C199.457 449.713 199.203 448.227 198.313 447.014C197.454 445.781 196.263 444.999 194.74 444.666C191.904 444.047 189.559 444.896 187.704 447.215L185.682 445.329C186.921 443.811 188.384 442.782 190.07 442.243C191.762 441.677 193.513 441.592 195.325 441.988C197.531 442.469 199.298 443.639 200.625 445.497C201.984 447.335 202.386 449.527 201.83 452.074C201.48 453.676 200.698 455.115 199.484 456.39C198.27 457.666 196.671 458.94 194.687 460.212L185.097 466.33L198.686 469.298L198.101 471.977L180.574 468.148ZM220.136 473.24C217.762 475.418 214.921 476.145 211.612 475.423C208.303 474.7 206.011 472.851 204.735 469.876C203.491 466.881 203.342 463.217 204.288 458.884C205.235 454.551 206.895 451.296 209.269 449.119C211.675 446.921 214.532 446.183 217.841 446.905C221.149 447.628 223.426 449.487 224.67 452.483C225.946 455.457 226.111 459.111 225.164 463.444C224.218 467.777 222.542 471.042 220.136 473.24ZM207.187 468.473C208.111 470.793 209.781 472.217 212.197 472.744C214.613 473.272 216.711 472.671 218.492 470.942C220.299 469.218 221.604 466.518 222.407 462.842C223.21 459.166 223.15 456.167 222.226 453.847C221.328 451.533 219.672 450.112 217.256 449.584C214.84 449.056 212.728 449.654 210.921 451.378C209.14 453.107 207.849 455.81 207.046 459.486C206.243 463.163 206.29 466.158 207.187 468.473Z" fill="#C60635"/>
<path d="M143.693 546.41L144.243 543.889L158.423 546.986L157.872 549.507L143.693 546.41ZM172.656 546.917C175.229 547.479 177.243 548.717 178.696 550.63C180.181 552.522 180.636 554.782 180.063 557.407C179.489 560.033 178.13 561.91 175.986 563.037C173.873 564.144 171.53 564.416 168.957 563.854C166.882 563.401 165.14 562.498 163.73 561.144C162.325 559.765 161.541 558.066 161.376 556.05L163.993 555.218C164.065 556.774 164.593 558.073 165.577 559.113C166.592 560.133 167.914 560.82 169.542 561.176C171.432 561.589 173.091 561.428 174.516 560.694C175.974 559.94 176.904 558.643 177.305 556.805C177.707 554.967 177.4 553.414 176.383 552.147C175.399 550.859 173.962 550.009 172.071 549.596L164.587 547.961L168.583 534.39L183.354 537.616L182.786 540.216L170.457 537.523L168.008 545.902L172.656 546.917ZM180.699 565.924L181.242 563.442L193.353 555.606C196.808 553.389 198.757 551.27 199.198 549.248C199.583 547.489 199.329 546.003 198.439 544.79C197.58 543.557 196.389 542.774 194.866 542.442C192.03 541.822 189.685 542.672 187.83 544.991L185.808 543.104C187.047 541.587 188.51 540.558 190.196 540.019C191.888 539.453 193.639 539.368 195.451 539.763C197.657 540.245 199.424 541.415 200.751 543.273C202.11 545.111 202.512 547.303 201.955 549.85C201.606 551.452 200.824 552.891 199.61 554.166C198.396 555.442 196.797 556.716 194.813 557.988L185.223 564.106L198.812 567.074L198.227 569.752L180.699 565.924Z" fill="#C60635"/>
<path d="M143.509 645.791L144.059 643.27L158.239 646.368L157.688 648.888L143.509 645.791ZM172.472 646.299C175.046 646.861 177.059 648.098 178.512 650.011C179.997 651.904 180.452 654.163 179.879 656.789C179.305 659.415 177.946 661.292 175.802 662.419C173.689 663.526 171.346 663.798 168.773 663.236C166.698 662.783 164.956 661.879 163.546 660.526C162.141 659.146 161.357 657.448 161.192 655.431L163.809 654.6C163.881 656.156 164.409 657.454 165.393 658.495C166.408 659.514 167.73 660.202 169.358 660.557C171.248 660.97 172.907 660.81 174.332 660.076C175.79 659.321 176.72 658.025 177.122 656.187C177.523 654.349 177.216 652.796 176.199 651.528C175.215 650.241 173.778 649.39 171.887 648.977L164.403 647.342L168.399 633.772L183.17 636.998L182.602 639.598L170.273 636.905L167.824 645.284L172.472 646.299Z" fill="#C60635"/>
<path d="M257.892 457.342L260.992 469.442L272.692 473.842L262.092 480.542L261.492 493.042L251.892 484.942L239.792 488.342L244.492 476.742L237.592 466.242L250.092 467.142L257.892 457.342Z" fill="#C60635"/>
<path d="M304.692 467.542L307.692 479.642L319.392 484.142L308.792 490.742L308.192 503.242L298.592 495.242L286.492 498.542L291.192 486.942L284.292 476.442L296.792 477.342L304.692 467.542Z" stroke="white" stroke-miterlimit="10"/>
<path d="M351.392 477.742L354.392 489.842L366.192 494.342L355.492 500.942L354.992 513.442L345.392 505.442L333.292 508.742L337.992 497.142L331.092 486.642L343.592 487.542L351.392 477.742Z" stroke="white" stroke-miterlimit="10"/>
<path d="M398.192 487.942L401.192 500.142L412.892 504.542L402.292 511.142L401.692 523.642L392.092 515.642L379.992 518.942L384.692 507.342L377.792 496.842L390.292 497.742L398.192 487.942Z" stroke="white" stroke-miterlimit="10"/>
<path d="M444.892 498.142L447.892 510.342L459.692 514.742L448.992 521.342L448.392 533.942L438.792 525.842L426.692 529.142L431.492 517.542L424.492 507.042L437.092 507.942L444.892 498.142Z" stroke="white" stroke-miterlimit="10"/>
<path d="M237.492 550.742L240.492 562.942L252.292 567.342L241.592 574.042L241.092 586.542L231.492 578.442L219.392 581.842L224.092 570.142L217.192 559.742L229.692 560.642L237.492 550.742Z" fill="#C60635"/>
<path d="M284.292 561.042L287.292 573.142L298.992 577.642L288.392 584.242L287.792 596.742L278.192 588.742L266.092 592.042L270.792 580.442L263.892 569.942L276.392 570.842L284.292 561.042Z" stroke="white" stroke-miterlimit="10"/>
<path d="M330.992 571.242L333.992 583.342L345.792 587.842L335.092 594.442L334.592 606.942L324.892 598.942L312.792 602.242L317.592 590.642L310.592 580.142L323.192 581.042L330.992 571.242Z" stroke="white" stroke-miterlimit="10"/>
<path d="M377.692 581.442L380.792 593.642L392.492 598.042L381.892 604.642L381.292 617.142L371.692 609.142L359.592 612.442L364.292 600.842L357.392 590.342L369.892 591.242L377.692 581.442Z" stroke="white" stroke-miterlimit="10"/>
<path d="M424.492 591.642L427.492 603.842L439.192 608.242L428.592 614.842L427.992 627.442L418.392 619.342L406.292 622.642L410.992 611.042L404.092 600.542L416.592 601.442L424.492 591.642Z" stroke="white" stroke-miterlimit="10"/>
<path d="M217.092 644.242L220.092 656.442L231.892 660.842L221.192 667.542L220.692 680.042L210.992 671.942L198.892 675.342L203.692 663.642L196.692 653.242L209.292 654.142L217.092 644.242Z" fill="#C60635"/>
<path d="M263.792 654.542L266.892 666.642L278.592 671.042L267.992 677.742L267.392 690.242L257.792 682.242L245.692 685.542L250.392 673.942L243.492 663.442L255.992 664.342L263.792 654.542Z" fill="#C60635"/>
<path d="M310.592 664.742L313.592 676.842L325.292 681.342L314.692 687.942L314.092 700.442L304.492 692.442L292.392 695.742L297.092 684.142L290.192 673.642L302.692 674.542L310.592 664.742Z" stroke="white" stroke-miterlimit="10"/>
<path d="M357.292 674.942L360.292 687.042L372.092 691.542L361.392 698.142L360.892 710.642L351.292 702.642L339.192 705.942L343.892 694.342L336.992 683.842L349.492 684.742L357.292 674.942Z" stroke="white" stroke-miterlimit="10"/>
<path d="M404.092 685.142L407.092 697.342L418.792 701.742L408.192 708.342L407.592 720.842L397.992 712.842L385.892 716.142L390.592 704.542L383.692 694.042L396.192 694.942L404.092 685.142Z" stroke="white" stroke-miterlimit="10"/>
<path d="M208.778 383.882C204.856 387.417 200.186 388.593 194.767 387.409C189.349 386.226 185.594 383.21 183.503 378.362C181.413 373.515 181.131 367.598 182.656 360.613C184.182 353.628 186.905 348.368 190.826 344.833C194.747 341.298 199.418 340.122 204.836 341.306C210.255 342.489 214.01 345.505 216.101 350.353C218.191 355.2 218.473 361.117 216.948 368.102C215.422 375.088 212.699 380.348 208.778 383.882ZM188.695 375.305C189.986 378.736 192.431 380.844 196.03 381.63C199.628 382.416 202.729 381.519 205.333 378.939C207.979 376.367 209.904 372.33 211.106 366.826C212.308 361.323 212.242 356.851 210.909 353.41C209.627 349.937 207.187 347.807 203.588 347.021C199.99 346.235 196.889 347.133 194.285 349.713C191.681 352.294 189.773 356.357 188.562 361.903C187.36 367.406 187.404 371.874 188.695 375.305ZM252.301 399.683C249.347 399.038 246.828 397.8 244.744 395.969C242.66 394.138 241.198 391.908 240.358 389.279C239.563 386.621 239.484 383.834 240.121 380.916C240.758 377.998 241.985 375.533 243.799 373.522C245.659 371.483 247.917 370.065 250.575 369.27C253.232 368.475 256.038 368.4 258.993 369.045C261.983 369.698 264.521 370.94 266.605 372.771C268.689 374.602 270.151 376.832 270.991 379.461C271.838 382.054 271.947 384.791 271.318 387.672C270.681 390.59 269.429 393.087 267.561 395.163C265.702 397.202 263.439 398.638 260.774 399.47C258.116 400.265 255.292 400.336 252.301 399.683ZM253.181 395.92C255.369 396.398 257.428 396.332 259.357 395.721C261.323 395.119 262.989 394.05 264.357 392.514C265.724 390.978 266.654 389.08 267.148 386.819C267.642 384.557 267.588 382.444 266.985 380.478C266.383 378.512 265.31 376.864 263.766 375.533C262.231 374.166 260.369 373.243 258.18 372.765C255.992 372.287 253.915 372.35 251.949 372.952C250.027 373.526 248.383 374.581 247.016 376.116C245.649 377.652 244.718 379.551 244.224 381.812C243.731 384.073 243.785 386.187 244.387 388.153C244.99 390.119 246.059 391.785 247.594 393.152C249.13 394.519 250.992 395.442 253.181 395.92ZM278.805 373.888L304.081 379.408L303.257 383.183L292.643 380.865L287.003 406.689L282.9 405.792L288.539 379.969L277.98 377.663L278.805 373.888ZM315.676 413.524C312.977 412.935 310.617 412.018 308.596 410.774C306.619 409.502 305.061 408.149 303.922 406.715L305.995 403.786C307.231 405.126 308.689 406.323 310.369 407.378C312.057 408.396 313.923 409.129 315.965 409.575C318.446 410.116 320.523 410.054 322.197 409.388C323.915 408.693 324.95 407.544 325.3 405.939C325.635 404.407 325.205 403.052 324.01 401.874C322.851 400.704 321.123 399.868 318.825 399.366L312.917 398.076L313.55 395.176L319.459 396.466C324.164 397.494 326.863 396.421 327.556 393.248C327.922 391.57 327.498 390.102 326.283 388.843C325.067 387.584 323.201 386.679 320.685 386.13C318.934 385.747 317.196 385.655 315.472 385.851C313.792 386.019 312.06 386.424 310.277 387.067L309.554 383.814C313.428 382.176 317.535 381.831 321.875 382.779C325.413 383.551 328.095 384.92 329.92 386.886C331.753 388.815 332.375 391.129 331.786 393.828C331.427 395.469 330.709 396.745 329.631 397.656C328.553 398.567 327.207 399.133 325.592 399.353C327.106 400.296 328.195 401.431 328.86 402.761C329.561 404.099 329.729 405.607 329.363 407.285C328.972 409.072 328.101 410.525 326.748 411.643C325.44 412.733 323.795 413.444 321.812 413.775C319.873 414.078 317.828 413.994 315.676 413.524ZM352.612 399.924C356.66 400.808 359.638 402.395 361.546 404.684C363.49 406.981 364.115 409.716 363.422 412.889C362.745 415.989 361.062 418.182 358.374 419.467C355.686 420.753 352.336 420.957 348.324 420.081L336.506 417.5L342.971 387.902L347.074 388.798L345.007 398.263L352.612 399.924ZM368.074 424.395L374.539 394.796L378.587 395.681L372.123 425.279L368.074 424.395ZM348.943 416.72C351.752 417.333 354.068 417.228 355.891 416.403C357.714 415.578 358.857 414.108 359.319 411.993C359.789 409.841 359.367 408.01 358.054 406.5C356.748 404.954 354.673 403.871 351.828 403.249L344.278 401.6L341.339 415.059L348.943 416.72ZM404.584 416.434C406.758 417.329 408.34 418.572 409.33 420.164C410.364 421.727 410.67 423.475 410.248 425.409C409.714 427.852 408.311 429.552 406.039 430.508C403.766 431.464 400.934 431.571 397.542 430.83L382.88 427.628L389.344 398.03L403.35 401.089C406.523 401.782 408.856 402.998 410.349 404.738C411.849 406.441 412.348 408.442 411.846 410.74C411.464 412.491 410.631 413.856 409.347 414.837C408.107 415.789 406.52 416.321 404.584 416.434ZM392.635 402.646L390.639 411.783L400.487 413.934C402.457 414.364 404.058 414.293 405.291 413.722C406.524 413.15 407.304 412.117 407.631 410.622C407.941 409.199 407.633 407.985 406.706 406.981C405.824 405.947 404.306 405.195 402.155 404.725L392.635 402.646ZM398.191 427.074C400.452 427.568 402.254 427.541 403.596 426.994C404.975 426.454 405.828 425.437 406.155 423.941C406.465 422.519 406.106 421.275 405.078 420.21C404.086 419.152 402.569 418.401 400.526 417.955L389.803 415.613L387.796 424.804L398.191 427.074ZM431.221 438.759C428.267 438.114 425.748 436.876 423.664 435.045C421.58 433.214 420.118 430.984 419.278 428.355C418.483 425.698 418.404 422.91 419.041 419.992C419.679 417.074 420.905 414.61 422.719 412.599C424.579 410.559 426.837 409.142 429.495 408.346C432.152 407.551 434.958 407.476 437.913 408.121C440.904 408.775 443.441 410.017 445.525 411.847C447.609 413.678 449.071 415.908 449.911 418.537C450.758 421.13 450.867 423.867 450.238 426.748C449.601 429.666 448.349 432.163 446.481 434.239C444.622 436.279 442.359 437.714 439.694 438.546C437.036 439.341 434.212 439.412 431.221 438.759ZM432.101 434.996C434.289 435.474 436.348 435.408 438.277 434.797C440.243 434.195 441.909 433.126 443.277 431.59C444.644 430.055 445.574 428.156 446.068 425.895C446.562 423.633 446.508 421.52 445.905 419.554C445.303 417.588 444.23 415.94 442.686 414.609C441.151 413.242 439.289 412.32 437.1 411.842C434.912 411.364 432.835 411.426 430.869 412.028C428.947 412.602 427.303 413.657 425.936 415.193C424.569 416.728 423.638 418.627 423.145 420.888C422.651 423.15 422.705 425.263 423.307 427.229C423.91 429.195 424.979 430.861 426.514 432.229C428.05 433.596 429.912 434.518 432.101 434.996ZM477.67 432.395C479.843 433.291 481.425 434.534 482.415 436.126C483.449 437.689 483.755 439.437 483.333 441.371C482.799 443.814 481.396 445.514 479.124 446.47C476.852 447.426 474.02 447.533 470.628 446.792L455.965 443.59L462.43 413.992L476.435 417.051C479.609 417.744 481.941 418.96 483.434 420.7C484.934 422.403 485.434 424.404 484.932 426.702C484.549 428.453 483.716 429.818 482.432 430.799C481.192 431.751 479.605 432.283 477.67 432.395ZM465.72 418.608L463.725 427.745L473.573 429.896C475.542 430.326 477.144 430.255 478.377 429.684C479.61 429.112 480.389 428.079 480.716 426.584C481.027 425.161 480.718 423.947 479.792 422.942C478.909 421.909 477.392 421.157 475.24 420.687L465.72 418.608ZM471.276 443.036C473.537 443.53 475.339 443.503 476.682 442.956C478.061 442.416 478.913 441.399 479.24 439.903C479.551 438.481 479.192 437.237 478.163 436.172C477.171 435.114 475.654 434.363 473.612 433.917L462.888 431.575L460.881 440.766L471.276 443.036Z" fill="white"/>
</g>
</svg>
