<svg width="386" height="316" viewBox="0 0 536 456" fill="none" xmlns="http://www.w3.org/2000/svg">
<mask id="mask0" style="mask-type:alpha" maskUnits="userSpaceOnUse" x="0" y="0" width="536" height="457">
<rect x="0.488525" y="0.625977" width="535.187" height="455.376" fill="#C4C4C4"/>
</mask>
<g mask="url(#mask0)">
<path d="M408.796 690.131L6.47693 602.249L133.007 22.685C135.154 12.9121 144.779 6.69298 154.551 8.84006L521.406 88.9484C531.179 91.0955 537.398 100.72 535.251 110.493L408.796 690.131Z" stroke="white" stroke-width="2.22112" stroke-miterlimit="10"/>
<path d="M506.949 148.074L143.252 68.6338L25.7664 606.513L389.464 685.953L506.949 148.074Z" stroke="white" stroke-width="2.22112" stroke-miterlimit="10"/>
<path d="M384.511 95.2424L297.221 76.2148C295.371 75.8446 294.186 73.9937 294.556 72.1428L295.222 69.1813C295.593 67.3303 297.443 66.1457 299.294 66.5159L386.584 85.5435C388.435 85.9137 389.62 87.7646 389.25 89.6156L388.583 92.5771C388.213 94.502 386.362 95.6866 384.511 95.2424Z" stroke="white" stroke-width="2.22112" stroke-miterlimit="10"/>
<path d="M279.082 72.1427C281.822 72.1427 284.043 69.9218 284.043 67.1822C284.043 64.4426 281.822 62.2217 279.082 62.2217C276.343 62.2217 274.122 64.4426 274.122 67.1822C274.122 69.9218 276.343 72.1427 279.082 72.1427Z" stroke="white" stroke-width="2.22112" stroke-miterlimit="10"/>
<path d="M498.455 298.77L494.457 297.881L515.409 202.077L519.407 202.966C522.295 203.632 524.146 206.445 523.479 209.333L504.822 294.698C504.156 297.585 501.342 299.436 498.455 298.77Z" stroke="white" stroke-width="2.22112" stroke-miterlimit="10"/>
<path d="M163.082 229.138C164.006 229.849 164.674 230.707 165.086 231.714C165.521 232.705 165.618 233.755 165.376 234.863C164.972 236.71 164.005 238.016 162.473 238.782C160.945 239.527 159.209 239.688 157.265 239.263C155.321 238.839 153.81 237.969 152.733 236.654C151.659 235.32 151.325 233.729 151.728 231.882C151.97 230.774 152.486 229.858 153.275 229.134C154.089 228.395 155.063 227.895 156.2 227.634C154.617 226.209 154.046 224.485 154.488 222.463C154.887 220.636 155.796 219.368 157.213 218.659C158.65 217.954 160.205 217.785 161.877 218.15C163.549 218.515 164.881 219.315 165.874 220.551C166.887 221.79 167.194 223.324 166.794 225.151C166.353 227.173 165.115 228.502 163.082 229.138ZM164.162 221.674C163.516 220.901 162.61 220.388 161.444 220.133C160.277 219.878 159.23 219.965 158.301 220.394C157.392 220.827 156.801 221.665 156.529 222.909C156.274 224.076 156.476 225.067 157.133 225.883C157.809 226.702 158.711 227.236 159.839 227.482C160.966 227.728 161.999 227.618 162.936 227.15C163.892 226.687 164.498 225.872 164.753 224.706C165.025 223.461 164.828 222.451 164.162 221.674ZM154.445 235.531C155.175 236.383 156.26 236.966 157.698 237.28C159.137 237.595 160.366 237.517 161.385 237.047C162.409 236.558 163.058 235.681 163.334 234.417C163.611 233.154 163.383 232.096 162.653 231.244C161.927 230.372 160.844 229.779 159.405 229.465C157.967 229.151 156.736 229.238 155.712 229.728C154.693 230.198 154.045 231.064 153.769 232.328C153.493 233.592 153.718 234.659 154.445 235.531ZM180.748 241.398C178.991 243.011 176.887 243.549 174.437 243.014C171.988 242.479 170.291 241.11 169.346 238.908C168.425 236.69 168.315 233.977 169.015 230.77C169.716 227.562 170.945 225.152 172.703 223.539C174.484 221.912 176.599 221.366 179.049 221.901C181.499 222.436 183.184 223.812 184.105 226.03C185.05 228.232 185.172 230.938 184.471 234.145C183.771 237.353 182.53 239.771 180.748 241.398ZM171.162 237.868C171.846 239.586 173.082 240.641 174.871 241.031C176.659 241.422 178.213 240.977 179.531 239.697C180.869 238.42 181.835 236.421 182.43 233.7C183.024 230.978 182.98 228.758 182.296 227.04C181.631 225.327 180.405 224.275 178.616 223.884C176.827 223.493 175.264 223.936 173.926 225.212C172.608 226.493 171.651 228.494 171.057 231.215C170.462 233.937 170.497 236.155 171.162 237.868Z" fill="#19E86E"/>
<path d="M143.646 294.543C145.649 294.981 147.154 295.971 148.161 297.515C149.172 299.04 149.461 300.794 149.028 302.777C148.595 304.76 147.599 306.243 146.04 307.226C144.485 308.19 142.706 308.454 140.704 308.016C138.701 307.579 137.194 306.598 136.183 305.073C135.176 303.529 134.889 301.766 135.322 299.783C135.657 298.247 136.373 296.977 137.468 295.974L146.318 287.489L148.622 287.992L141.975 294.362C142.526 294.36 143.083 294.42 143.646 294.543ZM137.924 303.957C138.627 305.027 139.698 305.719 141.137 306.033C142.575 306.348 143.828 306.163 144.894 305.479C145.979 304.799 146.677 303.75 146.987 302.331C147.297 300.912 147.1 299.667 146.397 298.597C145.713 297.531 144.652 296.841 143.213 296.526C141.775 296.212 140.513 296.395 139.427 297.074C138.361 297.758 137.673 298.81 137.363 300.229C137.053 301.648 137.24 302.891 137.924 303.957ZM166.298 306.946L165.878 308.871L163.253 308.298L162.361 312.38L160.32 311.934L161.212 307.852L150.422 305.495L150.842 303.57L161.571 290.82L163.816 291.311L153.088 304.061L161.632 305.927L162.995 299.686L165.037 300.132L163.673 306.373L166.298 306.946Z" fill="#19E86E"/>
<path d="M121.001 376.956L121.402 375.119L130.369 369.317C132.927 367.676 134.37 366.107 134.697 364.61C134.981 363.307 134.794 362.207 134.134 361.309C133.498 360.396 132.617 359.817 131.489 359.57C129.39 359.112 127.653 359.741 126.28 361.457L124.783 360.061C125.7 358.937 126.783 358.176 128.031 357.776C129.284 357.357 130.581 357.294 131.922 357.587C133.555 357.944 134.863 358.81 135.846 360.186C136.853 361.546 137.15 363.17 136.738 365.055C136.479 366.241 135.9 367.306 135.001 368.251C134.102 369.195 132.919 370.138 131.45 371.08L124.35 375.61L134.411 377.807L133.978 379.79L121.001 376.956ZM150.291 380.726C148.534 382.338 146.43 382.877 143.981 382.342C141.531 381.807 139.834 380.438 138.889 378.236C137.968 376.018 137.858 373.305 138.558 370.097C139.259 366.889 140.488 364.479 142.246 362.867C144.027 361.24 146.143 360.693 148.592 361.228C151.042 361.764 152.727 363.14 153.648 365.358C154.593 367.56 154.715 370.265 154.014 373.473C153.314 376.681 152.073 379.099 150.291 380.726ZM140.705 377.196C141.389 378.914 142.625 379.968 144.414 380.359C146.202 380.75 147.756 380.305 149.074 379.024C150.412 377.748 151.378 375.749 151.973 373.027C152.567 370.305 152.523 368.086 151.839 366.368C151.174 364.654 149.948 363.602 148.159 363.211C146.37 362.821 144.807 363.264 143.469 364.54C142.151 365.82 141.194 367.821 140.6 370.543C140.005 373.265 140.04 375.483 140.705 377.196Z" fill="#19E86E"/>
<path d="M208.2 228.899L210.495 237.858L219.158 241.116L211.31 246.076L210.865 255.331L203.758 249.334L194.799 251.851L198.279 243.263L193.17 235.489L202.425 236.155L208.2 228.899Z" fill="white"/>
<path d="M242.849 236.45L245.071 245.409L253.733 248.74L245.885 253.627L245.441 262.882L238.333 256.959L229.375 259.402L232.854 250.813L227.746 243.04L237.001 243.706L242.849 236.45Z" fill="white"/>
<path d="M277.425 244.003L279.646 252.961L288.382 256.293L280.46 261.18L280.09 270.434L272.983 264.511L264.024 266.954L267.504 258.366L262.395 250.592L271.65 251.259L277.425 244.003Z" fill="white"/>
<path d="M312.074 251.554L314.295 260.586L322.958 263.844L315.11 268.73L314.666 277.985L307.558 272.062L298.599 274.505L302.079 265.917L296.971 258.143L306.225 258.809L312.074 251.554Z" fill="white"/>
<path d="M346.65 259.105L348.871 268.138L357.607 271.396L349.685 276.282L349.241 285.611L342.134 279.614L333.175 282.057L336.729 273.469L331.546 265.695L340.875 266.361L346.65 259.105Z" fill="white"/>
<path d="M193.096 298.049L195.318 307.081L204.054 310.339L196.132 315.3L195.762 324.554L188.654 318.557L179.696 321.074L183.175 312.412L178.067 304.712L187.322 305.378L193.096 298.049Z" fill="white"/>
<path d="M227.746 305.674L229.967 314.632L238.629 317.964L230.781 322.85L230.337 332.105L223.23 326.182L214.271 328.625L217.751 320.037L212.642 312.263L221.897 312.929L227.746 305.674Z" fill="white"/>
<path d="M262.321 313.227L264.542 322.185L273.279 325.517L265.357 330.403L264.987 339.658L257.805 333.735L248.847 336.178L252.4 327.59L247.218 319.816L256.546 320.482L262.321 313.227Z" fill="white"/>
<path d="M296.897 320.778L299.192 329.811L307.854 333.068L300.006 337.955L299.562 347.21L292.454 341.287L283.496 343.73L286.976 335.142L281.867 327.368L291.122 328.034L296.897 320.778Z" fill="white"/>
<path d="M331.546 328.33L333.767 337.363L342.43 340.62L334.582 345.507L334.137 354.835L327.03 348.838L318.071 351.282L321.551 342.693L316.443 334.919L325.697 335.586L331.546 328.33Z" fill="white"/>
<path d="M177.993 367.273L180.214 376.306L188.95 379.564L181.028 384.524L180.658 393.779L173.476 387.782L164.518 390.299L168.072 381.637L162.889 373.937L172.218 374.603L177.993 367.273Z" fill="white"/>
<path d="M212.568 374.898L214.863 383.857L223.526 387.115L215.678 392.075L215.234 401.33L208.126 395.407L199.167 397.85L202.647 389.262L197.539 381.488L206.793 382.154L212.568 374.898Z" fill="white"/>
<path d="M247.218 382.45L249.439 391.409L258.101 394.74L250.253 399.627L249.809 408.882L242.701 402.959L233.743 405.402L237.223 396.813L232.114 389.039L241.369 389.706L247.218 382.45Z" fill="white"/>
<path d="M281.793 390.002L284.014 398.96L292.751 402.292L284.829 407.179L284.458 416.433L277.351 410.51L268.392 412.954L271.872 404.365L266.763 396.591L276.018 397.258L281.793 390.002Z" fill="white"/>
<path d="M316.443 397.554L318.664 406.586L327.326 409.844L319.478 414.73L319.034 423.985L311.926 418.062L302.968 420.505L306.448 411.917L301.339 404.143L310.594 404.809L316.443 397.554Z" stroke="white" stroke-width="0.740373" stroke-miterlimit="10"/>
<path d="M163.32 142.239L167.081 143.06L159.893 175.972L155.568 175.027L161.729 146.817L154.271 147.356L154.012 143.359L163.32 142.239ZM190.511 178.422C187.608 181.039 184.151 181.91 180.138 181.034C176.126 180.157 173.347 177.925 171.799 174.336C170.251 170.747 170.042 166.366 171.172 161.194C172.301 156.023 174.317 152.128 177.221 149.511C180.124 146.894 183.581 146.024 187.593 146.9C191.605 147.776 194.385 150.009 195.933 153.598C197.481 157.187 197.69 161.567 196.56 166.739C195.431 171.911 193.414 175.805 190.511 178.422ZM175.643 172.072C176.599 174.612 178.409 176.173 181.073 176.755C183.737 177.337 186.033 176.673 187.961 174.762C189.92 172.858 191.345 169.869 192.235 165.795C193.125 161.72 193.076 158.409 192.089 155.862C191.14 153.29 189.333 151.713 186.669 151.131C184.005 150.55 181.709 151.214 179.781 153.124C177.853 155.035 176.441 158.043 175.544 162.149C174.654 166.224 174.687 169.532 175.643 172.072ZM222.006 185.301C219.103 187.918 215.646 188.788 211.634 187.912C207.622 187.036 204.842 184.803 203.294 181.214C201.746 177.625 201.537 173.245 202.667 168.073C203.796 162.901 205.813 159.007 208.716 156.39C211.619 153.773 215.076 152.902 219.088 153.779C223.101 154.655 225.88 156.887 227.428 160.477C228.976 164.066 229.185 168.446 228.055 173.618C226.926 178.79 224.91 182.684 222.006 185.301ZM207.138 178.95C208.094 181.491 209.904 183.052 212.568 183.634C215.232 184.216 217.528 183.551 219.456 181.641C221.415 179.737 222.84 176.748 223.73 172.673C224.62 168.598 224.571 165.287 223.584 162.74C222.635 160.169 220.829 158.592 218.164 158.01C215.5 157.428 213.204 158.092 211.276 160.003C209.348 161.914 207.936 164.922 207.039 169.028C206.149 173.103 206.182 176.41 207.138 178.95ZM253.502 192.18C250.598 194.797 247.141 195.667 243.129 194.791C239.117 193.915 236.337 191.682 234.789 188.093C233.242 184.504 233.032 180.123 234.162 174.951C235.291 169.78 237.308 165.885 240.211 163.268C243.114 160.651 246.572 159.781 250.584 160.657C254.596 161.533 257.376 163.766 258.923 167.355C260.471 170.944 260.68 175.325 259.551 180.496C258.421 185.668 256.405 189.563 253.502 192.18ZM238.633 185.829C239.589 188.369 241.399 189.93 244.063 190.512C246.728 191.094 249.024 190.43 250.951 188.519C252.911 186.616 254.335 183.626 255.225 179.552C256.115 175.477 256.066 172.166 255.079 169.619C254.13 167.047 252.324 165.47 249.66 164.889C246.995 164.307 244.699 164.971 242.771 166.882C240.844 168.792 239.431 171.8 238.534 175.906C237.645 179.981 237.677 183.289 238.633 185.829ZM285.725 203.878C283.538 203.4 281.673 202.484 280.13 201.128C278.587 199.773 277.505 198.122 276.883 196.175C276.294 194.208 276.236 192.144 276.708 189.983C277.179 187.823 278.087 185.998 279.431 184.509C280.807 182.999 282.48 181.95 284.447 181.361C286.415 180.772 288.492 180.717 290.679 181.194C292.894 181.678 294.772 182.598 296.315 183.953C297.858 185.309 298.941 186.96 299.562 188.906C300.19 190.826 300.271 192.852 299.805 194.985C299.333 197.146 298.406 198.994 297.023 200.531C295.647 202.041 293.972 203.104 291.998 203.72C290.031 204.309 287.94 204.362 285.725 203.878ZM286.376 201.092C287.997 201.446 289.521 201.397 290.949 200.945C292.405 200.499 293.639 199.707 294.651 198.57C295.663 197.433 296.352 196.028 296.718 194.353C297.083 192.679 297.043 191.114 296.597 189.659C296.151 188.203 295.357 186.983 294.214 185.998C293.077 184.986 291.698 184.303 290.078 183.949C288.458 183.595 286.92 183.641 285.464 184.087C284.042 184.512 282.824 185.293 281.812 186.43C280.8 187.567 280.111 188.972 279.745 190.647C279.38 192.321 279.42 193.886 279.866 195.341C280.312 196.797 281.104 198.031 282.24 199.043C283.377 200.055 284.756 200.738 286.376 201.092ZM305.348 184.78L324.062 188.867L323.451 191.662L315.593 189.946L311.417 209.065L308.38 208.401L312.555 189.282L304.737 187.575L305.348 184.78ZM332.646 214.125C330.648 213.689 328.901 213.01 327.404 212.089C325.941 211.147 324.787 210.146 323.944 209.084L325.479 206.916C326.394 207.908 327.473 208.794 328.717 209.575C329.967 210.329 331.348 210.871 332.86 211.202C334.697 211.603 336.235 211.557 337.474 211.063C338.746 210.549 339.512 209.698 339.772 208.51C340.019 207.375 339.701 206.372 338.816 205.5C337.959 204.634 336.679 204.015 334.978 203.643L330.603 202.688L331.072 200.541L335.447 201.496C338.93 202.257 340.929 201.463 341.442 199.114C341.713 197.871 341.399 196.784 340.499 195.852C339.599 194.92 338.218 194.25 336.354 193.844C335.058 193.56 333.772 193.492 332.495 193.637C331.251 193.762 329.969 194.062 328.649 194.537L328.114 192.129C330.982 190.916 334.022 190.661 337.236 191.362C339.855 191.935 341.841 192.948 343.192 194.403C344.549 195.831 345.01 197.545 344.573 199.543C344.308 200.758 343.776 201.703 342.978 202.377C342.18 203.052 341.183 203.471 339.988 203.634C341.109 204.331 341.915 205.172 342.407 206.157C342.927 207.147 343.051 208.264 342.779 209.506C342.49 210.829 341.845 211.905 340.844 212.733C339.875 213.54 338.657 214.066 337.189 214.311C335.754 214.535 334.24 214.473 332.646 214.125ZM359.992 204.056C362.99 204.711 365.195 205.886 366.607 207.58C368.046 209.281 368.509 211.306 367.996 213.655C367.495 215.951 366.249 217.574 364.259 218.526C362.269 219.477 359.788 219.629 356.818 218.98L348.069 217.069L352.855 195.156L355.892 195.819L354.362 202.827L359.992 204.056ZM371.441 222.174L376.227 200.26L379.224 200.915L374.438 222.828L371.441 222.174ZM357.276 216.492C359.356 216.946 361.07 216.868 362.42 216.257C363.77 215.646 364.616 214.558 364.958 212.992C365.306 211.399 364.994 210.043 364.022 208.925C363.055 207.781 361.519 206.978 359.412 206.518L353.822 205.297L351.646 215.262L357.276 216.492ZM398.472 216.28C400.081 216.942 401.252 217.863 401.985 219.041C402.751 220.199 402.977 221.493 402.665 222.924C402.269 224.734 401.231 225.992 399.548 226.7C397.866 227.408 395.769 227.487 393.258 226.939L382.402 224.568L387.188 202.654L397.558 204.919C399.907 205.432 401.634 206.332 402.739 207.621C403.85 208.882 404.22 210.363 403.848 212.064C403.565 213.36 402.948 214.371 401.997 215.097C401.08 215.802 399.904 216.196 398.472 216.28ZM389.625 206.072L388.147 212.836L395.438 214.429C396.896 214.747 398.082 214.695 398.995 214.272C399.908 213.849 400.485 213.084 400.727 211.977C400.957 210.923 400.729 210.025 400.043 209.281C399.389 208.516 398.266 207.959 396.673 207.611L389.625 206.072ZM393.738 224.158C395.412 224.523 396.746 224.504 397.74 224.098C398.761 223.699 399.392 222.945 399.634 221.838C399.864 220.785 399.598 219.864 398.837 219.075C398.103 218.293 396.979 217.736 395.467 217.406L387.528 215.672L386.042 222.477L393.738 224.158ZM418.193 232.809C416.006 232.331 414.14 231.415 412.598 230.059C411.055 228.704 409.972 227.053 409.351 225.106C408.762 223.139 408.703 221.075 409.175 218.914C409.647 216.754 410.555 214.929 411.898 213.44C413.275 211.93 414.947 210.881 416.915 210.292C418.882 209.703 420.96 209.648 423.147 210.126C425.361 210.609 427.24 211.529 428.783 212.884C430.326 214.24 431.408 215.891 432.03 217.837C432.657 219.757 432.738 221.783 432.272 223.916C431.801 226.077 430.873 227.925 429.491 229.462C428.114 230.972 426.439 232.035 424.466 232.651C422.498 233.24 420.407 233.293 418.193 232.809ZM418.844 230.023C420.464 230.377 421.988 230.328 423.417 229.876C424.872 229.43 426.106 228.638 427.118 227.501C428.13 226.364 428.819 224.959 429.185 223.284C429.551 221.61 429.511 220.045 429.065 218.59C428.619 217.135 427.824 215.914 426.681 214.929C425.544 213.917 424.166 213.234 422.545 212.88C420.925 212.526 419.387 212.572 417.932 213.018C416.509 213.443 415.292 214.224 414.28 215.361C413.268 216.498 412.579 217.904 412.213 219.578C411.847 221.252 411.888 222.817 412.334 224.272C412.78 225.728 413.571 226.962 414.708 227.974C415.845 228.986 417.224 229.669 418.844 230.023ZM452.582 228.097C454.191 228.76 455.362 229.681 456.095 230.859C456.861 232.017 457.088 233.311 456.775 234.742C456.38 236.552 455.341 237.81 453.659 238.518C451.976 239.225 449.88 239.305 447.368 238.756L436.513 236.386L441.299 214.472L451.668 216.737C454.017 217.25 455.745 218.15 456.85 219.438C457.961 220.699 458.33 222.181 457.959 223.882C457.676 225.178 457.059 226.189 456.108 226.915C455.19 227.62 454.015 228.014 452.582 228.097ZM443.735 217.89L442.258 224.654L449.549 226.247C451.007 226.565 452.192 226.513 453.105 226.09C454.018 225.667 454.596 224.902 454.837 223.794C455.067 222.741 454.839 221.843 454.153 221.099C453.5 220.334 452.376 219.777 450.783 219.429L443.735 217.89ZM447.848 235.976C449.523 236.341 450.857 236.321 451.85 235.916C452.871 235.516 453.503 234.763 453.744 233.656C453.975 232.603 453.709 231.682 452.947 230.893C452.213 230.11 451.09 229.554 449.578 229.224L441.638 227.49L440.152 234.295L447.848 235.976Z" fill="white"/>
</g>
</svg>
