<svg width="93" height="92" viewBox="0 0 133 132" fill="none" xmlns="http://www.w3.org/2000/svg">
<path d="M82.3999 104.604C52.5999 120.204 17.6999 106.604 4.99986 77.1038C-7.00014 49.1038 6.99989 15.6038 35.3999 4.30378C67.8999 -8.59622 101.5 11.0038 109.6 41.0038C110 40.6038 110.4 40.3038 110.7 40.0038C114 36.7038 117.3 33.4038 120.6 30.1038C121.8 28.9038 123.2 28.6038 124.7 29.1038C126.2 29.6038 127.2 30.7038 127.5 32.3038C127.8 33.9038 127.1 35.1038 126 36.2038C121.7 40.5038 117.4 44.8038 113.1 49.1038C111.9 50.3038 111.4 51.3038 111.5 53.1038C112 60.5038 110.8 67.7038 108.2 74.7038C107.5 76.6038 106.6 78.6038 105.7 80.4038C105.2 81.4038 105.3 81.9038 106.1 82.7038C113.1 89.6038 120.1 96.6038 127.1 103.604C133.7 110.204 133.9 120.104 127.5 126.504C121 133.004 110.5 133.004 104 126.504C97.0999 119.604 90.1999 112.704 83.2999 105.804C82.9999 105.504 82.6999 105.004 82.3999 104.604ZM94.4999 56.4038C96.5999 54.2038 98.5998 52.1038 100.7 50.2038C102.3 48.8038 102.5 47.4038 102.1 45.4038C96.4998 19.8038 70.2999 3.6038 44.8999 10.0038C20.7999 16.1038 5.89981 38.8038 9.69981 63.4038C13.6998 89.3038 39.3998 107.304 65.0998 102.104C84.7998 98.1038 99.3998 83.0038 102.6 63.4038C102.8 62.2038 102.9 61.0038 103 59.8038C102.9 59.8038 102.8 59.7038 102.6 59.7038C101 61.4038 99.2998 63.1038 97.6998 64.7038C95.5998 66.8038 93.3999 66.8038 91.2999 64.7038C87.8999 61.3038 84.5998 58.0038 81.1998 54.6038C80.1998 53.6038 79.2999 52.5038 77.9999 51.1038C77.5999 51.8038 77.3999 52.3038 76.9999 52.7038C70.3999 59.3038 63.8999 65.9038 57.2999 72.4038C55.1999 74.5038 53.5998 74.7038 51.1998 72.8038C49.5998 71.5038 48.0998 69.9038 46.5998 68.4038C44.9998 66.7038 43.4998 65.0038 41.6998 63.1038C41.0998 63.9038 40.8999 64.3038 40.4999 64.6038C36.3999 68.7038 32.2998 72.8038 28.1998 76.9038C26.4998 78.6038 24.0999 78.6038 22.4999 77.1038C20.7999 75.5038 20.5999 73.1038 22.2999 71.4038C27.7999 65.8038 33.3999 60.3038 38.8999 54.8038C40.4999 53.3038 42.5999 53.3038 44.2999 54.8038C44.7999 55.2038 45.1998 55.7038 45.6998 56.1038C48.3998 58.8038 51.0998 61.6038 54.0998 64.6038C54.4998 64.0038 54.6999 63.5038 54.9999 63.2038C61.4999 56.7038 67.8999 50.2038 74.3999 43.8038C77.0999 41.1038 78.9998 41.1038 81.6998 43.8038C85.8998 47.8038 90.0999 52.0038 94.4999 56.4038ZM89.1998 100.204C96.0998 107.204 103.2 114.504 110.4 121.604C112.2 123.404 114.6 123.804 117.1 123.204C123.4 121.704 125.6 114.304 121.1 109.604C114.4 102.704 107.5 96.0038 100.8 89.2038C100.6 89.0038 100.5 88.9038 100.5 88.9038C96.5999 92.9038 92.8998 96.6038 89.1998 100.204Z" fill="#C60635"/>
</svg>
