<svg width="224" height="278" viewBox="0 0 354 348" fill="none" xmlns="http://www.w3.org/2000/svg">
<path d="M208.5 143.5C202.9 156.9 197.1 170.3 191.5 183.7C196.5 193 201.2 202.4 206.6 211.4C201.1 221.2 195.6 231 190.3 240.9C193.4 247.8 198.9 252.6 203.9 258.1C200.4 263.9 196.9 269.5 193 275.1C170.9 278.6 149.1 282.8 127.2 287.3C117.7 289.2 109 281.8 109.2 272.2C111.4 197.9 95.1001 125.7 55.9001 62.2001C50.7001 53.8001 54.1 42.7001 63.1 38.6001C94.2 24.6001 126.2 13.3001 159.7 6.1001C156.9 19.7001 154.2 33.3001 151.5 46.9001C166.7 55.3001 181 64.7001 194.9 75.0001C189.8 89.3001 184.4 103.4 178.7 117.4C188.9 126 198.8 134.7 208.5 143.5Z" stroke="#C60635" stroke-width="6" stroke-miterlimit="10"/>
<path d="M282.2 14.7001C290.4 16.1001 296.8 22.6001 298 30.8001C304 71.4001 307 112.4 303.3 153.3C300.1 188.4 292.2 222.3 282.2 255.9C279 266.7 269 274.1 257.7 273.9C238.3 273.7 218.9 274.1 199.4 275.1C204.4 270 209 264.5 213.3 258.9C210 252.4 206.5 246 202.9 239.7C210.5 230.7 217.8 221.5 224.5 211.8C221.4 201.7 218.1 191.6 214.5 181.6C222.4 169.9 229.8 158 236.2 145.5C229.1 134.4 221.5 124 213.2 113.8C220.9 101.8 227.7 89.5001 233.5 76.6001C222.6 63.2001 211.1 50.6001 198.6 38.6001C203.7 27.3001 208.2 15.8001 212.4 4.1001C235.9 6.5001 259.1 10.7001 282.2 14.7001Z" stroke="#C60635" stroke-width="6" stroke-miterlimit="10"/>
<path d="M348 302.1C326 314.8 316.6 316.1 310.7 342.4C302.4 336.5 303.3 337.3 294.7 329.8C298.2 303.8 305.5 297.6 326 283.4C333.4 289.6 340.7 295.8 348 302.1Z" stroke="#C60635" stroke-width="6" stroke-miterlimit="10"/>
<path d="M7.80005 205.6C30.3 215.9 46 216.6 47.8 243.1C58.3 236.6 57.1 237.6 65.7 231.3C68.1 209.2 57.8 204 41.8 191.9C30.5 196.6 19.2 201.1 7.80005 205.6Z" stroke="#C60635" stroke-width="6" stroke-miterlimit="10"/>
</svg>
