<svg width="62" height="62" viewBox="0 0 102 102" fill="none" xmlns="http://www.w3.org/2000/svg">
<path d="M101.6 14.1039V87.8039C101.6 95.3039 95.5 101.404 88 101.404H14.3C6.79996 101.404 0.699982 95.3039 0.699982 87.8039V14.1039C0.699982 6.60388 6.79996 0.503906 14.3 0.503906H88C95.5 0.503906 101.6 6.60388 101.6 14.1039Z" fill="#2787F5"/>
<path d="M75.3 54.0043C74.1 52.5043 74.5 51.8043 75.3 50.5043C75.3 50.5043 85.0999 37.0043 86.0999 32.4043C86.5999 30.7043 86.1 29.5043 83.7 29.5043H75.7C73.7 29.5043 72.7 30.6043 72.2 31.7043C72.2 31.7043 68.1 41.4043 62.4 47.8043C60.5 49.6043 59.7 50.2043 58.7 50.2043C58.2 50.2043 57.4 49.6043 57.4 47.9043V32.3043C57.4 30.3043 56.7999 29.4043 55.0999 29.4043H42.5C41.2 29.4043 40.5 30.3043 40.5 31.2043C40.5 33.1043 43.4 33.5043 43.7 38.9043V50.5043C43.7 53.0043 43.2 53.5043 42.2 53.5043C39.5 53.5043 32.9 43.7043 29 32.5043C28.2 30.3043 27.4 29.5043 25.4 29.5043H17.4C15.1 29.5043 14.7 30.6043 14.7 31.7043C14.7 33.8043 17.4 44.1043 27.3 57.8043C33.9 67.1043 43.2 72.2043 51.7 72.2043C56.8 72.2043 57.4 71.1043 57.4 69.2043C57.4 60.3043 56.9 59.5043 59.5 59.5043C60.7 59.5043 62.7 60.1042 67.5 64.6042C72.9 69.9042 73.8 72.3043 76.9 72.3043H84.9C87.2 72.3043 88.3 71.2043 87.7 69.0043C86.1 64.2043 75.8 54.7043 75.3 54.0043Z" fill="white"/>
</svg>
