<svg width="171" height="42" viewBox="0 0 211 52" fill="none" xmlns="http://www.w3.org/2000/svg">
<path d="M2.77148 2.10229H46.2715C47.2715 2.10229 48.0715 2.90234 48.0715 3.90234V12.5023C48.0715 13.6023 47.5715 14.7023 46.6715 15.5023L22.2715 35.9023H46.1715C47.1715 35.9023 47.9715 36.7023 47.9715 37.7023V47.5023C47.9715 48.5023 47.1715 49.3023 46.1715 49.3023H2.67151C1.67151 49.3023 0.871521 48.5023 0.871521 47.5023V39.0023C0.871521 37.9023 1.37148 36.8023 2.27148 36.0023L26.6715 15.6023H2.77148C1.77148 15.6023 0.971497 14.8023 0.971497 13.7023V3.90234C0.971497 2.90234 1.77148 2.10229 2.77148 2.10229ZM78.4715 0.402344C83.4715 0.402344 87.9715 1.5023 91.7715 3.60229C95.4715 5.70229 98.5715 8.70234 100.572 12.4023C102.672 16.1023 103.771 20.6023 103.771 25.7023C103.771 30.7023 102.672 35.2023 100.572 39.0023C98.4715 42.7023 95.4715 45.8023 91.7715 47.8023C88.0715 49.8023 83.5715 51.0023 78.4715 51.0023C73.3715 51.0023 68.9715 49.9023 65.1715 47.8023C61.3715 45.7023 58.3715 42.7023 56.3715 39.0023C54.2715 35.3023 53.1715 30.8023 53.1715 25.7023C53.1715 20.7023 54.2715 16.2023 56.3715 12.4023C58.4715 8.70234 61.4715 5.60229 65.1715 3.60229C68.9715 1.5023 73.4715 0.402344 78.4715 0.402344ZM78.4715 13.9023C76.0715 13.9023 73.9715 14.4023 72.1715 15.4023C70.4715 16.3023 69.0715 17.7023 68.0715 19.5023C67.1715 21.2023 66.5715 23.4023 66.5715 25.8023C66.5715 28.2023 67.0715 30.3023 68.0715 32.1023C68.9715 33.8023 70.3715 35.2023 72.1715 36.2023C73.8715 37.1023 76.0715 37.7023 78.4715 37.7023C80.8715 37.7023 82.9715 37.2023 84.7715 36.2023C86.4715 35.3023 87.8715 33.9023 88.8715 32.1023C89.7715 30.4023 90.3715 28.2023 90.3715 25.8023C90.3715 23.4023 89.8715 21.3023 88.8715 19.5023C87.9715 17.8023 86.5715 16.4023 84.7715 15.4023C82.9715 14.4023 80.8715 13.9023 78.4715 13.9023ZM132.471 0.402344C137.471 0.402344 141.971 1.5023 145.771 3.60229C149.471 5.70229 152.572 8.70234 154.572 12.4023C156.672 16.1023 157.771 20.6023 157.771 25.7023C157.771 30.7023 156.672 35.2023 154.572 39.0023C152.472 42.7023 149.471 45.8023 145.771 47.8023C142.071 49.8023 137.572 51.0023 132.471 51.0023C127.471 51.0023 122.972 49.9023 119.172 47.8023C115.372 45.7023 112.372 42.7023 110.372 39.0023C108.372 35.3023 107.172 30.8023 107.172 25.7023C107.172 20.7023 108.272 16.2023 110.372 12.4023C112.472 8.60234 115.472 5.60229 119.172 3.60229C122.972 1.5023 127.471 0.402344 132.471 0.402344ZM132.471 13.9023C130.072 13.9023 127.972 14.4023 126.172 15.4023C124.472 16.3023 123.072 17.7023 122.072 19.5023C121.072 21.3023 120.572 23.4023 120.572 25.8023C120.572 28.2023 121.072 30.3023 122.072 32.1023C122.972 33.8023 124.372 35.2023 126.172 36.2023C127.872 37.1023 130.072 37.7023 132.471 37.7023C134.871 37.7023 136.971 37.2023 138.771 36.2023C140.471 35.3023 141.872 33.9023 142.872 32.1023C143.772 30.4023 144.372 28.2023 144.372 25.8023C144.372 23.4023 143.872 21.3023 142.872 19.5023C141.872 17.7023 140.571 16.4023 138.771 15.4023C136.971 14.4023 134.871 13.9023 132.471 13.9023ZM210.072 3.90234V47.4023C210.072 48.4023 209.271 49.2023 208.271 49.2023H199.672C198.572 49.2023 197.472 48.7023 196.672 47.8023L176.271 23.5023V47.4023C176.271 48.4023 175.472 49.2023 174.372 49.2023H164.672C163.672 49.2023 162.872 48.4023 162.872 47.4023V3.90234C162.872 2.90234 163.672 2.10229 164.672 2.10229H173.271C174.371 2.10229 175.471 2.60232 176.271 3.50232L196.672 27.9023V4.00232C196.672 3.00232 197.471 2.20233 198.471 2.20233H208.271C209.171 2.10233 210.072 2.90234 210.072 3.90234Z" fill="url(#paint0_linear)"/>
<defs>
<linearGradient id="paint0_linear" x1="162.661" y1="25.6886" x2="46.5314" y2="25.6886" gradientUnits="userSpaceOnUse">
<stop stop-color="#6339F5"/>
<stop offset="1" stop-color="#3D3F55"/>
</linearGradient>
</defs>
</svg>
