<svg width="17" height="17" viewBox="0 0 17 17" fill="none" xmlns="http://www.w3.org/2000/svg">
<path d="M15.3193 15.5157C7.52049 15.5157 1.17261 9.16777 1.17261 1.36894C1.17261 0.894912 1.55595 0.511566 2.02998 0.511566H4.936C5.16271 0.511566 5.38117 0.60225 5.54193 0.763008C5.70269 0.923766 5.79337 1.14223 5.79337 1.36894C5.79337 2.37883 5.95001 3.37224 6.26328 4.3203C6.36221 4.63357 6.27977 4.97157 6.04894 5.19828L6.02833 5.21889L4.54853 7.18509L4.67219 7.41592C5.79749 9.53875 7.1289 10.866 9.2641 12.0078L9.49493 12.1315L11.5106 10.6105L11.5312 10.5899C11.659 10.458 11.8651 10.3838 12.0835 10.3838C12.1784 10.3838 12.2732 10.4003 12.3597 10.4291C13.3078 10.7424 14.3012 10.899 15.3152 10.899C15.7892 10.899 16.1726 11.2824 16.1726 11.7564V14.6542C16.1767 15.1323 15.7934 15.5157 15.3193 15.5157Z" stroke="#929292" stroke-miterlimit="10" stroke-linecap="round" stroke-linejoin="round"/>
</svg>
